<svg width="240" height="300" viewBox="0 0 240 300" fill="none" xmlns="http://www.w3.org/2000/svg">
<rect width="240" height="300" fill="#FF6B00"/>
<path d="M16.9574 161.355C16.4551 121.251 11.5314 88.8534 30.1482 68.3555H50.7947C61.8477 87.1219 63.6066 116.737 68 161.355H16.9574Z" fill="white" stroke="black"/>
<path d="M57.7503 54.5777C57.7503 63.8136 50.2706 71.2999 41.0449 71.2999C31.8192 71.2999 24.3395 63.8136 24.3395 54.5777C24.3395 45.3418 31.8192 37.8555 41.0449 37.8555C50.2706 37.8555 57.7503 45.3418 57.7503 54.5777Z" fill="white" stroke="black"/>
<g clip-path="url(#clip0_501_104)">
<path d="M223.043 164.355C223.545 124.251 228.469 91.8534 209.852 71.3555H189.205C178.152 90.1219 176.393 119.737 172 164.355H223.043Z" fill="white" stroke="black"/>
<path d="M182.25 57.5777C182.25 66.8136 189.729 74.2999 198.955 74.2999C208.181 74.2999 215.66 66.8136 215.66 57.5777C215.66 48.3418 208.181 40.8555 198.955 40.8555C189.729 40.8555 182.25 48.3418 182.25 57.5777Z" fill="white" stroke="black"/>
</g>
<path d="M176.151 37.7942C176.649 37.5567 176.861 36.96 176.624 36.4614L172.754 28.3358C172.516 27.8372 171.92 27.6254 171.421 27.8629C170.922 28.1004 170.711 28.6971 170.948 29.1957L174.388 36.4185L167.165 39.8582C166.667 40.0956 166.455 40.6924 166.692 41.191C166.93 41.6896 167.526 41.9013 168.025 41.6639L176.151 37.7942ZM57.7739 37.8352C81.4225 29.552 100.248 25.8165 118.422 26.0069C136.598 26.1973 154.193 30.3143 175.386 37.8338L176.055 35.9489C154.752 28.3905 136.924 24.2006 118.443 24.007C99.9618 23.8134 80.8967 27.617 57.1127 35.9476L57.7739 37.8352Z" fill="white"/>
<path d="M91.3525 249.176H83.6084L81.8691 254H79.3555L86.4141 235.516H88.5469L95.6182 254H93.1172L91.3525 249.176ZM84.3447 247.17H90.6289L87.4805 238.524L84.3447 247.17ZM100.696 236.938V240.264H103.261V242.079H100.696V250.598C100.696 251.148 100.811 251.562 101.039 251.842C101.268 252.113 101.657 252.248 102.207 252.248C102.478 252.248 102.85 252.197 103.324 252.096V254C102.706 254.169 102.105 254.254 101.521 254.254C100.472 254.254 99.6807 253.937 99.1475 253.302C98.6143 252.667 98.3477 251.766 98.3477 250.598V242.079H95.8467V240.264H98.3477V236.938H100.696ZM109.202 236.938V240.264H111.767V242.079H109.202V250.598C109.202 251.148 109.316 251.562 109.545 251.842C109.773 252.113 110.163 252.248 110.713 252.248C110.984 252.248 111.356 252.197 111.83 252.096V254C111.212 254.169 110.611 254.254 110.027 254.254C108.978 254.254 108.187 253.937 107.653 253.302C107.12 252.667 106.854 251.766 106.854 250.598V242.079H104.353V240.264H106.854V236.938H109.202ZM123.002 254C122.867 253.729 122.757 253.247 122.672 252.553C121.58 253.687 120.277 254.254 118.762 254.254C117.408 254.254 116.295 253.873 115.423 253.111C114.56 252.341 114.128 251.368 114.128 250.191C114.128 248.761 114.67 247.652 115.753 246.865C116.845 246.07 118.377 245.672 120.349 245.672H122.634V244.593C122.634 243.772 122.388 243.12 121.897 242.638C121.407 242.147 120.683 241.901 119.727 241.901C118.889 241.901 118.186 242.113 117.619 242.536C117.052 242.959 116.769 243.471 116.769 244.072H114.407C114.407 243.387 114.648 242.727 115.131 242.092C115.622 241.449 116.282 240.941 117.111 240.568C117.949 240.196 118.868 240.01 119.866 240.01C121.449 240.01 122.689 240.408 123.586 241.203C124.483 241.99 124.949 243.078 124.982 244.466V250.788C124.982 252.049 125.143 253.052 125.465 253.797V254H123.002ZM119.104 252.21C119.841 252.21 120.539 252.02 121.199 251.639C121.859 251.258 122.338 250.763 122.634 250.153V247.335H120.793C117.915 247.335 116.477 248.177 116.477 249.861C116.477 250.598 116.722 251.173 117.213 251.588C117.704 252.003 118.334 252.21 119.104 252.21ZM134.174 252.337C135.012 252.337 135.744 252.083 136.37 251.575C136.996 251.067 137.343 250.433 137.411 249.671H139.633C139.59 250.458 139.32 251.207 138.82 251.918C138.321 252.629 137.652 253.196 136.814 253.619C135.985 254.042 135.105 254.254 134.174 254.254C132.303 254.254 130.814 253.632 129.705 252.388C128.605 251.135 128.055 249.425 128.055 247.259V246.865C128.055 245.528 128.3 244.339 128.791 243.298C129.282 242.257 129.984 241.449 130.898 240.873C131.821 240.298 132.909 240.01 134.161 240.01C135.701 240.01 136.979 240.471 137.995 241.394C139.019 242.316 139.565 243.514 139.633 244.986H137.411C137.343 244.098 137.005 243.37 136.396 242.803C135.795 242.227 135.05 241.939 134.161 241.939C132.968 241.939 132.041 242.371 131.381 243.234C130.729 244.089 130.403 245.329 130.403 246.954V247.398C130.403 248.981 130.729 250.2 131.381 251.055C132.033 251.91 132.964 252.337 134.174 252.337ZM146.107 247.64L144.635 249.176V254H142.286V234.5H144.635V246.294L145.892 244.783L150.17 240.264H153.026L147.682 246.002L153.648 254H150.894L146.107 247.64Z" fill="white"/>
<path d="M89.8887 48.1357H93.457V49.6738H89.8887V53.7168H88.2539V49.6738H84.6855V48.1357H88.2539V44.4004H89.8887V48.1357ZM103.661 55H95.2764V53.8311L99.7061 48.9092C100.362 48.165 100.813 47.5615 101.06 47.0986C101.312 46.6299 101.438 46.1465 101.438 45.6484C101.438 44.9805 101.235 44.4326 100.831 44.0049C100.427 43.5771 99.8877 43.3633 99.2139 43.3633C98.4053 43.3633 97.7754 43.5947 97.3242 44.0576C96.8789 44.5146 96.6562 45.1533 96.6562 45.9736H95.0303C95.0303 44.7959 95.4082 43.8438 96.1641 43.1172C96.9258 42.3906 97.9424 42.0273 99.2139 42.0273C100.403 42.0273 101.344 42.3408 102.035 42.9678C102.727 43.5889 103.072 44.418 103.072 45.4551C103.072 46.7148 102.27 48.2148 100.664 49.9551L97.2363 53.6729H103.661V55ZM112.222 43.1875V45.4902H113.997V46.7471H112.222V52.6445C112.222 53.0254 112.301 53.3125 112.459 53.5059C112.617 53.6934 112.887 53.7871 113.268 53.7871C113.455 53.7871 113.713 53.752 114.041 53.6816V55C113.613 55.1172 113.197 55.1758 112.793 55.1758C112.066 55.1758 111.519 54.9561 111.149 54.5166C110.78 54.0771 110.596 53.4531 110.596 52.6445V46.7471H108.864V45.4902H110.596V43.1875H112.222ZM121.775 54.0596C121.143 54.8037 120.214 55.1758 118.989 55.1758C117.976 55.1758 117.202 54.8828 116.669 54.2969C116.142 53.7051 115.875 52.832 115.869 51.6777V45.4902H117.495V51.6338C117.495 53.0752 118.081 53.7959 119.253 53.7959C120.495 53.7959 121.321 53.333 121.731 52.4072V45.4902H123.357V55H121.811L121.775 54.0596ZM130.433 46.9492C130.187 46.9082 129.92 46.8877 129.633 46.8877C128.566 46.8877 127.843 47.3418 127.462 48.25V55H125.836V45.4902H127.418L127.444 46.5889C127.978 45.7393 128.733 45.3145 129.712 45.3145C130.028 45.3145 130.269 45.3555 130.433 45.4375V46.9492ZM133.474 45.4902L133.526 46.6855C134.253 45.7715 135.202 45.3145 136.374 45.3145C138.384 45.3145 139.397 46.4482 139.415 48.7158V55H137.789V48.707C137.783 48.0215 137.625 47.5146 137.314 47.1865C137.01 46.8584 136.532 46.6943 135.882 46.6943C135.354 46.6943 134.892 46.835 134.493 47.1162C134.095 47.3975 133.784 47.7666 133.562 48.2236V55H131.936V45.4902H133.474ZM147.404 52.4775C147.404 52.0381 147.237 51.6982 146.903 51.458C146.575 51.2119 145.998 51.001 145.172 50.8252C144.352 50.6494 143.698 50.4385 143.212 50.1924C142.731 49.9463 142.374 49.6533 142.14 49.3135C141.911 48.9736 141.797 48.5693 141.797 48.1006C141.797 47.3213 142.125 46.6621 142.781 46.123C143.443 45.584 144.287 45.3145 145.312 45.3145C146.391 45.3145 147.264 45.5928 147.932 46.1494C148.605 46.7061 148.942 47.418 148.942 48.2852H147.308C147.308 47.8398 147.117 47.4561 146.736 47.1338C146.361 46.8115 145.887 46.6504 145.312 46.6504C144.721 46.6504 144.258 46.7793 143.924 47.0371C143.59 47.2949 143.423 47.6318 143.423 48.0479C143.423 48.4404 143.578 48.7363 143.889 48.9355C144.199 49.1348 144.759 49.3252 145.567 49.5068C146.382 49.6885 147.041 49.9053 147.545 50.1572C148.049 50.4092 148.421 50.7139 148.661 51.0713C148.907 51.4229 149.03 51.8535 149.03 52.3633C149.03 53.2129 148.69 53.8955 148.011 54.4111C147.331 54.9209 146.449 55.1758 145.365 55.1758C144.604 55.1758 143.93 55.041 143.344 54.7715C142.758 54.502 142.298 54.127 141.964 53.6465C141.636 53.1602 141.472 52.6357 141.472 52.0732H143.098C143.127 52.6182 143.344 53.0518 143.748 53.374C144.158 53.6904 144.697 53.8486 145.365 53.8486C145.98 53.8486 146.473 53.7256 146.842 53.4795C147.217 53.2275 147.404 52.8936 147.404 52.4775Z" fill="white"/>
<defs>
<clipPath id="clip0_501_104">
<rect width="52" height="124" fill="white" transform="matrix(-1 0 0 1 224 40.3555)"/>
</clipPath>
</defs>
</svg>
