<svg width="256" height="256" viewBox="0 0 256 256" fill="none" xmlns="http://www.w3.org/2000/svg">
<rect width="256" height="256" rx="20" fill="#A50000"/>
<g filter="url(#filter0_d_401_2)">
<path d="M46.3094 125.306C53.9682 62.3529 145.106 60.117 145.106 60.117C143.934 51.429 144.31 47.3137 148.82 39.9936C165.647 34.1638 174.039 35.1989 188.19 39.9936C193.642 52.4485 195.581 59.8025 197.105 73.5325C210.543 90.5748 215.66 115.433 214.933 145.082C155.645 153.223 128.626 152.718 69.3376 145.082C50.4292 144.572 44.4999 141.141 46.3094 125.306Z" fill="#F58722"/>
<path d="M46.3094 125.306C53.9682 62.3529 145.106 60.117 145.106 60.117C143.934 51.429 144.31 47.3137 148.82 39.9936C165.647 34.1638 174.039 35.1989 188.19 39.9936C193.642 52.4485 195.581 59.8025 197.105 73.5325C210.543 90.5748 215.66 115.433 214.933 145.082C155.645 153.223 128.626 152.718 69.3376 145.082C50.4292 144.572 44.4999 141.141 46.3094 125.306ZM46.3094 125.306C45.5709 131.061 47.4425 116.409 46.3094 125.306Z" stroke="black"/>
</g>
<path d="M138 30L146.239 44.6915C147.432 42.1878 148.316 40.8719 151 39.75L138 30Z" fill="#F58722"/>
<path d="M146.412 45L138 30L151 39.75C148.208 40.9171 147.363 42.2942 146.093 45" stroke="black"/>
<path d="M182.002 24C184.425 30.1147 185.698 32.48 188 39C182.462 37.2863 180.846 37.3071 181.011 36.8571C181.149 32.793 181.433 29.802 182.002 24Z" fill="#F58722" stroke="black"/>
<circle cx="157.5" cy="52.5" r="7.5" fill="#A50000"/>
<ellipse cx="180" cy="52.5" rx="8" ry="7.5" fill="#A50000"/>
<g filter="url(#filter1_d_401_2)">
<path d="M32.069 119.474C33.7422 118.127 47.793 118 47.793 118C47.7926 118.737 47.0438 121.684 47.0438 121.684C41.9234 121.317 39.755 121.461 36.562 122.421C29.8575 128.754 29.2063 131.844 31.3209 138.632C35.7383 146.481 56.9289 149.609 57.5259 149.684C58.123 149.76 75.5711 151.696 80.7364 152.632C95.6343 154.284 89.7604 153.68 104.696 154.105C111.478 157.73 109.492 158.114 103.947 160C89.3009 159.375 79.5804 159.001 64.2648 157.053C60.42 156.563 41.803 152.632 40.3056 151.895C38.8081 151.158 27.4331 147.54 25.3302 139.368C24.2612 132.325 25.6054 126.773 32.069 119.474Z" fill="#F58722"/>
<path d="M32.069 119.474C33.7422 118.127 47.793 118 47.793 118C47.7926 118.737 47.0438 121.684 47.0438 121.684C41.9234 121.317 39.755 121.461 36.562 122.421C29.8575 128.754 29.2063 131.844 31.3209 138.632C35.7383 146.481 56.9289 149.609 57.5259 149.684C58.123 149.76 75.5711 151.696 80.7364 152.632C95.6343 154.284 89.7604 153.68 104.696 154.105C111.478 157.73 109.492 158.114 103.947 160C89.3009 159.375 79.5804 159.001 64.2648 157.053C60.42 156.563 41.803 152.632 40.3056 151.895C38.8081 151.158 27.4331 147.54 25.3302 139.368C24.2612 132.325 25.6054 126.773 32.069 119.474Z" stroke="black"/>
</g>
<path d="M39.5938 200.456H31.583V207.007H40.8887V209H29.1455V190.516H40.7617V192.521H31.583V198.463H39.5938V200.456ZM48.1631 200.278L51.21 195.264H53.9521L49.458 202.056L54.0918 209H51.375L48.2012 203.858L45.0273 209H42.2979L46.9316 202.056L42.4375 195.264H45.1543L48.1631 200.278ZM68.0566 202.284C68.0566 204.375 67.5785 206.059 66.6221 207.337C65.6657 208.615 64.3708 209.254 62.7373 209.254C61.07 209.254 59.7581 208.725 58.8018 207.667V214.281H56.4531V195.264H58.5986L58.7129 196.787C59.6693 195.602 60.998 195.01 62.6992 195.01C64.3496 195.01 65.653 195.632 66.6094 196.876C67.5742 198.12 68.0566 199.851 68.0566 202.068V202.284ZM65.708 202.018C65.708 200.469 65.3779 199.246 64.7178 198.349C64.0576 197.451 63.152 197.003 62.001 197.003C60.5791 197.003 59.5127 197.633 58.8018 198.895V205.458C59.5042 206.711 60.5791 207.337 62.0264 207.337C63.152 207.337 64.0449 206.893 64.7051 206.004C65.3737 205.107 65.708 203.778 65.708 202.018ZM73.6045 209H71.2559V189.5H73.6045V209ZM76.7529 202.005C76.7529 200.659 77.0153 199.449 77.54 198.374C78.0732 197.299 78.8096 196.47 79.749 195.886C80.6969 195.302 81.776 195.01 82.9863 195.01C84.8568 195.01 86.3675 195.657 87.5186 196.952C88.6781 198.247 89.2578 199.969 89.2578 202.119V202.284C89.2578 203.621 88.9997 204.823 88.4834 205.89C87.9756 206.948 87.2435 207.773 86.2871 208.365C85.3392 208.958 84.2474 209.254 83.0117 209.254C81.1497 209.254 79.639 208.606 78.4795 207.312C77.3285 206.017 76.7529 204.303 76.7529 202.17V202.005ZM79.1143 202.284C79.1143 203.808 79.4655 205.031 80.168 205.953C80.8789 206.876 81.8268 207.337 83.0117 207.337C84.2051 207.337 85.153 206.871 85.8555 205.94C86.5579 205.001 86.9092 203.689 86.9092 202.005C86.9092 200.498 86.5495 199.28 85.8301 198.349C85.1191 197.409 84.1712 196.939 82.9863 196.939C81.8268 196.939 80.8916 197.401 80.1807 198.323C79.4697 199.246 79.1143 200.566 79.1143 202.284ZM91.6318 202.018C91.6318 199.91 92.1312 198.217 93.1299 196.939C94.1286 195.653 95.4362 195.01 97.0527 195.01C98.6608 195.01 99.9346 195.56 100.874 196.66V189.5H103.223V209H101.064L100.95 207.527C100.011 208.678 98.7031 209.254 97.0273 209.254C95.4362 209.254 94.137 208.602 93.1299 207.299C92.1312 205.995 91.6318 204.294 91.6318 202.195V202.018ZM93.9805 202.284C93.9805 203.841 94.3021 205.06 94.9453 205.94C95.5885 206.821 96.4772 207.261 97.6113 207.261C99.1009 207.261 100.188 206.592 100.874 205.255V198.945C100.172 197.65 99.0924 197.003 97.6367 197.003C96.4857 197.003 95.5885 197.447 94.9453 198.336C94.3021 199.225 93.9805 200.541 93.9805 202.284ZM109.431 209H107.082V195.264H109.431V209ZM106.892 191.62C106.892 191.239 107.006 190.918 107.234 190.655C107.471 190.393 107.818 190.262 108.275 190.262C108.732 190.262 109.079 190.393 109.316 190.655C109.553 190.918 109.672 191.239 109.672 191.62C109.672 192.001 109.553 192.318 109.316 192.572C109.079 192.826 108.732 192.953 108.275 192.953C107.818 192.953 107.471 192.826 107.234 192.572C107.006 192.318 106.892 192.001 106.892 191.62ZM115.423 195.264L115.499 196.99C116.549 195.67 117.92 195.01 119.612 195.01C122.515 195.01 123.979 196.647 124.005 199.923V209H121.656V199.91C121.648 198.92 121.419 198.188 120.971 197.714C120.531 197.24 119.841 197.003 118.901 197.003C118.14 197.003 117.471 197.206 116.896 197.612C116.32 198.019 115.871 198.552 115.55 199.212V209H113.201V195.264H115.423ZM126.988 202.018C126.988 199.876 127.483 198.175 128.474 196.914C129.464 195.645 130.776 195.01 132.409 195.01C134.085 195.01 135.393 195.602 136.332 196.787L136.446 195.264H138.592V208.67C138.592 210.447 138.063 211.848 137.005 212.872C135.955 213.896 134.542 214.408 132.765 214.408C131.774 214.408 130.805 214.197 129.857 213.773C128.91 213.35 128.186 212.771 127.687 212.034L128.905 210.625C129.912 211.869 131.144 212.491 132.6 212.491C133.742 212.491 134.631 212.17 135.266 211.526C135.909 210.883 136.23 209.978 136.23 208.81V207.629C135.291 208.712 134.009 209.254 132.384 209.254C130.776 209.254 129.472 208.606 128.474 207.312C127.483 206.017 126.988 204.252 126.988 202.018ZM129.35 202.284C129.35 203.833 129.667 205.052 130.302 205.94C130.937 206.821 131.825 207.261 132.968 207.261C134.449 207.261 135.536 206.588 136.23 205.242V198.971C135.511 197.659 134.432 197.003 132.993 197.003C131.851 197.003 130.958 197.447 130.314 198.336C129.671 199.225 129.35 200.541 129.35 202.284ZM153.661 200.405L151.401 202.754V209H148.964V190.516H151.401V199.656L159.615 190.516H162.561L155.286 198.679L163.132 209H160.212L153.661 200.405ZM167.448 209H165.1V195.264H167.448V209ZM164.909 191.62C164.909 191.239 165.023 190.918 165.252 190.655C165.489 190.393 165.836 190.262 166.293 190.262C166.75 190.262 167.097 190.393 167.334 190.655C167.571 190.918 167.689 191.239 167.689 191.62C167.689 192.001 167.571 192.318 167.334 192.572C167.097 192.826 166.75 192.953 166.293 192.953C165.836 192.953 165.489 192.826 165.252 192.572C165.023 192.318 164.909 192.001 164.909 191.62ZM174.405 191.938V195.264H176.97V197.079H174.405V205.598C174.405 206.148 174.52 206.562 174.748 206.842C174.977 207.113 175.366 207.248 175.916 207.248C176.187 207.248 176.559 207.197 177.033 207.096V209C176.415 209.169 175.814 209.254 175.23 209.254C174.181 209.254 173.39 208.937 172.856 208.302C172.323 207.667 172.057 206.766 172.057 205.598V197.079H169.556V195.264H172.057V191.938H174.405ZM182.911 191.938V195.264H185.476V197.079H182.911V205.598C182.911 206.148 183.025 206.562 183.254 206.842C183.482 207.113 183.872 207.248 184.422 207.248C184.693 207.248 185.065 207.197 185.539 207.096V209C184.921 209.169 184.32 209.254 183.736 209.254C182.687 209.254 181.896 208.937 181.362 208.302C180.829 207.667 180.562 206.766 180.562 205.598V197.079H178.062V195.264H180.562V191.938H182.911ZM193.931 209.254C192.069 209.254 190.554 208.645 189.386 207.426C188.218 206.199 187.634 204.561 187.634 202.513V202.081C187.634 200.718 187.892 199.504 188.408 198.438C188.933 197.363 189.661 196.525 190.592 195.924C191.531 195.314 192.547 195.01 193.639 195.01C195.424 195.01 196.812 195.598 197.803 196.774C198.793 197.951 199.288 199.635 199.288 201.827V202.805H189.982C190.016 204.159 190.41 205.255 191.163 206.093C191.925 206.922 192.89 207.337 194.058 207.337C194.887 207.337 195.59 207.168 196.165 206.829C196.741 206.491 197.244 206.042 197.676 205.483L199.11 206.601C197.959 208.369 196.233 209.254 193.931 209.254ZM193.639 196.939C192.691 196.939 191.895 197.286 191.252 197.98C190.609 198.666 190.211 199.631 190.059 200.875H196.939V200.697C196.872 199.504 196.55 198.581 195.975 197.93C195.399 197.27 194.62 196.939 193.639 196.939ZM204.239 195.264L204.315 196.99C205.365 195.67 206.736 195.01 208.429 195.01C211.332 195.01 212.796 196.647 212.821 199.923V209H210.473V199.91C210.464 198.92 210.236 198.188 209.787 197.714C209.347 197.24 208.657 197.003 207.718 197.003C206.956 197.003 206.287 197.206 205.712 197.612C205.136 198.019 204.688 198.552 204.366 199.212V209H202.018V195.264H204.239ZM224.361 205.356C224.361 204.722 224.12 204.231 223.638 203.884C223.164 203.528 222.33 203.224 221.137 202.97C219.952 202.716 219.008 202.411 218.306 202.056C217.612 201.7 217.095 201.277 216.757 200.786C216.427 200.295 216.262 199.711 216.262 199.034C216.262 197.909 216.736 196.956 217.684 196.178C218.64 195.399 219.859 195.01 221.34 195.01C222.897 195.01 224.158 195.412 225.123 196.216C226.096 197.02 226.583 198.048 226.583 199.301H224.222C224.222 198.658 223.947 198.103 223.396 197.638C222.855 197.172 222.169 196.939 221.34 196.939C220.485 196.939 219.816 197.126 219.334 197.498C218.852 197.87 218.61 198.357 218.61 198.958C218.61 199.525 218.835 199.952 219.283 200.24C219.732 200.528 220.54 200.803 221.708 201.065C222.884 201.328 223.837 201.641 224.564 202.005C225.292 202.369 225.83 202.809 226.177 203.325C226.532 203.833 226.71 204.455 226.71 205.191C226.71 206.419 226.219 207.405 225.237 208.149C224.256 208.886 222.982 209.254 221.416 209.254C220.316 209.254 219.342 209.059 218.496 208.67C217.65 208.281 216.985 207.739 216.503 207.045C216.029 206.342 215.792 205.585 215.792 204.772H218.141C218.183 205.56 218.496 206.186 219.08 206.651C219.673 207.108 220.451 207.337 221.416 207.337C222.305 207.337 223.016 207.159 223.549 206.804C224.09 206.44 224.361 205.957 224.361 205.356Z" fill="white"/>
<defs>
<filter id="filter0_d_401_2" x="41.5" y="35.5" width="178" height="124" filterUnits="userSpaceOnUse" color-interpolation-filters="sRGB">
<feFlood flood-opacity="0" result="BackgroundImageFix"/>
<feColorMatrix in="SourceAlpha" type="matrix" values="0 0 0 0 0 0 0 0 0 0 0 0 0 0 0 0 0 0 127 0" result="hardAlpha"/>
<feOffset dy="4"/>
<feGaussianBlur stdDeviation="2"/>
<feComposite in2="hardAlpha" operator="out"/>
<feColorMatrix type="matrix" values="0 0 0 0 0 0 0 0 0 0 0 0 0 0 0 0 0 0 0.25 0"/>
<feBlend mode="normal" in2="BackgroundImageFix" result="effect1_dropShadow_401_2"/>
<feBlend mode="normal" in="SourceGraphic" in2="effect1_dropShadow_401_2" result="shape"/>
</filter>
<filter id="filter1_d_401_2" x="20.5" y="117.495" width="93" height="51.0081" filterUnits="userSpaceOnUse" color-interpolation-filters="sRGB">
<feFlood flood-opacity="0" result="BackgroundImageFix"/>
<feColorMatrix in="SourceAlpha" type="matrix" values="0 0 0 0 0 0 0 0 0 0 0 0 0 0 0 0 0 0 127 0" result="hardAlpha"/>
<feOffset dy="4"/>
<feGaussianBlur stdDeviation="2"/>
<feComposite in2="hardAlpha" operator="out"/>
<feColorMatrix type="matrix" values="0 0 0 0 0 0 0 0 0 0 0 0 0 0 0 0 0 0 0.25 0"/>
<feBlend mode="normal" in2="BackgroundImageFix" result="effect1_dropShadow_401_2"/>
<feBlend mode="normal" in="SourceGraphic" in2="effect1_dropShadow_401_2" result="shape"/>
</filter>
</defs>
</svg>
