<svg width="240" height="300" viewBox="0 0 240 300" fill="none" xmlns="http://www.w3.org/2000/svg">
<rect width="240" height="300" fill="white"/>
<path d="M60.7422 259.135C60.5137 261.09 59.79 262.601 58.5713 263.667C57.361 264.725 55.7487 265.254 53.7344 265.254C51.5508 265.254 49.7988 264.471 48.4785 262.905C47.1667 261.34 46.5107 259.245 46.5107 256.621V254.844C46.5107 253.126 46.8154 251.615 47.4248 250.312C48.0426 249.008 48.9144 248.009 50.04 247.315C51.1657 246.613 52.4691 246.262 53.9502 246.262C55.9137 246.262 57.488 246.812 58.6729 247.912C59.8577 249.004 60.5475 250.519 60.7422 252.457H58.292C58.0804 250.984 57.6191 249.918 56.9082 249.258C56.2057 248.598 55.2197 248.268 53.9502 248.268C52.3929 248.268 51.1699 248.843 50.2812 249.994C49.401 251.145 48.9609 252.783 48.9609 254.907V256.697C48.9609 258.703 49.3799 260.299 50.2178 261.483C51.0557 262.668 52.2279 263.261 53.7344 263.261C55.0885 263.261 56.1253 262.956 56.8447 262.347C57.5726 261.729 58.055 260.658 58.292 259.135H60.7422ZM72.1934 265C72.0579 264.729 71.9479 264.247 71.8633 263.553C70.7715 264.687 69.4681 265.254 67.9531 265.254C66.599 265.254 65.486 264.873 64.6143 264.111C63.751 263.341 63.3193 262.368 63.3193 261.191C63.3193 259.761 63.861 258.652 64.9443 257.865C66.0361 257.07 67.568 256.672 69.54 256.672H71.8252V255.593C71.8252 254.772 71.5798 254.12 71.0889 253.638C70.598 253.147 69.8743 252.901 68.918 252.901C68.0801 252.901 67.3776 253.113 66.8105 253.536C66.2435 253.959 65.96 254.471 65.96 255.072H63.5986C63.5986 254.387 63.8398 253.727 64.3223 253.092C64.8132 252.449 65.4733 251.941 66.3027 251.568C67.1406 251.196 68.0589 251.01 69.0576 251.01C70.6403 251.01 71.8802 251.408 72.7773 252.203C73.6745 252.99 74.14 254.078 74.1738 255.466V261.788C74.1738 263.049 74.3346 264.052 74.6562 264.797V265H72.1934ZM68.2959 263.21C69.0322 263.21 69.7305 263.02 70.3906 262.639C71.0508 262.258 71.529 261.763 71.8252 261.153V258.335H69.9844C67.1068 258.335 65.668 259.177 65.668 260.861C65.668 261.598 65.9134 262.173 66.4043 262.588C66.8952 263.003 67.5257 263.21 68.2959 263.21ZM81.042 247.938V251.264H83.6064V253.079H81.042V261.598C81.042 262.148 81.1562 262.562 81.3848 262.842C81.6133 263.113 82.0026 263.248 82.5527 263.248C82.8236 263.248 83.196 263.197 83.6699 263.096V265C83.0521 265.169 82.4512 265.254 81.8672 265.254C80.8177 265.254 80.0264 264.937 79.4932 264.302C78.96 263.667 78.6934 262.766 78.6934 261.598V253.079H76.1924V251.264H78.6934V247.938H81.042ZM89.5479 247.938V251.264H92.1123V253.079H89.5479V261.598C89.5479 262.148 89.6621 262.562 89.8906 262.842C90.1191 263.113 90.5085 263.248 91.0586 263.248C91.3294 263.248 91.7018 263.197 92.1758 263.096V265C91.5579 265.169 90.957 265.254 90.373 265.254C89.3236 265.254 88.5322 264.937 87.999 264.302C87.4658 263.667 87.1992 262.766 87.1992 261.598V253.079H84.6982V251.264H87.1992V247.938H89.5479ZM100.567 265.254C98.7054 265.254 97.1904 264.645 96.0225 263.426C94.8545 262.199 94.2705 260.561 94.2705 258.513V258.081C94.2705 256.718 94.5286 255.504 95.0449 254.438C95.5697 253.363 96.2975 252.525 97.2285 251.924C98.168 251.314 99.1836 251.01 100.275 251.01C102.061 251.01 103.449 251.598 104.439 252.774C105.43 253.951 105.925 255.635 105.925 257.827V258.805H96.6191C96.653 260.159 97.0465 261.255 97.7998 262.093C98.5615 262.922 99.5264 263.337 100.694 263.337C101.524 263.337 102.226 263.168 102.802 262.829C103.377 262.491 103.881 262.042 104.312 261.483L105.747 262.601C104.596 264.369 102.869 265.254 100.567 265.254ZM100.275 252.939C99.3275 252.939 98.5319 253.286 97.8887 253.98C97.2454 254.666 96.8477 255.631 96.6953 256.875H103.576V256.697C103.508 255.504 103.187 254.581 102.611 253.93C102.036 253.27 101.257 252.939 100.275 252.939ZM115.294 253.371C114.938 253.312 114.553 253.282 114.139 253.282C112.598 253.282 111.553 253.938 111.003 255.25V265H108.654V251.264H110.939L110.978 252.851C111.748 251.623 112.84 251.01 114.253 251.01C114.71 251.01 115.057 251.069 115.294 251.188V253.371ZM119.674 251.264L119.737 252.787C120.744 251.602 122.103 251.01 123.812 251.01C125.734 251.01 127.041 251.746 127.735 253.219C128.192 252.559 128.785 252.025 129.513 251.619C130.249 251.213 131.117 251.01 132.115 251.01C135.128 251.01 136.66 252.605 136.711 255.796V265H134.362V255.936C134.362 254.954 134.138 254.222 133.689 253.739C133.241 253.248 132.488 253.003 131.43 253.003C130.558 253.003 129.834 253.265 129.259 253.79C128.683 254.306 128.349 255.005 128.256 255.885V265H125.895V255.999C125.895 254.002 124.917 253.003 122.962 253.003C121.422 253.003 120.368 253.659 119.801 254.971V265H117.452V251.264H119.674ZM145.966 265.254C144.104 265.254 142.589 264.645 141.421 263.426C140.253 262.199 139.669 260.561 139.669 258.513V258.081C139.669 256.718 139.927 255.504 140.443 254.438C140.968 253.363 141.696 252.525 142.627 251.924C143.566 251.314 144.582 251.01 145.674 251.01C147.46 251.01 148.848 251.598 149.838 252.774C150.828 253.951 151.323 255.635 151.323 257.827V258.805H142.018C142.051 260.159 142.445 261.255 143.198 262.093C143.96 262.922 144.925 263.337 146.093 263.337C146.922 263.337 147.625 263.168 148.2 262.829C148.776 262.491 149.279 262.042 149.711 261.483L151.146 262.601C149.994 264.369 148.268 265.254 145.966 265.254ZM145.674 252.939C144.726 252.939 143.93 253.286 143.287 253.98C142.644 254.666 142.246 255.631 142.094 256.875H148.975V256.697C148.907 255.504 148.585 254.581 148.01 253.93C147.434 253.27 146.656 252.939 145.674 252.939ZM156.604 265H154.256V245.5H156.604V265ZM162.927 265H160.578V245.5H162.927V265ZM166.075 258.005C166.075 256.659 166.338 255.449 166.862 254.374C167.396 253.299 168.132 252.47 169.071 251.886C170.019 251.302 171.098 251.01 172.309 251.01C174.179 251.01 175.69 251.657 176.841 252.952C178 254.247 178.58 255.969 178.58 258.119V258.284C178.58 259.621 178.322 260.823 177.806 261.89C177.298 262.948 176.566 263.773 175.609 264.365C174.661 264.958 173.57 265.254 172.334 265.254C170.472 265.254 168.961 264.606 167.802 263.312C166.651 262.017 166.075 260.303 166.075 258.17V258.005ZM168.437 258.284C168.437 259.808 168.788 261.031 169.49 261.953C170.201 262.876 171.149 263.337 172.334 263.337C173.527 263.337 174.475 262.871 175.178 261.94C175.88 261.001 176.231 259.689 176.231 258.005C176.231 256.498 175.872 255.28 175.152 254.349C174.441 253.409 173.493 252.939 172.309 252.939C171.149 252.939 170.214 253.401 169.503 254.323C168.792 255.246 168.437 256.566 168.437 258.284ZM183.747 251.264L183.823 252.99C184.873 251.67 186.244 251.01 187.937 251.01C190.84 251.01 192.304 252.647 192.329 255.923V265H189.98V255.91C189.972 254.92 189.743 254.188 189.295 253.714C188.855 253.24 188.165 253.003 187.226 253.003C186.464 253.003 185.795 253.206 185.22 253.612C184.644 254.019 184.196 254.552 183.874 255.212V265H181.525V251.264H183.747Z" fill="black"/>
<path d="M192.5 107.5C192.5 158.981 159.711 200.5 119.5 200.5C79.2886 200.5 46.5 158.981 46.5 107.5C46.5 56.0187 79.2886 14.5 119.5 14.5C159.711 14.5 192.5 56.0187 192.5 107.5Z" fill="#0BFF07" stroke="black"/>
<path d="M45.5 103.5L190 99" stroke="#2AC528"/>
<path d="M58 58L176.5 51.5" stroke="#2AC528"/>
<path d="M51 80L186 71" stroke="#F3F4AA"/>
<path d="M51 126L186 117" stroke="#F3F4AA"/>
<path d="M49.5 138L188.5 133" stroke="#2AC528"/>
<path d="M60 159.5L183 151.5" stroke="#F3F4AA"/>
<path d="M68.5 172.5L174 168.5" stroke="#2AC528"/>
<path d="M92.5 192.5L154 188.5" stroke="#F3F4AA"/>
<circle cx="96" cy="76" r="10" fill="black"/>
<g filter="url(#filter0_d_501_187)">
<path d="M96 68C100.35 69.3714 102.071 70.8315 103 75.5" stroke="white" stroke-width="2"/>
</g>
<circle cx="143" cy="78" r="10" fill="black"/>
<g filter="url(#filter1_d_501_187)">
<path d="M143 70C147.35 71.3714 149.071 72.8315 150 77.5" stroke="white" stroke-width="2"/>
</g>
<path d="M105 134H126" stroke="black" stroke-width="2"/>
<path d="M105 146H126" stroke="black" stroke-width="2"/>
<path d="M134.5 140.048C134.5 142.517 134.163 144.909 133.248 146.667C132.794 147.539 132.204 148.242 131.454 148.728C130.705 149.213 129.769 149.5 128.59 149.5C127.389 149.5 126.581 149.259 126.025 148.877C125.475 148.499 125.115 147.944 124.882 147.201C124.646 146.448 124.55 145.528 124.516 144.458C124.493 143.737 124.499 142.974 124.506 142.166C124.509 141.772 124.512 141.368 124.512 140.952C124.512 140.543 124.509 140.138 124.506 139.738C124.499 138.902 124.493 138.088 124.516 137.304C124.55 136.149 124.647 135.109 124.887 134.235C125.126 133.365 125.498 132.695 126.057 132.24C126.613 131.788 127.409 131.5 128.59 131.5C130.956 131.5 132.388 132.431 133.261 133.905C134.162 135.425 134.5 137.576 134.5 140.048Z" fill="#0BFF07" stroke="black"/>
<defs>
<filter id="filter0_d_501_187" x="91.6993" y="67.0463" width="16.2815" height="16.6489" filterUnits="userSpaceOnUse" color-interpolation-filters="sRGB">
<feFlood flood-opacity="0" result="BackgroundImageFix"/>
<feColorMatrix in="SourceAlpha" type="matrix" values="0 0 0 0 0 0 0 0 0 0 0 0 0 0 0 0 0 0 127 0" result="hardAlpha"/>
<feOffset dy="4"/>
<feGaussianBlur stdDeviation="2"/>
<feComposite in2="hardAlpha" operator="out"/>
<feColorMatrix type="matrix" values="0 0 0 0 0 0 0 0 0 0 0 0 0 0 0 0 0 0 0.25 0"/>
<feBlend mode="normal" in2="BackgroundImageFix" result="effect1_dropShadow_501_187"/>
<feBlend mode="normal" in="SourceGraphic" in2="effect1_dropShadow_501_187" result="shape"/>
</filter>
<filter id="filter1_d_501_187" x="138.699" y="69.0463" width="16.2815" height="16.6489" filterUnits="userSpaceOnUse" color-interpolation-filters="sRGB">
<feFlood flood-opacity="0" result="BackgroundImageFix"/>
<feColorMatrix in="SourceAlpha" type="matrix" values="0 0 0 0 0 0 0 0 0 0 0 0 0 0 0 0 0 0 127 0" result="hardAlpha"/>
<feOffset dy="4"/>
<feGaussianBlur stdDeviation="2"/>
<feComposite in2="hardAlpha" operator="out"/>
<feColorMatrix type="matrix" values="0 0 0 0 0 0 0 0 0 0 0 0 0 0 0 0 0 0 0.25 0"/>
<feBlend mode="normal" in2="BackgroundImageFix" result="effect1_dropShadow_501_187"/>
<feBlend mode="normal" in="SourceGraphic" in2="effect1_dropShadow_501_187" result="shape"/>
</filter>
</defs>
</svg>
