<svg width="240" height="300" viewBox="0 0 240 300" fill="none" xmlns="http://www.w3.org/2000/svg">
<rect width="240" height="300" fill="#AB00FF"/>
<path d="M21.3525 264.176H13.6084L11.8691 269H9.35547L16.4141 250.516H18.5469L25.6182 269H23.1172L21.3525 264.176ZM14.3447 262.17H20.6289L17.4805 253.524L14.3447 262.17ZM30.29 269H27.9414V249.5H30.29V269ZM37.2471 251.938V255.264H39.8115V257.079H37.2471V265.598C37.2471 266.148 37.3613 266.562 37.5898 266.842C37.8184 267.113 38.2077 267.248 38.7578 267.248C39.0286 267.248 39.401 267.197 39.875 267.096V269C39.2572 269.169 38.6562 269.254 38.0723 269.254C37.0228 269.254 36.2314 268.937 35.6982 268.302C35.165 267.667 34.8984 266.766 34.8984 265.598V257.079H32.3975V255.264H34.8984V251.938H37.2471ZM48.2666 269.254C46.4046 269.254 44.8896 268.645 43.7217 267.426C42.5537 266.199 41.9697 264.561 41.9697 262.513V262.081C41.9697 260.718 42.2279 259.504 42.7441 258.438C43.2689 257.363 43.9967 256.525 44.9277 255.924C45.8672 255.314 46.8828 255.01 47.9746 255.01C49.7604 255.01 51.1484 255.598 52.1387 256.774C53.1289 257.951 53.624 259.635 53.624 261.827V262.805H44.3184C44.3522 264.159 44.7458 265.255 45.499 266.093C46.2607 266.922 47.2256 267.337 48.3936 267.337C49.223 267.337 49.9255 267.168 50.501 266.829C51.0765 266.491 51.5801 266.042 52.0117 265.483L53.4463 266.601C52.2952 268.369 50.5687 269.254 48.2666 269.254ZM47.9746 256.939C47.0267 256.939 46.2311 257.286 45.5879 257.98C44.9447 258.666 44.5469 259.631 44.3945 260.875H51.2754V260.697C51.2077 259.504 50.8861 258.581 50.3105 257.93C49.735 257.27 48.9564 256.939 47.9746 256.939ZM62.9932 257.371C62.6377 257.312 62.2526 257.282 61.8379 257.282C60.2975 257.282 59.2523 257.938 58.7021 259.25V269H56.3535V255.264H58.6387L58.6768 256.851C59.4469 255.623 60.5387 255.01 61.9521 255.01C62.4092 255.01 62.7562 255.069 62.9932 255.188V257.371ZM84.2451 252.521H78.3037V269H75.8789V252.521H69.9502V250.516H84.2451V252.521ZM88.9678 256.927C90.0088 255.649 91.363 255.01 93.0303 255.01C95.9333 255.01 97.3975 256.647 97.4229 259.923V269H95.0742V259.91C95.0658 258.92 94.8372 258.188 94.3887 257.714C93.9486 257.24 93.2588 257.003 92.3193 257.003C91.5576 257.003 90.889 257.206 90.3135 257.612C89.738 258.019 89.2894 258.552 88.9678 259.212V269H86.6191V249.5H88.9678V256.927ZM106.64 269.254C104.778 269.254 103.263 268.645 102.095 267.426C100.927 266.199 100.343 264.561 100.343 262.513V262.081C100.343 260.718 100.601 259.504 101.117 258.438C101.642 257.363 102.37 256.525 103.301 255.924C104.24 255.314 105.256 255.01 106.348 255.01C108.133 255.01 109.521 255.598 110.512 256.774C111.502 257.951 111.997 259.635 111.997 261.827V262.805H102.691C102.725 264.159 103.119 265.255 103.872 266.093C104.634 266.922 105.599 267.337 106.767 267.337C107.596 267.337 108.299 267.168 108.874 266.829C109.45 266.491 109.953 266.042 110.385 265.483L111.819 266.601C110.668 268.369 108.942 269.254 106.64 269.254ZM106.348 256.939C105.4 256.939 104.604 257.286 103.961 257.98C103.318 258.666 102.92 259.631 102.768 260.875H109.648V260.697C109.581 259.504 109.259 258.581 108.684 257.93C108.108 257.27 107.329 256.939 106.348 256.939ZM131.738 260.837H123.981V269H121.544V250.516H132.995V252.521H123.981V258.844H131.738V260.837ZM143.748 267.642C142.834 268.716 141.493 269.254 139.724 269.254C138.259 269.254 137.142 268.831 136.372 267.984C135.61 267.13 135.225 265.868 135.217 264.201V255.264H137.565V264.138C137.565 266.22 138.412 267.261 140.104 267.261C141.899 267.261 143.092 266.592 143.685 265.255V255.264H146.033V269H143.799L143.748 267.642ZM152.8 251.938V255.264H155.364V257.079H152.8V265.598C152.8 266.148 152.914 266.562 153.143 266.842C153.371 267.113 153.76 267.248 154.311 267.248C154.581 267.248 154.954 267.197 155.428 267.096V269C154.81 269.169 154.209 269.254 153.625 269.254C152.576 269.254 151.784 268.937 151.251 268.302C150.718 267.667 150.451 266.766 150.451 265.598V257.079H147.95V255.264H150.451V251.938H152.8ZM166.6 267.642C165.686 268.716 164.344 269.254 162.575 269.254C161.111 269.254 159.994 268.831 159.224 267.984C158.462 267.13 158.077 265.868 158.068 264.201V255.264H160.417V264.138C160.417 266.22 161.263 267.261 162.956 267.261C164.75 267.261 165.944 266.592 166.536 265.255V255.264H168.885V269H166.65L166.6 267.642ZM179.104 257.371C178.749 257.312 178.364 257.282 177.949 257.282C176.409 257.282 175.364 257.938 174.813 259.25V269H172.465V255.264H174.75L174.788 256.851C175.558 255.623 176.65 255.01 178.063 255.01C178.521 255.01 178.868 255.069 179.104 255.188V257.371ZM186.722 269.254C184.86 269.254 183.345 268.645 182.177 267.426C181.009 266.199 180.425 264.561 180.425 262.513V262.081C180.425 260.718 180.683 259.504 181.199 258.438C181.724 257.363 182.452 256.525 183.383 255.924C184.322 255.314 185.338 255.01 186.43 255.01C188.215 255.01 189.604 255.598 190.594 256.774C191.584 257.951 192.079 259.635 192.079 261.827V262.805H182.773C182.807 264.159 183.201 265.255 183.954 266.093C184.716 266.922 185.681 267.337 186.849 267.337C187.678 267.337 188.381 267.168 188.956 266.829C189.532 266.491 190.035 266.042 190.467 265.483L191.901 266.601C190.75 268.369 189.024 269.254 186.722 269.254ZM186.43 256.939C185.482 256.939 184.686 257.286 184.043 257.98C183.4 258.666 183.002 259.631 182.85 260.875H189.73V260.697C189.663 259.504 189.341 258.581 188.766 257.93C188.19 257.27 187.411 256.939 186.43 256.939ZM205.866 260.278L208.913 255.264H211.655L207.161 262.056L211.795 269H209.078L205.904 263.858L202.73 269H200.001L204.635 262.056L200.141 255.264H202.857L205.866 260.278ZM214.994 259.732L215.934 250.516H225.404V252.687H217.927L217.368 257.727C218.274 257.193 219.302 256.927 220.453 256.927C222.137 256.927 223.475 257.485 224.465 258.603C225.455 259.711 225.95 261.214 225.95 263.109C225.95 265.014 225.434 266.516 224.401 267.616C223.377 268.708 221.943 269.254 220.098 269.254C218.464 269.254 217.131 268.801 216.099 267.896C215.066 266.99 214.478 265.737 214.334 264.138H216.556C216.7 265.196 217.076 265.995 217.686 266.537C218.295 267.07 219.099 267.337 220.098 267.337C221.189 267.337 222.044 266.965 222.662 266.22C223.288 265.475 223.602 264.447 223.602 263.135C223.602 261.899 223.263 260.909 222.586 260.164C221.917 259.411 221.024 259.034 219.907 259.034C218.883 259.034 218.079 259.258 217.495 259.707L216.873 260.215L214.994 259.732Z" fill="white"/>
<path d="M113.213 28.977C113.753 28.8592 114.095 28.3263 113.977 27.7867L112.058 18.9937C111.94 18.4542 111.407 18.1122 110.867 18.23C110.328 18.3478 109.986 18.8807 110.104 19.4203L111.81 27.2362L103.994 28.9424C103.454 29.0602 103.112 29.5931 103.23 30.1327C103.348 30.6722 103.881 31.0142 104.42 30.8964L113.213 28.977ZM47.5351 28.8448C60.6918 20.5109 71.0658 16.8184 81.0139 17.0069C90.9669 17.1954 100.661 21.2709 112.46 28.8416L113.54 27.1583C101.625 19.5134 91.5534 15.2061 81.0518 15.0072C70.5452 14.8082 59.7761 18.7235 46.4649 27.1552L47.5351 28.8448Z" fill="white"/>
<path d="M208.213 28.977C208.753 28.8592 209.095 28.3263 208.977 27.7867L207.058 18.9937C206.94 18.4542 206.407 18.1122 205.867 18.23C205.328 18.3478 204.986 18.8807 205.104 19.4203L206.81 27.2362L198.994 28.9424C198.454 29.0602 198.112 29.5931 198.23 30.1327C198.348 30.6722 198.881 31.0142 199.42 30.8964L208.213 28.977ZM142.535 28.8448C155.692 20.5109 166.066 16.8184 176.014 17.0069C185.967 17.1954 195.661 21.2709 207.46 28.8416L208.54 27.1583C196.625 19.5134 186.553 15.2061 176.052 15.0072C165.545 14.8082 154.776 18.7235 141.465 27.1552L142.535 28.8448Z" fill="white"/>
<path d="M196.026 199.343C195.9 199.88 196.234 200.418 196.772 200.544L205.535 202.597C206.072 202.723 206.61 202.389 206.736 201.852C206.862 201.314 206.529 200.776 205.991 200.65L198.202 198.825L200.027 191.036C200.153 190.498 199.819 189.96 199.281 189.834C198.743 189.708 198.205 190.042 198.079 190.58L196.026 199.343ZM224.421 140.119C226.279 155.582 225.145 166.535 220.693 175.433C216.238 184.335 208.386 191.331 196.473 198.721L197.527 200.42C209.557 192.958 217.781 185.721 222.481 176.328C227.184 166.931 228.286 155.525 226.407 139.881L224.421 140.119Z" fill="white"/>
<path d="M14.621 144.387C14.2824 143.951 13.6542 143.871 13.2179 144.21L6.10787 149.728C5.67157 150.067 5.59236 150.695 5.93097 151.131C6.26958 151.567 6.89777 151.647 7.33408 151.308L13.6541 146.403L18.5589 152.723C18.8975 153.159 19.5257 153.239 19.962 152.9C20.3983 152.561 20.4775 151.933 20.1389 151.497L14.621 144.387ZM42.7769 203.724C29.5908 195.437 21.7918 187.663 17.6792 178.603C13.5645 169.538 13.0695 159.034 14.8232 145.125L12.8389 144.875C11.0681 158.92 11.5165 169.865 15.858 179.43C20.2016 188.998 28.3717 197.033 41.7127 205.417L42.7769 203.724Z" fill="white"/>
<rect x="84.5" y="37.5" width="66" height="96" fill="white" stroke="black"/>
<path d="M100.552 68.6602H95.1904L93.9863 72H92.2461L97.1328 59.2031H98.6094L103.505 72H101.773L100.552 68.6602ZM95.7002 67.2715H100.051L97.8711 61.2861L95.7002 67.2715ZM107.021 60.1875V62.4902H108.796V63.7471H107.021V69.6445C107.021 70.0254 107.1 70.3125 107.258 70.5059C107.416 70.6934 107.686 70.7871 108.066 70.7871C108.254 70.7871 108.512 70.752 108.84 70.6816V72C108.412 72.1172 107.996 72.1758 107.592 72.1758C106.865 72.1758 106.317 71.9561 105.948 71.5166C105.579 71.0771 105.395 70.4531 105.395 69.6445V63.7471H103.663V62.4902H105.395V60.1875H107.021ZM112.909 60.1875V62.4902H114.685V63.7471H112.909V69.6445C112.909 70.0254 112.988 70.3125 113.146 70.5059C113.305 70.6934 113.574 70.7871 113.955 70.7871C114.143 70.7871 114.4 70.752 114.729 70.6816V72C114.301 72.1172 113.885 72.1758 113.48 72.1758C112.754 72.1758 112.206 71.9561 111.837 71.5166C111.468 71.0771 111.283 70.4531 111.283 69.6445V63.7471H109.552V62.4902H111.283V60.1875H112.909ZM122.463 72C122.369 71.8125 122.293 71.4785 122.234 70.998C121.479 71.7832 120.576 72.1758 119.527 72.1758C118.59 72.1758 117.819 71.9121 117.216 71.3848C116.618 70.8516 116.319 70.1777 116.319 69.3633C116.319 68.373 116.694 67.6055 117.444 67.0605C118.2 66.5098 119.261 66.2344 120.626 66.2344H122.208V65.4873C122.208 64.9189 122.038 64.4678 121.698 64.1338C121.358 63.7939 120.857 63.624 120.195 63.624C119.615 63.624 119.129 63.7705 118.736 64.0635C118.344 64.3564 118.147 64.7109 118.147 65.127H116.513C116.513 64.6523 116.68 64.1953 117.014 63.7559C117.354 63.3105 117.811 62.959 118.385 62.7012C118.965 62.4434 119.601 62.3145 120.292 62.3145C121.388 62.3145 122.246 62.5898 122.867 63.1406C123.488 63.6855 123.811 64.4385 123.834 65.3994V69.7764C123.834 70.6494 123.945 71.3438 124.168 71.8594V72H122.463ZM119.765 70.7607C120.274 70.7607 120.758 70.6289 121.215 70.3652C121.672 70.1016 122.003 69.7588 122.208 69.3369V67.3857H120.934C118.941 67.3857 117.945 67.9688 117.945 69.1348C117.945 69.6445 118.115 70.043 118.455 70.3301C118.795 70.6172 119.231 70.7607 119.765 70.7607ZM130.197 70.8486C130.777 70.8486 131.284 70.6729 131.718 70.3213C132.151 69.9697 132.392 69.5303 132.438 69.0029H133.977C133.947 69.5479 133.76 70.0664 133.414 70.5586C133.068 71.0508 132.605 71.4434 132.025 71.7363C131.451 72.0293 130.842 72.1758 130.197 72.1758C128.902 72.1758 127.871 71.7451 127.104 70.8838C126.342 70.0166 125.961 68.833 125.961 67.333V67.0605C125.961 66.1348 126.131 65.3115 126.471 64.5908C126.811 63.8701 127.297 63.3105 127.93 62.9121C128.568 62.5137 129.321 62.3145 130.188 62.3145C131.255 62.3145 132.14 62.6338 132.843 63.2725C133.552 63.9111 133.93 64.7402 133.977 65.7598H132.438C132.392 65.1445 132.157 64.6406 131.735 64.248C131.319 63.8496 130.804 63.6504 130.188 63.6504C129.362 63.6504 128.721 63.9492 128.264 64.5469C127.812 65.1387 127.587 65.9971 127.587 67.1221V67.4297C127.587 68.5254 127.812 69.3691 128.264 69.9609C128.715 70.5527 129.359 70.8486 130.197 70.8486ZM138.459 67.5967L137.439 68.6602V72H135.813V58.5H137.439V66.665L138.31 65.6191L141.271 62.4902H143.249L139.549 66.4629L143.68 72H141.772L138.459 67.5967Z" fill="black"/>
<rect x="7.5" y="37.5" width="66" height="96" fill="white" stroke="black"/>
<path d="M28.2559 66.2959C26.8086 65.8799 25.7539 65.3701 25.0918 64.7666C24.4355 64.1572 24.1074 63.4072 24.1074 62.5166C24.1074 61.5088 24.5088 60.6768 25.3115 60.0205C26.1201 59.3584 27.1689 59.0273 28.458 59.0273C29.3369 59.0273 30.1191 59.1973 30.8047 59.5371C31.4961 59.877 32.0293 60.3457 32.4043 60.9434C32.7852 61.541 32.9756 62.1943 32.9756 62.9033H31.2793C31.2793 62.1299 31.0332 61.5234 30.541 61.084C30.0488 60.6387 29.3545 60.416 28.458 60.416C27.626 60.416 26.9756 60.6006 26.5068 60.9697C26.0439 61.333 25.8125 61.8398 25.8125 62.4902C25.8125 63.0117 26.0322 63.4541 26.4717 63.8174C26.917 64.1748 27.6699 64.5029 28.7305 64.8018C29.7969 65.1006 30.6289 65.4316 31.2266 65.7949C31.8301 66.1523 32.2754 66.5713 32.5625 67.0518C32.8555 67.5322 33.002 68.0977 33.002 68.748C33.002 69.7852 32.5977 70.6172 31.7891 71.2441C30.9805 71.8652 29.8994 72.1758 28.5459 72.1758C27.667 72.1758 26.8467 72.0088 26.085 71.6748C25.3232 71.335 24.7344 70.8721 24.3184 70.2861C23.9082 69.7002 23.7031 69.0352 23.7031 68.291H25.3994C25.3994 69.0645 25.6836 69.6768 26.252 70.1279C26.8262 70.5732 27.5908 70.7959 28.5459 70.7959C29.4365 70.7959 30.1191 70.6143 30.5938 70.251C31.0684 69.8877 31.3057 69.3926 31.3057 68.7656C31.3057 68.1387 31.0859 67.6553 30.6465 67.3154C30.207 66.9697 29.4102 66.6299 28.2559 66.2959ZM37.5723 67.5967L36.5527 68.6602V72H34.9268V58.5H36.5527V66.665L37.4229 65.6191L40.3848 62.4902H42.3623L38.6621 66.4629L42.793 72H40.8857L37.5723 67.5967ZM45.8076 72H44.1816V62.4902H45.8076V72ZM44.0498 59.9678C44.0498 59.7041 44.1289 59.4814 44.2871 59.2998C44.4512 59.1182 44.6914 59.0273 45.0078 59.0273C45.3242 59.0273 45.5645 59.1182 45.7285 59.2998C45.8926 59.4814 45.9746 59.7041 45.9746 59.9678C45.9746 60.2314 45.8926 60.4512 45.7285 60.627C45.5645 60.8027 45.3242 60.8906 45.0078 60.8906C44.6914 60.8906 44.4512 60.8027 44.2871 60.627C44.1289 60.4512 44.0498 60.2314 44.0498 59.9678ZM56.4512 67.3506C56.4512 68.7979 56.1201 69.9639 55.458 70.8486C54.7959 71.7334 53.8994 72.1758 52.7686 72.1758C51.6143 72.1758 50.7061 71.8096 50.0439 71.0771V75.6562H48.418V62.4902H49.9033L49.9824 63.5449C50.6445 62.7246 51.5645 62.3145 52.7422 62.3145C53.8848 62.3145 54.7871 62.7451 55.4492 63.6064C56.1172 64.4678 56.4512 65.666 56.4512 67.2012V67.3506ZM54.8252 67.166C54.8252 66.0938 54.5967 65.2471 54.1396 64.626C53.6826 64.0049 53.0557 63.6943 52.2588 63.6943C51.2744 63.6943 50.5361 64.1309 50.0439 65.0039V69.5479C50.5303 70.415 51.2744 70.8486 52.2764 70.8486C53.0557 70.8486 53.6738 70.541 54.1309 69.9258C54.5938 69.3047 54.8252 68.3848 54.8252 67.166Z" fill="black"/>
<rect x="124.5" y="137.5" width="66" height="96" fill="white" stroke="black"/>
<path d="M140.552 168.66H135.19L133.986 172H132.246L137.133 159.203H138.609L143.505 172H141.773L140.552 168.66ZM135.7 167.271H140.051L137.871 161.286L135.7 167.271ZM147.021 160.188V162.49H148.796V163.747H147.021V169.645C147.021 170.025 147.1 170.312 147.258 170.506C147.416 170.693 147.686 170.787 148.066 170.787C148.254 170.787 148.512 170.752 148.84 170.682V172C148.412 172.117 147.996 172.176 147.592 172.176C146.865 172.176 146.317 171.956 145.948 171.517C145.579 171.077 145.395 170.453 145.395 169.645V163.747H143.663V162.49H145.395V160.188H147.021ZM152.909 160.188V162.49H154.685V163.747H152.909V169.645C152.909 170.025 152.988 170.312 153.146 170.506C153.305 170.693 153.574 170.787 153.955 170.787C154.143 170.787 154.4 170.752 154.729 170.682V172C154.301 172.117 153.885 172.176 153.48 172.176C152.754 172.176 152.206 171.956 151.837 171.517C151.468 171.077 151.283 170.453 151.283 169.645V163.747H149.552V162.49H151.283V160.188H152.909ZM162.463 172C162.369 171.812 162.293 171.479 162.234 170.998C161.479 171.783 160.576 172.176 159.527 172.176C158.59 172.176 157.819 171.912 157.216 171.385C156.618 170.852 156.319 170.178 156.319 169.363C156.319 168.373 156.694 167.605 157.444 167.061C158.2 166.51 159.261 166.234 160.626 166.234H162.208V165.487C162.208 164.919 162.038 164.468 161.698 164.134C161.358 163.794 160.857 163.624 160.195 163.624C159.615 163.624 159.129 163.771 158.736 164.063C158.344 164.356 158.147 164.711 158.147 165.127H156.513C156.513 164.652 156.68 164.195 157.014 163.756C157.354 163.311 157.811 162.959 158.385 162.701C158.965 162.443 159.601 162.314 160.292 162.314C161.388 162.314 162.246 162.59 162.867 163.141C163.488 163.686 163.811 164.438 163.834 165.399V169.776C163.834 170.649 163.945 171.344 164.168 171.859V172H162.463ZM159.765 170.761C160.274 170.761 160.758 170.629 161.215 170.365C161.672 170.102 162.003 169.759 162.208 169.337V167.386H160.934C158.941 167.386 157.945 167.969 157.945 169.135C157.945 169.645 158.115 170.043 158.455 170.33C158.795 170.617 159.231 170.761 159.765 170.761ZM170.197 170.849C170.777 170.849 171.284 170.673 171.718 170.321C172.151 169.97 172.392 169.53 172.438 169.003H173.977C173.947 169.548 173.76 170.066 173.414 170.559C173.068 171.051 172.605 171.443 172.025 171.736C171.451 172.029 170.842 172.176 170.197 172.176C168.902 172.176 167.871 171.745 167.104 170.884C166.342 170.017 165.961 168.833 165.961 167.333V167.061C165.961 166.135 166.131 165.312 166.471 164.591C166.811 163.87 167.297 163.311 167.93 162.912C168.568 162.514 169.321 162.314 170.188 162.314C171.255 162.314 172.14 162.634 172.843 163.272C173.552 163.911 173.93 164.74 173.977 165.76H172.438C172.392 165.145 172.157 164.641 171.735 164.248C171.319 163.85 170.804 163.65 170.188 163.65C169.362 163.65 168.721 163.949 168.264 164.547C167.812 165.139 167.587 165.997 167.587 167.122V167.43C167.587 168.525 167.812 169.369 168.264 169.961C168.715 170.553 169.359 170.849 170.197 170.849ZM178.459 167.597L177.439 168.66V172H175.813V158.5H177.439V166.665L178.31 165.619L181.271 162.49H183.249L179.549 166.463L183.68 172H181.772L178.459 167.597Z" fill="black"/>
<rect x="47.5" y="137.5" width="66" height="96" fill="white" stroke="black"/>
<path d="M68.2559 166.296C66.8086 165.88 65.7539 165.37 65.0918 164.767C64.4355 164.157 64.1074 163.407 64.1074 162.517C64.1074 161.509 64.5088 160.677 65.3115 160.021C66.1201 159.358 67.1689 159.027 68.458 159.027C69.3369 159.027 70.1191 159.197 70.8047 159.537C71.4961 159.877 72.0293 160.346 72.4043 160.943C72.7852 161.541 72.9756 162.194 72.9756 162.903H71.2793C71.2793 162.13 71.0332 161.523 70.541 161.084C70.0488 160.639 69.3545 160.416 68.458 160.416C67.626 160.416 66.9756 160.601 66.5068 160.97C66.0439 161.333 65.8125 161.84 65.8125 162.49C65.8125 163.012 66.0322 163.454 66.4717 163.817C66.917 164.175 67.6699 164.503 68.7305 164.802C69.7969 165.101 70.6289 165.432 71.2266 165.795C71.8301 166.152 72.2754 166.571 72.5625 167.052C72.8555 167.532 73.002 168.098 73.002 168.748C73.002 169.785 72.5977 170.617 71.7891 171.244C70.9805 171.865 69.8994 172.176 68.5459 172.176C67.667 172.176 66.8467 172.009 66.085 171.675C65.3232 171.335 64.7344 170.872 64.3184 170.286C63.9082 169.7 63.7031 169.035 63.7031 168.291H65.3994C65.3994 169.064 65.6836 169.677 66.252 170.128C66.8262 170.573 67.5908 170.796 68.5459 170.796C69.4365 170.796 70.1191 170.614 70.5938 170.251C71.0684 169.888 71.3057 169.393 71.3057 168.766C71.3057 168.139 71.0859 167.655 70.6465 167.315C70.207 166.97 69.4102 166.63 68.2559 166.296ZM77.5723 167.597L76.5527 168.66V172H74.9268V158.5H76.5527V166.665L77.4229 165.619L80.3848 162.49H82.3623L78.6621 166.463L82.793 172H80.8857L77.5723 167.597ZM85.8076 172H84.1816V162.49H85.8076V172ZM84.0498 159.968C84.0498 159.704 84.1289 159.481 84.2871 159.3C84.4512 159.118 84.6914 159.027 85.0078 159.027C85.3242 159.027 85.5645 159.118 85.7285 159.3C85.8926 159.481 85.9746 159.704 85.9746 159.968C85.9746 160.231 85.8926 160.451 85.7285 160.627C85.5645 160.803 85.3242 160.891 85.0078 160.891C84.6914 160.891 84.4512 160.803 84.2871 160.627C84.1289 160.451 84.0498 160.231 84.0498 159.968ZM96.4512 167.351C96.4512 168.798 96.1201 169.964 95.458 170.849C94.7959 171.733 93.8994 172.176 92.7686 172.176C91.6143 172.176 90.7061 171.81 90.0439 171.077V175.656H88.418V162.49H89.9033L89.9824 163.545C90.6445 162.725 91.5645 162.314 92.7422 162.314C93.8848 162.314 94.7871 162.745 95.4492 163.606C96.1172 164.468 96.4512 165.666 96.4512 167.201V167.351ZM94.8252 167.166C94.8252 166.094 94.5967 165.247 94.1396 164.626C93.6826 164.005 93.0557 163.694 92.2588 163.694C91.2744 163.694 90.5361 164.131 90.0439 165.004V169.548C90.5303 170.415 91.2744 170.849 92.2764 170.849C93.0557 170.849 93.6738 170.541 94.1309 169.926C94.5938 169.305 94.8252 168.385 94.8252 167.166Z" fill="black"/>
<rect x="163.5" y="37.5" width="67" height="96" fill="white" stroke="black"/>
<path d="M186.32 72H184.624L178.182 62.1387V72H176.485V59.2031H178.182L184.642 69.1084V59.2031H186.32V72ZM188.632 67.1572C188.632 66.2256 188.813 65.3877 189.177 64.6436C189.546 63.8994 190.056 63.3252 190.706 62.9209C191.362 62.5166 192.109 62.3145 192.947 62.3145C194.242 62.3145 195.288 62.7627 196.085 63.6592C196.888 64.5557 197.289 65.748 197.289 67.2363V67.3506C197.289 68.2764 197.11 69.1084 196.753 69.8467C196.401 70.5791 195.895 71.1504 195.232 71.5605C194.576 71.9707 193.82 72.1758 192.965 72.1758C191.676 72.1758 190.63 71.7275 189.827 70.8311C189.03 69.9346 188.632 68.748 188.632 67.2715V67.1572ZM190.267 67.3506C190.267 68.4053 190.51 69.252 190.996 69.8906C191.488 70.5293 192.145 70.8486 192.965 70.8486C193.791 70.8486 194.447 70.5264 194.934 69.8818C195.42 69.2314 195.663 68.3232 195.663 67.1572C195.663 66.1143 195.414 65.2705 194.916 64.626C194.424 63.9756 193.768 63.6504 192.947 63.6504C192.145 63.6504 191.497 63.9697 191.005 64.6084C190.513 65.2471 190.267 66.1611 190.267 67.3506ZM207.361 67.3506C207.361 68.7979 207.03 69.9639 206.368 70.8486C205.706 71.7334 204.81 72.1758 203.679 72.1758C202.524 72.1758 201.616 71.8096 200.954 71.0771V75.6562H199.328V62.4902H200.813L200.893 63.5449C201.555 62.7246 202.475 62.3145 203.652 62.3145C204.795 62.3145 205.697 62.7451 206.359 63.6064C207.027 64.4678 207.361 65.666 207.361 67.2012V67.3506ZM205.735 67.166C205.735 66.0938 205.507 65.2471 205.05 64.626C204.593 64.0049 203.966 63.6943 203.169 63.6943C202.185 63.6943 201.446 64.1309 200.954 65.0039V69.5479C201.44 70.415 202.185 70.8486 203.187 70.8486C203.966 70.8486 204.584 70.541 205.041 69.9258C205.504 69.3047 205.735 68.3848 205.735 67.166ZM213.382 72.1758C212.093 72.1758 211.044 71.7539 210.235 70.9102C209.427 70.0605 209.022 68.9268 209.022 67.5088V67.21C209.022 66.2666 209.201 65.4258 209.559 64.6875C209.922 63.9434 210.426 63.3633 211.07 62.9473C211.721 62.5254 212.424 62.3145 213.18 62.3145C214.416 62.3145 215.377 62.7217 216.062 63.5361C216.748 64.3506 217.091 65.5166 217.091 67.0342V67.7109H210.648C210.672 68.6484 210.944 69.4072 211.466 69.9873C211.993 70.5615 212.661 70.8486 213.47 70.8486C214.044 70.8486 214.53 70.7314 214.929 70.4971C215.327 70.2627 215.676 69.9521 215.975 69.5654L216.968 70.3389C216.171 71.5635 214.976 72.1758 213.382 72.1758ZM213.18 63.6504C212.523 63.6504 211.973 63.8906 211.527 64.3711C211.082 64.8457 210.807 65.5137 210.701 66.375H215.465V66.252C215.418 65.4258 215.195 64.7871 214.797 64.3359C214.398 63.8789 213.859 63.6504 213.18 63.6504Z" fill="black"/>
</svg>
