<svg width="180" height="240" viewBox="0 0 180 240" fill="none" xmlns="http://www.w3.org/2000/svg">
<rect width="180" height="240" fill="white"/>
<path d="M67.5518 80.6602H62.1904L60.9863 84H59.2461L64.1328 71.2031H65.6094L70.5049 84H68.7734L67.5518 80.6602ZM62.7002 79.2715H67.0508L64.8711 73.2861L62.7002 79.2715ZM74.0205 72.1875V74.4902H75.7959V75.7471H74.0205V81.6445C74.0205 82.0254 74.0996 82.3125 74.2578 82.5059C74.416 82.6934 74.6855 82.7871 75.0664 82.7871C75.2539 82.7871 75.5117 82.752 75.8398 82.6816V84C75.4121 84.1172 74.9961 84.1758 74.5918 84.1758C73.8652 84.1758 73.3174 83.9561 72.9482 83.5166C72.5791 83.0771 72.3945 82.4531 72.3945 81.6445V75.7471H70.6631V74.4902H72.3945V72.1875H74.0205ZM79.9092 72.1875V74.4902H81.6846V75.7471H79.9092V81.6445C79.9092 82.0254 79.9883 82.3125 80.1465 82.5059C80.3047 82.6934 80.5742 82.7871 80.9551 82.7871C81.1426 82.7871 81.4004 82.752 81.7285 82.6816V84C81.3008 84.1172 80.8848 84.1758 80.4805 84.1758C79.7539 84.1758 79.2061 83.9561 78.8369 83.5166C78.4678 83.0771 78.2832 82.4531 78.2832 81.6445V75.7471H76.5518V74.4902H78.2832V72.1875H79.9092ZM89.4629 84C89.3691 83.8125 89.293 83.4785 89.2344 82.998C88.4785 83.7832 87.5762 84.1758 86.5273 84.1758C85.5898 84.1758 84.8193 83.9121 84.2158 83.3848C83.6182 82.8516 83.3193 82.1777 83.3193 81.3633C83.3193 80.373 83.6943 79.6055 84.4443 79.0605C85.2002 78.5098 86.2607 78.2344 87.626 78.2344H89.208V77.4873C89.208 76.9189 89.0381 76.4678 88.6982 76.1338C88.3584 75.7939 87.8574 75.624 87.1953 75.624C86.6152 75.624 86.1289 75.7705 85.7363 76.0635C85.3438 76.3564 85.1475 76.7109 85.1475 77.127H83.5127C83.5127 76.6523 83.6797 76.1953 84.0137 75.7559C84.3535 75.3105 84.8105 74.959 85.3848 74.7012C85.9648 74.4434 86.6006 74.3145 87.292 74.3145C88.3877 74.3145 89.2461 74.5898 89.8672 75.1406C90.4883 75.6855 90.8105 76.4385 90.834 77.3994V81.7764C90.834 82.6494 90.9453 83.3438 91.168 83.8594V84H89.4629ZM86.7646 82.7607C87.2744 82.7607 87.7578 82.6289 88.2148 82.3652C88.6719 82.1016 89.0029 81.7588 89.208 81.3369V79.3857H87.9336C85.9414 79.3857 84.9453 79.9688 84.9453 81.1348C84.9453 81.6445 85.1152 82.043 85.4551 82.3301C85.7949 82.6172 86.2314 82.7607 86.7646 82.7607ZM97.1973 82.8486C97.7773 82.8486 98.2842 82.6729 98.7178 82.3213C99.1514 81.9697 99.3916 81.5303 99.4385 81.0029H100.977C100.947 81.5479 100.76 82.0664 100.414 82.5586C100.068 83.0508 99.6055 83.4434 99.0254 83.7363C98.4512 84.0293 97.8418 84.1758 97.1973 84.1758C95.9023 84.1758 94.8711 83.7451 94.1035 82.8838C93.3418 82.0166 92.9609 80.833 92.9609 79.333V79.0605C92.9609 78.1348 93.1309 77.3115 93.4707 76.5908C93.8105 75.8701 94.2969 75.3105 94.9297 74.9121C95.5684 74.5137 96.3213 74.3145 97.1885 74.3145C98.2549 74.3145 99.1396 74.6338 99.8428 75.2725C100.552 75.9111 100.93 76.7402 100.977 77.7598H99.4385C99.3916 77.1445 99.1572 76.6406 98.7354 76.248C98.3193 75.8496 97.8037 75.6504 97.1885 75.6504C96.3623 75.6504 95.7207 75.9492 95.2637 76.5469C94.8125 77.1387 94.5869 77.9971 94.5869 79.1221V79.4297C94.5869 80.5254 94.8125 81.3691 95.2637 81.9609C95.7148 82.5527 96.3594 82.8486 97.1973 82.8486ZM105.459 79.5967L104.439 80.6602V84H102.813V70.5H104.439V78.665L105.31 77.6191L108.271 74.4902H110.249L106.549 78.4629L110.68 84H108.772L105.459 79.5967Z" fill="#FF7A00"/>
<path d="M24.7188 116.085H19.1729V120.62H25.6152V122H17.4854V109.203H25.5273V110.592H19.1729V114.705H24.7188V116.085ZM28.999 112.49L29.0518 113.686C29.7783 112.771 30.7275 112.314 31.8994 112.314C33.9092 112.314 34.9229 113.448 34.9404 115.716V122H33.3145V115.707C33.3086 115.021 33.1504 114.515 32.8398 114.187C32.5352 113.858 32.0576 113.694 31.4072 113.694C30.8799 113.694 30.417 113.835 30.0186 114.116C29.6201 114.397 29.3096 114.767 29.0869 115.224V122H27.4609V112.49H28.999ZM36.9971 117.166C36.9971 115.707 37.3428 114.535 38.0342 113.65C38.7256 112.76 39.6309 112.314 40.75 112.314C41.8633 112.314 42.7451 112.695 43.3955 113.457V108.5H45.0215V122H43.5273L43.4482 120.98C42.7979 121.777 41.8926 122.176 40.7324 122.176C39.6309 122.176 38.7314 121.725 38.0342 120.822C37.3428 119.92 36.9971 118.742 36.9971 117.289V117.166ZM38.623 117.351C38.623 118.429 38.8457 119.272 39.291 119.882C39.7363 120.491 40.3516 120.796 41.1367 120.796C42.168 120.796 42.9209 120.333 43.3955 119.407V115.039C42.9092 114.143 42.1621 113.694 41.1543 113.694C40.3574 113.694 39.7363 114.002 39.291 114.617C38.8457 115.232 38.623 116.144 38.623 117.351ZM55.1289 119.618L57.3438 112.49H59.084L55.2607 123.468C54.6689 125.05 53.7285 125.841 52.4395 125.841L52.1318 125.814L51.5254 125.7V124.382L51.9648 124.417C52.5156 124.417 52.9434 124.306 53.248 124.083C53.5586 123.86 53.8135 123.453 54.0127 122.861L54.373 121.895L50.9805 112.49H52.7559L55.1289 119.618ZM59.9717 117.157C59.9717 116.226 60.1533 115.388 60.5166 114.644C60.8857 113.899 61.3955 113.325 62.0459 112.921C62.7021 112.517 63.4492 112.314 64.2871 112.314C65.582 112.314 66.6279 112.763 67.4248 113.659C68.2275 114.556 68.6289 115.748 68.6289 117.236V117.351C68.6289 118.276 68.4502 119.108 68.0928 119.847C67.7412 120.579 67.2344 121.15 66.5723 121.561C65.916 121.971 65.1602 122.176 64.3047 122.176C63.0156 122.176 61.9697 121.728 61.167 120.831C60.3701 119.935 59.9717 118.748 59.9717 117.271V117.157ZM61.6064 117.351C61.6064 118.405 61.8496 119.252 62.3359 119.891C62.8281 120.529 63.4844 120.849 64.3047 120.849C65.1309 120.849 65.7871 120.526 66.2734 119.882C66.7598 119.231 67.0029 118.323 67.0029 117.157C67.0029 116.114 66.7539 115.271 66.2559 114.626C65.7637 113.976 65.1074 113.65 64.2871 113.65C63.4844 113.65 62.8369 113.97 62.3447 114.608C61.8525 115.247 61.6064 116.161 61.6064 117.351ZM76.5391 121.06C75.9062 121.804 74.9775 122.176 73.7529 122.176C72.7393 122.176 71.9658 121.883 71.4326 121.297C70.9053 120.705 70.6387 119.832 70.6328 118.678V112.49H72.2588V118.634C72.2588 120.075 72.8447 120.796 74.0166 120.796C75.2588 120.796 76.085 120.333 76.4951 119.407V112.49H78.1211V122H76.5742L76.5391 121.06ZM85.1963 113.949C84.9502 113.908 84.6836 113.888 84.3965 113.888C83.3301 113.888 82.6064 114.342 82.2256 115.25V122H80.5996V112.49H82.1816L82.208 113.589C82.7412 112.739 83.4971 112.314 84.4756 112.314C84.792 112.314 85.0322 112.355 85.1963 112.438V113.949ZM93.3701 110.188V112.49H95.1455V113.747H93.3701V119.645C93.3701 120.025 93.4492 120.312 93.6074 120.506C93.7656 120.693 94.0352 120.787 94.416 120.787C94.6035 120.787 94.8613 120.752 95.1895 120.682V122C94.7617 122.117 94.3457 122.176 93.9414 122.176C93.2148 122.176 92.667 121.956 92.2979 121.517C91.9287 121.077 91.7441 120.453 91.7441 119.645V113.747H90.0127V112.49H91.7441V110.188H93.3701ZM102.924 121.06C102.291 121.804 101.362 122.176 100.138 122.176C99.124 122.176 98.3506 121.883 97.8174 121.297C97.29 120.705 97.0234 119.832 97.0176 118.678V112.49H98.6436V118.634C98.6436 120.075 99.2295 120.796 100.401 120.796C101.644 120.796 102.47 120.333 102.88 119.407V112.49H104.506V122H102.959L102.924 121.06ZM111.581 113.949C111.335 113.908 111.068 113.888 110.781 113.888C109.715 113.888 108.991 114.342 108.61 115.25V122H106.984V112.49H108.566L108.593 113.589C109.126 112.739 109.882 112.314 110.86 112.314C111.177 112.314 111.417 112.355 111.581 112.438V113.949ZM114.622 112.49L114.675 113.686C115.401 112.771 116.351 112.314 117.522 112.314C119.532 112.314 120.546 113.448 120.563 115.716V122H118.938V115.707C118.932 115.021 118.773 114.515 118.463 114.187C118.158 113.858 117.681 113.694 117.03 113.694C116.503 113.694 116.04 113.835 115.642 114.116C115.243 114.397 114.933 114.767 114.71 115.224V122H113.084V112.49H114.622ZM25.6504 140.759L27.4785 133.49H29.1045L26.3359 143H25.0176L22.7061 135.793L20.4561 143H19.1377L16.3779 133.49H17.9951L19.8672 140.609L22.082 133.49H23.3916L25.6504 140.759ZM32.5322 143H30.9062V133.49H32.5322V143ZM30.7744 130.968C30.7744 130.704 30.8535 130.481 31.0117 130.3C31.1758 130.118 31.416 130.027 31.7324 130.027C32.0488 130.027 32.2891 130.118 32.4531 130.3C32.6172 130.481 32.6992 130.704 32.6992 130.968C32.6992 131.231 32.6172 131.451 32.4531 131.627C32.2891 131.803 32.0488 131.891 31.7324 131.891C31.416 131.891 31.1758 131.803 31.0117 131.627C30.8535 131.451 30.7744 131.231 30.7744 130.968ZM37.3486 131.188V133.49H39.124V134.747H37.3486V140.645C37.3486 141.025 37.4277 141.312 37.5859 141.506C37.7441 141.693 38.0137 141.787 38.3945 141.787C38.582 141.787 38.8398 141.752 39.168 141.682V143C38.7402 143.117 38.3242 143.176 37.9199 143.176C37.1934 143.176 36.6455 142.956 36.2764 142.517C35.9072 142.077 35.7227 141.453 35.7227 140.645V134.747H33.9912V133.49H35.7227V131.188H37.3486ZM42.6572 134.642C43.3779 133.757 44.3154 133.314 45.4697 133.314C47.4795 133.314 48.4932 134.448 48.5107 136.716V143H46.8848V136.707C46.8789 136.021 46.7207 135.515 46.4102 135.187C46.1055 134.858 45.6279 134.694 44.9775 134.694C44.4502 134.694 43.9873 134.835 43.5889 135.116C43.1904 135.397 42.8799 135.767 42.6572 136.224V143H41.0312V129.5H42.6572V134.642ZM50.5146 138.157C50.5146 137.226 50.6963 136.388 51.0596 135.644C51.4287 134.899 51.9385 134.325 52.5889 133.921C53.2451 133.517 53.9922 133.314 54.8301 133.314C56.125 133.314 57.1709 133.763 57.9678 134.659C58.7705 135.556 59.1719 136.748 59.1719 138.236V138.351C59.1719 139.276 58.9932 140.108 58.6357 140.847C58.2842 141.579 57.7773 142.15 57.1152 142.561C56.459 142.971 55.7031 143.176 54.8477 143.176C53.5586 143.176 52.5127 142.728 51.71 141.831C50.9131 140.935 50.5146 139.748 50.5146 138.271V138.157ZM52.1494 138.351C52.1494 139.405 52.3926 140.252 52.8789 140.891C53.3711 141.529 54.0273 141.849 54.8477 141.849C55.6738 141.849 56.3301 141.526 56.8164 140.882C57.3027 140.231 57.5459 139.323 57.5459 138.157C57.5459 137.114 57.2969 136.271 56.7988 135.626C56.3066 134.976 55.6504 134.65 54.8301 134.65C54.0273 134.65 53.3799 134.97 52.8877 135.608C52.3955 136.247 52.1494 137.161 52.1494 138.351ZM67.082 142.06C66.4492 142.804 65.5205 143.176 64.2959 143.176C63.2822 143.176 62.5088 142.883 61.9756 142.297C61.4482 141.705 61.1816 140.832 61.1758 139.678V133.49H62.8018V139.634C62.8018 141.075 63.3877 141.796 64.5596 141.796C65.8018 141.796 66.6279 141.333 67.0381 140.407V133.49H68.6641V143H67.1172L67.082 142.06ZM73.3486 131.188V133.49H75.124V134.747H73.3486V140.645C73.3486 141.025 73.4277 141.312 73.5859 141.506C73.7441 141.693 74.0137 141.787 74.3945 141.787C74.582 141.787 74.8398 141.752 75.168 141.682V143C74.7402 143.117 74.3242 143.176 73.9199 143.176C73.1934 143.176 72.6455 142.956 72.2764 142.517C71.9072 142.077 71.7227 141.453 71.7227 140.645V134.747H69.9912V133.49H71.7227V131.188H73.3486ZM81.1006 138.166C81.1006 136.707 81.4463 135.535 82.1377 134.65C82.8291 133.76 83.7344 133.314 84.8535 133.314C85.9668 133.314 86.8486 133.695 87.499 134.457V129.5H89.125V143H87.6309L87.5518 141.98C86.9014 142.777 85.9961 143.176 84.8359 143.176C83.7344 143.176 82.835 142.725 82.1377 141.822C81.4463 140.92 81.1006 139.742 81.1006 138.289V138.166ZM82.7266 138.351C82.7266 139.429 82.9492 140.272 83.3945 140.882C83.8398 141.491 84.4551 141.796 85.2402 141.796C86.2715 141.796 87.0244 141.333 87.499 140.407V136.039C87.0127 135.143 86.2656 134.694 85.2578 134.694C84.4609 134.694 83.8398 135.002 83.3945 135.617C82.9492 136.232 82.7266 137.144 82.7266 138.351ZM96.2529 134.949C96.0068 134.908 95.7402 134.888 95.4531 134.888C94.3867 134.888 93.6631 135.342 93.2822 136.25V143H91.6562V133.49H93.2383L93.2646 134.589C93.7979 133.739 94.5537 133.314 95.5322 133.314C95.8486 133.314 96.0889 133.355 96.2529 133.438V134.949ZM103.275 143C103.182 142.812 103.105 142.479 103.047 141.998C102.291 142.783 101.389 143.176 100.34 143.176C99.4023 143.176 98.6318 142.912 98.0283 142.385C97.4307 141.852 97.1318 141.178 97.1318 140.363C97.1318 139.373 97.5068 138.605 98.2568 138.061C99.0127 137.51 100.073 137.234 101.438 137.234H103.021V136.487C103.021 135.919 102.851 135.468 102.511 135.134C102.171 134.794 101.67 134.624 101.008 134.624C100.428 134.624 99.9414 134.771 99.5488 135.063C99.1562 135.356 98.96 135.711 98.96 136.127H97.3252C97.3252 135.652 97.4922 135.195 97.8262 134.756C98.166 134.311 98.623 133.959 99.1973 133.701C99.7773 133.443 100.413 133.314 101.104 133.314C102.2 133.314 103.059 133.59 103.68 134.141C104.301 134.686 104.623 135.438 104.646 136.399V140.776C104.646 141.649 104.758 142.344 104.98 142.859V143H103.275ZM100.577 141.761C101.087 141.761 101.57 141.629 102.027 141.365C102.484 141.102 102.815 140.759 103.021 140.337V138.386H101.746C99.7539 138.386 98.7578 138.969 98.7578 140.135C98.7578 140.645 98.9277 141.043 99.2676 141.33C99.6074 141.617 100.044 141.761 100.577 141.761ZM115.615 140.759L117.443 133.49H119.069L116.301 143H114.982L112.671 135.793L110.421 143H109.103L106.343 133.49H107.96L109.832 140.609L112.047 133.49H113.356L115.615 140.759ZM122.497 143H120.871V133.49H122.497V143ZM120.739 130.968C120.739 130.704 120.818 130.481 120.977 130.3C121.141 130.118 121.381 130.027 121.697 130.027C122.014 130.027 122.254 130.118 122.418 130.3C122.582 130.481 122.664 130.704 122.664 130.968C122.664 131.231 122.582 131.451 122.418 131.627C122.254 131.803 122.014 131.891 121.697 131.891C121.381 131.891 121.141 131.803 120.977 131.627C120.818 131.451 120.739 131.231 120.739 130.968ZM126.646 133.49L126.698 134.686C127.425 133.771 128.374 133.314 129.546 133.314C131.556 133.314 132.569 134.448 132.587 136.716V143H130.961V136.707C130.955 136.021 130.797 135.515 130.486 135.187C130.182 134.858 129.704 134.694 129.054 134.694C128.526 134.694 128.063 134.835 127.665 135.116C127.267 135.397 126.956 135.767 126.733 136.224V143H125.107V133.49H126.646ZM134.652 138.166C134.652 136.684 134.995 135.506 135.681 134.633C136.366 133.754 137.274 133.314 138.405 133.314C139.565 133.314 140.471 133.725 141.121 134.545L141.2 133.49H142.686V142.771C142.686 144.002 142.319 144.972 141.587 145.681C140.86 146.39 139.882 146.744 138.651 146.744C137.966 146.744 137.295 146.598 136.639 146.305C135.982 146.012 135.481 145.61 135.136 145.101L135.979 144.125C136.677 144.986 137.529 145.417 138.537 145.417C139.328 145.417 139.943 145.194 140.383 144.749C140.828 144.304 141.051 143.677 141.051 142.868V142.051C140.4 142.801 139.513 143.176 138.388 143.176C137.274 143.176 136.372 142.728 135.681 141.831C134.995 140.935 134.652 139.713 134.652 138.166ZM136.287 138.351C136.287 139.423 136.507 140.267 136.946 140.882C137.386 141.491 138.001 141.796 138.792 141.796C139.817 141.796 140.57 141.33 141.051 140.398V136.057C140.553 135.148 139.806 134.694 138.81 134.694C138.019 134.694 137.4 135.002 136.955 135.617C136.51 136.232 136.287 137.144 136.287 138.351ZM155.482 143C155.389 142.812 155.312 142.479 155.254 141.998C154.498 142.783 153.596 143.176 152.547 143.176C151.609 143.176 150.839 142.912 150.235 142.385C149.638 141.852 149.339 141.178 149.339 140.363C149.339 139.373 149.714 138.605 150.464 138.061C151.22 137.51 152.28 137.234 153.646 137.234H155.228V136.487C155.228 135.919 155.058 135.468 154.718 135.134C154.378 134.794 153.877 134.624 153.215 134.624C152.635 134.624 152.148 134.771 151.756 135.063C151.363 135.356 151.167 135.711 151.167 136.127H149.532C149.532 135.652 149.699 135.195 150.033 134.756C150.373 134.311 150.83 133.959 151.404 133.701C151.984 133.443 152.62 133.314 153.312 133.314C154.407 133.314 155.266 133.59 155.887 134.141C156.508 134.686 156.83 135.438 156.854 136.399V140.776C156.854 141.649 156.965 142.344 157.188 142.859V143H155.482ZM152.784 141.761C153.294 141.761 153.777 141.629 154.234 141.365C154.691 141.102 155.022 140.759 155.228 140.337V138.386H153.953C151.961 138.386 150.965 138.969 150.965 140.135C150.965 140.645 151.135 141.043 151.475 141.33C151.814 141.617 152.251 141.761 152.784 141.761ZM21.0449 162.849C21.625 162.849 22.1318 162.673 22.5654 162.321C22.999 161.97 23.2393 161.53 23.2861 161.003H24.8242C24.7949 161.548 24.6074 162.066 24.2617 162.559C23.916 163.051 23.4531 163.443 22.873 163.736C22.2988 164.029 21.6895 164.176 21.0449 164.176C19.75 164.176 18.7188 163.745 17.9512 162.884C17.1895 162.017 16.8086 160.833 16.8086 159.333V159.061C16.8086 158.135 16.9785 157.312 17.3184 156.591C17.6582 155.87 18.1445 155.311 18.7773 154.912C19.416 154.514 20.1689 154.314 21.0361 154.314C22.1025 154.314 22.9873 154.634 23.6904 155.272C24.3994 155.911 24.7773 156.74 24.8242 157.76H23.2861C23.2393 157.145 23.0049 156.641 22.583 156.248C22.167 155.85 21.6514 155.65 21.0361 155.65C20.21 155.65 19.5684 155.949 19.1113 156.547C18.6602 157.139 18.4346 157.997 18.4346 159.122V159.43C18.4346 160.525 18.6602 161.369 19.1113 161.961C19.5625 162.553 20.207 162.849 21.0449 162.849ZM32.5234 164C32.4297 163.812 32.3535 163.479 32.2949 162.998C31.5391 163.783 30.6367 164.176 29.5879 164.176C28.6504 164.176 27.8799 163.912 27.2764 163.385C26.6787 162.852 26.3799 162.178 26.3799 161.363C26.3799 160.373 26.7549 159.605 27.5049 159.061C28.2607 158.51 29.3213 158.234 30.6865 158.234H32.2686V157.487C32.2686 156.919 32.0986 156.468 31.7588 156.134C31.4189 155.794 30.918 155.624 30.2559 155.624C29.6758 155.624 29.1895 155.771 28.7969 156.063C28.4043 156.356 28.208 156.711 28.208 157.127H26.5732C26.5732 156.652 26.7402 156.195 27.0742 155.756C27.4141 155.311 27.8711 154.959 28.4453 154.701C29.0254 154.443 29.6611 154.314 30.3525 154.314C31.4482 154.314 32.3066 154.59 32.9277 155.141C33.5488 155.686 33.8711 156.438 33.8945 157.399V161.776C33.8945 162.649 34.0059 163.344 34.2285 163.859V164H32.5234ZM29.8252 162.761C30.335 162.761 30.8184 162.629 31.2754 162.365C31.7324 162.102 32.0635 161.759 32.2686 161.337V159.386H30.9941C29.002 159.386 28.0059 159.969 28.0059 161.135C28.0059 161.645 28.1758 162.043 28.5156 162.33C28.8555 162.617 29.292 162.761 29.8252 162.761ZM41.04 155.949C40.7939 155.908 40.5273 155.888 40.2402 155.888C39.1738 155.888 38.4502 156.342 38.0693 157.25V164H36.4434V154.49H38.0254L38.0518 155.589C38.585 154.739 39.3408 154.314 40.3193 154.314C40.6357 154.314 40.876 154.355 41.04 154.438V155.949ZM41.9717 159.166C41.9717 157.707 42.3174 156.535 43.0088 155.65C43.7002 154.76 44.6055 154.314 45.7246 154.314C46.8379 154.314 47.7197 154.695 48.3701 155.457V150.5H49.9961V164H48.502L48.4229 162.98C47.7725 163.777 46.8672 164.176 45.707 164.176C44.6055 164.176 43.7061 163.725 43.0088 162.822C42.3174 161.92 41.9717 160.742 41.9717 159.289V159.166ZM43.5977 159.351C43.5977 160.429 43.8203 161.272 44.2656 161.882C44.7109 162.491 45.3262 162.796 46.1113 162.796C47.1426 162.796 47.8955 162.333 48.3701 161.407V157.039C47.8838 156.143 47.1367 155.694 46.1289 155.694C45.332 155.694 44.7109 156.002 44.2656 156.617C43.8203 157.232 43.5977 158.144 43.5977 159.351ZM24.543 179.349H19.1729V185H17.4854V172.203H25.4131V173.592H19.1729V177.969H24.543V179.349ZM26.5557 180.157C26.5557 179.226 26.7373 178.388 27.1006 177.644C27.4697 176.899 27.9795 176.325 28.6299 175.921C29.2861 175.517 30.0332 175.314 30.8711 175.314C32.166 175.314 33.2119 175.763 34.0088 176.659C34.8115 177.556 35.2129 178.748 35.2129 180.236V180.351C35.2129 181.276 35.0342 182.108 34.6768 182.847C34.3252 183.579 33.8184 184.15 33.1562 184.561C32.5 184.971 31.7441 185.176 30.8887 185.176C29.5996 185.176 28.5537 184.728 27.751 183.831C26.9541 182.935 26.5557 181.748 26.5557 180.271V180.157ZM28.1904 180.351C28.1904 181.405 28.4336 182.252 28.9199 182.891C29.4121 183.529 30.0684 183.849 30.8887 183.849C31.7148 183.849 32.3711 183.526 32.8574 182.882C33.3438 182.231 33.5869 181.323 33.5869 180.157C33.5869 179.114 33.3379 178.271 32.8398 177.626C32.3477 176.976 31.6914 176.65 30.8711 176.65C30.0684 176.65 29.4209 176.97 28.9287 177.608C28.4365 178.247 28.1904 179.161 28.1904 180.351ZM41.8486 176.949C41.6025 176.908 41.3359 176.888 41.0488 176.888C39.9824 176.888 39.2588 177.342 38.8779 178.25V185H37.252V175.49H38.834L38.8604 176.589C39.3936 175.739 40.1494 175.314 41.1279 175.314C41.4443 175.314 41.6846 175.355 41.8486 175.438V176.949ZM46.9902 183.849C47.5703 183.849 48.0771 183.673 48.5107 183.321C48.9443 182.97 49.1846 182.53 49.2314 182.003H50.7695C50.7402 182.548 50.5527 183.066 50.207 183.559C49.8613 184.051 49.3984 184.443 48.8184 184.736C48.2441 185.029 47.6348 185.176 46.9902 185.176C45.6953 185.176 44.6641 184.745 43.8965 183.884C43.1348 183.017 42.7539 181.833 42.7539 180.333V180.061C42.7539 179.135 42.9238 178.312 43.2637 177.591C43.6035 176.87 44.0898 176.311 44.7227 175.912C45.3613 175.514 46.1143 175.314 46.9814 175.314C48.0479 175.314 48.9326 175.634 49.6357 176.272C50.3447 176.911 50.7227 177.74 50.7695 178.76H49.2314C49.1846 178.145 48.9502 177.641 48.5283 177.248C48.1123 176.85 47.5967 176.65 46.9814 176.65C46.1553 176.65 45.5137 176.949 45.0566 177.547C44.6055 178.139 44.3799 178.997 44.3799 180.122V180.43C44.3799 181.525 44.6055 182.369 45.0566 182.961C45.5078 183.553 46.1523 183.849 46.9902 183.849ZM56.5439 185.176C55.2549 185.176 54.2061 184.754 53.3975 183.91C52.5889 183.061 52.1846 181.927 52.1846 180.509V180.21C52.1846 179.267 52.3633 178.426 52.7207 177.688C53.084 176.943 53.5879 176.363 54.2324 175.947C54.8828 175.525 55.5859 175.314 56.3418 175.314C57.5781 175.314 58.5391 175.722 59.2246 176.536C59.9102 177.351 60.2529 178.517 60.2529 180.034V180.711H53.8105C53.834 181.648 54.1064 182.407 54.6279 182.987C55.1553 183.562 55.8232 183.849 56.6318 183.849C57.2061 183.849 57.6924 183.731 58.0908 183.497C58.4893 183.263 58.8379 182.952 59.1367 182.565L60.1299 183.339C59.333 184.563 58.1377 185.176 56.5439 185.176ZM56.3418 176.65C55.6855 176.65 55.1348 176.891 54.6895 177.371C54.2441 177.846 53.9688 178.514 53.8633 179.375H58.627V179.252C58.5801 178.426 58.3574 177.787 57.959 177.336C57.5605 176.879 57.0215 176.65 56.3418 176.65ZM67.6797 182.478C67.6797 182.038 67.5127 181.698 67.1787 181.458C66.8506 181.212 66.2734 181.001 65.4473 180.825C64.627 180.649 63.9736 180.438 63.4873 180.192C63.0068 179.946 62.6494 179.653 62.415 179.313C62.1865 178.974 62.0723 178.569 62.0723 178.101C62.0723 177.321 62.4004 176.662 63.0566 176.123C63.7188 175.584 64.5625 175.314 65.5879 175.314C66.666 175.314 67.5391 175.593 68.207 176.149C68.8809 176.706 69.2178 177.418 69.2178 178.285H67.583C67.583 177.84 67.3926 177.456 67.0117 177.134C66.6367 176.812 66.1621 176.65 65.5879 176.65C64.9961 176.65 64.5332 176.779 64.1992 177.037C63.8652 177.295 63.6982 177.632 63.6982 178.048C63.6982 178.44 63.8535 178.736 64.1641 178.936C64.4746 179.135 65.0342 179.325 65.8428 179.507C66.6572 179.688 67.3164 179.905 67.8203 180.157C68.3242 180.409 68.6963 180.714 68.9365 181.071C69.1826 181.423 69.3057 181.854 69.3057 182.363C69.3057 183.213 68.9658 183.896 68.2861 184.411C67.6064 184.921 66.7246 185.176 65.6406 185.176C64.8789 185.176 64.2051 185.041 63.6191 184.771C63.0332 184.502 62.5732 184.127 62.2393 183.646C61.9111 183.16 61.7471 182.636 61.7471 182.073H63.373C63.4023 182.618 63.6191 183.052 64.0234 183.374C64.4336 183.69 64.9727 183.849 65.6406 183.849C66.2559 183.849 66.748 183.726 67.1172 183.479C67.4922 183.228 67.6797 182.894 67.6797 182.478ZM85.5566 180.939C85.3984 182.293 84.8975 183.339 84.0537 184.077C83.2158 184.81 82.0996 185.176 80.7051 185.176C79.1934 185.176 77.9805 184.634 77.0664 183.55C76.1582 182.466 75.7041 181.016 75.7041 179.199V177.969C75.7041 176.779 75.915 175.733 76.3369 174.831C76.7646 173.929 77.3682 173.237 78.1475 172.757C78.9268 172.271 79.8291 172.027 80.8545 172.027C82.2139 172.027 83.3037 172.408 84.124 173.17C84.9443 173.926 85.4219 174.975 85.5566 176.316H83.8604C83.7139 175.297 83.3945 174.559 82.9023 174.102C82.416 173.645 81.7334 173.416 80.8545 173.416C79.7764 173.416 78.9297 173.814 78.3145 174.611C77.7051 175.408 77.4004 176.542 77.4004 178.013V179.252C77.4004 180.641 77.6904 181.745 78.2705 182.565C78.8506 183.386 79.6621 183.796 80.7051 183.796C81.6426 183.796 82.3604 183.585 82.8584 183.163C83.3623 182.735 83.6963 181.994 83.8604 180.939H85.5566ZM87.1826 180.157C87.1826 179.226 87.3643 178.388 87.7275 177.644C88.0967 176.899 88.6064 176.325 89.2568 175.921C89.9131 175.517 90.6602 175.314 91.498 175.314C92.793 175.314 93.8389 175.763 94.6357 176.659C95.4385 177.556 95.8398 178.748 95.8398 180.236V180.351C95.8398 181.276 95.6611 182.108 95.3037 182.847C94.9521 183.579 94.4453 184.15 93.7832 184.561C93.127 184.971 92.3711 185.176 91.5156 185.176C90.2266 185.176 89.1807 184.728 88.3779 183.831C87.5811 182.935 87.1826 181.748 87.1826 180.271V180.157ZM88.8174 180.351C88.8174 181.405 89.0605 182.252 89.5469 182.891C90.0391 183.529 90.6953 183.849 91.5156 183.849C92.3418 183.849 92.998 183.526 93.4844 182.882C93.9707 182.231 94.2139 181.323 94.2139 180.157C94.2139 179.114 93.9648 178.271 93.4668 177.626C92.9746 176.976 92.3184 176.65 91.498 176.65C90.6953 176.65 90.0479 176.97 89.5557 177.608C89.0635 178.247 88.8174 179.161 88.8174 180.351ZM99.4082 175.49L99.4521 176.545C100.149 175.725 101.09 175.314 102.273 175.314C103.604 175.314 104.509 175.824 104.989 176.844C105.306 176.387 105.716 176.018 106.22 175.736C106.729 175.455 107.33 175.314 108.021 175.314C110.107 175.314 111.168 176.419 111.203 178.628V185H109.577V178.725C109.577 178.045 109.422 177.538 109.111 177.204C108.801 176.864 108.279 176.694 107.547 176.694C106.943 176.694 106.442 176.876 106.044 177.239C105.646 177.597 105.414 178.08 105.35 178.689V185H103.715V178.769C103.715 177.386 103.038 176.694 101.685 176.694C100.618 176.694 99.8887 177.148 99.4961 178.057V185H97.8701V175.49H99.4082ZM123.306 185H121.671V174.163L118.393 175.367V173.891L123.051 172.142H123.306V185ZM134.327 176.642C135.048 175.757 135.985 175.314 137.14 175.314C139.149 175.314 140.163 176.448 140.181 178.716V185H138.555V178.707C138.549 178.021 138.391 177.515 138.08 177.187C137.775 176.858 137.298 176.694 136.647 176.694C136.12 176.694 135.657 176.835 135.259 177.116C134.86 177.397 134.55 177.767 134.327 178.224V185H132.701V171.5H134.327V176.642ZM148.486 185C148.393 184.812 148.316 184.479 148.258 183.998C147.502 184.783 146.6 185.176 145.551 185.176C144.613 185.176 143.843 184.912 143.239 184.385C142.642 183.852 142.343 183.178 142.343 182.363C142.343 181.373 142.718 180.605 143.468 180.061C144.224 179.51 145.284 179.234 146.649 179.234H148.231V178.487C148.231 177.919 148.062 177.468 147.722 177.134C147.382 176.794 146.881 176.624 146.219 176.624C145.639 176.624 145.152 176.771 144.76 177.063C144.367 177.356 144.171 177.711 144.171 178.127H142.536C142.536 177.652 142.703 177.195 143.037 176.756C143.377 176.311 143.834 175.959 144.408 175.701C144.988 175.443 145.624 175.314 146.315 175.314C147.411 175.314 148.27 175.59 148.891 176.141C149.512 176.686 149.834 177.438 149.857 178.399V182.776C149.857 183.649 149.969 184.344 150.191 184.859V185H148.486ZM145.788 183.761C146.298 183.761 146.781 183.629 147.238 183.365C147.695 183.102 148.026 182.759 148.231 182.337V180.386H146.957C144.965 180.386 143.969 180.969 143.969 182.135C143.969 182.645 144.139 183.043 144.479 183.33C144.818 183.617 145.255 183.761 145.788 183.761ZM157.943 182.478C157.943 182.038 157.776 181.698 157.442 181.458C157.114 181.212 156.537 181.001 155.711 180.825C154.891 180.649 154.237 180.438 153.751 180.192C153.271 179.946 152.913 179.653 152.679 179.313C152.45 178.974 152.336 178.569 152.336 178.101C152.336 177.321 152.664 176.662 153.32 176.123C153.982 175.584 154.826 175.314 155.852 175.314C156.93 175.314 157.803 175.593 158.471 176.149C159.145 176.706 159.481 177.418 159.481 178.285H157.847C157.847 177.84 157.656 177.456 157.275 177.134C156.9 176.812 156.426 176.65 155.852 176.65C155.26 176.65 154.797 176.779 154.463 177.037C154.129 177.295 153.962 177.632 153.962 178.048C153.962 178.44 154.117 178.736 154.428 178.936C154.738 179.135 155.298 179.325 156.106 179.507C156.921 179.688 157.58 179.905 158.084 180.157C158.588 180.409 158.96 180.714 159.2 181.071C159.446 181.423 159.569 181.854 159.569 182.363C159.569 183.213 159.229 183.896 158.55 184.411C157.87 184.921 156.988 185.176 155.904 185.176C155.143 185.176 154.469 185.041 153.883 184.771C153.297 184.502 152.837 184.127 152.503 183.646C152.175 183.16 152.011 182.636 152.011 182.073H153.637C153.666 182.618 153.883 183.052 154.287 183.374C154.697 183.69 155.236 183.849 155.904 183.849C156.52 183.849 157.012 183.726 157.381 183.479C157.756 183.228 157.943 182.894 157.943 182.478ZM25.4482 206H17.0635V204.831L21.4932 199.909C22.1494 199.165 22.6006 198.562 22.8467 198.099C23.0986 197.63 23.2246 197.146 23.2246 196.648C23.2246 195.98 23.0225 195.433 22.6182 195.005C22.2139 194.577 21.6748 194.363 21.001 194.363C20.1924 194.363 19.5625 194.595 19.1113 195.058C18.666 195.515 18.4434 196.153 18.4434 196.974H16.8174C16.8174 195.796 17.1953 194.844 17.9512 194.117C18.7129 193.391 19.7295 193.027 21.001 193.027C22.1904 193.027 23.1309 193.341 23.8223 193.968C24.5137 194.589 24.8594 195.418 24.8594 196.455C24.8594 197.715 24.0566 199.215 22.4512 200.955L19.0234 204.673H25.4482V206ZM34.0088 194.188V196.49H35.7842V197.747H34.0088V203.645C34.0088 204.025 34.0879 204.312 34.2461 204.506C34.4043 204.693 34.6738 204.787 35.0547 204.787C35.2422 204.787 35.5 204.752 35.8281 204.682V206C35.4004 206.117 34.9844 206.176 34.5801 206.176C33.8535 206.176 33.3057 205.956 32.9365 205.517C32.5674 205.077 32.3828 204.453 32.3828 203.645V197.747H30.6514V196.49H32.3828V194.188H34.0088ZM43.5625 205.06C42.9297 205.804 42.001 206.176 40.7764 206.176C39.7627 206.176 38.9893 205.883 38.4561 205.297C37.9287 204.705 37.6621 203.832 37.6562 202.678V196.49H39.2822V202.634C39.2822 204.075 39.8682 204.796 41.04 204.796C42.2822 204.796 43.1084 204.333 43.5186 203.407V196.49H45.1445V206H43.5977L43.5625 205.06ZM52.2197 197.949C51.9736 197.908 51.707 197.888 51.4199 197.888C50.3535 197.888 49.6299 198.342 49.249 199.25V206H47.623V196.49H49.2051L49.2314 197.589C49.7646 196.739 50.5205 196.314 51.499 196.314C51.8154 196.314 52.0557 196.355 52.2197 196.438V197.949ZM55.2607 196.49L55.3135 197.686C56.04 196.771 56.9893 196.314 58.1611 196.314C60.1709 196.314 61.1846 197.448 61.2021 199.716V206H59.5762V199.707C59.5703 199.021 59.4121 198.515 59.1016 198.187C58.7969 197.858 58.3193 197.694 57.6689 197.694C57.1416 197.694 56.6787 197.835 56.2803 198.116C55.8818 198.397 55.5713 198.767 55.3486 199.224V206H53.7227V196.49H55.2607ZM69.1914 203.478C69.1914 203.038 69.0244 202.698 68.6904 202.458C68.3623 202.212 67.7852 202.001 66.959 201.825C66.1387 201.649 65.4854 201.438 64.999 201.192C64.5186 200.946 64.1611 200.653 63.9268 200.313C63.6982 199.974 63.584 199.569 63.584 199.101C63.584 198.321 63.9121 197.662 64.5684 197.123C65.2305 196.584 66.0742 196.314 67.0996 196.314C68.1777 196.314 69.0508 196.593 69.7188 197.149C70.3926 197.706 70.7295 198.418 70.7295 199.285H69.0947C69.0947 198.84 68.9043 198.456 68.5234 198.134C68.1484 197.812 67.6738 197.65 67.0996 197.65C66.5078 197.65 66.0449 197.779 65.7109 198.037C65.377 198.295 65.21 198.632 65.21 199.048C65.21 199.44 65.3652 199.736 65.6758 199.936C65.9863 200.135 66.5459 200.325 67.3545 200.507C68.1689 200.688 68.8281 200.905 69.332 201.157C69.8359 201.409 70.208 201.714 70.4482 202.071C70.6943 202.423 70.8174 202.854 70.8174 203.363C70.8174 204.213 70.4775 204.896 69.7979 205.411C69.1182 205.921 68.2363 206.176 67.1523 206.176C66.3906 206.176 65.7168 206.041 65.1309 205.771C64.5449 205.502 64.085 205.127 63.751 204.646C63.4229 204.16 63.2588 203.636 63.2588 203.073H64.8848C64.9141 203.618 65.1309 204.052 65.5352 204.374C65.9453 204.69 66.4844 204.849 67.1523 204.849C67.7676 204.849 68.2598 204.726 68.6289 204.479C69.0039 204.228 69.1914 203.894 69.1914 203.478Z" fill="black"/>
</svg>
