<svg width="180" height="240" viewBox="0 0 180 240" fill="none" xmlns="http://www.w3.org/2000/svg">
<rect width="180" height="240" fill="white"/>
<path d="M64.7012 117.773H61.127L60.3242 120H59.1641L62.4219 111.469H63.4062L66.6699 120H65.5156L64.7012 117.773ZM61.4668 116.848H64.3672L62.9141 112.857L61.4668 116.848ZM69.0137 112.125V113.66H70.1973V114.498H69.0137V118.43C69.0137 118.684 69.0664 118.875 69.1719 119.004C69.2773 119.129 69.457 119.191 69.7109 119.191C69.8359 119.191 70.0078 119.168 70.2266 119.121V120C69.9414 120.078 69.6641 120.117 69.3945 120.117C68.9102 120.117 68.5449 119.971 68.2988 119.678C68.0527 119.385 67.9297 118.969 67.9297 118.43V114.498H66.7754V113.66H67.9297V112.125H69.0137ZM72.9395 112.125V113.66H74.123V114.498H72.9395V118.43C72.9395 118.684 72.9922 118.875 73.0977 119.004C73.2031 119.129 73.3828 119.191 73.6367 119.191C73.7617 119.191 73.9336 119.168 74.1523 119.121V120C73.8672 120.078 73.5898 120.117 73.3203 120.117C72.8359 120.117 72.4707 119.971 72.2246 119.678C71.9785 119.385 71.8555 118.969 71.8555 118.43V114.498H70.7012V113.66H71.8555V112.125H72.9395ZM79.3086 120C79.2461 119.875 79.1953 119.652 79.1562 119.332C78.6523 119.855 78.0508 120.117 77.3516 120.117C76.7266 120.117 76.2129 119.941 75.8105 119.59C75.4121 119.234 75.2129 118.785 75.2129 118.242C75.2129 117.582 75.4629 117.07 75.9629 116.707C76.4668 116.34 77.1738 116.156 78.084 116.156H79.1387V115.658C79.1387 115.279 79.0254 114.979 78.7988 114.756C78.5723 114.529 78.2383 114.416 77.7969 114.416C77.4102 114.416 77.0859 114.514 76.8242 114.709C76.5625 114.904 76.4316 115.141 76.4316 115.418H75.3418C75.3418 115.102 75.4531 114.797 75.6758 114.504C75.9023 114.207 76.207 113.973 76.5898 113.801C76.9766 113.629 77.4004 113.543 77.8613 113.543C78.5918 113.543 79.1641 113.727 79.5781 114.094C79.9922 114.457 80.207 114.959 80.2227 115.6V118.518C80.2227 119.1 80.2969 119.562 80.4453 119.906V120H79.3086ZM77.5098 119.174C77.8496 119.174 78.1719 119.086 78.4766 118.91C78.7812 118.734 79.002 118.506 79.1387 118.225V116.924H78.2891C76.9609 116.924 76.2969 117.312 76.2969 118.09C76.2969 118.43 76.4102 118.695 76.6367 118.887C76.8633 119.078 77.1543 119.174 77.5098 119.174ZM84.4648 119.232C84.8516 119.232 85.1895 119.115 85.4785 118.881C85.7676 118.646 85.9277 118.354 85.959 118.002H86.9844C86.9648 118.365 86.8398 118.711 86.6094 119.039C86.3789 119.367 86.0703 119.629 85.6836 119.824C85.3008 120.02 84.8945 120.117 84.4648 120.117C83.6016 120.117 82.9141 119.83 82.4023 119.256C81.8945 118.678 81.6406 117.889 81.6406 116.889V116.707C81.6406 116.09 81.7539 115.541 81.9805 115.061C82.207 114.58 82.5312 114.207 82.9531 113.941C83.3789 113.676 83.8809 113.543 84.459 113.543C85.1699 113.543 85.7598 113.756 86.2285 114.182C86.7012 114.607 86.9531 115.16 86.9844 115.84H85.959C85.9277 115.43 85.7715 115.094 85.4902 114.832C85.2129 114.566 84.8691 114.434 84.459 114.434C83.9082 114.434 83.4805 114.633 83.1758 115.031C82.875 115.426 82.7246 115.998 82.7246 116.748V116.953C82.7246 117.684 82.875 118.246 83.1758 118.641C83.4766 119.035 83.9062 119.232 84.4648 119.232ZM89.9727 117.064L89.293 117.773V120H88.209V111H89.293V116.443L89.873 115.746L91.8477 113.66H93.166L90.6992 116.309L93.4531 120H92.1816L89.9727 117.064Z" fill="#FF7A00"/>
<path d="M13.8438 152.714H10.7627V155.233H14.3418V156H9.8252V148.891H14.293V149.662H10.7627V151.947H13.8438V152.714ZM16.2217 150.717L16.251 151.381C16.6546 150.873 17.182 150.619 17.833 150.619C18.9495 150.619 19.5127 151.249 19.5225 152.509V156H18.6191V152.504C18.6159 152.123 18.528 151.841 18.3555 151.659C18.1862 151.477 17.9209 151.386 17.5596 151.386C17.2666 151.386 17.0094 151.464 16.7881 151.62C16.5667 151.776 16.3942 151.981 16.2705 152.235V156H15.3672V150.717H16.2217ZM20.665 153.314C20.665 152.504 20.8571 151.853 21.2412 151.361C21.6253 150.867 22.1283 150.619 22.75 150.619C23.3685 150.619 23.8584 150.831 24.2197 151.254V148.5H25.123V156H24.293L24.249 155.434C23.8877 155.876 23.3848 156.098 22.7402 156.098C22.1283 156.098 21.6286 155.847 21.2412 155.346C20.8571 154.844 20.665 154.19 20.665 153.383V153.314ZM21.5684 153.417C21.5684 154.016 21.6921 154.485 21.9395 154.823C22.1868 155.162 22.5286 155.331 22.9648 155.331C23.5378 155.331 23.9561 155.074 24.2197 154.56V152.133C23.9495 151.635 23.5345 151.386 22.9746 151.386C22.5319 151.386 22.1868 151.557 21.9395 151.898C21.6921 152.24 21.5684 152.746 21.5684 153.417ZM30.7383 154.677L31.9688 150.717H32.9355L30.8115 156.815C30.4827 157.694 29.9603 158.134 29.2441 158.134L29.0732 158.119L28.7363 158.056V157.323L28.9805 157.343C29.2865 157.343 29.5241 157.281 29.6934 157.157C29.8659 157.034 30.0075 156.807 30.1182 156.479L30.3184 155.941L28.4336 150.717H29.4199L30.7383 154.677ZM33.4287 153.31C33.4287 152.792 33.5296 152.326 33.7314 151.913C33.9365 151.5 34.2197 151.181 34.5811 150.956C34.9456 150.731 35.3607 150.619 35.8262 150.619C36.5456 150.619 37.1266 150.868 37.5693 151.366C38.0153 151.864 38.2383 152.527 38.2383 153.354V153.417C38.2383 153.931 38.139 154.394 37.9404 154.804C37.7451 155.211 37.4635 155.528 37.0957 155.756C36.7311 155.984 36.3112 156.098 35.8359 156.098C35.1198 156.098 34.5387 155.849 34.0928 155.351C33.6501 154.853 33.4287 154.193 33.4287 153.373V153.31ZM34.3369 153.417C34.3369 154.003 34.472 154.473 34.7422 154.828C35.0156 155.183 35.3802 155.36 35.8359 155.36C36.2949 155.36 36.6595 155.181 36.9297 154.823C37.1999 154.462 37.335 153.957 37.335 153.31C37.335 152.73 37.1966 152.261 36.9199 151.903C36.6465 151.542 36.2819 151.361 35.8262 151.361C35.3802 151.361 35.0205 151.539 34.7471 151.894C34.4736 152.248 34.3369 152.756 34.3369 153.417ZM42.6328 155.478C42.2812 155.891 41.7653 156.098 41.085 156.098C40.5218 156.098 40.0921 155.935 39.7959 155.609C39.5029 155.281 39.3548 154.796 39.3516 154.154V150.717H40.2549V154.13C40.2549 154.931 40.5804 155.331 41.2314 155.331C41.9215 155.331 42.3805 155.074 42.6084 154.56V150.717H43.5117V156H42.6523L42.6328 155.478ZM47.4424 151.527C47.3057 151.505 47.1576 151.493 46.998 151.493C46.4056 151.493 46.0036 151.745 45.792 152.25V156H44.8887V150.717H45.7676L45.7822 151.327C46.0785 150.855 46.4984 150.619 47.042 150.619C47.2178 150.619 47.3512 150.642 47.4424 150.688V151.527ZM51.9834 149.438V150.717H52.9697V151.415H51.9834V154.691C51.9834 154.903 52.0273 155.062 52.1152 155.17C52.2031 155.274 52.3529 155.326 52.5645 155.326C52.6686 155.326 52.8118 155.307 52.9941 155.268V156C52.7565 156.065 52.5254 156.098 52.3008 156.098C51.8971 156.098 51.5928 155.976 51.3877 155.731C51.1826 155.487 51.0801 155.141 51.0801 154.691V151.415H50.1182V150.717H51.0801V149.438H51.9834ZM57.291 155.478C56.9395 155.891 56.4235 156.098 55.7432 156.098C55.18 156.098 54.7503 155.935 54.4541 155.609C54.1611 155.281 54.013 154.796 54.0098 154.154V150.717H54.9131V154.13C54.9131 154.931 55.2386 155.331 55.8896 155.331C56.5798 155.331 57.0387 155.074 57.2666 154.56V150.717H58.1699V156H57.3105L57.291 155.478ZM62.1006 151.527C61.9639 151.505 61.8158 151.493 61.6562 151.493C61.0638 151.493 60.6618 151.745 60.4502 152.25V156H59.5469V150.717H60.4258L60.4404 151.327C60.7367 150.855 61.1566 150.619 61.7002 150.619C61.876 150.619 62.0094 150.642 62.1006 150.688V151.527ZM63.79 150.717L63.8193 151.381C64.223 150.873 64.7503 150.619 65.4014 150.619C66.5179 150.619 67.0811 151.249 67.0908 152.509V156H66.1875V152.504C66.1842 152.123 66.0964 151.841 65.9238 151.659C65.7546 151.477 65.4893 151.386 65.1279 151.386C64.835 151.386 64.5778 151.464 64.3564 151.62C64.1351 151.776 63.9626 151.981 63.8389 152.235V156H62.9355V150.717H63.79ZM75.6113 154.755L76.627 150.717H77.5303L75.9922 156H75.2598L73.9756 151.996L72.7256 156H71.9932L70.46 150.717H71.3584L72.3984 154.672L73.6289 150.717H74.3564L75.6113 154.755ZM79.4346 156H78.5312V150.717H79.4346V156ZM78.458 149.315C78.458 149.169 78.502 149.045 78.5898 148.944C78.681 148.843 78.8145 148.793 78.9902 148.793C79.166 148.793 79.2995 148.843 79.3906 148.944C79.4818 149.045 79.5273 149.169 79.5273 149.315C79.5273 149.462 79.4818 149.584 79.3906 149.682C79.2995 149.779 79.166 149.828 78.9902 149.828C78.8145 149.828 78.681 149.779 78.5898 149.682C78.502 149.584 78.458 149.462 78.458 149.315ZM82.1104 149.438V150.717H83.0967V151.415H82.1104V154.691C82.1104 154.903 82.1543 155.062 82.2422 155.17C82.3301 155.274 82.4798 155.326 82.6914 155.326C82.7956 155.326 82.9388 155.307 83.1211 155.268V156C82.8835 156.065 82.6523 156.098 82.4277 156.098C82.0241 156.098 81.7197 155.976 81.5146 155.731C81.3096 155.487 81.207 155.141 81.207 154.691V151.415H80.2451V150.717H81.207V149.438H82.1104ZM85.0596 151.356C85.46 150.865 85.9808 150.619 86.6221 150.619C87.7386 150.619 88.3018 151.249 88.3115 152.509V156H87.4082V152.504C87.4049 152.123 87.3171 151.841 87.1445 151.659C86.9753 151.477 86.71 151.386 86.3486 151.386C86.0557 151.386 85.7985 151.464 85.5771 151.62C85.3558 151.776 85.1833 151.981 85.0596 152.235V156H84.1562V148.5H85.0596V151.356ZM89.4248 153.31C89.4248 152.792 89.5257 152.326 89.7275 151.913C89.9326 151.5 90.2158 151.181 90.5771 150.956C90.9417 150.731 91.3568 150.619 91.8223 150.619C92.5417 150.619 93.1227 150.868 93.5654 151.366C94.0114 151.864 94.2344 152.527 94.2344 153.354V153.417C94.2344 153.931 94.1351 154.394 93.9365 154.804C93.7412 155.211 93.4596 155.528 93.0918 155.756C92.7272 155.984 92.3073 156.098 91.832 156.098C91.1159 156.098 90.5348 155.849 90.0889 155.351C89.6462 154.853 89.4248 154.193 89.4248 153.373V153.31ZM90.333 153.417C90.333 154.003 90.4681 154.473 90.7383 154.828C91.0117 155.183 91.3763 155.36 91.832 155.36C92.291 155.36 92.6556 155.181 92.9258 154.823C93.196 154.462 93.3311 153.957 93.3311 153.31C93.3311 152.73 93.1927 152.261 92.916 151.903C92.6426 151.542 92.278 151.361 91.8223 151.361C91.3763 151.361 91.0166 151.539 90.7432 151.894C90.4697 152.248 90.333 152.756 90.333 153.417ZM98.6289 155.478C98.2773 155.891 97.7614 156.098 97.0811 156.098C96.5179 156.098 96.0882 155.935 95.792 155.609C95.499 155.281 95.3509 154.796 95.3477 154.154V150.717H96.251V154.13C96.251 154.931 96.5765 155.331 97.2275 155.331C97.9176 155.331 98.3766 155.074 98.6045 154.56V150.717H99.5078V156H98.6484L98.6289 155.478ZM102.11 149.438V150.717H103.097V151.415H102.11V154.691C102.11 154.903 102.154 155.062 102.242 155.17C102.33 155.274 102.48 155.326 102.691 155.326C102.796 155.326 102.939 155.307 103.121 155.268V156C102.883 156.065 102.652 156.098 102.428 156.098C102.024 156.098 101.72 155.976 101.515 155.731C101.31 155.487 101.207 155.141 101.207 154.691V151.415H100.245V150.717H101.207V149.438H102.11ZM106.417 153.314C106.417 152.504 106.609 151.853 106.993 151.361C107.377 150.867 107.88 150.619 108.502 150.619C109.12 150.619 109.61 150.831 109.972 151.254V148.5H110.875V156H110.045L110.001 155.434C109.64 155.876 109.137 156.098 108.492 156.098C107.88 156.098 107.381 155.847 106.993 155.346C106.609 154.844 106.417 154.19 106.417 153.383V153.314ZM107.32 153.417C107.32 154.016 107.444 154.485 107.691 154.823C107.939 155.162 108.281 155.331 108.717 155.331C109.29 155.331 109.708 155.074 109.972 154.56V152.133C109.701 151.635 109.286 151.386 108.727 151.386C108.284 151.386 107.939 151.557 107.691 151.898C107.444 152.24 107.32 152.746 107.32 153.417ZM114.835 151.527C114.698 151.505 114.55 151.493 114.391 151.493C113.798 151.493 113.396 151.745 113.185 152.25V156H112.281V150.717H113.16L113.175 151.327C113.471 150.855 113.891 150.619 114.435 150.619C114.61 150.619 114.744 150.642 114.835 150.688V151.527ZM118.736 156C118.684 155.896 118.642 155.71 118.609 155.443C118.189 155.88 117.688 156.098 117.105 156.098C116.585 156.098 116.157 155.951 115.821 155.658C115.489 155.362 115.323 154.988 115.323 154.535C115.323 153.985 115.532 153.559 115.948 153.256C116.368 152.95 116.957 152.797 117.716 152.797H118.595V152.382C118.595 152.066 118.5 151.815 118.312 151.63C118.123 151.441 117.844 151.347 117.477 151.347C117.154 151.347 116.884 151.428 116.666 151.591C116.448 151.754 116.339 151.951 116.339 152.182H115.431C115.431 151.918 115.523 151.664 115.709 151.42C115.898 151.173 116.152 150.977 116.471 150.834C116.793 150.691 117.146 150.619 117.53 150.619C118.139 150.619 118.616 150.772 118.961 151.078C119.306 151.381 119.485 151.799 119.498 152.333V154.765C119.498 155.25 119.56 155.635 119.684 155.922V156H118.736ZM117.237 155.312C117.521 155.312 117.789 155.238 118.043 155.092C118.297 154.945 118.481 154.755 118.595 154.521V153.437H117.887C116.78 153.437 116.227 153.76 116.227 154.408C116.227 154.691 116.321 154.913 116.51 155.072C116.699 155.232 116.941 155.312 117.237 155.312ZM125.592 154.755L126.607 150.717H127.511L125.973 156H125.24L123.956 151.996L122.706 156H121.974L120.44 150.717H121.339L122.379 154.672L123.609 150.717H124.337L125.592 154.755ZM129.415 156H128.512V150.717H129.415V156ZM128.438 149.315C128.438 149.169 128.482 149.045 128.57 148.944C128.661 148.843 128.795 148.793 128.971 148.793C129.146 148.793 129.28 148.843 129.371 148.944C129.462 149.045 129.508 149.169 129.508 149.315C129.508 149.462 129.462 149.584 129.371 149.682C129.28 149.779 129.146 149.828 128.971 149.828C128.795 149.828 128.661 149.779 128.57 149.682C128.482 149.584 128.438 149.462 128.438 149.315ZM131.72 150.717L131.749 151.381C132.153 150.873 132.68 150.619 133.331 150.619C134.448 150.619 135.011 151.249 135.021 152.509V156H134.117V152.504C134.114 152.123 134.026 151.841 133.854 151.659C133.684 151.477 133.419 151.386 133.058 151.386C132.765 151.386 132.507 151.464 132.286 151.62C132.065 151.776 131.892 151.981 131.769 152.235V156H130.865V150.717H131.72ZM136.168 153.314C136.168 152.491 136.358 151.837 136.739 151.352C137.12 150.863 137.625 150.619 138.253 150.619C138.897 150.619 139.4 150.847 139.762 151.303L139.806 150.717H140.631V155.873C140.631 156.557 140.427 157.095 140.021 157.489C139.617 157.883 139.073 158.08 138.39 158.08C138.009 158.08 137.636 157.999 137.271 157.836C136.907 157.673 136.629 157.45 136.437 157.167L136.905 156.625C137.293 157.104 137.766 157.343 138.326 157.343C138.766 157.343 139.107 157.219 139.352 156.972C139.599 156.724 139.723 156.376 139.723 155.927V155.473C139.361 155.889 138.868 156.098 138.243 156.098C137.625 156.098 137.123 155.849 136.739 155.351C136.358 154.853 136.168 154.174 136.168 153.314ZM137.076 153.417C137.076 154.013 137.198 154.481 137.442 154.823C137.687 155.162 138.028 155.331 138.468 155.331C139.037 155.331 139.456 155.072 139.723 154.555V152.143C139.446 151.638 139.031 151.386 138.478 151.386C138.038 151.386 137.695 151.557 137.447 151.898C137.2 152.24 137.076 152.746 137.076 153.417ZM147.74 156C147.688 155.896 147.646 155.71 147.613 155.443C147.193 155.88 146.692 156.098 146.109 156.098C145.589 156.098 145.16 155.951 144.825 155.658C144.493 155.362 144.327 154.988 144.327 154.535C144.327 153.985 144.535 153.559 144.952 153.256C145.372 152.95 145.961 152.797 146.72 152.797H147.599V152.382C147.599 152.066 147.504 151.815 147.315 151.63C147.127 151.441 146.848 151.347 146.48 151.347C146.158 151.347 145.888 151.428 145.67 151.591C145.452 151.754 145.343 151.951 145.343 152.182H144.435C144.435 151.918 144.527 151.664 144.713 151.42C144.902 151.173 145.156 150.977 145.475 150.834C145.797 150.691 146.15 150.619 146.534 150.619C147.143 150.619 147.62 150.772 147.965 151.078C148.31 151.381 148.489 151.799 148.502 152.333V154.765C148.502 155.25 148.564 155.635 148.688 155.922V156H147.74ZM146.241 155.312C146.524 155.312 146.793 155.238 147.047 155.092C147.301 154.945 147.485 154.755 147.599 154.521V153.437H146.891C145.784 153.437 145.23 153.76 145.23 154.408C145.23 154.691 145.325 154.913 145.514 155.072C145.702 155.232 145.945 155.312 146.241 155.312ZM154.518 155.36C154.84 155.36 155.121 155.263 155.362 155.067C155.603 154.872 155.737 154.628 155.763 154.335H156.617C156.601 154.638 156.497 154.926 156.305 155.199C156.113 155.473 155.855 155.691 155.533 155.854C155.214 156.016 154.876 156.098 154.518 156.098C153.798 156.098 153.225 155.858 152.799 155.38C152.376 154.898 152.164 154.241 152.164 153.407V153.256C152.164 152.742 152.258 152.284 152.447 151.884C152.636 151.483 152.906 151.173 153.258 150.951C153.613 150.73 154.031 150.619 154.513 150.619C155.105 150.619 155.597 150.797 155.987 151.151C156.381 151.506 156.591 151.967 156.617 152.533H155.763C155.737 152.191 155.606 151.911 155.372 151.693C155.141 151.472 154.854 151.361 154.513 151.361C154.054 151.361 153.697 151.527 153.443 151.859C153.193 152.188 153.067 152.665 153.067 153.29V153.461C153.067 154.07 153.193 154.538 153.443 154.867C153.694 155.196 154.052 155.36 154.518 155.36ZM160.895 156C160.842 155.896 160.8 155.71 160.768 155.443C160.348 155.88 159.846 156.098 159.264 156.098C158.743 156.098 158.315 155.951 157.979 155.658C157.647 155.362 157.481 154.988 157.481 154.535C157.481 153.985 157.69 153.559 158.106 153.256C158.526 152.95 159.116 152.797 159.874 152.797H160.753V152.382C160.753 152.066 160.659 151.815 160.47 151.63C160.281 151.441 160.003 151.347 159.635 151.347C159.312 151.347 159.042 151.428 158.824 151.591C158.606 151.754 158.497 151.951 158.497 152.182H157.589C157.589 151.918 157.682 151.664 157.867 151.42C158.056 151.173 158.31 150.977 158.629 150.834C158.951 150.691 159.304 150.619 159.688 150.619C160.297 150.619 160.774 150.772 161.119 151.078C161.464 151.381 161.643 151.799 161.656 152.333V154.765C161.656 155.25 161.718 155.635 161.842 155.922V156H160.895ZM159.396 155.312C159.679 155.312 159.947 155.238 160.201 155.092C160.455 154.945 160.639 154.755 160.753 154.521V153.437H160.045C158.938 153.437 158.385 153.76 158.385 154.408C158.385 154.691 158.479 154.913 158.668 155.072C158.857 155.232 159.099 155.312 159.396 155.312ZM165.626 151.527C165.489 151.505 165.341 151.493 165.182 151.493C164.589 151.493 164.187 151.745 163.976 152.25V156H163.072V150.717H163.951L163.966 151.327C164.262 150.855 164.682 150.619 165.226 150.619C165.401 150.619 165.535 150.642 165.626 150.688V151.527ZM166.144 153.314C166.144 152.504 166.336 151.853 166.72 151.361C167.104 150.867 167.607 150.619 168.229 150.619C168.847 150.619 169.337 150.831 169.698 151.254V148.5H170.602V156H169.771L169.728 155.434C169.366 155.876 168.863 156.098 168.219 156.098C167.607 156.098 167.107 155.847 166.72 155.346C166.336 154.844 166.144 154.19 166.144 153.383V153.314ZM167.047 153.417C167.047 154.016 167.171 154.485 167.418 154.823C167.665 155.162 168.007 155.331 168.443 155.331C169.016 155.331 169.435 155.074 169.698 154.56V152.133C169.428 151.635 169.013 151.386 168.453 151.386C168.01 151.386 167.665 151.557 167.418 151.898C167.171 152.24 167.047 152.746 167.047 153.417ZM13.7461 164.86H10.7627V168H9.8252V160.891H14.2295V161.662H10.7627V164.094H13.7461V164.86ZM14.8643 165.31C14.8643 164.792 14.9652 164.326 15.167 163.913C15.3721 163.5 15.6553 163.181 16.0166 162.956C16.3812 162.731 16.7962 162.619 17.2617 162.619C17.9811 162.619 18.5622 162.868 19.0049 163.366C19.4508 163.864 19.6738 164.527 19.6738 165.354V165.417C19.6738 165.931 19.5745 166.394 19.376 166.804C19.1807 167.211 18.8991 167.528 18.5312 167.756C18.1667 167.984 17.7467 168.098 17.2715 168.098C16.5553 168.098 15.9743 167.849 15.5283 167.351C15.0856 166.853 14.8643 166.193 14.8643 165.373V165.31ZM15.7725 165.417C15.7725 166.003 15.9076 166.473 16.1777 166.828C16.4512 167.183 16.8158 167.36 17.2715 167.36C17.7305 167.36 18.0951 167.181 18.3652 166.823C18.6354 166.462 18.7705 165.957 18.7705 165.31C18.7705 164.73 18.6322 164.261 18.3555 163.903C18.082 163.542 17.7174 163.361 17.2617 163.361C16.8158 163.361 16.4561 163.539 16.1826 163.894C15.9092 164.248 15.7725 164.756 15.7725 165.417ZM23.3604 163.527C23.2236 163.505 23.0755 163.493 22.916 163.493C22.3236 163.493 21.9215 163.745 21.71 164.25V168H20.8066V162.717H21.6855L21.7002 163.327C21.9964 162.855 22.4163 162.619 22.96 162.619C23.1357 162.619 23.2692 162.642 23.3604 162.688V163.527ZM26.2168 167.36C26.5391 167.36 26.8206 167.263 27.0615 167.067C27.3024 166.872 27.4359 166.628 27.4619 166.335H28.3164C28.3001 166.638 28.196 166.926 28.0039 167.199C27.8118 167.473 27.5547 167.691 27.2324 167.854C26.9134 168.016 26.5749 168.098 26.2168 168.098C25.4974 168.098 24.9245 167.858 24.498 167.38C24.0749 166.898 23.8633 166.241 23.8633 165.407V165.256C23.8633 164.742 23.9577 164.284 24.1465 163.884C24.3353 163.483 24.6055 163.173 24.957 162.951C25.3118 162.73 25.7301 162.619 26.2119 162.619C26.8044 162.619 27.2959 162.797 27.6865 163.151C28.0804 163.506 28.2904 163.967 28.3164 164.533H27.4619C27.4359 164.191 27.3057 163.911 27.0713 163.693C26.8402 163.472 26.5537 163.361 26.2119 163.361C25.7529 163.361 25.3965 163.527 25.1426 163.859C24.8919 164.188 24.7666 164.665 24.7666 165.29V165.461C24.7666 166.07 24.8919 166.538 25.1426 166.867C25.3932 167.196 25.7513 167.36 26.2168 167.36ZM31.5244 168.098C30.8083 168.098 30.2256 167.863 29.7764 167.395C29.3271 166.923 29.1025 166.293 29.1025 165.505V165.339C29.1025 164.815 29.2018 164.348 29.4004 163.938C29.6022 163.524 29.8822 163.202 30.2402 162.971C30.6016 162.736 30.9922 162.619 31.4121 162.619C32.099 162.619 32.6328 162.845 33.0137 163.298C33.3945 163.75 33.585 164.398 33.585 165.241V165.617H30.0059C30.0189 166.138 30.1702 166.56 30.46 166.882C30.7529 167.201 31.124 167.36 31.5732 167.36C31.8923 167.36 32.1624 167.295 32.3838 167.165C32.6051 167.035 32.7988 166.862 32.9648 166.647L33.5166 167.077C33.0739 167.757 32.4098 168.098 31.5244 168.098ZM31.4121 163.361C31.0475 163.361 30.7415 163.495 30.4941 163.762C30.2467 164.025 30.0938 164.396 30.0352 164.875H32.6816V164.807C32.6556 164.348 32.5319 163.993 32.3105 163.742C32.0892 163.488 31.7897 163.361 31.4121 163.361ZM37.7109 166.599C37.7109 166.354 37.6182 166.166 37.4326 166.032C37.2503 165.896 36.9297 165.778 36.4707 165.681C36.015 165.583 35.652 165.466 35.3818 165.329C35.1149 165.192 34.9163 165.03 34.7861 164.841C34.6592 164.652 34.5957 164.427 34.5957 164.167C34.5957 163.734 34.778 163.368 35.1426 163.068C35.5104 162.769 35.9792 162.619 36.5488 162.619C37.1478 162.619 37.6328 162.774 38.0039 163.083C38.3783 163.392 38.5654 163.788 38.5654 164.27H37.6572C37.6572 164.022 37.5514 163.809 37.3398 163.63C37.1315 163.451 36.8678 163.361 36.5488 163.361C36.2201 163.361 35.9629 163.433 35.7773 163.576C35.5918 163.719 35.499 163.907 35.499 164.138C35.499 164.356 35.5853 164.52 35.7578 164.631C35.9303 164.742 36.2412 164.847 36.6904 164.948C37.1429 165.049 37.5091 165.17 37.7891 165.31C38.069 165.45 38.2757 165.619 38.4092 165.817C38.5459 166.013 38.6143 166.252 38.6143 166.535C38.6143 167.007 38.4255 167.386 38.0479 167.673C37.6702 167.956 37.1803 168.098 36.5781 168.098C36.1549 168.098 35.7806 168.023 35.4551 167.873C35.1296 167.723 34.874 167.515 34.6885 167.248C34.5062 166.978 34.415 166.687 34.415 166.374H35.3184C35.3346 166.677 35.4551 166.918 35.6797 167.097C35.9076 167.272 36.207 167.36 36.5781 167.36C36.9199 167.36 37.1934 167.292 37.3984 167.155C37.6068 167.015 37.7109 166.83 37.7109 166.599ZM47.6426 165.744C47.5547 166.496 47.2764 167.077 46.8076 167.487C46.3421 167.894 45.722 168.098 44.9473 168.098C44.1074 168.098 43.4336 167.797 42.9258 167.194C42.4212 166.592 42.1689 165.786 42.1689 164.777V164.094C42.1689 163.433 42.2861 162.852 42.5205 162.351C42.7581 161.849 43.0934 161.465 43.5264 161.198C43.9593 160.928 44.4606 160.793 45.0303 160.793C45.7855 160.793 46.391 161.005 46.8467 161.428C47.3024 161.848 47.5677 162.43 47.6426 163.176H46.7002C46.6188 162.609 46.4414 162.199 46.168 161.945C45.8978 161.691 45.5186 161.564 45.0303 161.564C44.4313 161.564 43.9609 161.786 43.6191 162.229C43.2806 162.671 43.1113 163.301 43.1113 164.118V164.807C43.1113 165.578 43.2725 166.192 43.5947 166.647C43.917 167.103 44.3678 167.331 44.9473 167.331C45.4681 167.331 45.8669 167.214 46.1436 166.979C46.4235 166.742 46.609 166.33 46.7002 165.744H47.6426ZM48.5459 165.31C48.5459 164.792 48.6468 164.326 48.8486 163.913C49.0537 163.5 49.3369 163.181 49.6982 162.956C50.0628 162.731 50.4779 162.619 50.9434 162.619C51.6628 162.619 52.2438 162.868 52.6865 163.366C53.1325 163.864 53.3555 164.527 53.3555 165.354V165.417C53.3555 165.931 53.2562 166.394 53.0576 166.804C52.8623 167.211 52.5807 167.528 52.2129 167.756C51.8483 167.984 51.4284 168.098 50.9531 168.098C50.237 168.098 49.6559 167.849 49.21 167.351C48.7673 166.853 48.5459 166.193 48.5459 165.373V165.31ZM49.4541 165.417C49.4541 166.003 49.5892 166.473 49.8594 166.828C50.1328 167.183 50.4974 167.36 50.9531 167.36C51.4121 167.36 51.7767 167.181 52.0469 166.823C52.3171 166.462 52.4521 165.957 52.4521 165.31C52.4521 164.73 52.3138 164.261 52.0371 163.903C51.7637 163.542 51.3991 163.361 50.9434 163.361C50.4974 163.361 50.1377 163.539 49.8643 163.894C49.5908 164.248 49.4541 164.756 49.4541 165.417ZM55.3379 162.717L55.3623 163.303C55.7497 162.847 56.2721 162.619 56.9297 162.619C57.6686 162.619 58.1715 162.902 58.4385 163.469C58.6143 163.215 58.8421 163.01 59.1221 162.854C59.4053 162.697 59.7389 162.619 60.123 162.619C61.2819 162.619 61.8711 163.233 61.8906 164.46V168H60.9873V164.514C60.9873 164.136 60.901 163.854 60.7285 163.669C60.556 163.48 60.2663 163.386 59.8594 163.386C59.5241 163.386 59.2458 163.487 59.0244 163.688C58.8031 163.887 58.6745 164.156 58.6387 164.494V168H57.7305V164.538C57.7305 163.77 57.3545 163.386 56.6025 163.386C56.0101 163.386 55.6048 163.638 55.3867 164.143V168H54.4834V162.717H55.3379ZM68.6143 168H67.7061V161.979L65.8848 162.648V161.828L68.4727 160.856H68.6143V168ZM74.7373 163.356C75.1377 162.865 75.6585 162.619 76.2998 162.619C77.4163 162.619 77.9795 163.249 77.9893 164.509V168H77.0859V164.504C77.0827 164.123 76.9948 163.841 76.8223 163.659C76.653 163.477 76.3877 163.386 76.0264 163.386C75.7334 163.386 75.4762 163.464 75.2549 163.62C75.0335 163.776 74.861 163.981 74.7373 164.235V168H73.834V160.5H74.7373V163.356ZM82.6035 168C82.5514 167.896 82.5091 167.71 82.4766 167.443C82.0566 167.88 81.5553 168.098 80.9727 168.098C80.4518 168.098 80.0238 167.951 79.6885 167.658C79.3564 167.362 79.1904 166.988 79.1904 166.535C79.1904 165.985 79.3988 165.559 79.8154 165.256C80.2354 164.95 80.8245 164.797 81.583 164.797H82.4619V164.382C82.4619 164.066 82.3675 163.815 82.1787 163.63C81.9899 163.441 81.7116 163.347 81.3438 163.347C81.0215 163.347 80.7513 163.428 80.5332 163.591C80.3151 163.754 80.2061 163.951 80.2061 164.182H79.2979C79.2979 163.918 79.3906 163.664 79.5762 163.42C79.765 163.173 80.0189 162.977 80.3379 162.834C80.6602 162.691 81.0133 162.619 81.3975 162.619C82.0062 162.619 82.4831 162.772 82.8281 163.078C83.1732 163.381 83.3522 163.799 83.3652 164.333V166.765C83.3652 167.25 83.4271 167.635 83.5508 167.922V168H82.6035ZM81.1045 167.312C81.3877 167.312 81.6562 167.238 81.9102 167.092C82.1641 166.945 82.348 166.755 82.4619 166.521V165.437H81.7539C80.6471 165.437 80.0938 165.76 80.0938 166.408C80.0938 166.691 80.1882 166.913 80.377 167.072C80.5658 167.232 80.8083 167.312 81.1045 167.312ZM87.8574 166.599C87.8574 166.354 87.7646 166.166 87.5791 166.032C87.3968 165.896 87.0762 165.778 86.6172 165.681C86.1615 165.583 85.7985 165.466 85.5283 165.329C85.2614 165.192 85.0628 165.03 84.9326 164.841C84.8057 164.652 84.7422 164.427 84.7422 164.167C84.7422 163.734 84.9245 163.368 85.2891 163.068C85.6569 162.769 86.1257 162.619 86.6953 162.619C87.2943 162.619 87.7793 162.774 88.1504 163.083C88.5247 163.392 88.7119 163.788 88.7119 164.27H87.8037C87.8037 164.022 87.6979 163.809 87.4863 163.63C87.278 163.451 87.0143 163.361 86.6953 163.361C86.3665 163.361 86.1094 163.433 85.9238 163.576C85.7383 163.719 85.6455 163.907 85.6455 164.138C85.6455 164.356 85.7318 164.52 85.9043 164.631C86.0768 164.742 86.3877 164.847 86.8369 164.948C87.2894 165.049 87.6556 165.17 87.9355 165.31C88.2155 165.45 88.4222 165.619 88.5557 165.817C88.6924 166.013 88.7607 166.252 88.7607 166.535C88.7607 167.007 88.5719 167.386 88.1943 167.673C87.8167 167.956 87.3268 168.098 86.7246 168.098C86.3014 168.098 85.9271 168.023 85.6016 167.873C85.276 167.723 85.0205 167.515 84.835 167.248C84.6527 166.978 84.5615 166.687 84.5615 166.374H85.4648C85.4811 166.677 85.6016 166.918 85.8262 167.097C86.054 167.272 86.3535 167.36 86.7246 167.36C87.0664 167.36 87.3398 167.292 87.5449 167.155C87.7533 167.015 87.8574 166.83 87.8574 166.599ZM96.9834 168H92.3252V167.351L94.7861 164.616C95.1507 164.203 95.4014 163.868 95.5381 163.61C95.6781 163.35 95.748 163.081 95.748 162.805C95.748 162.434 95.6357 162.129 95.4111 161.892C95.1865 161.654 94.887 161.535 94.5127 161.535C94.0635 161.535 93.7135 161.664 93.4629 161.921C93.2155 162.175 93.0918 162.53 93.0918 162.985H92.1885C92.1885 162.331 92.3984 161.802 92.8184 161.398C93.2415 160.995 93.8063 160.793 94.5127 160.793C95.1735 160.793 95.696 160.967 96.0801 161.315C96.4642 161.66 96.6562 162.121 96.6562 162.697C96.6562 163.397 96.2103 164.23 95.3184 165.197L93.4141 167.263H96.9834V168ZM101.739 161.438V162.717H102.726V163.415H101.739V166.691C101.739 166.903 101.783 167.062 101.871 167.17C101.959 167.274 102.109 167.326 102.32 167.326C102.424 167.326 102.568 167.307 102.75 167.268V168C102.512 168.065 102.281 168.098 102.057 168.098C101.653 168.098 101.349 167.976 101.144 167.731C100.938 167.487 100.836 167.141 100.836 166.691V163.415H99.874V162.717H100.836V161.438H101.739ZM107.047 167.478C106.695 167.891 106.179 168.098 105.499 168.098C104.936 168.098 104.506 167.935 104.21 167.609C103.917 167.281 103.769 166.796 103.766 166.154V162.717H104.669V166.13C104.669 166.931 104.994 167.331 105.646 167.331C106.336 167.331 106.795 167.074 107.022 166.56V162.717H107.926V168H107.066L107.047 167.478ZM111.856 163.527C111.72 163.505 111.572 163.493 111.412 163.493C110.82 163.493 110.418 163.745 110.206 164.25V168H109.303V162.717H110.182L110.196 163.327C110.493 162.855 110.912 162.619 111.456 162.619C111.632 162.619 111.765 162.642 111.856 162.688V163.527ZM113.546 162.717L113.575 163.381C113.979 162.873 114.506 162.619 115.157 162.619C116.274 162.619 116.837 163.249 116.847 164.509V168H115.943V164.504C115.94 164.123 115.852 163.841 115.68 163.659C115.51 163.477 115.245 163.386 114.884 163.386C114.591 163.386 114.334 163.464 114.112 163.62C113.891 163.776 113.718 163.981 113.595 164.235V168H112.691V162.717H113.546ZM121.285 166.599C121.285 166.354 121.192 166.166 121.007 166.032C120.825 165.896 120.504 165.778 120.045 165.681C119.589 165.583 119.226 165.466 118.956 165.329C118.689 165.192 118.491 165.03 118.36 164.841C118.233 164.652 118.17 164.427 118.17 164.167C118.17 163.734 118.352 163.368 118.717 163.068C119.085 162.769 119.553 162.619 120.123 162.619C120.722 162.619 121.207 162.774 121.578 163.083C121.952 163.392 122.14 163.788 122.14 164.27H121.231C121.231 164.022 121.126 163.809 120.914 163.63C120.706 163.451 120.442 163.361 120.123 163.361C119.794 163.361 119.537 163.433 119.352 163.576C119.166 163.719 119.073 163.907 119.073 164.138C119.073 164.356 119.16 164.52 119.332 164.631C119.505 164.742 119.815 164.847 120.265 164.948C120.717 165.049 121.083 165.17 121.363 165.31C121.643 165.45 121.85 165.619 121.983 165.817C122.12 166.013 122.188 166.252 122.188 166.535C122.188 167.007 122 167.386 121.622 167.673C121.244 167.956 120.755 168.098 120.152 168.098C119.729 168.098 119.355 168.023 119.029 167.873C118.704 167.723 118.448 167.515 118.263 167.248C118.08 166.978 117.989 166.687 117.989 166.374H118.893C118.909 166.677 119.029 166.918 119.254 167.097C119.482 167.272 119.781 167.36 120.152 167.36C120.494 167.36 120.768 167.292 120.973 167.155C121.181 167.015 121.285 166.83 121.285 166.599Z" fill="black"/>
</svg>
