<svg width="180" height="240" viewBox="0 0 180 240" fill="none" xmlns="http://www.w3.org/2000/svg">
<rect width="180" height="240" fill="white"/>
<path d="M51.4854 127V114.203H55.6689C57.0576 114.203 58.1006 114.49 58.7979 115.064C59.501 115.639 59.8525 116.488 59.8525 117.613C59.8525 118.211 59.6826 118.741 59.3428 119.204C59.0029 119.661 58.54 120.016 57.9541 120.268C58.6455 120.461 59.1904 120.83 59.5889 121.375C59.9932 121.914 60.1953 122.559 60.1953 123.309C60.1953 124.457 59.8232 125.359 59.0791 126.016C58.335 126.672 57.2832 127 55.9238 127H51.4854ZM53.1729 121.015V125.62H55.959C56.7441 125.62 57.3623 125.418 57.8135 125.014C58.2705 124.604 58.499 124.041 58.499 123.326C58.499 121.785 57.6611 121.015 55.9854 121.015H53.1729ZM53.1729 119.661H55.7217C56.46 119.661 57.0488 119.477 57.4883 119.107C57.9336 118.738 58.1562 118.237 58.1562 117.604C58.1562 116.901 57.9512 116.392 57.541 116.075C57.1309 115.753 56.5068 115.592 55.6689 115.592H53.1729V119.661ZM66.3916 127.176C65.1025 127.176 64.0537 126.754 63.2451 125.91C62.4365 125.061 62.0322 123.927 62.0322 122.509V122.21C62.0322 121.267 62.2109 120.426 62.5684 119.688C62.9316 118.943 63.4355 118.363 64.0801 117.947C64.7305 117.525 65.4336 117.314 66.1895 117.314C67.4258 117.314 68.3867 117.722 69.0723 118.536C69.7578 119.351 70.1006 120.517 70.1006 122.034V122.711H63.6582C63.6816 123.648 63.9541 124.407 64.4756 124.987C65.0029 125.562 65.6709 125.849 66.4795 125.849C67.0537 125.849 67.54 125.731 67.9385 125.497C68.3369 125.263 68.6855 124.952 68.9844 124.565L69.9775 125.339C69.1807 126.563 67.9854 127.176 66.3916 127.176ZM66.1895 118.65C65.5332 118.65 64.9824 118.891 64.5371 119.371C64.0918 119.846 63.8164 120.514 63.7109 121.375H68.4746V121.252C68.4277 120.426 68.2051 119.787 67.8066 119.336C67.4082 118.879 66.8691 118.65 66.1895 118.65ZM77.8613 127C77.7676 126.812 77.6914 126.479 77.6328 125.998C76.877 126.783 75.9746 127.176 74.9258 127.176C73.9883 127.176 73.2178 126.912 72.6143 126.385C72.0166 125.852 71.7178 125.178 71.7178 124.363C71.7178 123.373 72.0928 122.605 72.8428 122.061C73.5986 121.51 74.6592 121.234 76.0244 121.234H77.6064V120.487C77.6064 119.919 77.4365 119.468 77.0967 119.134C76.7568 118.794 76.2559 118.624 75.5938 118.624C75.0137 118.624 74.5273 118.771 74.1348 119.063C73.7422 119.356 73.5459 119.711 73.5459 120.127H71.9111C71.9111 119.652 72.0781 119.195 72.4121 118.756C72.752 118.311 73.209 117.959 73.7832 117.701C74.3633 117.443 74.999 117.314 75.6904 117.314C76.7861 117.314 77.6445 117.59 78.2656 118.141C78.8867 118.686 79.209 119.438 79.2324 120.399V124.776C79.2324 125.649 79.3438 126.344 79.5664 126.859V127H77.8613ZM75.1631 125.761C75.6729 125.761 76.1562 125.629 76.6133 125.365C77.0703 125.102 77.4014 124.759 77.6064 124.337V122.386H76.332C74.3398 122.386 73.3438 122.969 73.3438 124.135C73.3438 124.645 73.5137 125.043 73.8535 125.33C74.1934 125.617 74.6299 125.761 75.1631 125.761ZM86.3779 118.949C86.1318 118.908 85.8652 118.888 85.5781 118.888C84.5117 118.888 83.7881 119.342 83.4072 120.25V127H81.7812V117.49H83.3633L83.3896 118.589C83.9229 117.739 84.6787 117.314 85.6572 117.314C85.9736 117.314 86.2139 117.355 86.3779 117.438V118.949ZM87.3096 122.166C87.3096 120.707 87.6553 119.535 88.3467 118.65C89.0381 117.76 89.9434 117.314 91.0625 117.314C92.1758 117.314 93.0576 117.695 93.708 118.457V113.5H95.334V127H93.8398L93.7607 125.98C93.1104 126.777 92.2051 127.176 91.0449 127.176C89.9434 127.176 89.0439 126.725 88.3467 125.822C87.6553 124.92 87.3096 123.742 87.3096 122.289V122.166ZM88.9355 122.351C88.9355 123.429 89.1582 124.272 89.6035 124.882C90.0488 125.491 90.6641 125.796 91.4492 125.796C92.4805 125.796 93.2334 125.333 93.708 124.407V120.039C93.2217 119.143 92.4746 118.694 91.4668 118.694C90.6699 118.694 90.0488 119.002 89.6035 119.617C89.1582 120.232 88.9355 121.144 88.9355 122.351ZM111.998 122.939C111.84 124.293 111.339 125.339 110.495 126.077C109.657 126.81 108.541 127.176 107.146 127.176C105.635 127.176 104.422 126.634 103.508 125.55C102.6 124.466 102.146 123.016 102.146 121.199V119.969C102.146 118.779 102.356 117.733 102.778 116.831C103.206 115.929 103.81 115.237 104.589 114.757C105.368 114.271 106.271 114.027 107.296 114.027C108.655 114.027 109.745 114.408 110.565 115.17C111.386 115.926 111.863 116.975 111.998 118.316H110.302C110.155 117.297 109.836 116.559 109.344 116.102C108.857 115.645 108.175 115.416 107.296 115.416C106.218 115.416 105.371 115.814 104.756 116.611C104.146 117.408 103.842 118.542 103.842 120.013V121.252C103.842 122.641 104.132 123.745 104.712 124.565C105.292 125.386 106.104 125.796 107.146 125.796C108.084 125.796 108.802 125.585 109.3 125.163C109.804 124.735 110.138 123.994 110.302 122.939H111.998ZM119.926 127C119.832 126.812 119.756 126.479 119.697 125.998C118.941 126.783 118.039 127.176 116.99 127.176C116.053 127.176 115.282 126.912 114.679 126.385C114.081 125.852 113.782 125.178 113.782 124.363C113.782 123.373 114.157 122.605 114.907 122.061C115.663 121.51 116.724 121.234 118.089 121.234H119.671V120.487C119.671 119.919 119.501 119.468 119.161 119.134C118.821 118.794 118.32 118.624 117.658 118.624C117.078 118.624 116.592 118.771 116.199 119.063C115.807 119.356 115.61 119.711 115.61 120.127H113.976C113.976 119.652 114.143 119.195 114.477 118.756C114.816 118.311 115.273 117.959 115.848 117.701C116.428 117.443 117.063 117.314 117.755 117.314C118.851 117.314 119.709 117.59 120.33 118.141C120.951 118.686 121.273 119.438 121.297 120.399V124.776C121.297 125.649 121.408 126.344 121.631 126.859V127H119.926ZM117.228 125.761C117.737 125.761 118.221 125.629 118.678 125.365C119.135 125.102 119.466 124.759 119.671 124.337V122.386H118.396C116.404 122.386 115.408 122.969 115.408 124.135C115.408 124.645 115.578 125.043 115.918 125.33C116.258 125.617 116.694 125.761 117.228 125.761ZM126.052 115.188V117.49H127.827V118.747H126.052V124.645C126.052 125.025 126.131 125.312 126.289 125.506C126.447 125.693 126.717 125.787 127.098 125.787C127.285 125.787 127.543 125.752 127.871 125.682V127C127.443 127.117 127.027 127.176 126.623 127.176C125.896 127.176 125.349 126.956 124.979 126.517C124.61 126.077 124.426 125.453 124.426 124.645V118.747H122.694V117.49H124.426V115.188H126.052Z" fill="black"/>
</svg>
