<svg width="180" height="240" viewBox="0 0 180 240" fill="none" xmlns="http://www.w3.org/2000/svg">
<rect width="180" height="240" fill="white"/>
<path d="M61.9902 117V108.469H64.7793C65.7051 108.469 66.4004 108.66 66.8652 109.043C67.334 109.426 67.5684 109.992 67.5684 110.742C67.5684 111.141 67.4551 111.494 67.2285 111.803C67.002 112.107 66.6934 112.344 66.3027 112.512C66.7637 112.641 67.127 112.887 67.3926 113.25C67.6621 113.609 67.7969 114.039 67.7969 114.539C67.7969 115.305 67.5488 115.906 67.0527 116.344C66.5566 116.781 65.8555 117 64.9492 117H61.9902ZM63.1152 113.01V116.08H64.9727C65.4961 116.08 65.9082 115.945 66.209 115.676C66.5137 115.402 66.666 115.027 66.666 114.551C66.666 113.523 66.1074 113.01 64.9902 113.01H63.1152ZM63.1152 112.107H64.8145C65.3066 112.107 65.6992 111.984 65.9922 111.738C66.2891 111.492 66.4375 111.158 66.4375 110.736C66.4375 110.268 66.3008 109.928 66.0273 109.717C65.7539 109.502 65.3379 109.395 64.7793 109.395H63.1152V112.107ZM71.9277 117.117C71.0684 117.117 70.3691 116.836 69.8301 116.273C69.291 115.707 69.0215 114.951 69.0215 114.006V113.807C69.0215 113.178 69.1406 112.617 69.3789 112.125C69.6211 111.629 69.957 111.242 70.3867 110.965C70.8203 110.684 71.2891 110.543 71.793 110.543C72.6172 110.543 73.2578 110.814 73.7148 111.357C74.1719 111.9 74.4004 112.678 74.4004 113.689V114.141H70.1055C70.1211 114.766 70.3027 115.271 70.6504 115.658C71.002 116.041 71.4473 116.232 71.9863 116.232C72.3691 116.232 72.6934 116.154 72.959 115.998C73.2246 115.842 73.457 115.635 73.6562 115.377L74.3184 115.893C73.7871 116.709 72.9902 117.117 71.9277 117.117ZM71.793 111.434C71.3555 111.434 70.9883 111.594 70.6914 111.914C70.3945 112.23 70.2109 112.676 70.1406 113.25H73.3164V113.168C73.2852 112.617 73.1367 112.191 72.8711 111.891C72.6055 111.586 72.2461 111.434 71.793 111.434ZM79.5742 117C79.5117 116.875 79.4609 116.652 79.4219 116.332C78.918 116.855 78.3164 117.117 77.6172 117.117C76.9922 117.117 76.4785 116.941 76.0762 116.59C75.6777 116.234 75.4785 115.785 75.4785 115.242C75.4785 114.582 75.7285 114.07 76.2285 113.707C76.7324 113.34 77.4395 113.156 78.3496 113.156H79.4043V112.658C79.4043 112.279 79.291 111.979 79.0645 111.756C78.8379 111.529 78.5039 111.416 78.0625 111.416C77.6758 111.416 77.3516 111.514 77.0898 111.709C76.8281 111.904 76.6973 112.141 76.6973 112.418H75.6074C75.6074 112.102 75.7188 111.797 75.9414 111.504C76.168 111.207 76.4727 110.973 76.8555 110.801C77.2422 110.629 77.666 110.543 78.127 110.543C78.8574 110.543 79.4297 110.727 79.8438 111.094C80.2578 111.457 80.4727 111.959 80.4883 112.6V115.518C80.4883 116.1 80.5625 116.562 80.7109 116.906V117H79.5742ZM77.7754 116.174C78.1152 116.174 78.4375 116.086 78.7422 115.91C79.0469 115.734 79.2676 115.506 79.4043 115.225V113.924H78.5547C77.2266 113.924 76.5625 114.312 76.5625 115.09C76.5625 115.43 76.6758 115.695 76.9023 115.887C77.1289 116.078 77.4199 116.174 77.7754 116.174ZM85.252 111.633C85.0879 111.605 84.9102 111.592 84.7188 111.592C84.0078 111.592 83.5254 111.895 83.2715 112.5V117H82.1875V110.66H83.2422L83.2598 111.393C83.6152 110.826 84.1191 110.543 84.7715 110.543C84.9824 110.543 85.1426 110.57 85.252 110.625V111.633ZM85.873 113.777C85.873 112.805 86.1035 112.023 86.5645 111.434C87.0254 110.84 87.6289 110.543 88.375 110.543C89.1172 110.543 89.7051 110.797 90.1387 111.305V108H91.2227V117H90.2266L90.1738 116.32C89.7402 116.852 89.1367 117.117 88.3633 117.117C87.6289 117.117 87.0293 116.816 86.5645 116.215C86.1035 115.613 85.873 114.828 85.873 113.859V113.777ZM86.957 113.9C86.957 114.619 87.1055 115.182 87.4023 115.588C87.6992 115.994 88.1094 116.197 88.6328 116.197C89.3203 116.197 89.8223 115.889 90.1387 115.271V112.359C89.8145 111.762 89.3164 111.463 88.6445 111.463C88.1133 111.463 87.6992 111.668 87.4023 112.078C87.1055 112.488 86.957 113.096 86.957 113.9ZM102.332 114.293C102.227 115.195 101.893 115.893 101.33 116.385C100.771 116.873 100.027 117.117 99.0977 117.117C98.0898 117.117 97.2812 116.756 96.6719 116.033C96.0664 115.311 95.7637 114.344 95.7637 113.133V112.312C95.7637 111.52 95.9043 110.822 96.1855 110.221C96.4707 109.619 96.873 109.158 97.3926 108.838C97.9121 108.514 98.5137 108.352 99.1973 108.352C100.104 108.352 100.83 108.605 101.377 109.113C101.924 109.617 102.242 110.316 102.332 111.211H101.201C101.104 110.531 100.891 110.039 100.562 109.734C100.238 109.43 99.7832 109.277 99.1973 109.277C98.4785 109.277 97.9141 109.543 97.5039 110.074C97.0977 110.605 96.8945 111.361 96.8945 112.342V113.168C96.8945 114.094 97.0879 114.83 97.4746 115.377C97.8613 115.924 98.4023 116.197 99.0977 116.197C99.7227 116.197 100.201 116.057 100.533 115.775C100.869 115.49 101.092 114.996 101.201 114.293H102.332ZM107.617 117C107.555 116.875 107.504 116.652 107.465 116.332C106.961 116.855 106.359 117.117 105.66 117.117C105.035 117.117 104.521 116.941 104.119 116.59C103.721 116.234 103.521 115.785 103.521 115.242C103.521 114.582 103.771 114.07 104.271 113.707C104.775 113.34 105.482 113.156 106.393 113.156H107.447V112.658C107.447 112.279 107.334 111.979 107.107 111.756C106.881 111.529 106.547 111.416 106.105 111.416C105.719 111.416 105.395 111.514 105.133 111.709C104.871 111.904 104.74 112.141 104.74 112.418H103.65C103.65 112.102 103.762 111.797 103.984 111.504C104.211 111.207 104.516 110.973 104.898 110.801C105.285 110.629 105.709 110.543 106.17 110.543C106.9 110.543 107.473 110.727 107.887 111.094C108.301 111.457 108.516 111.959 108.531 112.6V115.518C108.531 116.1 108.605 116.562 108.754 116.906V117H107.617ZM105.818 116.174C106.158 116.174 106.48 116.086 106.785 115.91C107.09 115.734 107.311 115.506 107.447 115.225V113.924H106.598C105.27 113.924 104.605 114.312 104.605 115.09C104.605 115.43 104.719 115.695 104.945 115.887C105.172 116.078 105.463 116.174 105.818 116.174ZM111.701 109.125V110.66H112.885V111.498H111.701V115.43C111.701 115.684 111.754 115.875 111.859 116.004C111.965 116.129 112.145 116.191 112.398 116.191C112.523 116.191 112.695 116.168 112.914 116.121V117C112.629 117.078 112.352 117.117 112.082 117.117C111.598 117.117 111.232 116.971 110.986 116.678C110.74 116.385 110.617 115.969 110.617 115.43V111.498H109.463V110.66H110.617V109.125H111.701Z" fill="black"/>
</svg>
