<svg width="180" height="240" viewBox="0 0 180 240" fill="none" xmlns="http://www.w3.org/2000/svg">
<rect width="180" height="240" fill="#A50000"/>
<path d="M41.9843 86.5C59.2835 51.8139 108.984 46.5 96.9843 51" stroke="black"/>
<path d="M42.4842 86C5.98425 127.5 135.484 105 135.484 105" stroke="black"/>
<path d="M132 68C136.54 83.4826 137.164 91.462 135 104.5" stroke="black"/>
<path d="M37.5 94C23.5281 101.28 29.8552 101.752 20 109C36.7387 123.321 70 119.5 70 119.5C70 119.5 20.5 113 29 106.5C37.5 100 34.416 103.666 37.5 101" stroke="black"/>
<path d="M105.246 32.1548L103.697 22.9203L109.159 31.2471L105.246 32.1548Z" fill="#FF7A00" stroke="black"/>
<path d="M117.809 32.3682L115.613 23.22L121.648 31.3027L117.809 32.3682Z" fill="#FF7A00" stroke="black"/>
<ellipse cx="109.145" cy="41.2057" rx="2.5" ry="4" fill="#A50000"/>
<path d="M111.145 41.2057C111.145 42.2316 110.885 43.1366 110.489 43.7691C110.089 44.4088 109.601 44.7057 109.145 44.7057C108.69 44.7057 108.201 44.4088 107.802 43.7691C107.406 43.1366 107.145 42.2316 107.145 41.2057C107.145 40.1799 107.406 39.2749 107.802 38.6423C108.201 38.0027 108.69 37.7057 109.145 37.7057C109.601 37.7057 110.089 38.0027 110.489 38.6423C110.885 39.2749 111.145 40.1799 111.145 41.2057Z" stroke="black" stroke-opacity="0.5"/>
<ellipse cx="120.145" cy="41.2057" rx="2.5" ry="4" fill="#A50000"/>
<path d="M122.145 41.2057C122.145 42.2316 121.885 43.1366 121.489 43.7691C121.089 44.4088 120.601 44.7057 120.145 44.7057C119.69 44.7057 119.201 44.4088 118.802 43.7691C118.406 43.1366 118.145 42.2316 118.145 41.2057C118.145 40.1799 118.406 39.2749 118.802 38.6423C119.201 38.0027 119.69 37.7057 120.145 37.7057C120.601 37.7057 121.089 38.0027 121.489 38.6423C121.885 39.2749 122.145 40.1799 122.145 41.2057Z" stroke="black" stroke-opacity="0.5"/>
<path d="M98 50.5C100.505 41.5382 102.06 37.7916 105 32.5C111.834 31.7718 115.666 31.8783 122.5 32.5C128.899 50.7094 130.526 58.3622 131.5 69.5" stroke="black"/>
<path d="M36.8125 176.057H33.1152V179.08H37.4102V180H31.9902V171.469H37.3516V172.395H33.1152V175.137H36.8125V176.057ZM40.7676 175.975L42.1738 173.66H43.4395L41.3652 176.795L43.5039 180H42.25L40.7852 177.627L39.3203 180H38.0605L40.1992 176.795L38.125 173.66H39.3789L40.7676 175.975ZM49.9492 176.9C49.9492 177.865 49.7285 178.643 49.2871 179.232C48.8457 179.822 48.248 180.117 47.4941 180.117C46.7246 180.117 46.1191 179.873 45.6777 179.385V182.438H44.5938V173.66H45.584L45.6367 174.363C46.0781 173.816 46.6914 173.543 47.4766 173.543C48.2383 173.543 48.8398 173.83 49.2812 174.404C49.7266 174.979 49.9492 175.777 49.9492 176.801V176.9ZM48.8652 176.777C48.8652 176.062 48.7129 175.498 48.4082 175.084C48.1035 174.67 47.6855 174.463 47.1543 174.463C46.498 174.463 46.0059 174.754 45.6777 175.336V178.365C46.002 178.943 46.498 179.232 47.166 179.232C47.6855 179.232 48.0977 179.027 48.4023 178.617C48.7109 178.203 48.8652 177.59 48.8652 176.777ZM52.5098 180H51.4258V171H52.5098V180ZM53.9629 176.771C53.9629 176.15 54.084 175.592 54.3262 175.096C54.5723 174.6 54.9121 174.217 55.3457 173.947C55.7832 173.678 56.2812 173.543 56.8398 173.543C57.7031 173.543 58.4004 173.842 58.9316 174.439C59.4668 175.037 59.7344 175.832 59.7344 176.824V176.9C59.7344 177.518 59.6152 178.072 59.377 178.564C59.1426 179.053 58.8047 179.434 58.3633 179.707C57.9258 179.98 57.4219 180.117 56.8516 180.117C55.9922 180.117 55.2949 179.818 54.7598 179.221C54.2285 178.623 53.9629 177.832 53.9629 176.848V176.771ZM55.0527 176.9C55.0527 177.604 55.2148 178.168 55.5391 178.594C55.8672 179.02 56.3047 179.232 56.8516 179.232C57.4023 179.232 57.8398 179.018 58.1641 178.588C58.4883 178.154 58.6504 177.549 58.6504 176.771C58.6504 176.076 58.4844 175.514 58.1523 175.084C57.8242 174.65 57.3867 174.434 56.8398 174.434C56.3047 174.434 55.873 174.646 55.5449 175.072C55.2168 175.498 55.0527 176.107 55.0527 176.9ZM60.8301 176.777C60.8301 175.805 61.0605 175.023 61.5215 174.434C61.9824 173.84 62.5859 173.543 63.332 173.543C64.0742 173.543 64.6621 173.797 65.0957 174.305V171H66.1797V180H65.1836L65.1309 179.32C64.6973 179.852 64.0938 180.117 63.3203 180.117C62.5859 180.117 61.9863 179.816 61.5215 179.215C61.0605 178.613 60.8301 177.828 60.8301 176.859V176.777ZM61.9141 176.9C61.9141 177.619 62.0625 178.182 62.3594 178.588C62.6562 178.994 63.0664 179.197 63.5898 179.197C64.2773 179.197 64.7793 178.889 65.0957 178.271V175.359C64.7715 174.762 64.2734 174.463 63.6016 174.463C63.0703 174.463 62.6562 174.668 62.3594 175.078C62.0625 175.488 61.9141 176.096 61.9141 176.9ZM69.0449 180H67.9609V173.66H69.0449V180ZM67.873 171.979C67.873 171.803 67.9258 171.654 68.0312 171.533C68.1406 171.412 68.3008 171.352 68.5117 171.352C68.7227 171.352 68.8828 171.412 68.9922 171.533C69.1016 171.654 69.1562 171.803 69.1562 171.979C69.1562 172.154 69.1016 172.301 68.9922 172.418C68.8828 172.535 68.7227 172.594 68.5117 172.594C68.3008 172.594 68.1406 172.535 68.0312 172.418C67.9258 172.301 67.873 172.154 67.873 171.979ZM71.8105 173.66L71.8457 174.457C72.3301 173.848 72.9629 173.543 73.7441 173.543C75.084 173.543 75.7598 174.299 75.7715 175.811V180H74.6875V175.805C74.6836 175.348 74.5781 175.01 74.3711 174.791C74.168 174.572 73.8496 174.463 73.416 174.463C73.0645 174.463 72.7559 174.557 72.4902 174.744C72.2246 174.932 72.0176 175.178 71.8691 175.482V180H70.7852V173.66H71.8105ZM77.1484 176.777C77.1484 175.789 77.377 175.004 77.834 174.422C78.291 173.836 78.8965 173.543 79.6504 173.543C80.4238 173.543 81.0273 173.816 81.4609 174.363L81.5137 173.66H82.5039V179.848C82.5039 180.668 82.2598 181.314 81.7715 181.787C81.2871 182.26 80.6348 182.496 79.8145 182.496C79.3574 182.496 78.9102 182.398 78.4727 182.203C78.0352 182.008 77.7012 181.74 77.4707 181.4L78.0332 180.75C78.498 181.324 79.0664 181.611 79.7383 181.611C80.2656 181.611 80.6758 181.463 80.9688 181.166C81.2656 180.869 81.4141 180.451 81.4141 179.912V179.367C80.9805 179.867 80.3887 180.117 79.6387 180.117C78.8965 180.117 78.2949 179.818 77.834 179.221C77.377 178.623 77.1484 177.809 77.1484 176.777ZM78.2383 176.9C78.2383 177.615 78.3848 178.178 78.6777 178.588C78.9707 178.994 79.3809 179.197 79.9082 179.197C80.5918 179.197 81.0938 178.887 81.4141 178.266V175.371C81.082 174.766 80.584 174.463 79.9199 174.463C79.3926 174.463 78.9805 174.668 78.6836 175.078C78.3867 175.488 78.2383 176.096 78.2383 176.9ZM89.459 176.033L88.416 177.117V180H87.291V171.469H88.416V175.688L92.207 171.469H93.5664L90.209 175.236L93.8301 180H92.4824L89.459 176.033ZM95.8223 180H94.7383V173.66H95.8223V180ZM94.6504 171.979C94.6504 171.803 94.7031 171.654 94.8086 171.533C94.918 171.412 95.0781 171.352 95.2891 171.352C95.5 171.352 95.6602 171.412 95.7695 171.533C95.8789 171.654 95.9336 171.803 95.9336 171.979C95.9336 172.154 95.8789 172.301 95.7695 172.418C95.6602 172.535 95.5 172.594 95.2891 172.594C95.0781 172.594 94.918 172.535 94.8086 172.418C94.7031 172.301 94.6504 172.154 94.6504 171.979ZM99.0332 172.125V173.66H100.217V174.498H99.0332V178.43C99.0332 178.684 99.0859 178.875 99.1914 179.004C99.2969 179.129 99.4766 179.191 99.7305 179.191C99.8555 179.191 100.027 179.168 100.246 179.121V180C99.9609 180.078 99.6836 180.117 99.4141 180.117C98.9297 180.117 98.5645 179.971 98.3184 179.678C98.0723 179.385 97.9492 178.969 97.9492 178.43V174.498H96.7949V173.66H97.9492V172.125H99.0332ZM102.959 172.125V173.66H104.143V174.498H102.959V178.43C102.959 178.684 103.012 178.875 103.117 179.004C103.223 179.129 103.402 179.191 103.656 179.191C103.781 179.191 103.953 179.168 104.172 179.121V180C103.887 180.078 103.609 180.117 103.34 180.117C102.855 180.117 102.49 179.971 102.244 179.678C101.998 179.385 101.875 178.969 101.875 178.43V174.498H100.721V173.66H101.875V172.125H102.959ZM108.045 180.117C107.186 180.117 106.486 179.836 105.947 179.273C105.408 178.707 105.139 177.951 105.139 177.006V176.807C105.139 176.178 105.258 175.617 105.496 175.125C105.738 174.629 106.074 174.242 106.504 173.965C106.938 173.684 107.406 173.543 107.91 173.543C108.734 173.543 109.375 173.814 109.832 174.357C110.289 174.9 110.518 175.678 110.518 176.689V177.141H106.223C106.238 177.766 106.42 178.271 106.768 178.658C107.119 179.041 107.564 179.232 108.104 179.232C108.486 179.232 108.811 179.154 109.076 178.998C109.342 178.842 109.574 178.635 109.773 178.377L110.436 178.893C109.904 179.709 109.107 180.117 108.045 180.117ZM107.91 174.434C107.473 174.434 107.105 174.594 106.809 174.914C106.512 175.23 106.328 175.676 106.258 176.25H109.434V176.168C109.402 175.617 109.254 175.191 108.988 174.891C108.723 174.586 108.363 174.434 107.91 174.434ZM112.803 173.66L112.838 174.457C113.322 173.848 113.955 173.543 114.736 173.543C116.076 173.543 116.752 174.299 116.764 175.811V180H115.68V175.805C115.676 175.348 115.57 175.01 115.363 174.791C115.16 174.572 114.842 174.463 114.408 174.463C114.057 174.463 113.748 174.557 113.482 174.744C113.217 174.932 113.01 175.178 112.861 175.482V180H111.777V173.66H112.803ZM122.09 178.318C122.09 178.025 121.979 177.799 121.756 177.639C121.537 177.475 121.152 177.334 120.602 177.217C120.055 177.1 119.619 176.959 119.295 176.795C118.975 176.631 118.736 176.436 118.58 176.209C118.428 175.982 118.352 175.713 118.352 175.4C118.352 174.881 118.57 174.441 119.008 174.082C119.449 173.723 120.012 173.543 120.695 173.543C121.414 173.543 121.996 173.729 122.441 174.1C122.891 174.471 123.115 174.945 123.115 175.523H122.025C122.025 175.227 121.898 174.971 121.645 174.756C121.395 174.541 121.078 174.434 120.695 174.434C120.301 174.434 119.992 174.52 119.77 174.691C119.547 174.863 119.436 175.088 119.436 175.365C119.436 175.627 119.539 175.824 119.746 175.957C119.953 176.09 120.326 176.217 120.865 176.338C121.408 176.459 121.848 176.604 122.184 176.771C122.52 176.939 122.768 177.143 122.928 177.381C123.092 177.615 123.174 177.902 123.174 178.242C123.174 178.809 122.947 179.264 122.494 179.607C122.041 179.947 121.453 180.117 120.73 180.117C120.223 180.117 119.773 180.027 119.383 179.848C118.992 179.668 118.686 179.418 118.463 179.098C118.244 178.773 118.135 178.424 118.135 178.049H119.219C119.238 178.412 119.383 178.701 119.652 178.916C119.926 179.127 120.285 179.232 120.73 179.232C121.141 179.232 121.469 179.15 121.715 178.986C121.965 178.818 122.09 178.596 122.09 178.318Z" fill="black"/>
</svg>
