<svg width="240" height="300" viewBox="0 0 240 300" fill="none" xmlns="http://www.w3.org/2000/svg">
<rect width="240" height="300" fill="#A50000"/>
<g filter="url(#filter0_d_501_6)">
<path d="M37.3094 121.306C44.9682 58.3529 136.106 56.117 136.106 56.117C134.934 47.429 135.31 43.3137 139.82 35.9936C156.647 30.1638 165.039 31.1989 179.19 35.9936C184.642 48.4485 186.581 55.8025 188.105 69.5325C201.543 86.5748 206.66 111.433 205.933 141.082C146.645 149.223 119.626 148.718 60.3376 141.082C41.4292 140.572 35.4999 137.141 37.3094 121.306Z" fill="#F58722"/>
<path d="M37.3094 121.306C44.9682 58.3529 136.106 56.117 136.106 56.117C134.934 47.429 135.31 43.3137 139.82 35.9936C156.647 30.1638 165.039 31.1989 179.19 35.9936C184.642 48.4485 186.581 55.8025 188.105 69.5325C201.543 86.5748 206.66 111.433 205.933 141.082C146.645 149.223 119.626 148.718 60.3376 141.082C41.4292 140.572 35.4999 137.141 37.3094 121.306ZM37.3094 121.306C36.5709 127.061 38.4425 112.409 37.3094 121.306Z" stroke="black"/>
</g>
<path d="M129 26L137.239 40.6915C138.432 38.1878 139.316 36.8719 142 35.75L129 26Z" fill="#F58722"/>
<path d="M137.412 41L129 26L142 35.75C139.208 36.9171 138.363 38.2942 137.093 41" stroke="black"/>
<path d="M173.002 20C175.425 26.1147 176.698 28.48 179 35C173.462 33.2863 171.846 33.3071 172.011 32.8571C172.149 28.793 172.433 25.802 173.002 20Z" fill="#F58722" stroke="black"/>
<circle cx="148.5" cy="48.5" r="7.5" fill="#A50000"/>
<ellipse cx="171" cy="48.5" rx="8" ry="7.5" fill="#A50000"/>
<g filter="url(#filter1_d_501_6)">
<path d="M23.069 115.474C24.7422 114.127 38.793 114 38.793 114C38.7926 114.737 38.0438 117.684 38.0438 117.684C32.9234 117.317 30.755 117.461 27.562 118.421C20.8575 124.754 20.2063 127.844 22.3209 134.632C26.7383 142.481 47.9289 145.609 48.5259 145.684C49.123 145.76 66.5711 147.696 71.7364 148.632C86.6343 150.284 80.7604 149.68 95.6956 150.105C102.478 153.73 100.492 154.114 94.9469 156C80.3009 155.375 70.5804 155.001 55.2648 153.053C51.42 152.563 32.803 148.632 31.3056 147.895C29.8081 147.158 18.4331 143.54 16.3302 135.368C15.2612 128.325 16.6054 122.773 23.069 115.474Z" fill="#F58722"/>
<path d="M23.069 115.474C24.7422 114.127 38.793 114 38.793 114C38.7926 114.737 38.0438 117.684 38.0438 117.684C32.9234 117.317 30.755 117.461 27.562 118.421C20.8575 124.754 20.2063 127.844 22.3209 134.632C26.7383 142.481 47.9289 145.609 48.5259 145.684C49.123 145.76 66.5711 147.696 71.7364 148.632C86.6343 150.284 80.7604 149.68 95.6956 150.105C102.478 153.73 100.492 154.114 94.9469 156C80.3009 155.375 70.5804 155.001 55.2648 153.053C51.42 152.563 32.803 148.632 31.3056 147.895C29.8081 147.158 18.4331 143.54 16.3302 135.368C15.2612 128.325 16.6054 122.773 23.069 115.474Z" stroke="black"/>
</g>
<path d="M30.5938 250.456H22.583V257.007H31.8887V259H20.1455V240.516H31.7617V242.521H22.583V248.463H30.5938V250.456ZM39.1631 250.278L42.21 245.264H44.9521L40.458 252.056L45.0918 259H42.375L39.2012 253.858L36.0273 259H33.2979L37.9316 252.056L33.4375 245.264H36.1543L39.1631 250.278ZM59.0566 252.284C59.0566 254.375 58.5785 256.059 57.6221 257.337C56.6657 258.615 55.3708 259.254 53.7373 259.254C52.07 259.254 50.7581 258.725 49.8018 257.667V264.281H47.4531V245.264H49.5986L49.7129 246.787C50.6693 245.602 51.998 245.01 53.6992 245.01C55.3496 245.01 56.653 245.632 57.6094 246.876C58.5742 248.12 59.0566 249.851 59.0566 252.068V252.284ZM56.708 252.018C56.708 250.469 56.3779 249.246 55.7178 248.349C55.0576 247.451 54.152 247.003 53.001 247.003C51.5791 247.003 50.5127 247.633 49.8018 248.895V255.458C50.5042 256.711 51.5791 257.337 53.0264 257.337C54.152 257.337 55.0449 256.893 55.7051 256.004C56.3737 255.107 56.708 253.778 56.708 252.018ZM64.6045 259H62.2559V239.5H64.6045V259ZM67.7529 252.005C67.7529 250.659 68.0153 249.449 68.54 248.374C69.0732 247.299 69.8096 246.47 70.749 245.886C71.6969 245.302 72.776 245.01 73.9863 245.01C75.8568 245.01 77.3675 245.657 78.5186 246.952C79.6781 248.247 80.2578 249.969 80.2578 252.119V252.284C80.2578 253.621 79.9997 254.823 79.4834 255.89C78.9756 256.948 78.2435 257.773 77.2871 258.365C76.3392 258.958 75.2474 259.254 74.0117 259.254C72.1497 259.254 70.639 258.606 69.4795 257.312C68.3285 256.017 67.7529 254.303 67.7529 252.17V252.005ZM70.1143 252.284C70.1143 253.808 70.4655 255.031 71.168 255.953C71.8789 256.876 72.8268 257.337 74.0117 257.337C75.2051 257.337 76.153 256.871 76.8555 255.94C77.5579 255.001 77.9092 253.689 77.9092 252.005C77.9092 250.498 77.5495 249.28 76.8301 248.349C76.1191 247.409 75.1712 246.939 73.9863 246.939C72.8268 246.939 71.8916 247.401 71.1807 248.323C70.4697 249.246 70.1143 250.566 70.1143 252.284ZM82.6318 252.018C82.6318 249.91 83.1312 248.217 84.1299 246.939C85.1286 245.653 86.4362 245.01 88.0527 245.01C89.6608 245.01 90.9346 245.56 91.874 246.66V239.5H94.2227V259H92.0645L91.9502 257.527C91.0107 258.678 89.7031 259.254 88.0273 259.254C86.4362 259.254 85.137 258.602 84.1299 257.299C83.1312 255.995 82.6318 254.294 82.6318 252.195V252.018ZM84.9805 252.284C84.9805 253.841 85.3021 255.06 85.9453 255.94C86.5885 256.821 87.4772 257.261 88.6113 257.261C90.1009 257.261 91.1885 256.592 91.874 255.255V248.945C91.1715 247.65 90.0924 247.003 88.6367 247.003C87.4857 247.003 86.5885 247.447 85.9453 248.336C85.3021 249.225 84.9805 250.541 84.9805 252.284ZM100.431 259H98.082V245.264H100.431V259ZM97.8916 241.62C97.8916 241.239 98.0059 240.918 98.2344 240.655C98.4714 240.393 98.8184 240.262 99.2754 240.262C99.7324 240.262 100.079 240.393 100.316 240.655C100.553 240.918 100.672 241.239 100.672 241.62C100.672 242.001 100.553 242.318 100.316 242.572C100.079 242.826 99.7324 242.953 99.2754 242.953C98.8184 242.953 98.4714 242.826 98.2344 242.572C98.0059 242.318 97.8916 242.001 97.8916 241.62ZM106.423 245.264L106.499 246.99C107.549 245.67 108.92 245.01 110.612 245.01C113.515 245.01 114.979 246.647 115.005 249.923V259H112.656V249.91C112.648 248.92 112.419 248.188 111.971 247.714C111.531 247.24 110.841 247.003 109.901 247.003C109.14 247.003 108.471 247.206 107.896 247.612C107.32 248.019 106.871 248.552 106.55 249.212V259H104.201V245.264H106.423ZM117.988 252.018C117.988 249.876 118.483 248.175 119.474 246.914C120.464 245.645 121.776 245.01 123.409 245.01C125.085 245.01 126.393 245.602 127.332 246.787L127.446 245.264H129.592V258.67C129.592 260.447 129.063 261.848 128.005 262.872C126.955 263.896 125.542 264.408 123.765 264.408C122.774 264.408 121.805 264.197 120.857 263.773C119.91 263.35 119.186 262.771 118.687 262.034L119.905 260.625C120.912 261.869 122.144 262.491 123.6 262.491C124.742 262.491 125.631 262.17 126.266 261.526C126.909 260.883 127.23 259.978 127.23 258.81V257.629C126.291 258.712 125.009 259.254 123.384 259.254C121.776 259.254 120.472 258.606 119.474 257.312C118.483 256.017 117.988 254.252 117.988 252.018ZM120.35 252.284C120.35 253.833 120.667 255.052 121.302 255.94C121.937 256.821 122.825 257.261 123.968 257.261C125.449 257.261 126.536 256.588 127.23 255.242V248.971C126.511 247.659 125.432 247.003 123.993 247.003C122.851 247.003 121.958 247.447 121.314 248.336C120.671 249.225 120.35 250.541 120.35 252.284ZM144.661 250.405L142.401 252.754V259H139.964V240.516H142.401V249.656L150.615 240.516H153.561L146.286 248.679L154.132 259H151.212L144.661 250.405ZM158.448 259H156.1V245.264H158.448V259ZM155.909 241.62C155.909 241.239 156.023 240.918 156.252 240.655C156.489 240.393 156.836 240.262 157.293 240.262C157.75 240.262 158.097 240.393 158.334 240.655C158.571 240.918 158.689 241.239 158.689 241.62C158.689 242.001 158.571 242.318 158.334 242.572C158.097 242.826 157.75 242.953 157.293 242.953C156.836 242.953 156.489 242.826 156.252 242.572C156.023 242.318 155.909 242.001 155.909 241.62ZM165.405 241.938V245.264H167.97V247.079H165.405V255.598C165.405 256.148 165.52 256.562 165.748 256.842C165.977 257.113 166.366 257.248 166.916 257.248C167.187 257.248 167.559 257.197 168.033 257.096V259C167.415 259.169 166.814 259.254 166.23 259.254C165.181 259.254 164.39 258.937 163.856 258.302C163.323 257.667 163.057 256.766 163.057 255.598V247.079H160.556V245.264H163.057V241.938H165.405ZM173.911 241.938V245.264H176.476V247.079H173.911V255.598C173.911 256.148 174.025 256.562 174.254 256.842C174.482 257.113 174.872 257.248 175.422 257.248C175.693 257.248 176.065 257.197 176.539 257.096V259C175.921 259.169 175.32 259.254 174.736 259.254C173.687 259.254 172.896 258.937 172.362 258.302C171.829 257.667 171.562 256.766 171.562 255.598V247.079H169.062V245.264H171.562V241.938H173.911ZM184.931 259.254C183.069 259.254 181.554 258.645 180.386 257.426C179.218 256.199 178.634 254.561 178.634 252.513V252.081C178.634 250.718 178.892 249.504 179.408 248.438C179.933 247.363 180.661 246.525 181.592 245.924C182.531 245.314 183.547 245.01 184.639 245.01C186.424 245.01 187.812 245.598 188.803 246.774C189.793 247.951 190.288 249.635 190.288 251.827V252.805H180.982C181.016 254.159 181.41 255.255 182.163 256.093C182.925 256.922 183.89 257.337 185.058 257.337C185.887 257.337 186.59 257.168 187.165 256.829C187.741 256.491 188.244 256.042 188.676 255.483L190.11 256.601C188.959 258.369 187.233 259.254 184.931 259.254ZM184.639 246.939C183.691 246.939 182.895 247.286 182.252 247.98C181.609 248.666 181.211 249.631 181.059 250.875H187.939V250.697C187.872 249.504 187.55 248.581 186.975 247.93C186.399 247.27 185.62 246.939 184.639 246.939ZM195.239 245.264L195.315 246.99C196.365 245.67 197.736 245.01 199.429 245.01C202.332 245.01 203.796 246.647 203.821 249.923V259H201.473V249.91C201.464 248.92 201.236 248.188 200.787 247.714C200.347 247.24 199.657 247.003 198.718 247.003C197.956 247.003 197.287 247.206 196.712 247.612C196.136 248.019 195.688 248.552 195.366 249.212V259H193.018V245.264H195.239ZM215.361 255.356C215.361 254.722 215.12 254.231 214.638 253.884C214.164 253.528 213.33 253.224 212.137 252.97C210.952 252.716 210.008 252.411 209.306 252.056C208.612 251.7 208.095 251.277 207.757 250.786C207.427 250.295 207.262 249.711 207.262 249.034C207.262 247.909 207.736 246.956 208.684 246.178C209.64 245.399 210.859 245.01 212.34 245.01C213.897 245.01 215.158 245.412 216.123 246.216C217.096 247.02 217.583 248.048 217.583 249.301H215.222C215.222 248.658 214.947 248.103 214.396 247.638C213.855 247.172 213.169 246.939 212.34 246.939C211.485 246.939 210.816 247.126 210.334 247.498C209.852 247.87 209.61 248.357 209.61 248.958C209.61 249.525 209.835 249.952 210.283 250.24C210.732 250.528 211.54 250.803 212.708 251.065C213.884 251.328 214.837 251.641 215.564 252.005C216.292 252.369 216.83 252.809 217.177 253.325C217.532 253.833 217.71 254.455 217.71 255.191C217.71 256.419 217.219 257.405 216.237 258.149C215.256 258.886 213.982 259.254 212.416 259.254C211.316 259.254 210.342 259.059 209.496 258.67C208.65 258.281 207.985 257.739 207.503 257.045C207.029 256.342 206.792 255.585 206.792 254.772H209.141C209.183 255.56 209.496 256.186 210.08 256.651C210.673 257.108 211.451 257.337 212.416 257.337C213.305 257.337 214.016 257.159 214.549 256.804C215.09 256.44 215.361 255.957 215.361 255.356Z" fill="white"/>
<defs>
<filter id="filter0_d_501_6" x="32.5002" y="31.5" width="178" height="124" filterUnits="userSpaceOnUse" color-interpolation-filters="sRGB">
<feFlood flood-opacity="0" result="BackgroundImageFix"/>
<feColorMatrix in="SourceAlpha" type="matrix" values="0 0 0 0 0 0 0 0 0 0 0 0 0 0 0 0 0 0 127 0" result="hardAlpha"/>
<feOffset dy="4"/>
<feGaussianBlur stdDeviation="2"/>
<feComposite in2="hardAlpha" operator="out"/>
<feColorMatrix type="matrix" values="0 0 0 0 0 0 0 0 0 0 0 0 0 0 0 0 0 0 0.25 0"/>
<feBlend mode="normal" in2="BackgroundImageFix" result="effect1_dropShadow_501_6"/>
<feBlend mode="normal" in="SourceGraphic" in2="effect1_dropShadow_501_6" result="shape"/>
</filter>
<filter id="filter1_d_501_6" x="11.5" y="113.495" width="93" height="51.0081" filterUnits="userSpaceOnUse" color-interpolation-filters="sRGB">
<feFlood flood-opacity="0" result="BackgroundImageFix"/>
<feColorMatrix in="SourceAlpha" type="matrix" values="0 0 0 0 0 0 0 0 0 0 0 0 0 0 0 0 0 0 127 0" result="hardAlpha"/>
<feOffset dy="4"/>
<feGaussianBlur stdDeviation="2"/>
<feComposite in2="hardAlpha" operator="out"/>
<feColorMatrix type="matrix" values="0 0 0 0 0 0 0 0 0 0 0 0 0 0 0 0 0 0 0.25 0"/>
<feBlend mode="normal" in2="BackgroundImageFix" result="effect1_dropShadow_501_6"/>
<feBlend mode="normal" in="SourceGraphic" in2="effect1_dropShadow_501_6" result="shape"/>
</filter>
</defs>
</svg>
