<svg width="240" height="300" viewBox="0 0 240 300" fill="none" xmlns="http://www.w3.org/2000/svg">
<rect width="240" height="300" fill="#622800"/>
<path d="M49.7422 265.135C49.5137 267.09 48.79 268.601 47.5713 269.667C46.361 270.725 44.7487 271.254 42.7344 271.254C40.5508 271.254 38.7988 270.471 37.4785 268.905C36.1667 267.34 35.5107 265.245 35.5107 262.621V260.844C35.5107 259.126 35.8154 257.615 36.4248 256.312C37.0426 255.008 37.9144 254.009 39.04 253.315C40.1657 252.613 41.4691 252.262 42.9502 252.262C44.9137 252.262 46.488 252.812 47.6729 253.912C48.8577 255.004 49.5475 256.519 49.7422 258.457H47.292C47.0804 256.984 46.6191 255.918 45.9082 255.258C45.2057 254.598 44.2197 254.268 42.9502 254.268C41.3929 254.268 40.1699 254.843 39.2812 255.994C38.401 257.145 37.9609 258.783 37.9609 260.907V262.697C37.9609 264.703 38.3799 266.299 39.2178 267.483C40.0557 268.668 41.2279 269.261 42.7344 269.261C44.0885 269.261 45.1253 268.956 45.8447 268.347C46.5726 267.729 47.055 266.658 47.292 265.135H49.7422ZM61.1934 271C61.0579 270.729 60.9479 270.247 60.8633 269.553C59.7715 270.687 58.4681 271.254 56.9531 271.254C55.599 271.254 54.486 270.873 53.6143 270.111C52.751 269.341 52.3193 268.368 52.3193 267.191C52.3193 265.761 52.861 264.652 53.9443 263.865C55.0361 263.07 56.568 262.672 58.54 262.672H60.8252V261.593C60.8252 260.772 60.5798 260.12 60.0889 259.638C59.598 259.147 58.8743 258.901 57.918 258.901C57.0801 258.901 56.3776 259.113 55.8105 259.536C55.2435 259.959 54.96 260.471 54.96 261.072H52.5986C52.5986 260.387 52.8398 259.727 53.3223 259.092C53.8132 258.449 54.4733 257.941 55.3027 257.568C56.1406 257.196 57.0589 257.01 58.0576 257.01C59.6403 257.01 60.8802 257.408 61.7773 258.203C62.6745 258.99 63.14 260.078 63.1738 261.466V267.788C63.1738 269.049 63.3346 270.052 63.6562 270.797V271H61.1934ZM57.2959 269.21C58.0322 269.21 58.7305 269.02 59.3906 268.639C60.0508 268.258 60.529 267.763 60.8252 267.153V264.335H58.9844C56.1068 264.335 54.668 265.177 54.668 266.861C54.668 267.598 54.9134 268.173 55.4043 268.588C55.8952 269.003 56.5257 269.21 57.2959 269.21ZM70.042 253.938V257.264H72.6064V259.079H70.042V267.598C70.042 268.148 70.1562 268.562 70.3848 268.842C70.6133 269.113 71.0026 269.248 71.5527 269.248C71.8236 269.248 72.196 269.197 72.6699 269.096V271C72.0521 271.169 71.4512 271.254 70.8672 271.254C69.8177 271.254 69.0264 270.937 68.4932 270.302C67.96 269.667 67.6934 268.766 67.6934 267.598V259.079H65.1924V257.264H67.6934V253.938H70.042ZM74.4854 264.005C74.4854 262.659 74.7477 261.449 75.2725 260.374C75.8057 259.299 76.542 258.47 77.4814 257.886C78.4294 257.302 79.5085 257.01 80.7188 257.01C82.5892 257.01 84.0999 257.657 85.251 258.952C86.4105 260.247 86.9902 261.969 86.9902 264.119V264.284C86.9902 265.621 86.7321 266.823 86.2158 267.89C85.708 268.948 84.9759 269.773 84.0195 270.365C83.0716 270.958 81.9798 271.254 80.7441 271.254C78.8822 271.254 77.3714 270.606 76.2119 269.312C75.0609 268.017 74.4854 266.303 74.4854 264.17V264.005ZM76.8467 264.284C76.8467 265.808 77.1979 267.031 77.9004 267.953C78.6113 268.876 79.5592 269.337 80.7441 269.337C81.9375 269.337 82.8854 268.871 83.5879 267.94C84.2904 267.001 84.6416 265.689 84.6416 264.005C84.6416 262.498 84.2819 261.28 83.5625 260.349C82.8516 259.409 81.9036 258.939 80.7188 258.939C79.5592 258.939 78.624 259.401 77.9131 260.323C77.2021 261.246 76.8467 262.566 76.8467 264.284ZM92.1445 257.264L92.208 258.787C93.2152 257.602 94.5736 257.01 96.2832 257.01C98.2044 257.01 99.512 257.746 100.206 259.219C100.663 258.559 101.256 258.025 101.983 257.619C102.72 257.213 103.587 257.01 104.586 257.01C107.599 257.01 109.131 258.605 109.182 261.796V271H106.833V261.936C106.833 260.954 106.609 260.222 106.16 259.739C105.712 259.248 104.958 259.003 103.9 259.003C103.029 259.003 102.305 259.265 101.729 259.79C101.154 260.306 100.82 261.005 100.727 261.885V271H98.3652V261.999C98.3652 260.002 97.3877 259.003 95.4326 259.003C93.8923 259.003 92.8385 259.659 92.2715 260.971V271H89.9229V257.264H92.1445ZM115.288 271H112.939V257.264H115.288V271ZM112.749 253.62C112.749 253.239 112.863 252.918 113.092 252.655C113.329 252.393 113.676 252.262 114.133 252.262C114.59 252.262 114.937 252.393 115.174 252.655C115.411 252.918 115.529 253.239 115.529 253.62C115.529 254.001 115.411 254.318 115.174 254.572C114.937 254.826 114.59 254.953 114.133 254.953C113.676 254.953 113.329 254.826 113.092 254.572C112.863 254.318 112.749 254.001 112.749 253.62ZM124.568 269.337C125.406 269.337 126.138 269.083 126.765 268.575C127.391 268.067 127.738 267.433 127.806 266.671H130.027C129.985 267.458 129.714 268.207 129.215 268.918C128.715 269.629 128.047 270.196 127.209 270.619C126.38 271.042 125.499 271.254 124.568 271.254C122.698 271.254 121.208 270.632 120.1 269.388C118.999 268.135 118.449 266.425 118.449 264.259V263.865C118.449 262.528 118.695 261.339 119.186 260.298C119.676 259.257 120.379 258.449 121.293 257.873C122.215 257.298 123.303 257.01 124.556 257.01C126.096 257.01 127.374 257.471 128.39 258.394C129.414 259.316 129.96 260.514 130.027 261.986H127.806C127.738 261.098 127.399 260.37 126.79 259.803C126.189 259.227 125.444 258.939 124.556 258.939C123.362 258.939 122.436 259.371 121.775 260.234C121.124 261.089 120.798 262.329 120.798 263.954V264.398C120.798 265.981 121.124 267.2 121.775 268.055C122.427 268.91 123.358 269.337 124.568 269.337ZM139.485 271V252.516H145.528C147.534 252.516 149.041 252.93 150.048 253.76C151.063 254.589 151.571 255.816 151.571 257.441C151.571 258.305 151.326 259.071 150.835 259.739C150.344 260.399 149.675 260.911 148.829 261.275C149.828 261.555 150.615 262.088 151.19 262.875C151.774 263.654 152.066 264.585 152.066 265.668C152.066 267.327 151.529 268.63 150.454 269.578C149.379 270.526 147.86 271 145.896 271H139.485ZM141.923 262.354V269.007H145.947C147.081 269.007 147.974 268.715 148.626 268.131C149.286 267.538 149.616 266.726 149.616 265.693C149.616 263.467 148.406 262.354 145.985 262.354H141.923ZM141.923 260.399H145.604C146.671 260.399 147.521 260.133 148.156 259.6C148.799 259.066 149.121 258.343 149.121 257.429C149.121 256.413 148.825 255.677 148.232 255.22C147.64 254.754 146.739 254.521 145.528 254.521H141.923V260.399ZM154.694 264.005C154.694 262.659 154.957 261.449 155.481 260.374C156.015 259.299 156.751 258.47 157.69 257.886C158.638 257.302 159.717 257.01 160.928 257.01C162.798 257.01 164.309 257.657 165.46 258.952C166.619 260.247 167.199 261.969 167.199 264.119V264.284C167.199 265.621 166.941 266.823 166.425 267.89C165.917 268.948 165.185 269.773 164.229 270.365C163.281 270.958 162.189 271.254 160.953 271.254C159.091 271.254 157.58 270.606 156.421 269.312C155.27 268.017 154.694 266.303 154.694 264.17V264.005ZM157.056 264.284C157.056 265.808 157.407 267.031 158.109 267.953C158.82 268.876 159.768 269.337 160.953 269.337C162.146 269.337 163.094 268.871 163.797 267.94C164.499 267.001 164.851 265.689 164.851 264.005C164.851 262.498 164.491 261.28 163.771 260.349C163.061 259.409 162.113 258.939 160.928 258.939C159.768 258.939 158.833 259.401 158.122 260.323C157.411 261.246 157.056 262.566 157.056 264.284ZM172.354 257.264L172.417 258.787C173.424 257.602 174.783 257.01 176.492 257.01C178.413 257.01 179.721 257.746 180.415 259.219C180.872 258.559 181.465 258.025 182.192 257.619C182.929 257.213 183.796 257.01 184.795 257.01C187.808 257.01 189.34 258.605 189.391 261.796V271H187.042V261.936C187.042 260.954 186.818 260.222 186.369 259.739C185.921 259.248 185.167 259.003 184.109 259.003C183.238 259.003 182.514 259.265 181.938 259.79C181.363 260.306 181.029 261.005 180.936 261.885V271H178.574V261.999C178.574 260.002 177.597 259.003 175.642 259.003C174.101 259.003 173.048 259.659 172.48 260.971V271H170.132V257.264H172.354ZM204.574 264.284C204.574 266.383 204.092 268.072 203.127 269.35C202.162 270.619 200.867 271.254 199.242 271.254C197.507 271.254 196.166 270.64 195.218 269.413L195.104 271H192.945V251.5H195.294V258.774C196.242 257.598 197.549 257.01 199.217 257.01C200.884 257.01 202.192 257.64 203.14 258.901C204.096 260.162 204.574 261.889 204.574 264.081V264.284ZM202.226 264.018C202.226 262.418 201.917 261.182 201.299 260.311C200.681 259.439 199.792 259.003 198.633 259.003C197.084 259.003 195.971 259.722 195.294 261.161V267.103C196.013 268.541 197.135 269.261 198.658 269.261C199.784 269.261 200.66 268.825 201.286 267.953C201.912 267.081 202.226 265.77 202.226 264.018Z" fill="white"/>
<path d="M61.9782 214.49H125.991L161.006 43.7904C108.747 43.7294 83.5477 43.7335 43.9234 43.7904C4.29912 43.8472 20.8023 90.1402 43.9234 119.839C64.7121 129.255 78.0527 127.595 103.012 119.839C111.567 182.621 96.9454 197.424 61.9782 214.49Z" fill="#FF9800" stroke="white"/>
<path d="M190.669 214.49H126.657L91.6415 43.7903H208.724C208.724 43.7903 231.845 90.1402 208.724 119.839C187.935 129.255 174.595 127.595 149.636 119.839C141.08 182.621 155.702 197.424 190.669 214.49Z" fill="#FF9800" stroke="white"/>
<path d="M91.6415 44.3375L126.657 213.943" stroke="#FF9800" stroke-width="2"/>
<circle cx="95.4713" cy="80.447" r="13.1779" fill="white" stroke="black"/>
<circle cx="95.4712" cy="80.447" r="1.64134" fill="black"/>
<circle cx="154.56" cy="80.447" r="13.1779" fill="white" stroke="black"/>
<circle cx="154.56" cy="80.447" r="1.64134" fill="black"/>
<path d="M127.751 91.9364C120.153 90.1795 119.963 92.3916 116.809 94.1249C120.274 103.917 120.89 107.781 119.544 111.633C126.591 117.017 127.71 116.268 135.411 110.538C128.137 101.957 129.068 98.0988 127.751 91.9364Z" stroke="black"/>
<path d="M70.8511 23C62.6846 27.0699 59.078 35.4355 53.3434 54.7326L54.4377 54.8185L81.2463 56.9211C70.3625 48.5571 67.2637 41.7176 70.8511 23Z" fill="#FF9800" stroke="black"/>
<path d="M178.633 23C186.799 27.0699 190.406 35.4355 196.14 54.7326L195.046 54.8185L168.238 56.9211C179.121 48.5571 182.22 41.7176 178.633 23Z" fill="#FF9800" stroke="black"/>
</svg>
