<svg width="180" height="240" viewBox="0 0 180 240" fill="none" xmlns="http://www.w3.org/2000/svg">
<rect width="180" height="240" fill="white"/>
<path d="M62.2656 121.293C62.1602 122.195 61.8262 122.893 61.2637 123.385C60.7051 123.873 59.9609 124.117 59.0312 124.117C58.0234 124.117 57.2148 123.756 56.6055 123.033C56 122.311 55.6973 121.344 55.6973 120.133V119.312C55.6973 118.52 55.8379 117.822 56.1191 117.221C56.4043 116.619 56.8066 116.158 57.3262 115.838C57.8457 115.514 58.4473 115.352 59.1309 115.352C60.0371 115.352 60.7637 115.605 61.3105 116.113C61.8574 116.617 62.1758 117.316 62.2656 118.211H61.1348C61.0371 117.531 60.8242 117.039 60.4961 116.734C60.1719 116.43 59.7168 116.277 59.1309 116.277C58.4121 116.277 57.8477 116.543 57.4375 117.074C57.0312 117.605 56.8281 118.361 56.8281 119.342V120.168C56.8281 121.094 57.0215 121.83 57.4082 122.377C57.7949 122.924 58.3359 123.197 59.0312 123.197C59.6562 123.197 60.1348 123.057 60.4668 122.775C60.8027 122.49 61.0254 121.996 61.1348 121.293H62.2656ZM67.5508 124C67.4883 123.875 67.4375 123.652 67.3984 123.332C66.8945 123.855 66.293 124.117 65.5938 124.117C64.9688 124.117 64.4551 123.941 64.0527 123.59C63.6543 123.234 63.4551 122.785 63.4551 122.242C63.4551 121.582 63.7051 121.07 64.2051 120.707C64.709 120.34 65.416 120.156 66.3262 120.156H67.3809V119.658C67.3809 119.279 67.2676 118.979 67.041 118.756C66.8145 118.529 66.4805 118.416 66.0391 118.416C65.6523 118.416 65.3281 118.514 65.0664 118.709C64.8047 118.904 64.6738 119.141 64.6738 119.418H63.584C63.584 119.102 63.6953 118.797 63.918 118.504C64.1445 118.207 64.4492 117.973 64.832 117.801C65.2188 117.629 65.6426 117.543 66.1035 117.543C66.834 117.543 67.4062 117.727 67.8203 118.094C68.2344 118.457 68.4492 118.959 68.4648 119.6V122.518C68.4648 123.1 68.5391 123.562 68.6875 123.906V124H67.5508ZM65.752 123.174C66.0918 123.174 66.4141 123.086 66.7188 122.91C67.0234 122.734 67.2441 122.506 67.3809 122.225V120.924H66.5312C65.2031 120.924 64.5391 121.312 64.5391 122.09C64.5391 122.43 64.6523 122.695 64.8789 122.887C65.1055 123.078 65.3965 123.174 65.752 123.174ZM71.6348 116.125V117.66H72.8184V118.498H71.6348V122.43C71.6348 122.684 71.6875 122.875 71.793 123.004C71.8984 123.129 72.0781 123.191 72.332 123.191C72.457 123.191 72.6289 123.168 72.8477 123.121V124C72.5625 124.078 72.2852 124.117 72.0156 124.117C71.5312 124.117 71.166 123.971 70.9199 123.678C70.6738 123.385 70.5508 122.969 70.5508 122.43V118.498H69.3965V117.66H70.5508V116.125H71.6348ZM75.5605 116.125V117.66H76.7441V118.498H75.5605V122.43C75.5605 122.684 75.6133 122.875 75.7188 123.004C75.8242 123.129 76.0039 123.191 76.2578 123.191C76.3828 123.191 76.5547 123.168 76.7734 123.121V124C76.4883 124.078 76.2109 124.117 75.9414 124.117C75.457 124.117 75.0918 123.971 74.8457 123.678C74.5996 123.385 74.4766 122.969 74.4766 122.43V118.498H73.3223V117.66H74.4766V116.125H75.5605ZM80.6465 124.117C79.7871 124.117 79.0879 123.836 78.5488 123.273C78.0098 122.707 77.7402 121.951 77.7402 121.006V120.807C77.7402 120.178 77.8594 119.617 78.0977 119.125C78.3398 118.629 78.6758 118.242 79.1055 117.965C79.5391 117.684 80.0078 117.543 80.5117 117.543C81.3359 117.543 81.9766 117.814 82.4336 118.357C82.8906 118.9 83.1191 119.678 83.1191 120.689V121.141H78.8242C78.8398 121.766 79.0215 122.271 79.3691 122.658C79.7207 123.041 80.166 123.232 80.7051 123.232C81.0879 123.232 81.4121 123.154 81.6777 122.998C81.9434 122.842 82.1758 122.635 82.375 122.377L83.0371 122.893C82.5059 123.709 81.709 124.117 80.6465 124.117ZM80.5117 118.434C80.0742 118.434 79.707 118.594 79.4102 118.914C79.1133 119.23 78.9297 119.676 78.8594 120.25H82.0352V120.168C82.0039 119.617 81.8555 119.191 81.5898 118.891C81.3242 118.586 80.9648 118.434 80.5117 118.434ZM87.4434 118.633C87.2793 118.605 87.1016 118.592 86.9102 118.592C86.1992 118.592 85.7168 118.895 85.4629 119.5V124H84.3789V117.66H85.4336L85.4512 118.393C85.8066 117.826 86.3105 117.543 86.9629 117.543C87.1738 117.543 87.334 117.57 87.4434 117.625V118.633ZM89.4648 117.66L89.4941 118.363C89.959 117.816 90.5859 117.543 91.375 117.543C92.2617 117.543 92.8652 117.883 93.1855 118.562C93.3965 118.258 93.6699 118.012 94.0059 117.824C94.3457 117.637 94.7461 117.543 95.207 117.543C96.5977 117.543 97.3047 118.279 97.3281 119.752V124H96.2441V119.816C96.2441 119.363 96.1406 119.025 95.9336 118.803C95.7266 118.576 95.3789 118.463 94.8906 118.463C94.4883 118.463 94.1543 118.584 93.8887 118.826C93.623 119.064 93.4688 119.387 93.4258 119.793V124H92.3359V119.846C92.3359 118.924 91.8848 118.463 90.9824 118.463C90.2715 118.463 89.7852 118.766 89.5234 119.371V124H88.4395V117.66H89.4648ZM101.6 124.117C100.74 124.117 100.041 123.836 99.502 123.273C98.9629 122.707 98.6934 121.951 98.6934 121.006V120.807C98.6934 120.178 98.8125 119.617 99.0508 119.125C99.293 118.629 99.6289 118.242 100.059 117.965C100.492 117.684 100.961 117.543 101.465 117.543C102.289 117.543 102.93 117.814 103.387 118.357C103.844 118.9 104.072 119.678 104.072 120.689V121.141H99.7773C99.793 121.766 99.9746 122.271 100.322 122.658C100.674 123.041 101.119 123.232 101.658 123.232C102.041 123.232 102.365 123.154 102.631 122.998C102.896 122.842 103.129 122.635 103.328 122.377L103.99 122.893C103.459 123.709 102.662 124.117 101.6 124.117ZM101.465 118.434C101.027 118.434 100.66 118.594 100.363 118.914C100.066 119.23 99.8828 119.676 99.8125 120.25H102.988V120.168C102.957 119.617 102.809 119.191 102.543 118.891C102.277 118.586 101.918 118.434 101.465 118.434ZM106.51 124H105.426V115H106.51V124ZM109.428 124H108.344V115H109.428V124ZM110.881 120.771C110.881 120.15 111.002 119.592 111.244 119.096C111.49 118.6 111.83 118.217 112.264 117.947C112.701 117.678 113.199 117.543 113.758 117.543C114.621 117.543 115.318 117.842 115.85 118.439C116.385 119.037 116.652 119.832 116.652 120.824V120.9C116.652 121.518 116.533 122.072 116.295 122.564C116.061 123.053 115.723 123.434 115.281 123.707C114.844 123.98 114.34 124.117 113.77 124.117C112.91 124.117 112.213 123.818 111.678 123.221C111.146 122.623 110.881 121.832 110.881 120.848V120.771ZM111.971 120.9C111.971 121.604 112.133 122.168 112.457 122.594C112.785 123.02 113.223 123.232 113.77 123.232C114.32 123.232 114.758 123.018 115.082 122.588C115.406 122.154 115.568 121.549 115.568 120.771C115.568 120.076 115.402 119.514 115.07 119.084C114.742 118.65 114.305 118.434 113.758 118.434C113.223 118.434 112.791 118.646 112.463 119.072C112.135 119.498 111.971 120.107 111.971 120.9ZM119.037 117.66L119.072 118.457C119.557 117.848 120.189 117.543 120.971 117.543C122.311 117.543 122.986 118.299 122.998 119.811V124H121.914V119.805C121.91 119.348 121.805 119.01 121.598 118.791C121.395 118.572 121.076 118.463 120.643 118.463C120.291 118.463 119.982 118.557 119.717 118.744C119.451 118.932 119.244 119.178 119.096 119.482V124H118.012V117.66H119.037Z" fill="black"/>
</svg>
