<svg width="180" height="240" viewBox="0 0 180 240" fill="none" xmlns="http://www.w3.org/2000/svg">
<rect width="180" height="240" fill="white"/>
<path d="M48.8984 122.939C48.7402 124.293 48.2393 125.339 47.3955 126.077C46.5576 126.81 45.4414 127.176 44.0469 127.176C42.5352 127.176 41.3223 126.634 40.4082 125.55C39.5 124.466 39.0459 123.016 39.0459 121.199V119.969C39.0459 118.779 39.2568 117.733 39.6787 116.831C40.1064 115.929 40.71 115.237 41.4893 114.757C42.2686 114.271 43.1709 114.027 44.1963 114.027C45.5557 114.027 46.6455 114.408 47.4658 115.17C48.2861 115.926 48.7637 116.975 48.8984 118.316H47.2021C47.0557 117.297 46.7363 116.559 46.2441 116.102C45.7578 115.645 45.0752 115.416 44.1963 115.416C43.1182 115.416 42.2715 115.814 41.6562 116.611C41.0469 117.408 40.7422 118.542 40.7422 120.013V121.252C40.7422 122.641 41.0322 123.745 41.6123 124.565C42.1924 125.386 43.0039 125.796 44.0469 125.796C44.9844 125.796 45.7021 125.585 46.2002 125.163C46.7041 124.735 47.0381 123.994 47.2021 122.939H48.8984ZM56.8262 127C56.7324 126.812 56.6562 126.479 56.5977 125.998C55.8418 126.783 54.9395 127.176 53.8906 127.176C52.9531 127.176 52.1826 126.912 51.5791 126.385C50.9814 125.852 50.6826 125.178 50.6826 124.363C50.6826 123.373 51.0576 122.605 51.8076 122.061C52.5635 121.51 53.624 121.234 54.9893 121.234H56.5713V120.487C56.5713 119.919 56.4014 119.468 56.0615 119.134C55.7217 118.794 55.2207 118.624 54.5586 118.624C53.9785 118.624 53.4922 118.771 53.0996 119.063C52.707 119.356 52.5107 119.711 52.5107 120.127H50.876C50.876 119.652 51.043 119.195 51.377 118.756C51.7168 118.311 52.1738 117.959 52.748 117.701C53.3281 117.443 53.9639 117.314 54.6553 117.314C55.751 117.314 56.6094 117.59 57.2305 118.141C57.8516 118.686 58.1738 119.438 58.1973 120.399V124.776C58.1973 125.649 58.3086 126.344 58.5312 126.859V127H56.8262ZM54.1279 125.761C54.6377 125.761 55.1211 125.629 55.5781 125.365C56.0352 125.102 56.3662 124.759 56.5713 124.337V122.386H55.2969C53.3047 122.386 52.3086 122.969 52.3086 124.135C52.3086 124.645 52.4785 125.043 52.8184 125.33C53.1582 125.617 53.5947 125.761 54.1279 125.761ZM62.9521 115.188V117.49H64.7275V118.747H62.9521V124.645C62.9521 125.025 63.0312 125.312 63.1895 125.506C63.3477 125.693 63.6172 125.787 63.998 125.787C64.1855 125.787 64.4434 125.752 64.7715 125.682V127C64.3438 127.117 63.9277 127.176 63.5234 127.176C62.7969 127.176 62.249 126.956 61.8799 126.517C61.5107 126.077 61.3262 125.453 61.3262 124.645V118.747H59.5947V117.49H61.3262V115.188H62.9521ZM68.8408 115.188V117.49H70.6162V118.747H68.8408V124.645C68.8408 125.025 68.9199 125.312 69.0781 125.506C69.2363 125.693 69.5059 125.787 69.8867 125.787C70.0742 125.787 70.332 125.752 70.6602 125.682V127C70.2324 127.117 69.8164 127.176 69.4121 127.176C68.6855 127.176 68.1377 126.956 67.7686 126.517C67.3994 126.077 67.2148 125.453 67.2148 124.645V118.747H65.4834V117.49H67.2148V115.188H68.8408ZM76.4697 127.176C75.1807 127.176 74.1318 126.754 73.3232 125.91C72.5146 125.061 72.1104 123.927 72.1104 122.509V122.21C72.1104 121.267 72.2891 120.426 72.6465 119.688C73.0098 118.943 73.5137 118.363 74.1582 117.947C74.8086 117.525 75.5117 117.314 76.2676 117.314C77.5039 117.314 78.4648 117.722 79.1504 118.536C79.8359 119.351 80.1787 120.517 80.1787 122.034V122.711H73.7363C73.7598 123.648 74.0322 124.407 74.5537 124.987C75.0811 125.562 75.749 125.849 76.5576 125.849C77.1318 125.849 77.6182 125.731 78.0166 125.497C78.415 125.263 78.7637 124.952 79.0625 124.565L80.0557 125.339C79.2588 126.563 78.0635 127.176 76.4697 127.176ZM76.2676 118.65C75.6113 118.65 75.0605 118.891 74.6152 119.371C74.1699 119.846 73.8945 120.514 73.7891 121.375H78.5527V121.252C78.5059 120.426 78.2832 119.787 77.8848 119.336C77.4863 118.879 76.9473 118.65 76.2676 118.65ZM86.665 118.949C86.4189 118.908 86.1523 118.888 85.8652 118.888C84.7988 118.888 84.0752 119.342 83.6943 120.25V127H82.0684V117.49H83.6504L83.6768 118.589C84.21 117.739 84.9658 117.314 85.9443 117.314C86.2607 117.314 86.501 117.355 86.665 117.438V118.949ZM89.6973 117.49L89.7412 118.545C90.4385 117.725 91.3789 117.314 92.5625 117.314C93.8926 117.314 94.7979 117.824 95.2783 118.844C95.5947 118.387 96.0049 118.018 96.5088 117.736C97.0186 117.455 97.6191 117.314 98.3105 117.314C100.396 117.314 101.457 118.419 101.492 120.628V127H99.8662V120.725C99.8662 120.045 99.7109 119.538 99.4004 119.204C99.0898 118.864 98.5684 118.694 97.8359 118.694C97.2324 118.694 96.7314 118.876 96.333 119.239C95.9346 119.597 95.7031 120.08 95.6387 120.689V127H94.0039V120.769C94.0039 119.386 93.3271 118.694 91.9736 118.694C90.9072 118.694 90.1777 119.148 89.7852 120.057V127H88.1592V117.49H89.6973ZM107.899 127.176C106.61 127.176 105.562 126.754 104.753 125.91C103.944 125.061 103.54 123.927 103.54 122.509V122.21C103.54 121.267 103.719 120.426 104.076 119.688C104.439 118.943 104.943 118.363 105.588 117.947C106.238 117.525 106.941 117.314 107.697 117.314C108.934 117.314 109.895 117.722 110.58 118.536C111.266 119.351 111.608 120.517 111.608 122.034V122.711H105.166C105.189 123.648 105.462 124.407 105.983 124.987C106.511 125.562 107.179 125.849 107.987 125.849C108.562 125.849 109.048 125.731 109.446 125.497C109.845 125.263 110.193 124.952 110.492 124.565L111.485 125.339C110.688 126.563 109.493 127.176 107.899 127.176ZM107.697 118.65C107.041 118.65 106.49 118.891 106.045 119.371C105.6 119.846 105.324 120.514 105.219 121.375H109.982V121.252C109.936 120.426 109.713 119.787 109.314 119.336C108.916 118.879 108.377 118.65 107.697 118.65ZM115.265 127H113.639V113.5H115.265V127ZM119.642 127H118.016V113.5H119.642V127ZM121.821 122.157C121.821 121.226 122.003 120.388 122.366 119.644C122.735 118.899 123.245 118.325 123.896 117.921C124.552 117.517 125.299 117.314 126.137 117.314C127.432 117.314 128.478 117.763 129.274 118.659C130.077 119.556 130.479 120.748 130.479 122.236V122.351C130.479 123.276 130.3 124.108 129.942 124.847C129.591 125.579 129.084 126.15 128.422 126.561C127.766 126.971 127.01 127.176 126.154 127.176C124.865 127.176 123.819 126.728 123.017 125.831C122.22 124.935 121.821 123.748 121.821 122.271V122.157ZM123.456 122.351C123.456 123.405 123.699 124.252 124.186 124.891C124.678 125.529 125.334 125.849 126.154 125.849C126.98 125.849 127.637 125.526 128.123 124.882C128.609 124.231 128.853 123.323 128.853 122.157C128.853 121.114 128.604 120.271 128.105 119.626C127.613 118.976 126.957 118.65 126.137 118.65C125.334 118.65 124.687 118.97 124.194 119.608C123.702 120.247 123.456 121.161 123.456 122.351ZM134.056 117.49L134.108 118.686C134.835 117.771 135.784 117.314 136.956 117.314C138.966 117.314 139.979 118.448 139.997 120.716V127H138.371V120.707C138.365 120.021 138.207 119.515 137.896 119.187C137.592 118.858 137.114 118.694 136.464 118.694C135.937 118.694 135.474 118.835 135.075 119.116C134.677 119.397 134.366 119.767 134.144 120.224V127H132.518V117.49H134.056Z" fill="black"/>
</svg>
