<svg width="240" height="300" viewBox="0 0 240 300" fill="none" xmlns="http://www.w3.org/2000/svg">
<rect width="240" height="300" fill="#19E001"/>
<path d="M81.1455 261V242.516H86.3633C87.9714 242.516 89.3932 242.871 90.6289 243.582C91.8646 244.293 92.8167 245.304 93.4854 246.616C94.1624 247.928 94.5052 249.435 94.5137 251.136V252.316C94.5137 254.06 94.1751 255.588 93.498 256.899C92.8294 258.211 91.8688 259.218 90.6162 259.921C89.3721 260.623 87.9206 260.983 86.2617 261H81.1455ZM83.583 244.521V259.007H86.1475C88.0264 259.007 89.4863 258.423 90.5273 257.255C91.5768 256.087 92.1016 254.424 92.1016 252.266V251.187C92.1016 249.088 91.6064 247.458 90.6162 246.299C89.6344 245.131 88.238 244.538 86.4268 244.521H83.583ZM103.54 261.254C101.678 261.254 100.163 260.645 98.9951 259.426C97.8271 258.199 97.2432 256.561 97.2432 254.513V254.081C97.2432 252.718 97.5013 251.504 98.0176 250.438C98.5423 249.363 99.2702 248.525 100.201 247.924C101.141 247.314 102.156 247.01 103.248 247.01C105.034 247.01 106.422 247.598 107.412 248.774C108.402 249.951 108.897 251.635 108.897 253.827V254.805H99.5918C99.6257 256.159 100.019 257.255 100.772 258.093C101.534 258.922 102.499 259.337 103.667 259.337C104.496 259.337 105.199 259.168 105.774 258.829C106.35 258.491 106.854 258.042 107.285 257.483L108.72 258.601C107.569 260.369 105.842 261.254 103.54 261.254ZM103.248 248.939C102.3 248.939 101.505 249.286 100.861 249.98C100.218 250.666 99.8203 251.631 99.668 252.875H106.549V252.697C106.481 251.504 106.16 250.581 105.584 249.93C105.008 249.27 104.23 248.939 103.248 248.939ZM112.782 261V249.079H110.611V247.264H112.782V245.854C112.782 244.382 113.176 243.243 113.963 242.439C114.75 241.635 115.863 241.233 117.302 241.233C117.843 241.233 118.381 241.305 118.914 241.449L118.787 243.354C118.389 243.277 117.966 243.239 117.518 243.239C116.756 243.239 116.168 243.464 115.753 243.912C115.338 244.352 115.131 244.987 115.131 245.816V247.264H118.063V249.079H115.131V261H112.782ZM129.146 259.642C128.232 260.716 126.891 261.254 125.122 261.254C123.658 261.254 122.541 260.831 121.771 259.984C121.009 259.13 120.624 257.868 120.615 256.201V247.264H122.964V256.138C122.964 258.22 123.81 259.261 125.503 259.261C127.297 259.261 128.491 258.592 129.083 257.255V247.264H131.432V261H129.197L129.146 259.642ZM143.01 257.356C143.01 256.722 142.769 256.231 142.286 255.884C141.812 255.528 140.979 255.224 139.785 254.97C138.6 254.716 137.657 254.411 136.954 254.056C136.26 253.7 135.744 253.277 135.405 252.786C135.075 252.295 134.91 251.711 134.91 251.034C134.91 249.909 135.384 248.956 136.332 248.178C137.288 247.399 138.507 247.01 139.988 247.01C141.546 247.01 142.807 247.412 143.771 248.216C144.745 249.02 145.231 250.048 145.231 251.301H142.87C142.87 250.658 142.595 250.103 142.045 249.638C141.503 249.172 140.818 248.939 139.988 248.939C139.133 248.939 138.465 249.126 137.982 249.498C137.5 249.87 137.259 250.357 137.259 250.958C137.259 251.525 137.483 251.952 137.932 252.24C138.38 252.528 139.188 252.803 140.356 253.065C141.533 253.328 142.485 253.641 143.213 254.005C143.941 254.369 144.478 254.809 144.825 255.325C145.181 255.833 145.358 256.455 145.358 257.191C145.358 258.419 144.868 259.405 143.886 260.149C142.904 260.886 141.63 261.254 140.064 261.254C138.964 261.254 137.991 261.059 137.145 260.67C136.298 260.281 135.634 259.739 135.151 259.045C134.677 258.342 134.44 257.585 134.44 256.772H136.789C136.831 257.56 137.145 258.186 137.729 258.651C138.321 259.108 139.1 259.337 140.064 259.337C140.953 259.337 141.664 259.159 142.197 258.804C142.739 258.44 143.01 257.957 143.01 257.356ZM154.118 261.254C152.256 261.254 150.741 260.645 149.573 259.426C148.405 258.199 147.821 256.561 147.821 254.513V254.081C147.821 252.718 148.079 251.504 148.596 250.438C149.12 249.363 149.848 248.525 150.779 247.924C151.719 247.314 152.734 247.01 153.826 247.01C155.612 247.01 157 247.598 157.99 248.774C158.98 249.951 159.476 251.635 159.476 253.827V254.805H150.17C150.204 256.159 150.597 257.255 151.351 258.093C152.112 258.922 153.077 259.337 154.245 259.337C155.075 259.337 155.777 259.168 156.353 258.829C156.928 258.491 157.432 258.042 157.863 257.483L159.298 258.601C158.147 260.369 156.42 261.254 154.118 261.254ZM153.826 248.939C152.878 248.939 152.083 249.286 151.439 249.98C150.796 250.666 150.398 251.631 150.246 252.875H157.127V252.697C157.059 251.504 156.738 250.581 156.162 249.93C155.587 249.27 154.808 248.939 153.826 248.939Z" fill="white"/>
<path d="M35 222.13C78.5978 127.832 101.062 84.7539 126.763 79C149.799 133.13 126.063 184.871 95.9854 229" stroke="black" stroke-width="3"/>
<path d="M159.528 27.6347C155.721 48.3029 153.517 56.7516 149.421 64.641C145.733 68.1485 139.55 63.4937 139.55 63.4937C138.354 60.5713 138.448 58.869 139.563 55.7542C140.679 52.6393 159.528 27.6347 159.528 27.6347Z" fill="white" stroke="#7C7C7C"/>
<path d="M96 11L204 54" stroke="#F9E801"/>
<path d="M141 23C131.532 41.6904 127.056 49.1406 120.97 55.5007C116.519 57.7814 112.068 51.5094 112.068 51.5094C111.785 48.3587 112.359 46.7548 114.293 44.0969C116.227 41.439 141 23 141 23Z" fill="white" stroke="#7C7C7C"/>
<path d="M144.5 67.5C144.5 76.3778 137.52 83.5 129 83.5C120.48 83.5 113.5 76.3778 113.5 67.5C113.5 58.6222 120.48 51.5 129 51.5C137.52 51.5 144.5 58.6222 144.5 67.5Z" fill="white" stroke="#7C7C7C" stroke-width="3"/>
</svg>
