<svg width="180" height="240" viewBox="0 0 180 240" fill="none" xmlns="http://www.w3.org/2000/svg">
<rect width="180" height="240" fill="white"/>
<path d="M71.9902 117V108.469H74.3984C75.1406 108.469 75.7969 108.633 76.3672 108.961C76.9375 109.289 77.377 109.756 77.6855 110.361C77.998 110.967 78.1562 111.662 78.1602 112.447V112.992C78.1602 113.797 78.0039 114.502 77.6914 115.107C77.3828 115.713 76.9395 116.178 76.3613 116.502C75.7871 116.826 75.1172 116.992 74.3516 117H71.9902ZM73.1152 109.395V116.08H74.2988C75.166 116.08 75.8398 115.811 76.3203 115.271C76.8047 114.732 77.0469 113.965 77.0469 112.969V112.471C77.0469 111.502 76.8184 110.75 76.3613 110.215C75.9082 109.676 75.2637 109.402 74.4277 109.395H73.1152ZM80.873 117H79.7891V110.66H80.873V117ZM79.7012 108.979C79.7012 108.803 79.7539 108.654 79.8594 108.533C79.9688 108.412 80.1289 108.352 80.3398 108.352C80.5508 108.352 80.7109 108.412 80.8203 108.533C80.9297 108.654 80.9844 108.803 80.9844 108.979C80.9844 109.154 80.9297 109.301 80.8203 109.418C80.7109 109.535 80.5508 109.594 80.3398 109.594C80.1289 109.594 79.9688 109.535 79.8594 109.418C79.7539 109.301 79.7012 109.154 79.7012 108.979ZM83.1465 117V111.498H82.1445V110.66H83.1465V110.01C83.1465 109.33 83.3281 108.805 83.6914 108.434C84.0547 108.062 84.5684 107.877 85.2324 107.877C85.4824 107.877 85.7305 107.91 85.9766 107.977L85.918 108.855C85.7344 108.82 85.5391 108.803 85.332 108.803C84.9805 108.803 84.709 108.906 84.5176 109.113C84.3262 109.316 84.2305 109.609 84.2305 109.992V110.66H85.584V111.498H84.2305V117H83.1465ZM87.3184 117V111.498H86.3164V110.66H87.3184V110.01C87.3184 109.33 87.5 108.805 87.8633 108.434C88.2266 108.062 88.7402 107.877 89.4043 107.877C89.6543 107.877 89.9023 107.91 90.1484 107.977L90.0898 108.855C89.9062 108.82 89.7109 108.803 89.5039 108.803C89.1523 108.803 88.8809 108.906 88.6895 109.113C88.498 109.316 88.4023 109.609 88.4023 109.992V110.66H89.7559V111.498H88.4023V117H87.3184ZM94.8711 116.373C94.4492 116.869 93.8301 117.117 93.0137 117.117C92.3379 117.117 91.8223 116.922 91.4668 116.531C91.1152 116.137 90.9375 115.555 90.9336 114.785V110.66H92.0176V114.756C92.0176 115.717 92.4082 116.197 93.1895 116.197C94.0176 116.197 94.5684 115.889 94.8418 115.271V110.66H95.9258V117H94.8945L94.8711 116.373ZM101.27 115.318C101.27 115.025 101.158 114.799 100.936 114.639C100.717 114.475 100.332 114.334 99.7812 114.217C99.2344 114.1 98.7988 113.959 98.4746 113.795C98.1543 113.631 97.916 113.436 97.7598 113.209C97.6074 112.982 97.5312 112.713 97.5312 112.4C97.5312 111.881 97.75 111.441 98.1875 111.082C98.6289 110.723 99.1914 110.543 99.875 110.543C100.594 110.543 101.176 110.729 101.621 111.1C102.07 111.471 102.295 111.945 102.295 112.523H101.205C101.205 112.227 101.078 111.971 100.824 111.756C100.574 111.541 100.258 111.434 99.875 111.434C99.4805 111.434 99.1719 111.52 98.9492 111.691C98.7266 111.863 98.6152 112.088 98.6152 112.365C98.6152 112.627 98.7188 112.824 98.9258 112.957C99.1328 113.09 99.5059 113.217 100.045 113.338C100.588 113.459 101.027 113.604 101.363 113.771C101.699 113.939 101.947 114.143 102.107 114.381C102.271 114.615 102.354 114.902 102.354 115.242C102.354 115.809 102.127 116.264 101.674 116.607C101.221 116.947 100.633 117.117 99.9102 117.117C99.4023 117.117 98.9531 117.027 98.5625 116.848C98.1719 116.668 97.8652 116.418 97.6426 116.098C97.4238 115.773 97.3145 115.424 97.3145 115.049H98.3984C98.418 115.412 98.5625 115.701 98.832 115.916C99.1055 116.127 99.4648 116.232 99.9102 116.232C100.32 116.232 100.648 116.15 100.895 115.986C101.145 115.818 101.27 115.596 101.27 115.318ZM106.396 117.117C105.537 117.117 104.838 116.836 104.299 116.273C103.76 115.707 103.49 114.951 103.49 114.006V113.807C103.49 113.178 103.609 112.617 103.848 112.125C104.09 111.629 104.426 111.242 104.855 110.965C105.289 110.684 105.758 110.543 106.262 110.543C107.086 110.543 107.727 110.814 108.184 111.357C108.641 111.9 108.869 112.678 108.869 113.689V114.141H104.574C104.59 114.766 104.771 115.271 105.119 115.658C105.471 116.041 105.916 116.232 106.455 116.232C106.838 116.232 107.162 116.154 107.428 115.998C107.693 115.842 107.926 115.635 108.125 115.377L108.787 115.893C108.256 116.709 107.459 117.117 106.396 117.117ZM106.262 111.434C105.824 111.434 105.457 111.594 105.16 111.914C104.863 112.23 104.68 112.676 104.609 113.25H107.785V113.168C107.754 112.617 107.605 112.191 107.34 111.891C107.074 111.586 106.715 111.434 106.262 111.434Z" fill="#37D300"/>
</svg>
