<svg width="180" height="240" viewBox="0 0 180 240" fill="none" xmlns="http://www.w3.org/2000/svg">
<rect width="180" height="240" fill="white"/>
<path d="M62.4854 120V107.203H66.0977C67.2109 107.203 68.1953 107.449 69.0508 107.941C69.9062 108.434 70.5654 109.134 71.0283 110.042C71.4971 110.95 71.7344 111.993 71.7402 113.171V113.988C71.7402 115.195 71.5059 116.253 71.0371 117.161C70.5742 118.069 69.9092 118.767 69.042 119.253C68.1807 119.739 67.1758 119.988 66.0273 120H62.4854ZM64.1729 108.592V118.62H65.9482C67.249 118.62 68.2598 118.216 68.9805 117.407C69.707 116.599 70.0703 115.447 70.0703 113.953V113.206C70.0703 111.753 69.7275 110.625 69.042 109.822C68.3623 109.014 67.3955 108.604 66.1416 108.592H64.1729ZM75.8096 120H74.1836V110.49H75.8096V120ZM74.0518 107.968C74.0518 107.704 74.1309 107.481 74.2891 107.3C74.4531 107.118 74.6934 107.027 75.0098 107.027C75.3262 107.027 75.5664 107.118 75.7305 107.3C75.8945 107.481 75.9766 107.704 75.9766 107.968C75.9766 108.231 75.8945 108.451 75.7305 108.627C75.5664 108.803 75.3262 108.891 75.0098 108.891C74.6934 108.891 74.4531 108.803 74.2891 108.627C74.1309 108.451 74.0518 108.231 74.0518 107.968ZM79.2197 120V111.747H77.7168V110.49H79.2197V109.515C79.2197 108.495 79.4922 107.707 80.0371 107.15C80.582 106.594 81.3525 106.315 82.3486 106.315C82.7236 106.315 83.0957 106.365 83.4648 106.465L83.377 107.783C83.1016 107.73 82.8086 107.704 82.498 107.704C81.9707 107.704 81.5635 107.859 81.2764 108.17C80.9893 108.475 80.8457 108.914 80.8457 109.488V110.49H82.876V111.747H80.8457V120H79.2197ZM85.4775 120V111.747H83.9746V110.49H85.4775V109.515C85.4775 108.495 85.75 107.707 86.2949 107.15C86.8398 106.594 87.6104 106.315 88.6064 106.315C88.9814 106.315 89.3535 106.365 89.7227 106.465L89.6348 107.783C89.3594 107.73 89.0664 107.704 88.7559 107.704C88.2285 107.704 87.8213 107.859 87.5342 108.17C87.2471 108.475 87.1035 108.914 87.1035 109.488V110.49H89.1338V111.747H87.1035V120H85.4775ZM96.8066 119.06C96.1738 119.804 95.2451 120.176 94.0205 120.176C93.0068 120.176 92.2334 119.883 91.7002 119.297C91.1729 118.705 90.9062 117.832 90.9004 116.678V110.49H92.5264V116.634C92.5264 118.075 93.1123 118.796 94.2842 118.796C95.5264 118.796 96.3525 118.333 96.7627 117.407V110.49H98.3887V120H96.8418L96.8066 119.06ZM106.404 117.478C106.404 117.038 106.237 116.698 105.903 116.458C105.575 116.212 104.998 116.001 104.172 115.825C103.352 115.649 102.698 115.438 102.212 115.192C101.731 114.946 101.374 114.653 101.14 114.313C100.911 113.974 100.797 113.569 100.797 113.101C100.797 112.321 101.125 111.662 101.781 111.123C102.443 110.584 103.287 110.314 104.312 110.314C105.391 110.314 106.264 110.593 106.932 111.149C107.605 111.706 107.942 112.418 107.942 113.285H106.308C106.308 112.84 106.117 112.456 105.736 112.134C105.361 111.812 104.887 111.65 104.312 111.65C103.721 111.65 103.258 111.779 102.924 112.037C102.59 112.295 102.423 112.632 102.423 113.048C102.423 113.44 102.578 113.736 102.889 113.936C103.199 114.135 103.759 114.325 104.567 114.507C105.382 114.688 106.041 114.905 106.545 115.157C107.049 115.409 107.421 115.714 107.661 116.071C107.907 116.423 108.03 116.854 108.03 117.363C108.03 118.213 107.69 118.896 107.011 119.411C106.331 119.921 105.449 120.176 104.365 120.176C103.604 120.176 102.93 120.041 102.344 119.771C101.758 119.502 101.298 119.127 100.964 118.646C100.636 118.16 100.472 117.636 100.472 117.073H102.098C102.127 117.618 102.344 118.052 102.748 118.374C103.158 118.69 103.697 118.849 104.365 118.849C104.98 118.849 105.473 118.726 105.842 118.479C106.217 118.228 106.404 117.894 106.404 117.478ZM114.095 120.176C112.806 120.176 111.757 119.754 110.948 118.91C110.14 118.061 109.735 116.927 109.735 115.509V115.21C109.735 114.267 109.914 113.426 110.271 112.688C110.635 111.943 111.139 111.363 111.783 110.947C112.434 110.525 113.137 110.314 113.893 110.314C115.129 110.314 116.09 110.722 116.775 111.536C117.461 112.351 117.804 113.517 117.804 115.034V115.711H111.361C111.385 116.648 111.657 117.407 112.179 117.987C112.706 118.562 113.374 118.849 114.183 118.849C114.757 118.849 115.243 118.731 115.642 118.497C116.04 118.263 116.389 117.952 116.688 117.565L117.681 118.339C116.884 119.563 115.688 120.176 114.095 120.176ZM113.893 111.65C113.236 111.65 112.686 111.891 112.24 112.371C111.795 112.846 111.52 113.514 111.414 114.375H116.178V114.252C116.131 113.426 115.908 112.787 115.51 112.336C115.111 111.879 114.572 111.65 113.893 111.65Z" fill="#37D300"/>
</svg>
