<svg width="240" height="300" viewBox="0 0 240 300" fill="none" xmlns="http://www.w3.org/2000/svg">
<rect width="240" height="300" fill="#AD9F95"/>
<path d="M42.1455 232V213.516H47.3633C48.9714 213.516 50.3932 213.871 51.6289 214.582C52.8646 215.293 53.8167 216.304 54.4854 217.616C55.1624 218.928 55.5052 220.435 55.5137 222.136V223.316C55.5137 225.06 55.1751 226.588 54.498 227.899C53.8294 229.211 52.8688 230.218 51.6162 230.921C50.3721 231.623 48.9206 231.983 47.2617 232H42.1455ZM44.583 215.521V230.007H47.1475C49.0264 230.007 50.4863 229.423 51.5273 228.255C52.5768 227.087 53.1016 225.424 53.1016 223.266V222.187C53.1016 220.088 52.6064 218.458 51.6162 217.299C50.6344 216.131 49.238 215.538 47.4268 215.521H44.583ZM65.4795 220.371C65.124 220.312 64.7389 220.282 64.3242 220.282C62.7839 220.282 61.7386 220.938 61.1885 222.25V232H58.8398V218.264H61.125L61.1631 219.851C61.9333 218.623 63.0251 218.01 64.4385 218.01C64.8955 218.01 65.2425 218.069 65.4795 218.188V220.371ZM75.623 232C75.4876 231.729 75.3776 231.247 75.293 230.553C74.2012 231.687 72.8978 232.254 71.3828 232.254C70.0286 232.254 68.9157 231.873 68.0439 231.111C67.1807 230.341 66.749 229.368 66.749 228.191C66.749 226.761 67.2907 225.652 68.374 224.865C69.4658 224.07 70.9977 223.672 72.9697 223.672H75.2549V222.593C75.2549 221.772 75.0094 221.12 74.5186 220.638C74.0277 220.147 73.304 219.901 72.3477 219.901C71.5098 219.901 70.8073 220.113 70.2402 220.536C69.6732 220.959 69.3896 221.471 69.3896 222.072H67.0283C67.0283 221.387 67.2695 220.727 67.752 220.092C68.2428 219.449 68.903 218.941 69.7324 218.568C70.5703 218.196 71.4886 218.01 72.4873 218.01C74.07 218.01 75.3099 218.408 76.207 219.203C77.1042 219.99 77.5697 221.078 77.6035 222.466V228.788C77.6035 230.049 77.7643 231.052 78.0859 231.797V232H75.623ZM71.7256 230.21C72.4619 230.21 73.1602 230.02 73.8203 229.639C74.4805 229.258 74.9587 228.763 75.2549 228.153V225.335H73.4141C70.5365 225.335 69.0977 226.177 69.0977 227.861C69.0977 228.598 69.3431 229.173 69.834 229.588C70.3249 230.003 70.9554 230.21 71.7256 230.21ZM93.4473 228.763L96.0879 218.264H98.4365L94.4375 232H92.5332L89.1943 221.59L85.9443 232H84.04L80.0537 218.264H82.3896L85.0938 228.547L88.293 218.264H90.1846L93.4473 228.763ZM117.848 223.837H110.091V232H107.653V213.516H119.104V215.521H110.091V221.844H117.848V223.837ZM127.966 220.371C127.61 220.312 127.225 220.282 126.811 220.282C125.27 220.282 124.225 220.938 123.675 222.25V232H121.326V218.264H123.611L123.649 219.851C124.42 218.623 125.511 218.01 126.925 218.01C127.382 218.01 127.729 218.069 127.966 218.188V220.371ZM129.261 225.005C129.261 223.659 129.523 222.449 130.048 221.374C130.581 220.299 131.317 219.47 132.257 218.886C133.205 218.302 134.284 218.01 135.494 218.01C137.365 218.01 138.875 218.657 140.026 219.952C141.186 221.247 141.766 222.969 141.766 225.119V225.284C141.766 226.621 141.507 227.823 140.991 228.89C140.483 229.948 139.751 230.773 138.795 231.365C137.847 231.958 136.755 232.254 135.52 232.254C133.658 232.254 132.147 231.606 130.987 230.312C129.836 229.017 129.261 227.303 129.261 225.17V225.005ZM131.622 225.284C131.622 226.808 131.973 228.031 132.676 228.953C133.387 229.876 134.335 230.337 135.52 230.337C136.713 230.337 137.661 229.871 138.363 228.94C139.066 228.001 139.417 226.689 139.417 225.005C139.417 223.498 139.057 222.28 138.338 221.349C137.627 220.409 136.679 219.939 135.494 219.939C134.335 219.939 133.399 220.401 132.688 221.323C131.978 222.246 131.622 223.566 131.622 225.284ZM146.92 218.264L146.983 219.787C147.991 218.602 149.349 218.01 151.059 218.01C152.98 218.01 154.287 218.746 154.981 220.219C155.438 219.559 156.031 219.025 156.759 218.619C157.495 218.213 158.363 218.01 159.361 218.01C162.374 218.01 163.906 219.605 163.957 222.796V232H161.608V222.936C161.608 221.954 161.384 221.222 160.936 220.739C160.487 220.248 159.734 220.003 158.676 220.003C157.804 220.003 157.08 220.265 156.505 220.79C155.929 221.306 155.595 222.005 155.502 222.885V232H153.141V222.999C153.141 221.002 152.163 220.003 150.208 220.003C148.668 220.003 147.614 220.659 147.047 221.971V232H144.698V218.264H146.92ZM54.917 245.521H48.9756V262H46.5508V245.521H40.6221V243.516H54.917V245.521ZM59.6396 249.927C60.6807 248.649 62.0348 248.01 63.7021 248.01C66.6051 248.01 68.0693 249.647 68.0947 252.923V262H65.7461V252.91C65.7376 251.92 65.5091 251.188 65.0605 250.714C64.6204 250.24 63.9307 250.003 62.9912 250.003C62.2295 250.003 61.5609 250.206 60.9854 250.612C60.4098 251.019 59.9613 251.552 59.6396 252.212V262H57.291V242.5H59.6396V249.927ZM77.3115 262.254C75.4495 262.254 73.9346 261.645 72.7666 260.426C71.5986 259.199 71.0146 257.561 71.0146 255.513V255.081C71.0146 253.718 71.2728 252.504 71.7891 251.438C72.3138 250.363 73.0417 249.525 73.9727 248.924C74.9121 248.314 75.9277 248.01 77.0195 248.01C78.8053 248.01 80.1934 248.598 81.1836 249.774C82.1738 250.951 82.6689 252.635 82.6689 254.827V255.805H73.3633C73.3971 257.159 73.7907 258.255 74.5439 259.093C75.3057 259.922 76.2705 260.337 77.4385 260.337C78.2679 260.337 78.9704 260.168 79.5459 259.829C80.1214 259.491 80.625 259.042 81.0566 258.483L82.4912 259.601C81.3402 261.369 79.6136 262.254 77.3115 262.254ZM77.0195 249.939C76.0716 249.939 75.276 250.286 74.6328 250.98C73.9896 251.666 73.5918 252.631 73.4395 253.875H80.3203V253.697C80.2526 252.504 79.931 251.581 79.3555 250.93C78.7799 250.27 78.0013 249.939 77.0195 249.939ZM92.2158 262V243.516H98.2588C100.265 243.516 101.771 243.93 102.778 244.76C103.794 245.589 104.302 246.816 104.302 248.441C104.302 249.305 104.056 250.071 103.565 250.739C103.075 251.399 102.406 251.911 101.56 252.275C102.558 252.555 103.345 253.088 103.921 253.875C104.505 254.654 104.797 255.585 104.797 256.668C104.797 258.327 104.259 259.63 103.185 260.578C102.11 261.526 100.59 262 98.627 262H92.2158ZM94.6533 253.354V260.007H98.6777C99.8118 260.007 100.705 259.715 101.356 259.131C102.017 258.538 102.347 257.726 102.347 256.693C102.347 254.467 101.136 253.354 98.7158 253.354H94.6533ZM94.6533 251.399H98.335C99.4014 251.399 100.252 251.133 100.887 250.6C101.53 250.066 101.852 249.343 101.852 248.429C101.852 247.413 101.555 246.677 100.963 246.22C100.37 245.754 99.4691 245.521 98.2588 245.521H94.6533V251.399ZM107.425 255.005C107.425 253.659 107.687 252.449 108.212 251.374C108.745 250.299 109.481 249.47 110.421 248.886C111.369 248.302 112.448 248.01 113.658 248.01C115.529 248.01 117.039 248.657 118.19 249.952C119.35 251.247 119.93 252.969 119.93 255.119V255.284C119.93 256.621 119.672 257.823 119.155 258.89C118.647 259.948 117.915 260.773 116.959 261.365C116.011 261.958 114.919 262.254 113.684 262.254C111.822 262.254 110.311 261.606 109.151 260.312C108 259.017 107.425 257.303 107.425 255.17V255.005ZM109.786 255.284C109.786 256.808 110.137 258.031 110.84 258.953C111.551 259.876 112.499 260.337 113.684 260.337C114.877 260.337 115.825 259.871 116.527 258.94C117.23 258.001 117.581 256.689 117.581 255.005C117.581 253.498 117.221 252.28 116.502 251.349C115.791 250.409 114.843 249.939 113.658 249.939C112.499 249.939 111.563 250.401 110.853 251.323C110.142 252.246 109.786 253.566 109.786 255.284ZM126.062 244.938V248.264H128.626V250.079H126.062V258.598C126.062 259.148 126.176 259.562 126.404 259.842C126.633 260.113 127.022 260.248 127.572 260.248C127.843 260.248 128.215 260.197 128.689 260.096V262C128.072 262.169 127.471 262.254 126.887 262.254C125.837 262.254 125.046 261.937 124.513 261.302C123.979 260.667 123.713 259.766 123.713 258.598V250.079H121.212V248.264H123.713V244.938H126.062ZM134.567 244.938V248.264H137.132V250.079H134.567V258.598C134.567 259.148 134.682 259.562 134.91 259.842C135.139 260.113 135.528 260.248 136.078 260.248C136.349 260.248 136.721 260.197 137.195 260.096V262C136.577 262.169 135.977 262.254 135.393 262.254C134.343 262.254 133.552 261.937 133.019 261.302C132.485 260.667 132.219 259.766 132.219 258.598V250.079H129.718V248.264H132.219V244.938H134.567ZM139.011 255.005C139.011 253.659 139.273 252.449 139.798 251.374C140.331 250.299 141.067 249.47 142.007 248.886C142.955 248.302 144.034 248.01 145.244 248.01C147.115 248.01 148.625 248.657 149.776 249.952C150.936 251.247 151.516 252.969 151.516 255.119V255.284C151.516 256.621 151.257 257.823 150.741 258.89C150.233 259.948 149.501 260.773 148.545 261.365C147.597 261.958 146.505 262.254 145.27 262.254C143.408 262.254 141.897 261.606 140.737 260.312C139.586 259.017 139.011 257.303 139.011 255.17V255.005ZM141.372 255.284C141.372 256.808 141.723 258.031 142.426 258.953C143.137 259.876 144.085 260.337 145.27 260.337C146.463 260.337 147.411 259.871 148.113 258.94C148.816 258.001 149.167 256.689 149.167 255.005C149.167 253.498 148.807 252.28 148.088 251.349C147.377 250.409 146.429 249.939 145.244 249.939C144.085 249.939 143.149 250.401 142.438 251.323C141.728 252.246 141.372 253.566 141.372 255.284ZM156.67 248.264L156.733 249.787C157.741 248.602 159.099 248.01 160.809 248.01C162.73 248.01 164.037 248.746 164.731 250.219C165.188 249.559 165.781 249.025 166.509 248.619C167.245 248.213 168.113 248.01 169.111 248.01C172.124 248.01 173.656 249.605 173.707 252.796V262H171.358V252.936C171.358 251.954 171.134 251.222 170.686 250.739C170.237 250.248 169.484 250.003 168.426 250.003C167.554 250.003 166.83 250.265 166.255 250.79C165.679 251.306 165.345 252.005 165.252 252.885V262H162.891V252.999C162.891 251.002 161.913 250.003 159.958 250.003C158.418 250.003 157.364 250.659 156.797 251.971V262H154.448V248.264H156.67Z" fill="black"/>
<path d="M46.5 67.5L164 27.5L211 79V93V103.5V115.5L86 159.5L46.5 109.5V101.5V85V67.5Z" fill="#FF0000"/>
<path d="M46.5 67.5L164 27.5L211 79M46.5 67.5L86 126.5M46.5 67.5V85M211 79L86 126.5M211 79V93M86 126.5V137.5M86 137.5L211 93M86 137.5L46.5 85M86 137.5V149.5M211 93V103.5M46.5 85V101.5M86 149.5L211 103.5M86 149.5L46.5 101.5M86 149.5V159.5M211 103.5V115.5L86 159.5M46.5 101.5V109.5L86 159.5" stroke="black"/>
<path d="M155.265 140.036C154.733 139.889 154.183 140.202 154.036 140.735L151.647 149.412C151.5 149.944 151.813 150.495 152.345 150.641C152.878 150.788 153.428 150.475 153.575 149.943L155.699 142.23L163.412 144.353C163.944 144.5 164.495 144.187 164.641 143.655C164.788 143.122 164.475 142.572 163.943 142.425L155.265 140.036ZM180.869 184.506L155.869 140.506L154.131 141.494L179.131 185.494L180.869 184.506Z" fill="black"/>
</svg>
