<svg width="180" height="240" viewBox="0 0 180 240" fill="none" xmlns="http://www.w3.org/2000/svg">
<rect width="180" height="240" fill="white"/>
<path d="M52.8125 83.0566H49.1152V86.0801H53.4102V87H47.9902V78.4688H53.3516V79.3945H49.1152V82.1367H52.8125V83.0566ZM56.7676 82.9746L58.1738 80.6602H59.4395L57.3652 83.7949L59.5039 87H58.25L56.7852 84.627L55.3203 87H54.0605L56.1992 83.7949L54.125 80.6602H55.3789L56.7676 82.9746ZM65.9492 83.9004C65.9492 84.8652 65.7285 85.6426 65.2871 86.2324C64.8457 86.8223 64.248 87.1172 63.4941 87.1172C62.7246 87.1172 62.1191 86.873 61.6777 86.3848V89.4375H60.5938V80.6602H61.584L61.6367 81.3633C62.0781 80.8164 62.6914 80.543 63.4766 80.543C64.2383 80.543 64.8398 80.8301 65.2812 81.4043C65.7266 81.9785 65.9492 82.7773 65.9492 83.8008V83.9004ZM64.8652 83.7773C64.8652 83.0625 64.7129 82.498 64.4082 82.084C64.1035 81.6699 63.6855 81.4629 63.1543 81.4629C62.498 81.4629 62.0059 81.7539 61.6777 82.3359V85.3652C62.002 85.9434 62.498 86.2324 63.166 86.2324C63.6855 86.2324 64.0977 86.0273 64.4023 85.6172C64.7109 85.2031 64.8652 84.5898 64.8652 83.7773ZM68.5098 87H67.4258V78H68.5098V87ZM69.9629 83.7715C69.9629 83.1504 70.084 82.5918 70.3262 82.0957C70.5723 81.5996 70.9121 81.2168 71.3457 80.9473C71.7832 80.6777 72.2812 80.543 72.8398 80.543C73.7031 80.543 74.4004 80.8418 74.9316 81.4395C75.4668 82.0371 75.7344 82.832 75.7344 83.8242V83.9004C75.7344 84.5176 75.6152 85.0723 75.377 85.5645C75.1426 86.0527 74.8047 86.4336 74.3633 86.707C73.9258 86.9805 73.4219 87.1172 72.8516 87.1172C71.9922 87.1172 71.2949 86.8184 70.7598 86.2207C70.2285 85.623 69.9629 84.832 69.9629 83.8477V83.7715ZM71.0527 83.9004C71.0527 84.6035 71.2148 85.168 71.5391 85.5938C71.8672 86.0195 72.3047 86.2324 72.8516 86.2324C73.4023 86.2324 73.8398 86.0176 74.1641 85.5879C74.4883 85.1543 74.6504 84.5488 74.6504 83.7715C74.6504 83.0762 74.4844 82.5137 74.1523 82.084C73.8242 81.6504 73.3867 81.4336 72.8398 81.4336C72.3047 81.4336 71.873 81.6465 71.5449 82.0723C71.2168 82.498 71.0527 83.1074 71.0527 83.9004ZM76.8301 83.7773C76.8301 82.8047 77.0605 82.0234 77.5215 81.4336C77.9824 80.8398 78.5859 80.543 79.332 80.543C80.0742 80.543 80.6621 80.7969 81.0957 81.3047V78H82.1797V87H81.1836L81.1309 86.3203C80.6973 86.8516 80.0938 87.1172 79.3203 87.1172C78.5859 87.1172 77.9863 86.8164 77.5215 86.2148C77.0605 85.6133 76.8301 84.8281 76.8301 83.8594V83.7773ZM77.9141 83.9004C77.9141 84.6191 78.0625 85.1816 78.3594 85.5879C78.6562 85.9941 79.0664 86.1973 79.5898 86.1973C80.2773 86.1973 80.7793 85.8887 81.0957 85.2715V82.3594C80.7715 81.7617 80.2734 81.4629 79.6016 81.4629C79.0703 81.4629 78.6562 81.668 78.3594 82.0781C78.0625 82.4883 77.9141 83.0957 77.9141 83.9004ZM85.0449 87H83.9609V80.6602H85.0449V87ZM83.873 78.9785C83.873 78.8027 83.9258 78.6543 84.0312 78.5332C84.1406 78.4121 84.3008 78.3516 84.5117 78.3516C84.7227 78.3516 84.8828 78.4121 84.9922 78.5332C85.1016 78.6543 85.1562 78.8027 85.1562 78.9785C85.1562 79.1543 85.1016 79.3008 84.9922 79.418C84.8828 79.5352 84.7227 79.5938 84.5117 79.5938C84.3008 79.5938 84.1406 79.5352 84.0312 79.418C83.9258 79.3008 83.873 79.1543 83.873 78.9785ZM87.8105 80.6602L87.8457 81.457C88.3301 80.8477 88.9629 80.543 89.7441 80.543C91.084 80.543 91.7598 81.2988 91.7715 82.8105V87H90.6875V82.8047C90.6836 82.3477 90.5781 82.0098 90.3711 81.791C90.168 81.5723 89.8496 81.4629 89.416 81.4629C89.0645 81.4629 88.7559 81.5566 88.4902 81.7441C88.2246 81.9316 88.0176 82.1777 87.8691 82.4824V87H86.7852V80.6602H87.8105ZM93.1484 83.7773C93.1484 82.7891 93.377 82.0039 93.834 81.4219C94.291 80.8359 94.8965 80.543 95.6504 80.543C96.4238 80.543 97.0273 80.8164 97.4609 81.3633L97.5137 80.6602H98.5039V86.8477C98.5039 87.668 98.2598 88.3145 97.7715 88.7871C97.2871 89.2598 96.6348 89.4961 95.8145 89.4961C95.3574 89.4961 94.9102 89.3984 94.4727 89.2031C94.0352 89.0078 93.7012 88.7402 93.4707 88.4004L94.0332 87.75C94.498 88.3242 95.0664 88.6113 95.7383 88.6113C96.2656 88.6113 96.6758 88.4629 96.9688 88.166C97.2656 87.8691 97.4141 87.4512 97.4141 86.9121V86.3672C96.9805 86.8672 96.3887 87.1172 95.6387 87.1172C94.8965 87.1172 94.2949 86.8184 93.834 86.2207C93.377 85.623 93.1484 84.8086 93.1484 83.7773ZM94.2383 83.9004C94.2383 84.6152 94.3848 85.1777 94.6777 85.5879C94.9707 85.9941 95.3809 86.1973 95.9082 86.1973C96.5918 86.1973 97.0938 85.8867 97.4141 85.2656V82.3711C97.082 81.7656 96.584 81.4629 95.9199 81.4629C95.3926 81.4629 94.9805 81.668 94.6836 82.0781C94.3867 82.4883 94.2383 83.0957 94.2383 83.9004ZM105.459 83.0332L104.416 84.1172V87H103.291V78.4688H104.416V82.6875L108.207 78.4688H109.566L106.209 82.2363L109.83 87H108.482L105.459 83.0332ZM111.822 87H110.738V80.6602H111.822V87ZM110.65 78.9785C110.65 78.8027 110.703 78.6543 110.809 78.5332C110.918 78.4121 111.078 78.3516 111.289 78.3516C111.5 78.3516 111.66 78.4121 111.77 78.5332C111.879 78.6543 111.934 78.8027 111.934 78.9785C111.934 79.1543 111.879 79.3008 111.77 79.418C111.66 79.5352 111.5 79.5938 111.289 79.5938C111.078 79.5938 110.918 79.5352 110.809 79.418C110.703 79.3008 110.65 79.1543 110.65 78.9785ZM115.033 79.125V80.6602H116.217V81.498H115.033V85.4297C115.033 85.6836 115.086 85.875 115.191 86.0039C115.297 86.1289 115.477 86.1914 115.73 86.1914C115.855 86.1914 116.027 86.168 116.246 86.1211V87C115.961 87.0781 115.684 87.1172 115.414 87.1172C114.93 87.1172 114.564 86.9707 114.318 86.6777C114.072 86.3848 113.949 85.9688 113.949 85.4297V81.498H112.795V80.6602H113.949V79.125H115.033ZM118.959 79.125V80.6602H120.143V81.498H118.959V85.4297C118.959 85.6836 119.012 85.875 119.117 86.0039C119.223 86.1289 119.402 86.1914 119.656 86.1914C119.781 86.1914 119.953 86.168 120.172 86.1211V87C119.887 87.0781 119.609 87.1172 119.34 87.1172C118.855 87.1172 118.49 86.9707 118.244 86.6777C117.998 86.3848 117.875 85.9688 117.875 85.4297V81.498H116.721V80.6602H117.875V79.125H118.959ZM124.045 87.1172C123.186 87.1172 122.486 86.8359 121.947 86.2734C121.408 85.707 121.139 84.9512 121.139 84.0059V83.8066C121.139 83.1777 121.258 82.6172 121.496 82.125C121.738 81.6289 122.074 81.2422 122.504 80.9648C122.938 80.6836 123.406 80.543 123.91 80.543C124.734 80.543 125.375 80.8145 125.832 81.3574C126.289 81.9004 126.518 82.6777 126.518 83.6895V84.1406H122.223C122.238 84.7656 122.42 85.2715 122.768 85.6582C123.119 86.041 123.564 86.2324 124.104 86.2324C124.486 86.2324 124.811 86.1543 125.076 85.998C125.342 85.8418 125.574 85.6348 125.773 85.377L126.436 85.8926C125.904 86.709 125.107 87.1172 124.045 87.1172ZM123.91 81.4336C123.473 81.4336 123.105 81.5938 122.809 81.9141C122.512 82.2305 122.328 82.6758 122.258 83.25H125.434V83.168C125.402 82.6172 125.254 82.1914 124.988 81.8906C124.723 81.5859 124.363 81.4336 123.91 81.4336ZM128.803 80.6602L128.838 81.457C129.322 80.8477 129.955 80.543 130.736 80.543C132.076 80.543 132.752 81.2988 132.764 82.8105V87H131.68V82.8047C131.676 82.3477 131.57 82.0098 131.363 81.791C131.16 81.5723 130.842 81.4629 130.408 81.4629C130.057 81.4629 129.748 81.5566 129.482 81.7441C129.217 81.9316 129.01 82.1777 128.861 82.4824V87H127.777V80.6602H128.803Z" fill="black"/>
<path d="M50.5918 149.752L52.8184 145.469H54.0957L51.1543 150.818V154H50.0293V150.818L47.0879 145.469H48.377L50.5918 149.752ZM54.3535 150.771C54.3535 150.15 54.4746 149.592 54.7168 149.096C54.9629 148.6 55.3027 148.217 55.7363 147.947C56.1738 147.678 56.6719 147.543 57.2305 147.543C58.0938 147.543 58.791 147.842 59.3223 148.439C59.8574 149.037 60.125 149.832 60.125 150.824V150.9C60.125 151.518 60.0059 152.072 59.7676 152.564C59.5332 153.053 59.1953 153.434 58.7539 153.707C58.3164 153.98 57.8125 154.117 57.2422 154.117C56.3828 154.117 55.6855 153.818 55.1504 153.221C54.6191 152.623 54.3535 151.832 54.3535 150.848V150.771ZM55.4434 150.9C55.4434 151.604 55.6055 152.168 55.9297 152.594C56.2578 153.02 56.6953 153.232 57.2422 153.232C57.793 153.232 58.2305 153.018 58.5547 152.588C58.8789 152.154 59.041 151.549 59.041 150.771C59.041 150.076 58.875 149.514 58.543 149.084C58.2148 148.65 57.7773 148.434 57.2305 148.434C56.6953 148.434 56.2637 148.646 55.9355 149.072C55.6074 149.498 55.4434 150.107 55.4434 150.9ZM65.3984 153.373C64.9766 153.869 64.3574 154.117 63.541 154.117C62.8652 154.117 62.3496 153.922 61.9941 153.531C61.6426 153.137 61.4648 152.555 61.4609 151.785V147.66H62.5449V151.756C62.5449 152.717 62.9355 153.197 63.7168 153.197C64.5449 153.197 65.0957 152.889 65.3691 152.271V147.66H66.4531V154H65.4219L65.3984 153.373ZM68.1816 147.871L67.5664 147.449C67.9297 146.941 68.1172 146.406 68.1289 145.844V145H69.2012V145.762C69.1973 146.152 69.0996 146.543 68.9082 146.934C68.7207 147.32 68.4785 147.633 68.1816 147.871ZM72.5996 152.529L74.1699 147.66H75.2773L73.0039 154H72.1777L69.8809 147.66H70.9883L72.5996 152.529ZM78.8691 154.117C78.0098 154.117 77.3105 153.836 76.7715 153.273C76.2324 152.707 75.9629 151.951 75.9629 151.006V150.807C75.9629 150.178 76.082 149.617 76.3203 149.125C76.5625 148.629 76.8984 148.242 77.3281 147.965C77.7617 147.684 78.2305 147.543 78.7344 147.543C79.5586 147.543 80.1992 147.814 80.6562 148.357C81.1133 148.9 81.3418 149.678 81.3418 150.689V151.141H77.0469C77.0625 151.766 77.2441 152.271 77.5918 152.658C77.9434 153.041 78.3887 153.232 78.9277 153.232C79.3105 153.232 79.6348 153.154 79.9004 152.998C80.166 152.842 80.3984 152.635 80.5977 152.377L81.2598 152.893C80.7285 153.709 79.9316 154.117 78.8691 154.117ZM78.7344 148.434C78.2969 148.434 77.9297 148.594 77.6328 148.914C77.3359 149.23 77.1523 149.676 77.082 150.25H80.2578V150.168C80.2266 149.617 80.0781 149.191 79.8125 148.891C79.5469 148.586 79.1875 148.434 78.7344 148.434ZM88.209 154.117C87.3496 154.117 86.6504 153.836 86.1113 153.273C85.5723 152.707 85.3027 151.951 85.3027 151.006V150.807C85.3027 150.178 85.4219 149.617 85.6602 149.125C85.9023 148.629 86.2383 148.242 86.668 147.965C87.1016 147.684 87.5703 147.543 88.0742 147.543C88.8984 147.543 89.5391 147.814 89.9961 148.357C90.4531 148.9 90.6816 149.678 90.6816 150.689V151.141H86.3867C86.4023 151.766 86.584 152.271 86.9316 152.658C87.2832 153.041 87.7285 153.232 88.2676 153.232C88.6504 153.232 88.9746 153.154 89.2402 152.998C89.5059 152.842 89.7383 152.635 89.9375 152.377L90.5996 152.893C90.0684 153.709 89.2715 154.117 88.209 154.117ZM88.0742 148.434C87.6367 148.434 87.2695 148.594 86.9727 148.914C86.6758 149.23 86.4922 149.676 86.4219 150.25H89.5977V150.168C89.5664 149.617 89.418 149.191 89.1523 148.891C88.8867 148.586 88.5273 148.434 88.0742 148.434ZM94.0684 149.975L95.4746 147.66H96.7402L94.666 150.795L96.8047 154H95.5508L94.0859 151.627L92.6211 154H91.3613L93.5 150.795L91.4258 147.66H92.6797L94.0684 149.975ZM103.25 150.9C103.25 151.865 103.029 152.643 102.588 153.232C102.146 153.822 101.549 154.117 100.795 154.117C100.025 154.117 99.4199 153.873 98.9785 153.385V156.438H97.8945V147.66H98.8848L98.9375 148.363C99.3789 147.816 99.9922 147.543 100.777 147.543C101.539 147.543 102.141 147.83 102.582 148.404C103.027 148.979 103.25 149.777 103.25 150.801V150.9ZM102.166 150.777C102.166 150.062 102.014 149.498 101.709 149.084C101.404 148.67 100.986 148.463 100.455 148.463C99.7988 148.463 99.3066 148.754 98.9785 149.336V152.365C99.3027 152.943 99.7988 153.232 100.467 153.232C100.986 153.232 101.398 153.027 101.703 152.617C102.012 152.203 102.166 151.59 102.166 150.777ZM105.811 154H104.727V145H105.811V154ZM107.264 150.771C107.264 150.15 107.385 149.592 107.627 149.096C107.873 148.6 108.213 148.217 108.646 147.947C109.084 147.678 109.582 147.543 110.141 147.543C111.004 147.543 111.701 147.842 112.232 148.439C112.768 149.037 113.035 149.832 113.035 150.824V150.9C113.035 151.518 112.916 152.072 112.678 152.564C112.443 153.053 112.105 153.434 111.664 153.707C111.227 153.98 110.723 154.117 110.152 154.117C109.293 154.117 108.596 153.818 108.061 153.221C107.529 152.623 107.264 151.832 107.264 150.848V150.771ZM108.354 150.9C108.354 151.604 108.516 152.168 108.84 152.594C109.168 153.02 109.605 153.232 110.152 153.232C110.703 153.232 111.141 153.018 111.465 152.588C111.789 152.154 111.951 151.549 111.951 150.771C111.951 150.076 111.785 149.514 111.453 149.084C111.125 148.65 110.688 148.434 110.141 148.434C109.605 148.434 109.174 148.646 108.846 149.072C108.518 149.498 108.354 150.107 108.354 150.9ZM114.131 150.777C114.131 149.805 114.361 149.023 114.822 148.434C115.283 147.84 115.887 147.543 116.633 147.543C117.375 147.543 117.963 147.797 118.396 148.305V145H119.48V154H118.484L118.432 153.32C117.998 153.852 117.395 154.117 116.621 154.117C115.887 154.117 115.287 153.816 114.822 153.215C114.361 152.613 114.131 151.828 114.131 150.859V150.777ZM115.215 150.9C115.215 151.619 115.363 152.182 115.66 152.588C115.957 152.994 116.367 153.197 116.891 153.197C117.578 153.197 118.08 152.889 118.396 152.271V149.359C118.072 148.762 117.574 148.463 116.902 148.463C116.371 148.463 115.957 148.668 115.66 149.078C115.363 149.488 115.215 150.096 115.215 150.9ZM123.799 154.117C122.939 154.117 122.24 153.836 121.701 153.273C121.162 152.707 120.893 151.951 120.893 151.006V150.807C120.893 150.178 121.012 149.617 121.25 149.125C121.492 148.629 121.828 148.242 122.258 147.965C122.691 147.684 123.16 147.543 123.664 147.543C124.488 147.543 125.129 147.814 125.586 148.357C126.043 148.9 126.271 149.678 126.271 150.689V151.141H121.977C121.992 151.766 122.174 152.271 122.521 152.658C122.873 153.041 123.318 153.232 123.857 153.232C124.24 153.232 124.564 153.154 124.83 152.998C125.096 152.842 125.328 152.635 125.527 152.377L126.189 152.893C125.658 153.709 124.861 154.117 123.799 154.117ZM123.664 148.434C123.227 148.434 122.859 148.594 122.562 148.914C122.266 149.23 122.082 149.676 122.012 150.25H125.188V150.168C125.156 149.617 125.008 149.191 124.742 148.891C124.477 148.586 124.117 148.434 123.664 148.434ZM127.268 150.777C127.268 149.805 127.498 149.023 127.959 148.434C128.42 147.84 129.023 147.543 129.77 147.543C130.512 147.543 131.1 147.797 131.533 148.305V145H132.617V154H131.621L131.568 153.32C131.135 153.852 130.531 154.117 129.758 154.117C129.023 154.117 128.424 153.816 127.959 153.215C127.498 152.613 127.268 151.828 127.268 150.859V150.777ZM128.352 150.9C128.352 151.619 128.5 152.182 128.797 152.588C129.094 152.994 129.504 153.197 130.027 153.197C130.715 153.197 131.217 152.889 131.533 152.271V149.359C131.209 148.762 130.711 148.463 130.039 148.463C129.508 148.463 129.094 148.668 128.797 149.078C128.5 149.488 128.352 150.096 128.352 150.9Z" fill="black"/>
</svg>
