<svg width="240" height="300" viewBox="0 0 240 300" fill="none" xmlns="http://www.w3.org/2000/svg">
<g clip-path="url(#clip0_502_38)">
<rect width="240" height="300" fill="white"/>
<path d="M31.5938 245.456H23.583V252.007H32.8887V254H21.1455V235.516H32.7617V237.521H23.583V243.463H31.5938V245.456ZM40.1631 245.278L43.21 240.264H45.9521L41.458 247.056L46.0918 254H43.375L40.2012 248.858L37.0273 254H34.2979L38.9316 247.056L34.4375 240.264H37.1543L40.1631 245.278ZM60.0566 247.284C60.0566 249.375 59.5785 251.059 58.6221 252.337C57.6657 253.615 56.3708 254.254 54.7373 254.254C53.07 254.254 51.7581 253.725 50.8018 252.667V259.281H48.4531V240.264H50.5986L50.7129 241.787C51.6693 240.602 52.998 240.01 54.6992 240.01C56.3496 240.01 57.653 240.632 58.6094 241.876C59.5742 243.12 60.0566 244.851 60.0566 247.068V247.284ZM57.708 247.018C57.708 245.469 57.3779 244.246 56.7178 243.349C56.0576 242.451 55.152 242.003 54.001 242.003C52.5791 242.003 51.5127 242.633 50.8018 243.895V250.458C51.5042 251.711 52.5791 252.337 54.0264 252.337C55.152 252.337 56.0449 251.893 56.7051 251.004C57.3737 250.107 57.708 248.778 57.708 247.018ZM65.6045 254H63.2559V234.5H65.6045V254ZM68.7529 247.005C68.7529 245.659 69.0153 244.449 69.54 243.374C70.0732 242.299 70.8096 241.47 71.749 240.886C72.6969 240.302 73.776 240.01 74.9863 240.01C76.8568 240.01 78.3675 240.657 79.5186 241.952C80.6781 243.247 81.2578 244.969 81.2578 247.119V247.284C81.2578 248.621 80.9997 249.823 80.4834 250.89C79.9756 251.948 79.2435 252.773 78.2871 253.365C77.3392 253.958 76.2474 254.254 75.0117 254.254C73.1497 254.254 71.639 253.606 70.4795 252.312C69.3285 251.017 68.7529 249.303 68.7529 247.17V247.005ZM71.1143 247.284C71.1143 248.808 71.4655 250.031 72.168 250.953C72.8789 251.876 73.8268 252.337 75.0117 252.337C76.2051 252.337 77.153 251.871 77.8555 250.94C78.5579 250.001 78.9092 248.689 78.9092 247.005C78.9092 245.498 78.5495 244.28 77.8301 243.349C77.1191 242.409 76.1712 241.939 74.9863 241.939C73.8268 241.939 72.8916 242.401 72.1807 243.323C71.4697 244.246 71.1143 245.566 71.1143 247.284ZM83.6318 247.018C83.6318 244.91 84.1312 243.217 85.1299 241.939C86.1286 240.653 87.4362 240.01 89.0527 240.01C90.6608 240.01 91.9346 240.56 92.874 241.66V234.5H95.2227V254H93.0645L92.9502 252.527C92.0107 253.678 90.7031 254.254 89.0273 254.254C87.4362 254.254 86.137 253.602 85.1299 252.299C84.1312 250.995 83.6318 249.294 83.6318 247.195V247.018ZM85.9805 247.284C85.9805 248.841 86.3021 250.06 86.9453 250.94C87.5885 251.821 88.4772 252.261 89.6113 252.261C91.1009 252.261 92.1885 251.592 92.874 250.255V243.945C92.1715 242.65 91.0924 242.003 89.6367 242.003C88.4857 242.003 87.5885 242.447 86.9453 243.336C86.3021 244.225 85.9805 245.541 85.9805 247.284ZM101.431 254H99.082V240.264H101.431V254ZM98.8916 236.62C98.8916 236.239 99.0059 235.918 99.2344 235.655C99.4714 235.393 99.8184 235.262 100.275 235.262C100.732 235.262 101.079 235.393 101.316 235.655C101.553 235.918 101.672 236.239 101.672 236.62C101.672 237.001 101.553 237.318 101.316 237.572C101.079 237.826 100.732 237.953 100.275 237.953C99.8184 237.953 99.4714 237.826 99.2344 237.572C99.0059 237.318 98.8916 237.001 98.8916 236.62ZM107.423 240.264L107.499 241.99C108.549 240.67 109.92 240.01 111.612 240.01C114.515 240.01 115.979 241.647 116.005 244.923V254H113.656V244.91C113.648 243.92 113.419 243.188 112.971 242.714C112.531 242.24 111.841 242.003 110.901 242.003C110.14 242.003 109.471 242.206 108.896 242.612C108.32 243.019 107.871 243.552 107.55 244.212V254H105.201V240.264H107.423ZM118.988 247.018C118.988 244.876 119.483 243.175 120.474 241.914C121.464 240.645 122.776 240.01 124.409 240.01C126.085 240.01 127.393 240.602 128.332 241.787L128.446 240.264H130.592V253.67C130.592 255.447 130.063 256.848 129.005 257.872C127.955 258.896 126.542 259.408 124.765 259.408C123.774 259.408 122.805 259.197 121.857 258.773C120.91 258.35 120.186 257.771 119.687 257.034L120.905 255.625C121.912 256.869 123.144 257.491 124.6 257.491C125.742 257.491 126.631 257.17 127.266 256.526C127.909 255.883 128.23 254.978 128.23 253.81V252.629C127.291 253.712 126.009 254.254 124.384 254.254C122.776 254.254 121.472 253.606 120.474 252.312C119.483 251.017 118.988 249.252 118.988 247.018ZM121.35 247.284C121.35 248.833 121.667 250.052 122.302 250.94C122.937 251.821 123.825 252.261 124.968 252.261C126.449 252.261 127.536 251.588 128.23 250.242V243.971C127.511 242.659 126.432 242.003 124.993 242.003C123.851 242.003 122.958 242.447 122.314 243.336C121.671 244.225 121.35 245.541 121.35 247.284ZM145.661 245.405L143.401 247.754V254H140.964V235.516H143.401V244.656L151.615 235.516H154.561L147.286 243.679L155.132 254H152.212L145.661 245.405ZM159.448 254H157.1V240.264H159.448V254ZM156.909 236.62C156.909 236.239 157.023 235.918 157.252 235.655C157.489 235.393 157.836 235.262 158.293 235.262C158.75 235.262 159.097 235.393 159.334 235.655C159.571 235.918 159.689 236.239 159.689 236.62C159.689 237.001 159.571 237.318 159.334 237.572C159.097 237.826 158.75 237.953 158.293 237.953C157.836 237.953 157.489 237.826 157.252 237.572C157.023 237.318 156.909 237.001 156.909 236.62ZM166.405 236.938V240.264H168.97V242.079H166.405V250.598C166.405 251.148 166.52 251.562 166.748 251.842C166.977 252.113 167.366 252.248 167.916 252.248C168.187 252.248 168.559 252.197 169.033 252.096V254C168.415 254.169 167.814 254.254 167.23 254.254C166.181 254.254 165.39 253.937 164.856 253.302C164.323 252.667 164.057 251.766 164.057 250.598V242.079H161.556V240.264H164.057V236.938H166.405ZM174.911 236.938V240.264H177.476V242.079H174.911V250.598C174.911 251.148 175.025 251.562 175.254 251.842C175.482 252.113 175.872 252.248 176.422 252.248C176.693 252.248 177.065 252.197 177.539 252.096V254C176.921 254.169 176.32 254.254 175.736 254.254C174.687 254.254 173.896 253.937 173.362 253.302C172.829 252.667 172.562 251.766 172.562 250.598V242.079H170.062V240.264H172.562V236.938H174.911ZM185.931 254.254C184.069 254.254 182.554 253.645 181.386 252.426C180.218 251.199 179.634 249.561 179.634 247.513V247.081C179.634 245.718 179.892 244.504 180.408 243.438C180.933 242.363 181.661 241.525 182.592 240.924C183.531 240.314 184.547 240.01 185.639 240.01C187.424 240.01 188.812 240.598 189.803 241.774C190.793 242.951 191.288 244.635 191.288 246.827V247.805H181.982C182.016 249.159 182.41 250.255 183.163 251.093C183.925 251.922 184.89 252.337 186.058 252.337C186.887 252.337 187.59 252.168 188.165 251.829C188.741 251.491 189.244 251.042 189.676 250.483L191.11 251.601C189.959 253.369 188.233 254.254 185.931 254.254ZM185.639 241.939C184.691 241.939 183.895 242.286 183.252 242.98C182.609 243.666 182.211 244.631 182.059 245.875H188.939V245.697C188.872 244.504 188.55 243.581 187.975 242.93C187.399 242.27 186.62 241.939 185.639 241.939ZM196.239 240.264L196.315 241.99C197.365 240.67 198.736 240.01 200.429 240.01C203.332 240.01 204.796 241.647 204.821 244.923V254H202.473V244.91C202.464 243.92 202.236 243.188 201.787 242.714C201.347 242.24 200.657 242.003 199.718 242.003C198.956 242.003 198.287 242.206 197.712 242.612C197.136 243.019 196.688 243.552 196.366 244.212V254H194.018V240.264H196.239ZM216.361 250.356C216.361 249.722 216.12 249.231 215.638 248.884C215.164 248.528 214.33 248.224 213.137 247.97C211.952 247.716 211.008 247.411 210.306 247.056C209.612 246.7 209.095 246.277 208.757 245.786C208.427 245.295 208.262 244.711 208.262 244.034C208.262 242.909 208.736 241.956 209.684 241.178C210.64 240.399 211.859 240.01 213.34 240.01C214.897 240.01 216.158 240.412 217.123 241.216C218.096 242.02 218.583 243.048 218.583 244.301H216.222C216.222 243.658 215.947 243.103 215.396 242.638C214.855 242.172 214.169 241.939 213.34 241.939C212.485 241.939 211.816 242.126 211.334 242.498C210.852 242.87 210.61 243.357 210.61 243.958C210.61 244.525 210.835 244.952 211.283 245.24C211.732 245.528 212.54 245.803 213.708 246.065C214.884 246.328 215.837 246.641 216.564 247.005C217.292 247.369 217.83 247.809 218.177 248.325C218.532 248.833 218.71 249.455 218.71 250.191C218.71 251.419 218.219 252.405 217.237 253.149C216.256 253.886 214.982 254.254 213.416 254.254C212.316 254.254 211.342 254.059 210.496 253.67C209.65 253.281 208.985 252.739 208.503 252.045C208.029 251.342 207.792 250.585 207.792 249.772H210.141C210.183 250.56 210.496 251.186 211.08 251.651C211.673 252.108 212.451 252.337 213.416 252.337C214.305 252.337 215.016 252.159 215.549 251.804C216.09 251.44 216.361 250.957 216.361 250.356Z" fill="black"/>
<rect x="124.719" y="44.6061" width="7" height="17" transform="rotate(14 124.719 44.6061)" fill="white" stroke="black"/>
<path d="M204 59C178.998 61.0868 167.045 64.5769 149 74.5L133.5 146C144.26 162.03 152.619 169.841 173 181C176.53 165.133 177.489 156.025 173 138.5C187.122 146.484 196.753 148.344 216 148.5L194 112C209.321 105.116 216.933 100.25 228 89C215.145 81.9538 207.791 79.0861 194 79L204 59Z" fill="#FF5000" stroke="black"/>
<path d="M64.5098 25.6354C85.427 39.4696 94.2931 48.1299 105.56 65.025L86.5791 131.239C69.8729 139.183 59.0076 141.543 36.1041 140.823C40.2373 126.085 43.5428 118.143 55.4447 105.932C39.46 105.64 30.1899 102.497 13.2853 93.2948L49.1371 73.9951C38.8701 60.9159 34.4262 53.2307 29.8667 38.6292C44.317 39.0769 52.0531 40.2875 64.1545 46.903L64.5098 25.6354Z" fill="#FF5000" stroke="black"/>
<circle cx="117" cy="105" r="44" fill="white" stroke="black" stroke-width="2"/>
<path d="M128 45C132.247 33.4798 136.615 29.5461 149.5 29" stroke="black"/>
</g>
<defs>
<clipPath id="clip0_502_38">
<rect width="240" height="300" fill="white"/>
</clipPath>
</defs>
</svg>
