<svg width="180" height="240" viewBox="0 0 180 240" fill="none" xmlns="http://www.w3.org/2000/svg">
<rect width="180" height="240" fill="white"/>
<path d="M76.6953 113.232H73.1152V117H71.9902V108.469H77.2754V109.395H73.1152V112.312H76.6953V113.232ZM82.168 117C82.1055 116.875 82.0547 116.652 82.0156 116.332C81.5117 116.855 80.9102 117.117 80.2109 117.117C79.5859 117.117 79.0723 116.941 78.6699 116.59C78.2715 116.234 78.0723 115.785 78.0723 115.242C78.0723 114.582 78.3223 114.07 78.8223 113.707C79.3262 113.34 80.0332 113.156 80.9434 113.156H81.998V112.658C81.998 112.279 81.8848 111.979 81.6582 111.756C81.4316 111.529 81.0977 111.416 80.6562 111.416C80.2695 111.416 79.9453 111.514 79.6836 111.709C79.4219 111.904 79.291 112.141 79.291 112.418H78.2012C78.2012 112.102 78.3125 111.797 78.5352 111.504C78.7617 111.207 79.0664 110.973 79.4492 110.801C79.8359 110.629 80.2598 110.543 80.7207 110.543C81.4512 110.543 82.0234 110.727 82.4375 111.094C82.8516 111.457 83.0664 111.959 83.082 112.6V115.518C83.082 116.1 83.1562 116.562 83.3047 116.906V117H82.168ZM80.3691 116.174C80.709 116.174 81.0312 116.086 81.3359 115.91C81.6406 115.734 81.8613 115.506 81.998 115.225V113.924H81.1484C79.8203 113.924 79.1562 114.312 79.1562 115.09C79.1562 115.43 79.2695 115.695 79.4961 115.887C79.7227 116.078 80.0137 116.174 80.3691 116.174ZM86.7793 115.529L88.3496 110.66H89.457L87.1836 117H86.3574L84.0605 110.66H85.168L86.7793 115.529ZM90.1191 113.771C90.1191 113.15 90.2402 112.592 90.4824 112.096C90.7285 111.6 91.0684 111.217 91.502 110.947C91.9395 110.678 92.4375 110.543 92.9961 110.543C93.8594 110.543 94.5566 110.842 95.0879 111.439C95.623 112.037 95.8906 112.832 95.8906 113.824V113.9C95.8906 114.518 95.7715 115.072 95.5332 115.564C95.2988 116.053 94.9609 116.434 94.5195 116.707C94.082 116.98 93.5781 117.117 93.0078 117.117C92.1484 117.117 91.4512 116.818 90.916 116.221C90.3848 115.623 90.1191 114.832 90.1191 113.848V113.771ZM91.209 113.9C91.209 114.604 91.3711 115.168 91.6953 115.594C92.0234 116.02 92.4609 116.232 93.0078 116.232C93.5586 116.232 93.9961 116.018 94.3203 115.588C94.6445 115.154 94.8066 114.549 94.8066 113.771C94.8066 113.076 94.6406 112.514 94.3086 112.084C93.9805 111.65 93.543 111.434 92.9961 111.434C92.4609 111.434 92.0293 111.646 91.7012 112.072C91.373 112.498 91.209 113.107 91.209 113.9ZM100.314 111.633C100.15 111.605 99.9727 111.592 99.7812 111.592C99.0703 111.592 98.5879 111.895 98.334 112.5V117H97.25V110.66H98.3047L98.3223 111.393C98.6777 110.826 99.1816 110.543 99.834 110.543C100.045 110.543 100.205 110.57 100.314 110.625V111.633Z" fill="black"/>
</svg>
