<svg width="240" height="300" viewBox="0 0 240 300" fill="none" xmlns="http://www.w3.org/2000/svg">
<rect width="240" height="300" fill="#662929"/>
<path d="M169.701 30.9552C155.293 43.2677 146.238 43.0258 113.789 95.5C96.3292 54.3095 90.9661 43.1616 69 20.5C47.0339 -2.16164 32.0393 20.5 32.0393 22.211C32.0393 23.922 86.986 243.1 113.789 224C140.592 204.9 208.369 52.767 206.75 33.6458C205.132 14.5246 184.108 18.6427 169.701 30.9552Z" stroke="white" stroke-width="3"/>
<path d="M100.34 253.837H92.583V262H90.1455V243.516H101.597V245.521H92.583V251.844H100.34V253.837ZM112.197 262C112.062 261.729 111.952 261.247 111.867 260.553C110.775 261.687 109.472 262.254 107.957 262.254C106.603 262.254 105.49 261.873 104.618 261.111C103.755 260.341 103.323 259.368 103.323 258.191C103.323 256.761 103.865 255.652 104.948 254.865C106.04 254.07 107.572 253.672 109.544 253.672H111.829V252.593C111.829 251.772 111.584 251.12 111.093 250.638C110.602 250.147 109.878 249.901 108.922 249.901C108.084 249.901 107.382 250.113 106.814 250.536C106.247 250.959 105.964 251.471 105.964 252.072H103.603C103.603 251.387 103.844 250.727 104.326 250.092C104.817 249.449 105.477 248.941 106.307 248.568C107.145 248.196 108.063 248.01 109.062 248.01C110.644 248.01 111.884 248.408 112.781 249.203C113.678 249.99 114.144 251.078 114.178 252.466V258.788C114.178 260.049 114.339 261.052 114.66 261.797V262H112.197ZM108.3 260.21C109.036 260.21 109.734 260.02 110.395 259.639C111.055 259.258 111.533 258.763 111.829 258.153V255.335H109.988C107.111 255.335 105.672 256.177 105.672 257.861C105.672 258.598 105.917 259.173 106.408 259.588C106.899 260.003 107.53 260.21 108.3 260.21ZM122.188 258.813L125.591 248.264H127.99L123.064 262H121.274L116.298 248.264H118.697L122.188 258.813ZM129.425 255.005C129.425 253.659 129.687 252.449 130.212 251.374C130.745 250.299 131.481 249.47 132.421 248.886C133.369 248.302 134.448 248.01 135.658 248.01C137.529 248.01 139.039 248.657 140.19 249.952C141.35 251.247 141.93 252.969 141.93 255.119V255.284C141.93 256.621 141.672 257.823 141.155 258.89C140.647 259.948 139.915 260.773 138.959 261.365C138.011 261.958 136.919 262.254 135.684 262.254C133.822 262.254 132.311 261.606 131.151 260.312C130 259.017 129.425 257.303 129.425 255.17V255.005ZM131.786 255.284C131.786 256.808 132.137 258.031 132.84 258.953C133.551 259.876 134.499 260.337 135.684 260.337C136.877 260.337 137.825 259.871 138.527 258.94C139.23 258.001 139.581 256.689 139.581 255.005C139.581 253.498 139.221 252.28 138.502 251.349C137.791 250.409 136.843 249.939 135.658 249.939C134.499 249.939 133.563 250.401 132.853 251.323C132.142 252.246 131.786 253.566 131.786 255.284ZM151.515 250.371C151.159 250.312 150.774 250.282 150.359 250.282C148.819 250.282 147.774 250.938 147.224 252.25V262H144.875V248.264H147.16L147.198 249.851C147.968 248.623 149.06 248.01 150.474 248.01C150.931 248.01 151.278 248.069 151.515 248.188V250.371Z" fill="white"/>
</svg>
