<svg width="180" height="240" viewBox="0 0 180 240" fill="none" xmlns="http://www.w3.org/2000/svg">
<rect width="180" height="240" fill="white"/>
<path d="M75.543 121.349H70.1729V127H68.4854V114.203H76.4131V115.592H70.1729V119.969H75.543V121.349ZM83.752 127C83.6582 126.812 83.582 126.479 83.5234 125.998C82.7676 126.783 81.8652 127.176 80.8164 127.176C79.8789 127.176 79.1084 126.912 78.5049 126.385C77.9072 125.852 77.6084 125.178 77.6084 124.363C77.6084 123.373 77.9834 122.605 78.7334 122.061C79.4893 121.51 80.5498 121.234 81.915 121.234H83.4971V120.487C83.4971 119.919 83.3271 119.468 82.9873 119.134C82.6475 118.794 82.1465 118.624 81.4844 118.624C80.9043 118.624 80.418 118.771 80.0254 119.063C79.6328 119.356 79.4365 119.711 79.4365 120.127H77.8018C77.8018 119.652 77.9688 119.195 78.3027 118.756C78.6426 118.311 79.0996 117.959 79.6738 117.701C80.2539 117.443 80.8896 117.314 81.5811 117.314C82.6768 117.314 83.5352 117.59 84.1562 118.141C84.7773 118.686 85.0996 119.438 85.123 120.399V124.776C85.123 125.649 85.2344 126.344 85.457 126.859V127H83.752ZM81.0537 125.761C81.5635 125.761 82.0469 125.629 82.5039 125.365C82.9609 125.102 83.292 124.759 83.4971 124.337V122.386H82.2227C80.2305 122.386 79.2344 122.969 79.2344 124.135C79.2344 124.645 79.4043 125.043 79.7441 125.33C80.084 125.617 80.5205 125.761 81.0537 125.761ZM90.6689 124.794L93.0244 117.49H94.6855L91.2754 127H90.0361L86.5908 117.49H88.252L90.6689 124.794ZM95.6787 122.157C95.6787 121.226 95.8604 120.388 96.2236 119.644C96.5928 118.899 97.1025 118.325 97.7529 117.921C98.4092 117.517 99.1562 117.314 99.9941 117.314C101.289 117.314 102.335 117.763 103.132 118.659C103.935 119.556 104.336 120.748 104.336 122.236V122.351C104.336 123.276 104.157 124.108 103.8 124.847C103.448 125.579 102.941 126.15 102.279 126.561C101.623 126.971 100.867 127.176 100.012 127.176C98.7227 127.176 97.6768 126.728 96.874 125.831C96.0771 124.935 95.6787 123.748 95.6787 122.271V122.157ZM97.3135 122.351C97.3135 123.405 97.5566 124.252 98.043 124.891C98.5352 125.529 99.1914 125.849 100.012 125.849C100.838 125.849 101.494 125.526 101.98 124.882C102.467 124.231 102.71 123.323 102.71 122.157C102.71 121.114 102.461 120.271 101.963 119.626C101.471 118.976 100.814 118.65 99.9941 118.65C99.1914 118.65 98.5439 118.97 98.0518 119.608C97.5596 120.247 97.3135 121.161 97.3135 122.351ZM110.972 118.949C110.726 118.908 110.459 118.888 110.172 118.888C109.105 118.888 108.382 119.342 108.001 120.25V127H106.375V117.49H107.957L107.983 118.589C108.517 117.739 109.272 117.314 110.251 117.314C110.567 117.314 110.808 117.355 110.972 117.438V118.949Z" fill="black"/>
</svg>
