<svg width="240" height="300" viewBox="0 0 240 300" fill="none" xmlns="http://www.w3.org/2000/svg">
<rect width="240" height="300" fill="white"/>
<path d="M77.3398 261.837H69.583V270H67.1455V251.516H78.5967V253.521H69.583V259.844H77.3398V261.837ZM86.5693 270.254C84.7074 270.254 83.1924 269.645 82.0244 268.426C80.8564 267.199 80.2725 265.561 80.2725 263.513V263.081C80.2725 261.718 80.5306 260.504 81.0469 259.438C81.5716 258.363 82.2995 257.525 83.2305 256.924C84.1699 256.314 85.1855 256.01 86.2773 256.01C88.0632 256.01 89.4512 256.598 90.4414 257.774C91.4316 258.951 91.9268 260.635 91.9268 262.827V263.805H82.6211C82.6549 265.159 83.0485 266.255 83.8018 267.093C84.5635 267.922 85.5283 268.337 86.6963 268.337C87.5257 268.337 88.2282 268.168 88.8037 267.829C89.3792 267.491 89.8828 267.042 90.3145 266.483L91.749 267.601C90.598 269.369 88.8714 270.254 86.5693 270.254ZM86.2773 257.939C85.3294 257.939 84.5339 258.286 83.8906 258.98C83.2474 259.666 82.8496 260.631 82.6973 261.875H89.5781V261.697C89.5104 260.504 89.1888 259.581 88.6133 258.93C88.0378 258.27 87.2591 257.939 86.2773 257.939ZM101.296 258.371C100.94 258.312 100.555 258.282 100.141 258.282C98.6003 258.282 97.555 258.938 97.0049 260.25V270H94.6562V256.264H96.9414L96.9795 257.851C97.7497 256.623 98.8415 256.01 100.255 256.01C100.712 256.01 101.059 256.069 101.296 256.188V258.371ZM111.439 270C111.304 269.729 111.194 269.247 111.109 268.553C110.018 269.687 108.714 270.254 107.199 270.254C105.845 270.254 104.732 269.873 103.86 269.111C102.997 268.341 102.565 267.368 102.565 266.191C102.565 264.761 103.107 263.652 104.19 262.865C105.282 262.07 106.814 261.672 108.786 261.672H111.071V260.593C111.071 259.772 110.826 259.12 110.335 258.638C109.844 258.147 109.12 257.901 108.164 257.901C107.326 257.901 106.624 258.113 106.057 258.536C105.49 258.959 105.206 259.471 105.206 260.072H102.845C102.845 259.387 103.086 258.727 103.568 258.092C104.059 257.449 104.719 256.941 105.549 256.568C106.387 256.196 107.305 256.01 108.304 256.01C109.886 256.01 111.126 256.408 112.023 257.203C112.921 257.99 113.386 259.078 113.42 260.466V266.788C113.42 268.049 113.581 269.052 113.902 269.797V270H111.439ZM107.542 268.21C108.278 268.21 108.977 268.02 109.637 267.639C110.297 267.258 110.775 266.763 111.071 266.153V263.335H109.23C106.353 263.335 104.914 264.177 104.914 265.861C104.914 266.598 105.16 267.173 105.65 267.588C106.141 268.003 106.772 268.21 107.542 268.21ZM119.653 270H117.305V250.5H119.653V270ZM143.838 264.135C143.609 266.09 142.886 267.601 141.667 268.667C140.457 269.725 138.844 270.254 136.83 270.254C134.646 270.254 132.895 269.471 131.574 267.905C130.262 266.34 129.606 264.245 129.606 261.621V259.844C129.606 258.126 129.911 256.615 130.521 255.312C131.138 254.008 132.01 253.009 133.136 252.315C134.261 251.613 135.565 251.262 137.046 251.262C139.009 251.262 140.584 251.812 141.769 252.912C142.953 254.004 143.643 255.519 143.838 257.457H141.388C141.176 255.984 140.715 254.918 140.004 254.258C139.301 253.598 138.315 253.268 137.046 253.268C135.489 253.268 134.266 253.843 133.377 254.994C132.497 256.145 132.057 257.783 132.057 259.907V261.697C132.057 263.703 132.476 265.299 133.313 266.483C134.151 267.668 135.324 268.261 136.83 268.261C138.184 268.261 139.221 267.956 139.94 267.347C140.668 266.729 141.151 265.658 141.388 264.135H143.838ZM155.289 270C155.154 269.729 155.044 269.247 154.959 268.553C153.867 269.687 152.564 270.254 151.049 270.254C149.695 270.254 148.582 269.873 147.71 269.111C146.847 268.341 146.415 267.368 146.415 266.191C146.415 264.761 146.957 263.652 148.04 262.865C149.132 262.07 150.664 261.672 152.636 261.672H154.921V260.593C154.921 259.772 154.675 259.12 154.185 258.638C153.694 258.147 152.97 257.901 152.014 257.901C151.176 257.901 150.473 258.113 149.906 258.536C149.339 258.959 149.056 259.471 149.056 260.072H146.694C146.694 259.387 146.936 258.727 147.418 258.092C147.909 257.449 148.569 256.941 149.398 256.568C150.236 256.196 151.155 256.01 152.153 256.01C153.736 256.01 154.976 256.408 155.873 257.203C156.77 257.99 157.236 259.078 157.27 260.466V266.788C157.27 268.049 157.43 269.052 157.752 269.797V270H155.289ZM151.392 268.21C152.128 268.21 152.826 268.02 153.486 267.639C154.146 267.258 154.625 266.763 154.921 266.153V263.335H153.08C150.202 263.335 148.764 264.177 148.764 265.861C148.764 266.598 149.009 267.173 149.5 267.588C149.991 268.003 150.621 268.21 151.392 268.21ZM164.138 252.938V256.264H166.702V258.079H164.138V266.598C164.138 267.148 164.252 267.562 164.48 267.842C164.709 268.113 165.098 268.248 165.648 268.248C165.919 268.248 166.292 268.197 166.766 268.096V270C166.148 270.169 165.547 270.254 164.963 270.254C163.913 270.254 163.122 269.937 162.589 269.302C162.056 268.667 161.789 267.766 161.789 266.598V258.079H159.288V256.264H161.789V252.938H164.138Z" fill="black"/>
<path d="M50.5832 50.5143C50.5832 50.5143 24.4872 17.2645 24.004 11.9638C23.5208 6.66306 66.8787 9.80732 83.4447 50.5143C144.101 44.7882 157.252 44.6955 159.704 49.9962C154.495 32.3077 134.429 11.053 134.67 11.9638C134.912 12.8745 178.626 34.0343 196.044 54.8513C238.021 162.22 173.006 212.803 161.637 217.691C150.268 222.579 72.6299 221.6 67.8848 217.691C63.1397 213.783 -7.60935 180.293 50.5832 50.5143Z" stroke="black"/>
<path d="M33 102.041C33 102.041 14.6292 83.0005 8.82785 100.183C3.02653 117.366 29.6159 115.973 29.6159 115.973" stroke="black"/>
<path d="M207 100.434C207 100.434 225.371 80.5657 231.172 98.4956C236.973 116.425 210.384 114.972 210.384 114.972" stroke="black"/>
<circle cx="72.5" cy="92.5" r="21" fill="white" stroke="black"/>
<circle cx="167.5" cy="92.5" r="21" fill="white" stroke="black"/>
<path d="M69 196.5C76.2596 162.002 83.073 143.933 118.5 122.5C141.472 140.429 151.669 157.782 167 196.5C126.672 203.42 104.968 204.254 69 196.5Z" stroke="black"/>
<path d="M55 208C55 208 40.5 253.5 57 245C73.5 236.5 71 219 71 219" stroke="black"/>
<path d="M179.5 203C179.5 203 194.635 250.5 178.135 242C161.635 233.5 164.135 216 164.135 216" stroke="black"/>
</svg>
