<svg width="180" height="240" viewBox="0 0 180 240" fill="none" xmlns="http://www.w3.org/2000/svg">
<rect width="180" height="240" fill="white"/>
<path d="M79.3203 127H77.624L71.1816 117.139V127H69.4854V114.203H71.1816L77.6416 124.108V114.203H79.3203V127ZM81.6318 122.157C81.6318 121.226 81.8135 120.388 82.1768 119.644C82.5459 118.899 83.0557 118.325 83.7061 117.921C84.3623 117.517 85.1094 117.314 85.9473 117.314C87.2422 117.314 88.2881 117.763 89.085 118.659C89.8877 119.556 90.2891 120.748 90.2891 122.236V122.351C90.2891 123.276 90.1104 124.108 89.7529 124.847C89.4014 125.579 88.8945 126.15 88.2324 126.561C87.5762 126.971 86.8203 127.176 85.9648 127.176C84.6758 127.176 83.6299 126.728 82.8271 125.831C82.0303 124.935 81.6318 123.748 81.6318 122.271V122.157ZM83.2666 122.351C83.2666 123.405 83.5098 124.252 83.9961 124.891C84.4883 125.529 85.1445 125.849 85.9648 125.849C86.791 125.849 87.4473 125.526 87.9336 124.882C88.4199 124.231 88.6631 123.323 88.6631 122.157C88.6631 121.114 88.4141 120.271 87.916 119.626C87.4238 118.976 86.7676 118.65 85.9473 118.65C85.1445 118.65 84.4971 118.97 84.0049 119.608C83.5127 120.247 83.2666 121.161 83.2666 122.351ZM100.361 122.351C100.361 123.798 100.03 124.964 99.3682 125.849C98.7061 126.733 97.8096 127.176 96.6787 127.176C95.5244 127.176 94.6162 126.81 93.9541 126.077V130.656H92.3281V117.49H93.8135L93.8926 118.545C94.5547 117.725 95.4746 117.314 96.6523 117.314C97.7949 117.314 98.6973 117.745 99.3594 118.606C100.027 119.468 100.361 120.666 100.361 122.201V122.351ZM98.7354 122.166C98.7354 121.094 98.5068 120.247 98.0498 119.626C97.5928 119.005 96.9658 118.694 96.1689 118.694C95.1846 118.694 94.4463 119.131 93.9541 120.004V124.548C94.4404 125.415 95.1846 125.849 96.1865 125.849C96.9658 125.849 97.584 125.541 98.041 124.926C98.5039 124.305 98.7354 123.385 98.7354 122.166ZM106.382 127.176C105.093 127.176 104.044 126.754 103.235 125.91C102.427 125.061 102.022 123.927 102.022 122.509V122.21C102.022 121.267 102.201 120.426 102.559 119.688C102.922 118.943 103.426 118.363 104.07 117.947C104.721 117.525 105.424 117.314 106.18 117.314C107.416 117.314 108.377 117.722 109.062 118.536C109.748 119.351 110.091 120.517 110.091 122.034V122.711H103.648C103.672 123.648 103.944 124.407 104.466 124.987C104.993 125.562 105.661 125.849 106.47 125.849C107.044 125.849 107.53 125.731 107.929 125.497C108.327 125.263 108.676 124.952 108.975 124.565L109.968 125.339C109.171 126.563 107.976 127.176 106.382 127.176ZM106.18 118.65C105.523 118.65 104.973 118.891 104.527 119.371C104.082 119.846 103.807 120.514 103.701 121.375H108.465V121.252C108.418 120.426 108.195 119.787 107.797 119.336C107.398 118.879 106.859 118.65 106.18 118.65Z" fill="#FA0000"/>
</svg>
