<svg width="240" height="300" viewBox="0 0 240 300" fill="none" xmlns="http://www.w3.org/2000/svg">
<rect width="240" height="300" fill="#FF0000"/>
<path d="M105.352 261H102.901L93.5957 246.756V261H91.1455V242.516H93.5957L102.927 256.823V242.516H105.352V261ZM108.69 254.005C108.69 252.659 108.953 251.449 109.478 250.374C110.011 249.299 110.747 248.47 111.687 247.886C112.634 247.302 113.714 247.01 114.924 247.01C116.794 247.01 118.305 247.657 119.456 248.952C120.616 250.247 121.195 251.969 121.195 254.119V254.284C121.195 255.621 120.937 256.823 120.421 257.89C119.913 258.948 119.181 259.773 118.225 260.365C117.277 260.958 116.185 261.254 114.949 261.254C113.087 261.254 111.576 260.606 110.417 259.312C109.266 258.017 108.69 256.303 108.69 254.17V254.005ZM111.052 254.284C111.052 255.808 111.403 257.031 112.105 257.953C112.816 258.876 113.764 259.337 114.949 259.337C116.143 259.337 117.09 258.871 117.793 257.94C118.495 257.001 118.847 255.689 118.847 254.005C118.847 252.498 118.487 251.28 117.768 250.349C117.057 249.409 116.109 248.939 114.924 248.939C113.764 248.939 112.829 249.401 112.118 250.323C111.407 251.246 111.052 252.566 111.052 254.284ZM135.744 254.284C135.744 256.375 135.266 258.059 134.31 259.337C133.353 260.615 132.058 261.254 130.425 261.254C128.757 261.254 127.446 260.725 126.489 259.667V266.281H124.141V247.264H126.286L126.4 248.787C127.357 247.602 128.686 247.01 130.387 247.01C132.037 247.01 133.34 247.632 134.297 248.876C135.262 250.12 135.744 251.851 135.744 254.068V254.284ZM133.396 254.018C133.396 252.469 133.065 251.246 132.405 250.349C131.745 249.451 130.84 249.003 129.688 249.003C128.267 249.003 127.2 249.633 126.489 250.895V257.458C127.192 258.711 128.267 259.337 129.714 259.337C130.84 259.337 131.732 258.893 132.393 258.004C133.061 257.107 133.396 255.778 133.396 254.018ZM144.44 261.254C142.578 261.254 141.063 260.645 139.896 259.426C138.728 258.199 138.144 256.561 138.144 254.513V254.081C138.144 252.718 138.402 251.504 138.918 250.438C139.443 249.363 140.171 248.525 141.102 247.924C142.041 247.314 143.057 247.01 144.148 247.01C145.934 247.01 147.322 247.598 148.312 248.774C149.303 249.951 149.798 251.635 149.798 253.827V254.805H140.492C140.526 256.159 140.92 257.255 141.673 258.093C142.435 258.922 143.399 259.337 144.567 259.337C145.397 259.337 146.099 259.168 146.675 258.829C147.25 258.491 147.754 258.042 148.186 257.483L149.62 258.601C148.469 260.369 146.743 261.254 144.44 261.254ZM144.148 248.939C143.201 248.939 142.405 249.286 141.762 249.98C141.118 250.666 140.721 251.631 140.568 252.875H147.449V252.697C147.382 251.504 147.06 250.581 146.484 249.93C145.909 249.27 145.13 248.939 144.148 248.939Z" fill="white"/>
<path d="M32.7028 87.2979L119.5 24.2361L206.297 87.2979L173.144 189.334H65.8564L32.7028 87.2979Z" fill="white" stroke="black" stroke-width="2"/>
<path d="M96.5918 111.761C94.5013 111.16 92.9779 110.424 92.0215 109.552C91.0736 108.672 90.5996 107.588 90.5996 106.302C90.5996 104.846 91.1794 103.644 92.3389 102.696C93.5068 101.74 95.0218 101.262 96.8838 101.262C98.1533 101.262 99.2832 101.507 100.273 101.998C101.272 102.489 102.042 103.166 102.584 104.029C103.134 104.893 103.409 105.836 103.409 106.86H100.959C100.959 105.743 100.604 104.867 99.8926 104.232C99.1816 103.589 98.1787 103.268 96.8838 103.268C95.682 103.268 94.7425 103.534 94.0654 104.067C93.3968 104.592 93.0625 105.324 93.0625 106.264C93.0625 107.017 93.3799 107.656 94.0146 108.181C94.6579 108.697 95.7454 109.171 97.2773 109.603C98.8177 110.034 100.02 110.512 100.883 111.037C101.755 111.553 102.398 112.159 102.812 112.853C103.236 113.547 103.447 114.363 103.447 115.303C103.447 116.801 102.863 118.003 101.695 118.908C100.527 119.805 98.9658 120.254 97.0107 120.254C95.7412 120.254 94.5563 120.013 93.4561 119.53C92.3558 119.039 91.5052 118.371 90.9043 117.524C90.3118 116.678 90.0156 115.717 90.0156 114.643H92.4658C92.4658 115.76 92.8763 116.644 93.6973 117.296C94.5267 117.939 95.6312 118.261 97.0107 118.261C98.2972 118.261 99.2832 117.998 99.9688 117.474C100.654 116.949 100.997 116.234 100.997 115.328C100.997 114.423 100.68 113.724 100.045 113.233C99.4102 112.734 98.2591 112.243 96.5918 111.761ZM119.354 103.521H113.413V120H110.988V103.521H105.06V101.516H119.354V103.521ZM135.96 111.354C135.96 113.166 135.655 114.748 135.046 116.103C134.437 117.448 133.573 118.477 132.456 119.188C131.339 119.898 130.035 120.254 128.546 120.254C127.09 120.254 125.799 119.898 124.674 119.188C123.548 118.468 122.672 117.448 122.046 116.128C121.428 114.799 121.111 113.263 121.094 111.52V110.187C121.094 108.409 121.403 106.839 122.021 105.477C122.638 104.114 123.51 103.073 124.636 102.354C125.77 101.626 127.065 101.262 128.521 101.262C130.002 101.262 131.305 101.621 132.431 102.341C133.565 103.052 134.437 104.089 135.046 105.451C135.655 106.805 135.96 108.384 135.96 110.187V111.354ZM133.535 110.161C133.535 107.969 133.095 106.289 132.215 105.121C131.335 103.945 130.103 103.356 128.521 103.356C126.98 103.356 125.766 103.945 124.877 105.121C123.997 106.289 123.544 107.914 123.519 109.996V111.354C123.519 113.479 123.963 115.15 124.852 116.369C125.749 117.579 126.98 118.185 128.546 118.185C130.12 118.185 131.339 117.613 132.202 116.471C133.065 115.32 133.51 113.674 133.535 111.532V110.161ZM142.054 112.764V120H139.616V101.516H146.434C148.456 101.516 150.039 102.032 151.182 103.064C152.333 104.097 152.908 105.464 152.908 107.165C152.908 108.959 152.345 110.343 151.22 111.316C150.103 112.281 148.499 112.764 146.408 112.764H142.054ZM142.054 110.771H146.434C147.737 110.771 148.736 110.466 149.43 109.856C150.124 109.239 150.471 108.35 150.471 107.19C150.471 106.09 150.124 105.21 149.43 104.55C148.736 103.89 147.784 103.547 146.573 103.521H142.054V110.771Z" fill="black"/>
</svg>
