<svg width="180" height="240" viewBox="0 0 180 240" fill="none" xmlns="http://www.w3.org/2000/svg">
<rect width="180" height="240" fill="white"/>
<path d="M78.5469 117H77.416L73.1211 110.426V117H71.9902V108.469H73.1211L77.4277 115.072V108.469H78.5469V117ZM80.0879 113.771C80.0879 113.15 80.209 112.592 80.4512 112.096C80.6973 111.6 81.0371 111.217 81.4707 110.947C81.9082 110.678 82.4062 110.543 82.9648 110.543C83.8281 110.543 84.5254 110.842 85.0566 111.439C85.5918 112.037 85.8594 112.832 85.8594 113.824V113.9C85.8594 114.518 85.7402 115.072 85.502 115.564C85.2676 116.053 84.9297 116.434 84.4883 116.707C84.0508 116.98 83.5469 117.117 82.9766 117.117C82.1172 117.117 81.4199 116.818 80.8848 116.221C80.3535 115.623 80.0879 114.832 80.0879 113.848V113.771ZM81.1777 113.9C81.1777 114.604 81.3398 115.168 81.6641 115.594C81.9922 116.02 82.4297 116.232 82.9766 116.232C83.5273 116.232 83.9648 116.018 84.2891 115.588C84.6133 115.154 84.7754 114.549 84.7754 113.771C84.7754 113.076 84.6094 112.514 84.2773 112.084C83.9492 111.65 83.5117 111.434 82.9648 111.434C82.4297 111.434 81.998 111.646 81.6699 112.072C81.3418 112.498 81.1777 113.107 81.1777 113.9ZM92.5742 113.9C92.5742 114.865 92.3535 115.643 91.9121 116.232C91.4707 116.822 90.873 117.117 90.1191 117.117C89.3496 117.117 88.7441 116.873 88.3027 116.385V119.438H87.2188V110.66H88.209L88.2617 111.363C88.7031 110.816 89.3164 110.543 90.1016 110.543C90.8633 110.543 91.4648 110.83 91.9062 111.404C92.3516 111.979 92.5742 112.777 92.5742 113.801V113.9ZM91.4902 113.777C91.4902 113.062 91.3379 112.498 91.0332 112.084C90.7285 111.67 90.3105 111.463 89.7793 111.463C89.123 111.463 88.6309 111.754 88.3027 112.336V115.365C88.627 115.943 89.123 116.232 89.791 116.232C90.3105 116.232 90.7227 116.027 91.0273 115.617C91.3359 115.203 91.4902 114.59 91.4902 113.777ZM96.5879 117.117C95.7285 117.117 95.0293 116.836 94.4902 116.273C93.9512 115.707 93.6816 114.951 93.6816 114.006V113.807C93.6816 113.178 93.8008 112.617 94.0391 112.125C94.2812 111.629 94.6172 111.242 95.0469 110.965C95.4805 110.684 95.9492 110.543 96.4531 110.543C97.2773 110.543 97.918 110.814 98.375 111.357C98.832 111.9 99.0605 112.678 99.0605 113.689V114.141H94.7656C94.7812 114.766 94.9629 115.271 95.3105 115.658C95.6621 116.041 96.1074 116.232 96.6465 116.232C97.0293 116.232 97.3535 116.154 97.6191 115.998C97.8848 115.842 98.1172 115.635 98.3164 115.377L98.9785 115.893C98.4473 116.709 97.6504 117.117 96.5879 117.117ZM96.4531 111.434C96.0156 111.434 95.6484 111.594 95.3516 111.914C95.0547 112.23 94.8711 112.676 94.8008 113.25H97.9766V113.168C97.9453 112.617 97.7969 112.191 97.5312 111.891C97.2656 111.586 96.9062 111.434 96.4531 111.434Z" fill="#FA0000"/>
</svg>
