<svg width="240" height="300" viewBox="0 0 240 300" fill="none" xmlns="http://www.w3.org/2000/svg">
<rect width="240" height="300" fill="white"/>
<path d="M63.583 257.764V265H61.1455V246.516H67.9629C69.9857 246.516 71.5684 247.032 72.7109 248.064C73.862 249.097 74.4375 250.464 74.4375 252.165C74.4375 253.959 73.8747 255.343 72.749 256.316C71.6318 257.281 70.028 257.764 67.9375 257.764H63.583ZM63.583 255.771H67.9629C69.2663 255.771 70.265 255.466 70.959 254.856C71.653 254.239 72 253.35 72 252.19C72 251.09 71.653 250.21 70.959 249.55C70.265 248.89 69.3128 248.547 68.1025 248.521H63.583V255.771ZM76.3799 258.005C76.3799 256.659 76.6423 255.449 77.167 254.374C77.7002 253.299 78.4365 252.47 79.376 251.886C80.3239 251.302 81.403 251.01 82.6133 251.01C84.4837 251.01 85.9945 251.657 87.1455 252.952C88.305 254.247 88.8848 255.969 88.8848 258.119V258.284C88.8848 259.621 88.6266 260.823 88.1104 261.89C87.6025 262.948 86.8704 263.773 85.9141 264.365C84.9661 264.958 83.8743 265.254 82.6387 265.254C80.7767 265.254 79.266 264.606 78.1064 263.312C76.9554 262.017 76.3799 260.303 76.3799 258.17V258.005ZM78.7412 258.284C78.7412 259.808 79.0924 261.031 79.7949 261.953C80.5059 262.876 81.4538 263.337 82.6387 263.337C83.832 263.337 84.7799 262.871 85.4824 261.94C86.1849 261.001 86.5361 259.689 86.5361 258.005C86.5361 256.498 86.1764 255.28 85.457 254.349C84.7461 253.409 83.7982 252.939 82.6133 252.939C81.4538 252.939 80.5186 253.401 79.8076 254.323C79.0967 255.246 78.7412 256.566 78.7412 258.284ZM95.0166 247.938V251.264H97.5811V253.079H95.0166V261.598C95.0166 262.148 95.1309 262.562 95.3594 262.842C95.5879 263.113 95.9772 263.248 96.5273 263.248C96.7982 263.248 97.1706 263.197 97.6445 263.096V265C97.0267 265.169 96.4258 265.254 95.8418 265.254C94.7923 265.254 94.001 264.937 93.4678 264.302C92.9346 263.667 92.668 262.766 92.668 261.598V253.079H90.167V251.264H92.668V247.938H95.0166ZM108.816 265C108.681 264.729 108.571 264.247 108.486 263.553C107.395 264.687 106.091 265.254 104.576 265.254C103.222 265.254 102.109 264.873 101.237 264.111C100.374 263.341 99.9424 262.368 99.9424 261.191C99.9424 259.761 100.484 258.652 101.567 257.865C102.659 257.07 104.191 256.672 106.163 256.672H108.448V255.593C108.448 254.772 108.203 254.12 107.712 253.638C107.221 253.147 106.497 252.901 105.541 252.901C104.703 252.901 104.001 253.113 103.434 253.536C102.867 253.959 102.583 254.471 102.583 255.072H100.222C100.222 254.387 100.463 253.727 100.945 253.092C101.436 252.449 102.096 251.941 102.926 251.568C103.764 251.196 104.682 251.01 105.681 251.01C107.263 251.01 108.503 251.408 109.4 252.203C110.298 252.99 110.763 254.078 110.797 255.466V261.788C110.797 263.049 110.958 264.052 111.279 264.797V265H108.816ZM104.919 263.21C105.655 263.21 106.354 263.02 107.014 262.639C107.674 262.258 108.152 261.763 108.448 261.153V258.335H106.607C103.73 258.335 102.291 259.177 102.291 260.861C102.291 261.598 102.536 262.173 103.027 262.588C103.518 263.003 104.149 263.21 104.919 263.21ZM117.665 247.938V251.264H120.229V253.079H117.665V261.598C117.665 262.148 117.779 262.562 118.008 262.842C118.236 263.113 118.626 263.248 119.176 263.248C119.447 263.248 119.819 263.197 120.293 263.096V265C119.675 265.169 119.074 265.254 118.49 265.254C117.441 265.254 116.649 264.937 116.116 264.302C115.583 263.667 115.316 262.766 115.316 261.598V253.079H112.815V251.264H115.316V247.938H117.665ZM122.108 258.005C122.108 256.659 122.371 255.449 122.896 254.374C123.429 253.299 124.165 252.47 125.104 251.886C126.052 251.302 127.132 251.01 128.342 251.01C130.212 251.01 131.723 251.657 132.874 252.952C134.034 254.247 134.613 255.969 134.613 258.119V258.284C134.613 259.621 134.355 260.823 133.839 261.89C133.331 262.948 132.599 263.773 131.643 264.365C130.695 264.958 129.603 265.254 128.367 265.254C126.505 265.254 124.994 264.606 123.835 263.312C122.684 262.017 122.108 260.303 122.108 258.17V258.005ZM124.47 258.284C124.47 259.808 124.821 261.031 125.523 261.953C126.234 262.876 127.182 263.337 128.367 263.337C129.561 263.337 130.508 262.871 131.211 261.94C131.913 261.001 132.265 259.689 132.265 258.005C132.265 256.498 131.905 255.28 131.186 254.349C130.475 253.409 129.527 252.939 128.342 252.939C127.182 252.939 126.247 253.401 125.536 254.323C124.825 255.246 124.47 256.566 124.47 258.284ZM157.973 259.135C157.744 261.09 157.021 262.601 155.802 263.667C154.591 264.725 152.979 265.254 150.965 265.254C148.781 265.254 147.029 264.471 145.709 262.905C144.397 261.34 143.741 259.245 143.741 256.621V254.844C143.741 253.126 144.046 251.615 144.655 250.312C145.273 249.008 146.145 248.009 147.271 247.315C148.396 246.613 149.7 246.262 151.181 246.262C153.144 246.262 154.718 246.812 155.903 247.912C157.088 249.004 157.778 250.519 157.973 252.457H155.522C155.311 250.984 154.85 249.918 154.139 249.258C153.436 248.598 152.45 248.268 151.181 248.268C149.623 248.268 148.4 248.843 147.512 249.994C146.632 251.145 146.191 252.783 146.191 254.907V256.697C146.191 258.703 146.61 260.299 147.448 261.483C148.286 262.668 149.458 263.261 150.965 263.261C152.319 263.261 153.356 262.956 154.075 262.347C154.803 261.729 155.285 260.658 155.522 259.135H157.973ZM169.424 265C169.288 264.729 169.178 264.247 169.094 263.553C168.002 264.687 166.699 265.254 165.184 265.254C163.829 265.254 162.716 264.873 161.845 264.111C160.981 263.341 160.55 262.368 160.55 261.191C160.55 259.761 161.091 258.652 162.175 257.865C163.267 257.07 164.799 256.672 166.771 256.672H169.056V255.593C169.056 254.772 168.81 254.12 168.319 253.638C167.828 253.147 167.105 252.901 166.148 252.901C165.311 252.901 164.608 253.113 164.041 253.536C163.474 253.959 163.19 254.471 163.19 255.072H160.829C160.829 254.387 161.07 253.727 161.553 253.092C162.044 252.449 162.704 251.941 163.533 251.568C164.371 251.196 165.289 251.01 166.288 251.01C167.871 251.01 169.111 251.408 170.008 252.203C170.905 252.99 171.37 254.078 171.404 255.466V261.788C171.404 263.049 171.565 264.052 171.887 264.797V265H169.424ZM165.526 263.21C166.263 263.21 166.961 263.02 167.621 262.639C168.281 262.258 168.759 261.763 169.056 261.153V258.335H167.215C164.337 258.335 162.898 259.177 162.898 260.861C162.898 261.598 163.144 262.173 163.635 262.588C164.126 263.003 164.756 263.21 165.526 263.21ZM178.272 247.938V251.264H180.837V253.079H178.272V261.598C178.272 262.148 178.387 262.562 178.615 262.842C178.844 263.113 179.233 263.248 179.783 263.248C180.054 263.248 180.426 263.197 180.9 263.096V265C180.283 265.169 179.682 265.254 179.098 265.254C178.048 265.254 177.257 264.937 176.724 264.302C176.19 263.667 175.924 262.766 175.924 261.598V253.079H173.423V251.264H175.924V247.938H178.272Z" fill="black"/>
<path d="M84.5217 13L82 49L111 35.1053L84.5217 13Z" fill="#793C00" stroke="black"/>
<path d="M157.077 13L159 51L134 31.3667L157.077 13Z" fill="#793C00" stroke="black"/>
<ellipse cx="120" cy="126" rx="62" ry="99" fill="#793C00"/>
<path d="M109 120C116.182 116.989 125.94 116.795 132 120" stroke="black" stroke-width="2"/>
<circle cx="97" cy="80" r="10" fill="black"/>
<g filter="url(#filter0_d_501_175)">
<path d="M97 72C101.35 73.3714 103.071 74.8315 104 79.5" stroke="white" stroke-width="2"/>
</g>
<circle cx="144" cy="82" r="10" fill="black"/>
<g filter="url(#filter1_d_501_175)">
<path d="M144 74C148.35 75.3714 150.071 76.8315 151 81.5" stroke="white" stroke-width="2"/>
</g>
<path d="M121 118L112.34 103H129.66L121 118Z" fill="black"/>
<defs>
<filter id="filter0_d_501_175" x="92.6993" y="71.0463" width="16.2814" height="16.6489" filterUnits="userSpaceOnUse" color-interpolation-filters="sRGB">
<feFlood flood-opacity="0" result="BackgroundImageFix"/>
<feColorMatrix in="SourceAlpha" type="matrix" values="0 0 0 0 0 0 0 0 0 0 0 0 0 0 0 0 0 0 127 0" result="hardAlpha"/>
<feOffset dy="4"/>
<feGaussianBlur stdDeviation="2"/>
<feComposite in2="hardAlpha" operator="out"/>
<feColorMatrix type="matrix" values="0 0 0 0 0 0 0 0 0 0 0 0 0 0 0 0 0 0 0.25 0"/>
<feBlend mode="normal" in2="BackgroundImageFix" result="effect1_dropShadow_501_175"/>
<feBlend mode="normal" in="SourceGraphic" in2="effect1_dropShadow_501_175" result="shape"/>
</filter>
<filter id="filter1_d_501_175" x="139.699" y="73.0463" width="16.2814" height="16.6489" filterUnits="userSpaceOnUse" color-interpolation-filters="sRGB">
<feFlood flood-opacity="0" result="BackgroundImageFix"/>
<feColorMatrix in="SourceAlpha" type="matrix" values="0 0 0 0 0 0 0 0 0 0 0 0 0 0 0 0 0 0 127 0" result="hardAlpha"/>
<feOffset dy="4"/>
<feGaussianBlur stdDeviation="2"/>
<feComposite in2="hardAlpha" operator="out"/>
<feColorMatrix type="matrix" values="0 0 0 0 0 0 0 0 0 0 0 0 0 0 0 0 0 0 0.25 0"/>
<feBlend mode="normal" in2="BackgroundImageFix" result="effect1_dropShadow_501_175"/>
<feBlend mode="normal" in="SourceGraphic" in2="effect1_dropShadow_501_175" result="shape"/>
</filter>
</defs>
</svg>
