<svg width="180" height="240" viewBox="0 0 180 240" fill="none" xmlns="http://www.w3.org/2000/svg">
<rect width="180" height="240" fill="white"/>
<path d="M50.1729 121.99V127H48.4854V114.203H53.2051C54.6055 114.203 55.7012 114.561 56.4922 115.275C57.2891 115.99 57.6875 116.937 57.6875 118.114C57.6875 119.356 57.2979 120.314 56.5186 120.988C55.7451 121.656 54.6348 121.99 53.1875 121.99H50.1729ZM50.1729 120.61H53.2051C54.1074 120.61 54.7988 120.399 55.2793 119.978C55.7598 119.55 56 118.935 56 118.132C56 117.37 55.7598 116.761 55.2793 116.304C54.7988 115.847 54.1396 115.609 53.3018 115.592H50.1729V120.61ZM59.0322 122.157C59.0322 121.226 59.2139 120.388 59.5771 119.644C59.9463 118.899 60.4561 118.325 61.1064 117.921C61.7627 117.517 62.5098 117.314 63.3477 117.314C64.6426 117.314 65.6885 117.763 66.4854 118.659C67.2881 119.556 67.6895 120.748 67.6895 122.236V122.351C67.6895 123.276 67.5107 124.108 67.1533 124.847C66.8018 125.579 66.2949 126.15 65.6328 126.561C64.9766 126.971 64.2207 127.176 63.3652 127.176C62.0762 127.176 61.0303 126.728 60.2275 125.831C59.4307 124.935 59.0322 123.748 59.0322 122.271V122.157ZM60.667 122.351C60.667 123.405 60.9102 124.252 61.3965 124.891C61.8887 125.529 62.5449 125.849 63.3652 125.849C64.1914 125.849 64.8477 125.526 65.334 124.882C65.8203 124.231 66.0635 123.323 66.0635 122.157C66.0635 121.114 65.8145 120.271 65.3164 119.626C64.8242 118.976 64.168 118.65 63.3477 118.65C62.5449 118.65 61.8975 118.97 61.4053 119.608C60.9131 120.247 60.667 121.161 60.667 122.351ZM71.9346 115.188V117.49H73.71V118.747H71.9346V124.645C71.9346 125.025 72.0137 125.312 72.1719 125.506C72.3301 125.693 72.5996 125.787 72.9805 125.787C73.168 125.787 73.4258 125.752 73.7539 125.682V127C73.3262 127.117 72.9102 127.176 72.5059 127.176C71.7793 127.176 71.2314 126.956 70.8623 126.517C70.4932 126.077 70.3086 125.453 70.3086 124.645V118.747H68.5771V117.49H70.3086V115.188H71.9346ZM81.4883 127C81.3945 126.812 81.3184 126.479 81.2598 125.998C80.5039 126.783 79.6016 127.176 78.5527 127.176C77.6152 127.176 76.8447 126.912 76.2412 126.385C75.6436 125.852 75.3447 125.178 75.3447 124.363C75.3447 123.373 75.7197 122.605 76.4697 122.061C77.2256 121.51 78.2861 121.234 79.6514 121.234H81.2334V120.487C81.2334 119.919 81.0635 119.468 80.7236 119.134C80.3838 118.794 79.8828 118.624 79.2207 118.624C78.6406 118.624 78.1543 118.771 77.7617 119.063C77.3691 119.356 77.1729 119.711 77.1729 120.127H75.5381C75.5381 119.652 75.7051 119.195 76.0391 118.756C76.3789 118.311 76.8359 117.959 77.4102 117.701C77.9902 117.443 78.626 117.314 79.3174 117.314C80.4131 117.314 81.2715 117.59 81.8926 118.141C82.5137 118.686 82.8359 119.438 82.8594 120.399V124.776C82.8594 125.649 82.9707 126.344 83.1934 126.859V127H81.4883ZM78.79 125.761C79.2998 125.761 79.7832 125.629 80.2402 125.365C80.6973 125.102 81.0283 124.759 81.2334 124.337V122.386H79.959C77.9668 122.386 76.9707 122.969 76.9707 124.135C76.9707 124.645 77.1406 125.043 77.4805 125.33C77.8203 125.617 78.2568 125.761 78.79 125.761ZM87.6143 115.188V117.49H89.3896V118.747H87.6143V124.645C87.6143 125.025 87.6934 125.312 87.8516 125.506C88.0098 125.693 88.2793 125.787 88.6602 125.787C88.8477 125.787 89.1055 125.752 89.4336 125.682V127C89.0059 127.117 88.5898 127.176 88.1855 127.176C87.459 127.176 86.9111 126.956 86.542 126.517C86.1729 126.077 85.9883 125.453 85.9883 124.645V118.747H84.2568V117.49H85.9883V115.188H87.6143ZM90.6904 122.157C90.6904 121.226 90.8721 120.388 91.2354 119.644C91.6045 118.899 92.1143 118.325 92.7646 117.921C93.4209 117.517 94.168 117.314 95.0059 117.314C96.3008 117.314 97.3467 117.763 98.1436 118.659C98.9463 119.556 99.3477 120.748 99.3477 122.236V122.351C99.3477 123.276 99.1689 124.108 98.8115 124.847C98.46 125.579 97.9531 126.15 97.291 126.561C96.6348 126.971 95.8789 127.176 95.0234 127.176C93.7344 127.176 92.6885 126.728 91.8857 125.831C91.0889 124.935 90.6904 123.748 90.6904 122.271V122.157ZM92.3252 122.351C92.3252 123.405 92.5684 124.252 93.0547 124.891C93.5469 125.529 94.2031 125.849 95.0234 125.849C95.8496 125.849 96.5059 125.526 96.9922 124.882C97.4785 124.231 97.7217 123.323 97.7217 122.157C97.7217 121.114 97.4727 120.271 96.9746 119.626C96.4824 118.976 95.8262 118.65 95.0059 118.65C94.2031 118.65 93.5557 118.97 93.0635 119.608C92.5713 120.247 92.3252 121.161 92.3252 122.351ZM115.52 122.939C115.361 124.293 114.86 125.339 114.017 126.077C113.179 126.81 112.062 127.176 110.668 127.176C109.156 127.176 107.943 126.634 107.029 125.55C106.121 124.466 105.667 123.016 105.667 121.199V119.969C105.667 118.779 105.878 117.733 106.3 116.831C106.728 115.929 107.331 115.237 108.11 114.757C108.89 114.271 109.792 114.027 110.817 114.027C112.177 114.027 113.267 114.408 114.087 115.17C114.907 115.926 115.385 116.975 115.52 118.316H113.823C113.677 117.297 113.357 116.559 112.865 116.102C112.379 115.645 111.696 115.416 110.817 115.416C109.739 115.416 108.893 115.814 108.277 116.611C107.668 117.408 107.363 118.542 107.363 120.013V121.252C107.363 122.641 107.653 123.745 108.233 124.565C108.813 125.386 109.625 125.796 110.668 125.796C111.605 125.796 112.323 125.585 112.821 125.163C113.325 124.735 113.659 123.994 113.823 122.939H115.52ZM123.447 127C123.354 126.812 123.277 126.479 123.219 125.998C122.463 126.783 121.561 127.176 120.512 127.176C119.574 127.176 118.804 126.912 118.2 126.385C117.603 125.852 117.304 125.178 117.304 124.363C117.304 123.373 117.679 122.605 118.429 122.061C119.185 121.51 120.245 121.234 121.61 121.234H123.192V120.487C123.192 119.919 123.022 119.468 122.683 119.134C122.343 118.794 121.842 118.624 121.18 118.624C120.6 118.624 120.113 118.771 119.721 119.063C119.328 119.356 119.132 119.711 119.132 120.127H117.497C117.497 119.652 117.664 119.195 117.998 118.756C118.338 118.311 118.795 117.959 119.369 117.701C119.949 117.443 120.585 117.314 121.276 117.314C122.372 117.314 123.23 117.59 123.852 118.141C124.473 118.686 124.795 119.438 124.818 120.399V124.776C124.818 125.649 124.93 126.344 125.152 126.859V127H123.447ZM120.749 125.761C121.259 125.761 121.742 125.629 122.199 125.365C122.656 125.102 122.987 124.759 123.192 124.337V122.386H121.918C119.926 122.386 118.93 122.969 118.93 124.135C118.93 124.645 119.1 125.043 119.439 125.33C119.779 125.617 120.216 125.761 120.749 125.761ZM129.573 115.188V117.49H131.349V118.747H129.573V124.645C129.573 125.025 129.652 125.312 129.811 125.506C129.969 125.693 130.238 125.787 130.619 125.787C130.807 125.787 131.064 125.752 131.393 125.682V127C130.965 127.117 130.549 127.176 130.145 127.176C129.418 127.176 128.87 126.956 128.501 126.517C128.132 126.077 127.947 125.453 127.947 124.645V118.747H126.216V117.49H127.947V115.188H129.573Z" fill="black"/>
</svg>
