<svg width="180" height="240" viewBox="0 0 180 240" fill="none" xmlns="http://www.w3.org/2000/svg">
<rect width="180" height="240" fill="white"/>
<path d="M63.1152 113.66V117H61.9902V108.469H65.1367C66.0703 108.469 66.8008 108.707 67.3281 109.184C67.8594 109.66 68.125 110.291 68.125 111.076C68.125 111.904 67.8652 112.543 67.3457 112.992C66.8301 113.438 66.0898 113.66 65.125 113.66H63.1152ZM63.1152 112.74H65.1367C65.7383 112.74 66.1992 112.6 66.5195 112.318C66.8398 112.033 67 111.623 67 111.088C67 110.58 66.8398 110.174 66.5195 109.869C66.1992 109.564 65.7598 109.406 65.2012 109.395H63.1152V112.74ZM69.0215 113.771C69.0215 113.15 69.1426 112.592 69.3848 112.096C69.6309 111.6 69.9707 111.217 70.4043 110.947C70.8418 110.678 71.3398 110.543 71.8984 110.543C72.7617 110.543 73.459 110.842 73.9902 111.439C74.5254 112.037 74.793 112.832 74.793 113.824V113.9C74.793 114.518 74.6738 115.072 74.4355 115.564C74.2012 116.053 73.8633 116.434 73.4219 116.707C72.9844 116.98 72.4805 117.117 71.9102 117.117C71.0508 117.117 70.3535 116.818 69.8184 116.221C69.2871 115.623 69.0215 114.832 69.0215 113.848V113.771ZM70.1113 113.9C70.1113 114.604 70.2734 115.168 70.5977 115.594C70.9258 116.02 71.3633 116.232 71.9102 116.232C72.4609 116.232 72.8984 116.018 73.2227 115.588C73.5469 115.154 73.709 114.549 73.709 113.771C73.709 113.076 73.543 112.514 73.2109 112.084C72.8828 111.65 72.4453 111.434 71.8984 111.434C71.3633 111.434 70.9316 111.646 70.6035 112.072C70.2754 112.498 70.1113 113.107 70.1113 113.9ZM77.623 109.125V110.66H78.8066V111.498H77.623V115.43C77.623 115.684 77.6758 115.875 77.7812 116.004C77.8867 116.129 78.0664 116.191 78.3203 116.191C78.4453 116.191 78.6172 116.168 78.8359 116.121V117C78.5508 117.078 78.2734 117.117 78.0039 117.117C77.5195 117.117 77.1543 116.971 76.9082 116.678C76.6621 116.385 76.5391 115.969 76.5391 115.43V111.498H75.3848V110.66H76.5391V109.125H77.623ZM83.9922 117C83.9297 116.875 83.8789 116.652 83.8398 116.332C83.3359 116.855 82.7344 117.117 82.0352 117.117C81.4102 117.117 80.8965 116.941 80.4941 116.59C80.0957 116.234 79.8965 115.785 79.8965 115.242C79.8965 114.582 80.1465 114.07 80.6465 113.707C81.1504 113.34 81.8574 113.156 82.7676 113.156H83.8223V112.658C83.8223 112.279 83.709 111.979 83.4824 111.756C83.2559 111.529 82.9219 111.416 82.4805 111.416C82.0938 111.416 81.7695 111.514 81.5078 111.709C81.2461 111.904 81.1152 112.141 81.1152 112.418H80.0254C80.0254 112.102 80.1367 111.797 80.3594 111.504C80.5859 111.207 80.8906 110.973 81.2734 110.801C81.6602 110.629 82.084 110.543 82.5449 110.543C83.2754 110.543 83.8477 110.727 84.2617 111.094C84.6758 111.457 84.8906 111.959 84.9062 112.6V115.518C84.9062 116.1 84.9805 116.562 85.1289 116.906V117H83.9922ZM82.1934 116.174C82.5332 116.174 82.8555 116.086 83.1602 115.91C83.4648 115.734 83.6855 115.506 83.8223 115.225V113.924H82.9727C81.6445 113.924 80.9805 114.312 80.9805 115.09C80.9805 115.43 81.0938 115.695 81.3203 115.887C81.5469 116.078 81.8379 116.174 82.1934 116.174ZM88.0762 109.125V110.66H89.2598V111.498H88.0762V115.43C88.0762 115.684 88.1289 115.875 88.2344 116.004C88.3398 116.129 88.5195 116.191 88.7734 116.191C88.8984 116.191 89.0703 116.168 89.2891 116.121V117C89.0039 117.078 88.7266 117.117 88.457 117.117C87.9727 117.117 87.6074 116.971 87.3613 116.678C87.1152 116.385 86.9922 115.969 86.9922 115.43V111.498H85.8379V110.66H86.9922V109.125H88.0762ZM90.127 113.771C90.127 113.15 90.248 112.592 90.4902 112.096C90.7363 111.6 91.0762 111.217 91.5098 110.947C91.9473 110.678 92.4453 110.543 93.0039 110.543C93.8672 110.543 94.5645 110.842 95.0957 111.439C95.6309 112.037 95.8984 112.832 95.8984 113.824V113.9C95.8984 114.518 95.7793 115.072 95.541 115.564C95.3066 116.053 94.9688 116.434 94.5273 116.707C94.0898 116.98 93.5859 117.117 93.0156 117.117C92.1562 117.117 91.459 116.818 90.9238 116.221C90.3926 115.623 90.127 114.832 90.127 113.848V113.771ZM91.2168 113.9C91.2168 114.604 91.3789 115.168 91.7031 115.594C92.0312 116.02 92.4688 116.232 93.0156 116.232C93.5664 116.232 94.0039 116.018 94.3281 115.588C94.6523 115.154 94.8145 114.549 94.8145 113.771C94.8145 113.076 94.6484 112.514 94.3164 112.084C93.9883 111.65 93.5508 111.434 93.0039 111.434C92.4688 111.434 92.0371 111.646 91.709 112.072C91.3809 112.498 91.2168 113.107 91.2168 113.9ZM106.68 114.293C106.574 115.195 106.24 115.893 105.678 116.385C105.119 116.873 104.375 117.117 103.445 117.117C102.438 117.117 101.629 116.756 101.02 116.033C100.414 115.311 100.111 114.344 100.111 113.133V112.312C100.111 111.52 100.252 110.822 100.533 110.221C100.818 109.619 101.221 109.158 101.74 108.838C102.26 108.514 102.861 108.352 103.545 108.352C104.451 108.352 105.178 108.605 105.725 109.113C106.271 109.617 106.59 110.316 106.68 111.211H105.549C105.451 110.531 105.238 110.039 104.91 109.734C104.586 109.43 104.131 109.277 103.545 109.277C102.826 109.277 102.262 109.543 101.852 110.074C101.445 110.605 101.242 111.361 101.242 112.342V113.168C101.242 114.094 101.436 114.83 101.822 115.377C102.209 115.924 102.75 116.197 103.445 116.197C104.07 116.197 104.549 116.057 104.881 115.775C105.217 115.49 105.439 114.996 105.549 114.293H106.68ZM111.965 117C111.902 116.875 111.852 116.652 111.812 116.332C111.309 116.855 110.707 117.117 110.008 117.117C109.383 117.117 108.869 116.941 108.467 116.59C108.068 116.234 107.869 115.785 107.869 115.242C107.869 114.582 108.119 114.07 108.619 113.707C109.123 113.34 109.83 113.156 110.74 113.156H111.795V112.658C111.795 112.279 111.682 111.979 111.455 111.756C111.229 111.529 110.895 111.416 110.453 111.416C110.066 111.416 109.742 111.514 109.48 111.709C109.219 111.904 109.088 112.141 109.088 112.418H107.998C107.998 112.102 108.109 111.797 108.332 111.504C108.559 111.207 108.863 110.973 109.246 110.801C109.633 110.629 110.057 110.543 110.518 110.543C111.248 110.543 111.82 110.727 112.234 111.094C112.648 111.457 112.863 111.959 112.879 112.6V115.518C112.879 116.1 112.953 116.562 113.102 116.906V117H111.965ZM110.166 116.174C110.506 116.174 110.828 116.086 111.133 115.91C111.438 115.734 111.658 115.506 111.795 115.225V113.924H110.945C109.617 113.924 108.953 114.312 108.953 115.09C108.953 115.43 109.066 115.695 109.293 115.887C109.52 116.078 109.811 116.174 110.166 116.174ZM116.049 109.125V110.66H117.232V111.498H116.049V115.43C116.049 115.684 116.102 115.875 116.207 116.004C116.312 116.129 116.492 116.191 116.746 116.191C116.871 116.191 117.043 116.168 117.262 116.121V117C116.977 117.078 116.699 117.117 116.43 117.117C115.945 117.117 115.58 116.971 115.334 116.678C115.088 116.385 114.965 115.969 114.965 115.43V111.498H113.811V110.66H114.965V109.125H116.049Z" fill="black"/>
</svg>
