<svg width="180" height="240" viewBox="0 0 180 240" fill="none" xmlns="http://www.w3.org/2000/svg">
<rect width="180" height="240" fill="white"/>
<path d="M53.1787 110.823H50.1729V116H48.4766V103.203H52.7129C54.1543 103.203 55.2617 103.531 56.0352 104.188C56.8145 104.844 57.2041 105.799 57.2041 107.053C57.2041 107.85 56.9873 108.544 56.5537 109.136C56.126 109.728 55.5283 110.17 54.7607 110.463L57.7666 115.895V116H55.9561L53.1787 110.823ZM50.1729 109.443H52.7656C53.6035 109.443 54.2686 109.227 54.7607 108.793C55.2588 108.359 55.5078 107.779 55.5078 107.053C55.5078 106.262 55.2705 105.655 54.7959 105.233C54.3271 104.812 53.6475 104.598 52.7568 104.592H50.1729V109.443ZM65.1934 116C65.0996 115.812 65.0234 115.479 64.9648 114.998C64.209 115.783 63.3066 116.176 62.2578 116.176C61.3203 116.176 60.5498 115.912 59.9463 115.385C59.3486 114.852 59.0498 114.178 59.0498 113.363C59.0498 112.373 59.4248 111.605 60.1748 111.061C60.9307 110.51 61.9912 110.234 63.3564 110.234H64.9385V109.487C64.9385 108.919 64.7686 108.468 64.4287 108.134C64.0889 107.794 63.5879 107.624 62.9258 107.624C62.3457 107.624 61.8594 107.771 61.4668 108.063C61.0742 108.356 60.8779 108.711 60.8779 109.127H59.2432C59.2432 108.652 59.4102 108.195 59.7441 107.756C60.084 107.311 60.541 106.959 61.1152 106.701C61.6953 106.443 62.3311 106.314 63.0225 106.314C64.1182 106.314 64.9766 106.59 65.5977 107.141C66.2188 107.686 66.541 108.438 66.5645 109.399V113.776C66.5645 114.649 66.6758 115.344 66.8984 115.859V116H65.1934ZM62.4951 114.761C63.0049 114.761 63.4883 114.629 63.9453 114.365C64.4023 114.102 64.7334 113.759 64.9385 113.337V111.386H63.6641C61.6719 111.386 60.6758 111.969 60.6758 113.135C60.6758 113.645 60.8457 114.043 61.1855 114.33C61.5254 114.617 61.9619 114.761 62.4951 114.761ZM70.8799 116H69.2539V106.49H70.8799V116ZM69.1221 103.968C69.1221 103.704 69.2012 103.481 69.3594 103.3C69.5234 103.118 69.7637 103.027 70.0801 103.027C70.3965 103.027 70.6367 103.118 70.8008 103.3C70.9648 103.481 71.0469 103.704 71.0469 103.968C71.0469 104.231 70.9648 104.451 70.8008 104.627C70.6367 104.803 70.3965 104.891 70.0801 104.891C69.7637 104.891 69.5234 104.803 69.3594 104.627C69.2012 104.451 69.1221 104.231 69.1221 103.968ZM75.0283 106.49L75.0811 107.686C75.8076 106.771 76.7568 106.314 77.9287 106.314C79.9385 106.314 80.9521 107.448 80.9697 109.716V116H79.3438V109.707C79.3379 109.021 79.1797 108.515 78.8691 108.187C78.5645 107.858 78.0869 107.694 77.4365 107.694C76.9092 107.694 76.4463 107.835 76.0479 108.116C75.6494 108.397 75.3389 108.767 75.1162 109.224V116H73.4902V106.49H75.0283ZM91.4727 111.351C91.4727 112.804 91.1387 113.973 90.4707 114.857C89.8027 115.736 88.9062 116.176 87.7812 116.176C86.5801 116.176 85.6514 115.751 84.9951 114.901L84.916 116H83.4219V102.5H85.0479V107.536C85.7041 106.722 86.6094 106.314 87.7637 106.314C88.918 106.314 89.8232 106.751 90.4795 107.624C91.1416 108.497 91.4727 109.692 91.4727 111.21V111.351ZM89.8467 111.166C89.8467 110.059 89.6328 109.203 89.2051 108.6C88.7773 107.996 88.1621 107.694 87.3594 107.694C86.2871 107.694 85.5166 108.192 85.0479 109.188V113.302C85.5459 114.298 86.3223 114.796 87.377 114.796C88.1562 114.796 88.7627 114.494 89.1963 113.891C89.6299 113.287 89.8467 112.379 89.8467 111.166ZM93.0986 111.157C93.0986 110.226 93.2803 109.388 93.6436 108.644C94.0127 107.899 94.5225 107.325 95.1729 106.921C95.8291 106.517 96.5762 106.314 97.4141 106.314C98.709 106.314 99.7549 106.763 100.552 107.659C101.354 108.556 101.756 109.748 101.756 111.236V111.351C101.756 112.276 101.577 113.108 101.22 113.847C100.868 114.579 100.361 115.15 99.6992 115.561C99.043 115.971 98.2871 116.176 97.4316 116.176C96.1426 116.176 95.0967 115.728 94.2939 114.831C93.4971 113.935 93.0986 112.748 93.0986 111.271V111.157ZM94.7334 111.351C94.7334 112.405 94.9766 113.252 95.4629 113.891C95.9551 114.529 96.6113 114.849 97.4316 114.849C98.2578 114.849 98.9141 114.526 99.4004 113.882C99.8867 113.231 100.13 112.323 100.13 111.157C100.13 110.114 99.8809 109.271 99.3828 108.626C98.8906 107.976 98.2344 107.65 97.4141 107.65C96.6113 107.65 95.9639 107.97 95.4717 108.608C94.9795 109.247 94.7334 110.161 94.7334 111.351ZM112.215 113.759L114.043 106.49H115.669L112.9 116H111.582L109.271 108.793L107.021 116H105.702L102.942 106.49H104.56L106.432 113.609L108.646 106.49H109.956L112.215 113.759ZM53.1787 131.823H50.1729V137H48.4766V124.203H52.7129C54.1543 124.203 55.2617 124.531 56.0352 125.188C56.8145 125.844 57.2041 126.799 57.2041 128.053C57.2041 128.85 56.9873 129.544 56.5537 130.136C56.126 130.728 55.5283 131.17 54.7607 131.463L57.7666 136.895V137H55.9561L53.1787 131.823ZM50.1729 130.443H52.7656C53.6035 130.443 54.2686 130.227 54.7607 129.793C55.2588 129.359 55.5078 128.779 55.5078 128.053C55.5078 127.262 55.2705 126.655 54.7959 126.233C54.3271 125.812 53.6475 125.598 52.7568 125.592H50.1729V130.443ZM65.1934 137C65.0996 136.812 65.0234 136.479 64.9648 135.998C64.209 136.783 63.3066 137.176 62.2578 137.176C61.3203 137.176 60.5498 136.912 59.9463 136.385C59.3486 135.852 59.0498 135.178 59.0498 134.363C59.0498 133.373 59.4248 132.605 60.1748 132.061C60.9307 131.51 61.9912 131.234 63.3564 131.234H64.9385V130.487C64.9385 129.919 64.7686 129.468 64.4287 129.134C64.0889 128.794 63.5879 128.624 62.9258 128.624C62.3457 128.624 61.8594 128.771 61.4668 129.063C61.0742 129.356 60.8779 129.711 60.8779 130.127H59.2432C59.2432 129.652 59.4102 129.195 59.7441 128.756C60.084 128.311 60.541 127.959 61.1152 127.701C61.6953 127.443 62.3311 127.314 63.0225 127.314C64.1182 127.314 64.9766 127.59 65.5977 128.141C66.2188 128.686 66.541 129.438 66.5645 130.399V134.776C66.5645 135.649 66.6758 136.344 66.8984 136.859V137H65.1934ZM62.4951 135.761C63.0049 135.761 63.4883 135.629 63.9453 135.365C64.4023 135.102 64.7334 134.759 64.9385 134.337V132.386H63.6641C61.6719 132.386 60.6758 132.969 60.6758 134.135C60.6758 134.645 60.8457 135.043 61.1855 135.33C61.5254 135.617 61.9619 135.761 62.4951 135.761ZM70.8799 137H69.2539V123.5H70.8799V137ZM81.5234 132.351C81.5234 133.798 81.1924 134.964 80.5303 135.849C79.8682 136.733 78.9717 137.176 77.8408 137.176C76.6865 137.176 75.7783 136.81 75.1162 136.077V140.656H73.4902V127.49H74.9756L75.0547 128.545C75.7168 127.725 76.6367 127.314 77.8145 127.314C78.957 127.314 79.8594 127.745 80.5215 128.606C81.1895 129.468 81.5234 130.666 81.5234 132.201V132.351ZM79.8975 132.166C79.8975 131.094 79.6689 130.247 79.2119 129.626C78.7549 129.005 78.1279 128.694 77.3311 128.694C76.3467 128.694 75.6084 129.131 75.1162 130.004V134.548C75.6025 135.415 76.3467 135.849 77.3486 135.849C78.1279 135.849 78.7461 135.541 79.2031 134.926C79.666 134.305 79.8975 133.385 79.8975 132.166ZM85.2236 128.642C85.9443 127.757 86.8818 127.314 88.0361 127.314C90.0459 127.314 91.0596 128.448 91.0771 130.716V137H89.4512V130.707C89.4453 130.021 89.2871 129.515 88.9766 129.187C88.6719 128.858 88.1943 128.694 87.5439 128.694C87.0166 128.694 86.5537 128.835 86.1553 129.116C85.7568 129.397 85.4463 129.767 85.2236 130.224V137H83.5977V123.5H85.2236V128.642ZM95.2783 137H93.6523V127.49H95.2783V137ZM93.5205 124.968C93.5205 124.704 93.5996 124.481 93.7578 124.3C93.9219 124.118 94.1621 124.027 94.4785 124.027C94.7949 124.027 95.0352 124.118 95.1992 124.3C95.3633 124.481 95.4453 124.704 95.4453 124.968C95.4453 125.231 95.3633 125.451 95.1992 125.627C95.0352 125.803 94.7949 125.891 94.4785 125.891C94.1621 125.891 93.9219 125.803 93.7578 125.627C93.5996 125.451 93.5205 125.231 93.5205 124.968ZM99.4268 127.49L99.4795 128.686C100.206 127.771 101.155 127.314 102.327 127.314C104.337 127.314 105.351 128.448 105.368 130.716V137H103.742V130.707C103.736 130.021 103.578 129.515 103.268 129.187C102.963 128.858 102.485 128.694 101.835 128.694C101.308 128.694 100.845 128.835 100.446 129.116C100.048 129.397 99.7373 129.767 99.5146 130.224V137H97.8887V127.49H99.4268ZM107.434 132.166C107.434 130.684 107.776 129.506 108.462 128.633C109.147 127.754 110.056 127.314 111.187 127.314C112.347 127.314 113.252 127.725 113.902 128.545L113.981 127.49H115.467V136.771C115.467 138.002 115.101 138.972 114.368 139.681C113.642 140.39 112.663 140.744 111.433 140.744C110.747 140.744 110.076 140.598 109.42 140.305C108.764 140.012 108.263 139.61 107.917 139.101L108.761 138.125C109.458 138.986 110.311 139.417 111.318 139.417C112.109 139.417 112.725 139.194 113.164 138.749C113.609 138.304 113.832 137.677 113.832 136.868V136.051C113.182 136.801 112.294 137.176 111.169 137.176C110.056 137.176 109.153 136.728 108.462 135.831C107.776 134.935 107.434 133.713 107.434 132.166ZM109.068 132.351C109.068 133.423 109.288 134.267 109.728 134.882C110.167 135.491 110.782 135.796 111.573 135.796C112.599 135.796 113.352 135.33 113.832 134.398V130.057C113.334 129.148 112.587 128.694 111.591 128.694C110.8 128.694 110.182 129.002 109.736 129.617C109.291 130.232 109.068 131.144 109.068 132.351ZM132.061 132.939C131.902 134.293 131.401 135.339 130.558 136.077C129.72 136.81 128.604 137.176 127.209 137.176C125.697 137.176 124.484 136.634 123.57 135.55C122.662 134.466 122.208 133.016 122.208 131.199V129.969C122.208 128.779 122.419 127.733 122.841 126.831C123.269 125.929 123.872 125.237 124.651 124.757C125.431 124.271 126.333 124.027 127.358 124.027C128.718 124.027 129.808 124.408 130.628 125.17C131.448 125.926 131.926 126.975 132.061 128.316H130.364C130.218 127.297 129.898 126.559 129.406 126.102C128.92 125.645 128.237 125.416 127.358 125.416C126.28 125.416 125.434 125.814 124.818 126.611C124.209 127.408 123.904 128.542 123.904 130.013V131.252C123.904 132.641 124.194 133.745 124.774 134.565C125.354 135.386 126.166 135.796 127.209 135.796C128.146 135.796 128.864 135.585 129.362 135.163C129.866 134.735 130.2 133.994 130.364 132.939H132.061ZM139.988 137C139.895 136.812 139.818 136.479 139.76 135.998C139.004 136.783 138.102 137.176 137.053 137.176C136.115 137.176 135.345 136.912 134.741 136.385C134.144 135.852 133.845 135.178 133.845 134.363C133.845 133.373 134.22 132.605 134.97 132.061C135.726 131.51 136.786 131.234 138.151 131.234H139.733V130.487C139.733 129.919 139.563 129.468 139.224 129.134C138.884 128.794 138.383 128.624 137.721 128.624C137.141 128.624 136.654 128.771 136.262 129.063C135.869 129.356 135.673 129.711 135.673 130.127H134.038C134.038 129.652 134.205 129.195 134.539 128.756C134.879 128.311 135.336 127.959 135.91 127.701C136.49 127.443 137.126 127.314 137.817 127.314C138.913 127.314 139.771 127.59 140.393 128.141C141.014 128.686 141.336 129.438 141.359 130.399V134.776C141.359 135.649 141.471 136.344 141.693 136.859V137H139.988ZM137.29 135.761C137.8 135.761 138.283 135.629 138.74 135.365C139.197 135.102 139.528 134.759 139.733 134.337V132.386H138.459C136.467 132.386 135.471 132.969 135.471 134.135C135.471 134.645 135.641 135.043 135.98 135.33C136.32 135.617 136.757 135.761 137.29 135.761ZM146.114 125.188V127.49H147.89V128.747H146.114V134.645C146.114 135.025 146.193 135.312 146.352 135.506C146.51 135.693 146.779 135.787 147.16 135.787C147.348 135.787 147.605 135.752 147.934 135.682V137C147.506 137.117 147.09 137.176 146.686 137.176C145.959 137.176 145.411 136.956 145.042 136.517C144.673 136.077 144.488 135.453 144.488 134.645V128.747H142.757V127.49H144.488V125.188H146.114Z" fill="black"/>
</svg>
