<svg width="180" height="240" viewBox="0 0 180 240" fill="none" xmlns="http://www.w3.org/2000/svg">
<rect width="180" height="240" fill="white"/>
<path d="M35.1191 116.549H33.1152V120H31.9844V111.469H34.8086C35.7695 111.469 36.5078 111.688 37.0234 112.125C37.543 112.562 37.8027 113.199 37.8027 114.035C37.8027 114.566 37.6582 115.029 37.3691 115.424C37.084 115.818 36.6855 116.113 36.1738 116.309L38.1777 119.93V120H36.9707L35.1191 116.549ZM33.1152 115.629H34.8438C35.4023 115.629 35.8457 115.484 36.1738 115.195C36.5059 114.906 36.6719 114.52 36.6719 114.035C36.6719 113.508 36.5137 113.104 36.1973 112.822C35.8848 112.541 35.4316 112.398 34.8379 112.395H33.1152V115.629ZM43.1289 120C43.0664 119.875 43.0156 119.652 42.9766 119.332C42.4727 119.855 41.8711 120.117 41.1719 120.117C40.5469 120.117 40.0332 119.941 39.6309 119.59C39.2324 119.234 39.0332 118.785 39.0332 118.242C39.0332 117.582 39.2832 117.07 39.7832 116.707C40.2871 116.34 40.9941 116.156 41.9043 116.156H42.959V115.658C42.959 115.279 42.8457 114.979 42.6191 114.756C42.3926 114.529 42.0586 114.416 41.6172 114.416C41.2305 114.416 40.9062 114.514 40.6445 114.709C40.3828 114.904 40.252 115.141 40.252 115.418H39.1621C39.1621 115.102 39.2734 114.797 39.4961 114.504C39.7227 114.207 40.0273 113.973 40.4102 113.801C40.7969 113.629 41.2207 113.543 41.6816 113.543C42.4121 113.543 42.9844 113.727 43.3984 114.094C43.8125 114.457 44.0273 114.959 44.043 115.6V118.518C44.043 119.1 44.1172 119.562 44.2656 119.906V120H43.1289ZM41.3301 119.174C41.6699 119.174 41.9922 119.086 42.2969 118.91C42.6016 118.734 42.8223 118.506 42.959 118.225V116.924H42.1094C40.7812 116.924 40.1172 117.312 40.1172 118.09C40.1172 118.43 40.2305 118.695 40.457 118.887C40.6836 119.078 40.9746 119.174 41.3301 119.174ZM46.9199 120H45.8359V113.66H46.9199V120ZM45.748 111.979C45.748 111.803 45.8008 111.654 45.9062 111.533C46.0156 111.412 46.1758 111.352 46.3867 111.352C46.5977 111.352 46.7578 111.412 46.8672 111.533C46.9766 111.654 47.0312 111.803 47.0312 111.979C47.0312 112.154 46.9766 112.301 46.8672 112.418C46.7578 112.535 46.5977 112.594 46.3867 112.594C46.1758 112.594 46.0156 112.535 45.9062 112.418C45.8008 112.301 45.748 112.154 45.748 111.979ZM49.6855 113.66L49.7207 114.457C50.2051 113.848 50.8379 113.543 51.6191 113.543C52.959 113.543 53.6348 114.299 53.6465 115.811V120H52.5625V115.805C52.5586 115.348 52.4531 115.01 52.2461 114.791C52.043 114.572 51.7246 114.463 51.291 114.463C50.9395 114.463 50.6309 114.557 50.3652 114.744C50.0996 114.932 49.8926 115.178 49.7441 115.482V120H48.6602V113.66H49.6855ZM60.6484 116.9C60.6484 117.869 60.4258 118.648 59.9805 119.238C59.5352 119.824 58.9375 120.117 58.1875 120.117C57.3867 120.117 56.7676 119.834 56.3301 119.268L56.2773 120H55.2812V111H56.3652V114.357C56.8027 113.814 57.4062 113.543 58.1758 113.543C58.9453 113.543 59.5488 113.834 59.9863 114.416C60.4277 114.998 60.6484 115.795 60.6484 116.807V116.9ZM59.5645 116.777C59.5645 116.039 59.4219 115.469 59.1367 115.066C58.8516 114.664 58.4414 114.463 57.9062 114.463C57.1914 114.463 56.6777 114.795 56.3652 115.459V118.201C56.6973 118.865 57.2148 119.197 57.918 119.197C58.4375 119.197 58.8418 118.996 59.1309 118.594C59.4199 118.191 59.5645 117.586 59.5645 116.777ZM61.7324 116.771C61.7324 116.15 61.8535 115.592 62.0957 115.096C62.3418 114.6 62.6816 114.217 63.1152 113.947C63.5527 113.678 64.0508 113.543 64.6094 113.543C65.4727 113.543 66.1699 113.842 66.7012 114.439C67.2363 115.037 67.5039 115.832 67.5039 116.824V116.9C67.5039 117.518 67.3848 118.072 67.1465 118.564C66.9121 119.053 66.5742 119.434 66.1328 119.707C65.6953 119.98 65.1914 120.117 64.6211 120.117C63.7617 120.117 63.0645 119.818 62.5293 119.221C61.998 118.623 61.7324 117.832 61.7324 116.848V116.771ZM62.8223 116.9C62.8223 117.604 62.9844 118.168 63.3086 118.594C63.6367 119.02 64.0742 119.232 64.6211 119.232C65.1719 119.232 65.6094 119.018 65.9336 118.588C66.2578 118.154 66.4199 117.549 66.4199 116.771C66.4199 116.076 66.2539 115.514 65.9219 115.084C65.5938 114.65 65.1562 114.434 64.6094 114.434C64.0742 114.434 63.6426 114.646 63.3145 115.072C62.9863 115.498 62.8223 116.107 62.8223 116.9ZM74.4766 118.506L75.6953 113.66H76.7793L74.9336 120H74.0547L72.5137 115.195L71.0137 120H70.1348L68.2949 113.66H69.373L70.6211 118.406L72.0977 113.66H72.9707L74.4766 118.506ZM84.1621 116.549H82.1582V120H81.0273V111.469H83.8516C84.8125 111.469 85.5508 111.688 86.0664 112.125C86.5859 112.562 86.8457 113.199 86.8457 114.035C86.8457 114.566 86.7012 115.029 86.4121 115.424C86.127 115.818 85.7285 116.113 85.2168 116.309L87.2207 119.93V120H86.0137L84.1621 116.549ZM82.1582 115.629H83.8867C84.4453 115.629 84.8887 115.484 85.2168 115.195C85.5488 114.906 85.7148 114.52 85.7148 114.035C85.7148 113.508 85.5566 113.104 85.2402 112.822C84.9277 112.541 84.4746 112.398 83.8809 112.395H82.1582V115.629ZM92.1719 120C92.1094 119.875 92.0586 119.652 92.0195 119.332C91.5156 119.855 90.9141 120.117 90.2148 120.117C89.5898 120.117 89.0762 119.941 88.6738 119.59C88.2754 119.234 88.0762 118.785 88.0762 118.242C88.0762 117.582 88.3262 117.07 88.8262 116.707C89.3301 116.34 90.0371 116.156 90.9473 116.156H92.002V115.658C92.002 115.279 91.8887 114.979 91.6621 114.756C91.4355 114.529 91.1016 114.416 90.6602 114.416C90.2734 114.416 89.9492 114.514 89.6875 114.709C89.4258 114.904 89.2949 115.141 89.2949 115.418H88.2051C88.2051 115.102 88.3164 114.797 88.5391 114.504C88.7656 114.207 89.0703 113.973 89.4531 113.801C89.8398 113.629 90.2637 113.543 90.7246 113.543C91.4551 113.543 92.0273 113.727 92.4414 114.094C92.8555 114.457 93.0703 114.959 93.0859 115.6V118.518C93.0859 119.1 93.1602 119.562 93.3086 119.906V120H92.1719ZM90.373 119.174C90.7129 119.174 91.0352 119.086 91.3398 118.91C91.6445 118.734 91.8652 118.506 92.002 118.225V116.924H91.1523C89.8242 116.924 89.1602 117.312 89.1602 118.09C89.1602 118.43 89.2734 118.695 89.5 118.887C89.7266 119.078 90.0176 119.174 90.373 119.174ZM95.9629 120H94.8789V111H95.9629V120ZM103.059 116.9C103.059 117.865 102.838 118.643 102.396 119.232C101.955 119.822 101.357 120.117 100.604 120.117C99.834 120.117 99.2285 119.873 98.7871 119.385V122.438H97.7031V113.66H98.6934L98.7461 114.363C99.1875 113.816 99.8008 113.543 100.586 113.543C101.348 113.543 101.949 113.83 102.391 114.404C102.836 114.979 103.059 115.777 103.059 116.801V116.9ZM101.975 116.777C101.975 116.062 101.822 115.498 101.518 115.084C101.213 114.67 100.795 114.463 100.264 114.463C99.6074 114.463 99.1152 114.754 98.7871 115.336V118.365C99.1113 118.943 99.6074 119.232 100.275 119.232C100.795 119.232 101.207 119.027 101.512 118.617C101.82 118.203 101.975 117.59 101.975 116.777ZM105.525 114.428C106.006 113.838 106.631 113.543 107.4 113.543C108.74 113.543 109.416 114.299 109.428 115.811V120H108.344V115.805C108.34 115.348 108.234 115.01 108.027 114.791C107.824 114.572 107.506 114.463 107.072 114.463C106.721 114.463 106.412 114.557 106.146 114.744C105.881 114.932 105.674 115.178 105.525 115.482V120H104.441V111H105.525V114.428ZM112.229 120H111.145V113.66H112.229V120ZM111.057 111.979C111.057 111.803 111.109 111.654 111.215 111.533C111.324 111.412 111.484 111.352 111.695 111.352C111.906 111.352 112.066 111.412 112.176 111.533C112.285 111.654 112.34 111.803 112.34 111.979C112.34 112.154 112.285 112.301 112.176 112.418C112.066 112.535 111.906 112.594 111.695 112.594C111.484 112.594 111.324 112.535 111.215 112.418C111.109 112.301 111.057 112.154 111.057 111.979ZM114.994 113.66L115.029 114.457C115.514 113.848 116.146 113.543 116.928 113.543C118.268 113.543 118.943 114.299 118.955 115.811V120H117.871V115.805C117.867 115.348 117.762 115.01 117.555 114.791C117.352 114.572 117.033 114.463 116.6 114.463C116.248 114.463 115.939 114.557 115.674 114.744C115.408 114.932 115.201 115.178 115.053 115.482V120H113.969V113.66H114.994ZM120.332 116.777C120.332 115.789 120.561 115.004 121.018 114.422C121.475 113.836 122.08 113.543 122.834 113.543C123.607 113.543 124.211 113.816 124.645 114.363L124.697 113.66H125.688V119.848C125.688 120.668 125.443 121.314 124.955 121.787C124.471 122.26 123.818 122.496 122.998 122.496C122.541 122.496 122.094 122.398 121.656 122.203C121.219 122.008 120.885 121.74 120.654 121.4L121.217 120.75C121.682 121.324 122.25 121.611 122.922 121.611C123.449 121.611 123.859 121.463 124.152 121.166C124.449 120.869 124.598 120.451 124.598 119.912V119.367C124.164 119.867 123.572 120.117 122.822 120.117C122.08 120.117 121.479 119.818 121.018 119.221C120.561 118.623 120.332 117.809 120.332 116.777ZM121.422 116.9C121.422 117.615 121.568 118.178 121.861 118.588C122.154 118.994 122.564 119.197 123.092 119.197C123.775 119.197 124.277 118.887 124.598 118.266V115.371C124.266 114.766 123.768 114.463 123.104 114.463C122.576 114.463 122.164 114.668 121.867 115.078C121.57 115.488 121.422 116.096 121.422 116.9ZM136.75 117.293C136.645 118.195 136.311 118.893 135.748 119.385C135.189 119.873 134.445 120.117 133.516 120.117C132.508 120.117 131.699 119.756 131.09 119.033C130.484 118.311 130.182 117.344 130.182 116.133V115.312C130.182 114.52 130.322 113.822 130.604 113.221C130.889 112.619 131.291 112.158 131.811 111.838C132.33 111.514 132.932 111.352 133.615 111.352C134.521 111.352 135.248 111.605 135.795 112.113C136.342 112.617 136.66 113.316 136.75 114.211H135.619C135.521 113.531 135.309 113.039 134.98 112.734C134.656 112.43 134.201 112.277 133.615 112.277C132.896 112.277 132.332 112.543 131.922 113.074C131.516 113.605 131.312 114.361 131.312 115.342V116.168C131.312 117.094 131.506 117.83 131.893 118.377C132.279 118.924 132.82 119.197 133.516 119.197C134.141 119.197 134.619 119.057 134.951 118.775C135.287 118.49 135.51 117.996 135.619 117.293H136.75ZM142.035 120C141.973 119.875 141.922 119.652 141.883 119.332C141.379 119.855 140.777 120.117 140.078 120.117C139.453 120.117 138.939 119.941 138.537 119.59C138.139 119.234 137.939 118.785 137.939 118.242C137.939 117.582 138.189 117.07 138.689 116.707C139.193 116.34 139.9 116.156 140.811 116.156H141.865V115.658C141.865 115.279 141.752 114.979 141.525 114.756C141.299 114.529 140.965 114.416 140.523 114.416C140.137 114.416 139.812 114.514 139.551 114.709C139.289 114.904 139.158 115.141 139.158 115.418H138.068C138.068 115.102 138.18 114.797 138.402 114.504C138.629 114.207 138.934 113.973 139.316 113.801C139.703 113.629 140.127 113.543 140.588 113.543C141.318 113.543 141.891 113.727 142.305 114.094C142.719 114.457 142.934 114.959 142.949 115.6V118.518C142.949 119.1 143.023 119.562 143.172 119.906V120H142.035ZM140.236 119.174C140.576 119.174 140.898 119.086 141.203 118.91C141.508 118.734 141.729 118.506 141.865 118.225V116.924H141.016C139.688 116.924 139.023 117.312 139.023 118.09C139.023 118.43 139.137 118.695 139.363 118.887C139.59 119.078 139.881 119.174 140.236 119.174ZM146.119 112.125V113.66H147.303V114.498H146.119V118.43C146.119 118.684 146.172 118.875 146.277 119.004C146.383 119.129 146.562 119.191 146.816 119.191C146.941 119.191 147.113 119.168 147.332 119.121V120C147.047 120.078 146.77 120.117 146.5 120.117C146.016 120.117 145.65 119.971 145.404 119.678C145.158 119.385 145.035 118.969 145.035 118.43V114.498H143.881V113.66H145.035V112.125H146.119Z" fill="black"/>
</svg>
