<svg width="180" height="240" viewBox="0 0 180 240" fill="none" xmlns="http://www.w3.org/2000/svg">
<rect width="180" height="240" fill="white"/>
<path d="M35.2559 121.296C33.8086 120.88 32.7539 120.37 32.0918 119.767C31.4355 119.157 31.1074 118.407 31.1074 117.517C31.1074 116.509 31.5088 115.677 32.3115 115.021C33.1201 114.358 34.1689 114.027 35.458 114.027C36.3369 114.027 37.1191 114.197 37.8047 114.537C38.4961 114.877 39.0293 115.346 39.4043 115.943C39.7852 116.541 39.9756 117.194 39.9756 117.903H38.2793C38.2793 117.13 38.0332 116.523 37.541 116.084C37.0488 115.639 36.3545 115.416 35.458 115.416C34.626 115.416 33.9756 115.601 33.5068 115.97C33.0439 116.333 32.8125 116.84 32.8125 117.49C32.8125 118.012 33.0322 118.454 33.4717 118.817C33.917 119.175 34.6699 119.503 35.7305 119.802C36.7969 120.101 37.6289 120.432 38.2266 120.795C38.8301 121.152 39.2754 121.571 39.5625 122.052C39.8555 122.532 40.002 123.098 40.002 123.748C40.002 124.785 39.5977 125.617 38.7891 126.244C37.9805 126.865 36.8994 127.176 35.5459 127.176C34.667 127.176 33.8467 127.009 33.085 126.675C32.3232 126.335 31.7344 125.872 31.3184 125.286C30.9082 124.7 30.7031 124.035 30.7031 123.291H32.3994C32.3994 124.064 32.6836 124.677 33.252 125.128C33.8262 125.573 34.5908 125.796 35.5459 125.796C36.4365 125.796 37.1191 125.614 37.5938 125.251C38.0684 124.888 38.3057 124.393 38.3057 123.766C38.3057 123.139 38.0859 122.655 37.6465 122.315C37.207 121.97 36.4102 121.63 35.2559 121.296ZM45.8643 127.176C44.5752 127.176 43.5264 126.754 42.7178 125.91C41.9092 125.061 41.5049 123.927 41.5049 122.509V122.21C41.5049 121.267 41.6836 120.426 42.041 119.688C42.4043 118.943 42.9082 118.363 43.5527 117.947C44.2031 117.525 44.9062 117.314 45.6621 117.314C46.8984 117.314 47.8594 117.722 48.5449 118.536C49.2305 119.351 49.5732 120.517 49.5732 122.034V122.711H43.1309C43.1543 123.648 43.4268 124.407 43.9482 124.987C44.4756 125.562 45.1436 125.849 45.9521 125.849C46.5264 125.849 47.0127 125.731 47.4111 125.497C47.8096 125.263 48.1582 124.952 48.457 124.565L49.4502 125.339C48.6533 126.563 47.458 127.176 45.8643 127.176ZM45.6621 118.65C45.0059 118.65 44.4551 118.891 44.0098 119.371C43.5645 119.846 43.2891 120.514 43.1836 121.375H47.9473V121.252C47.9004 120.426 47.6777 119.787 47.2793 119.336C46.8809 118.879 46.3418 118.65 45.6621 118.65ZM55.4092 127.176C54.1201 127.176 53.0713 126.754 52.2627 125.91C51.4541 125.061 51.0498 123.927 51.0498 122.509V122.21C51.0498 121.267 51.2285 120.426 51.5859 119.688C51.9492 118.943 52.4531 118.363 53.0977 117.947C53.748 117.525 54.4512 117.314 55.207 117.314C56.4434 117.314 57.4043 117.722 58.0898 118.536C58.7754 119.351 59.1182 120.517 59.1182 122.034V122.711H52.6758C52.6992 123.648 52.9717 124.407 53.4932 124.987C54.0205 125.562 54.6885 125.849 55.4971 125.849C56.0713 125.849 56.5576 125.731 56.9561 125.497C57.3545 125.263 57.7031 124.952 58.002 124.565L58.9951 125.339C58.1982 126.563 57.0029 127.176 55.4092 127.176ZM55.207 118.65C54.5508 118.65 54 118.891 53.5547 119.371C53.1094 119.846 52.834 120.514 52.7285 121.375H57.4922V121.252C57.4453 120.426 57.2227 119.787 56.8242 119.336C56.4258 118.879 55.8867 118.65 55.207 118.65ZM74.2178 115.592H70.1045V127H68.4258V115.592H64.3213V114.203H74.2178V115.592ZM77.4873 118.642C78.208 117.757 79.1455 117.314 80.2998 117.314C82.3096 117.314 83.3232 118.448 83.3408 120.716V127H81.7148V120.707C81.709 120.021 81.5508 119.515 81.2402 119.187C80.9355 118.858 80.458 118.694 79.8076 118.694C79.2803 118.694 78.8174 118.835 78.4189 119.116C78.0205 119.397 77.71 119.767 77.4873 120.224V127H75.8613V113.5H77.4873V118.642ZM89.7217 127.176C88.4326 127.176 87.3838 126.754 86.5752 125.91C85.7666 125.061 85.3623 123.927 85.3623 122.509V122.21C85.3623 121.267 85.541 120.426 85.8984 119.688C86.2617 118.943 86.7656 118.363 87.4102 117.947C88.0605 117.525 88.7637 117.314 89.5195 117.314C90.7559 117.314 91.7168 117.722 92.4023 118.536C93.0879 119.351 93.4307 120.517 93.4307 122.034V122.711H86.9883C87.0117 123.648 87.2842 124.407 87.8057 124.987C88.333 125.562 89.001 125.849 89.8096 125.849C90.3838 125.849 90.8701 125.731 91.2686 125.497C91.667 125.263 92.0156 124.952 92.3145 124.565L93.3076 125.339C92.5107 126.563 91.3154 127.176 89.7217 127.176ZM89.5195 118.65C88.8633 118.65 88.3125 118.891 87.8672 119.371C87.4219 119.846 87.1465 120.514 87.041 121.375H91.8047V121.252C91.7578 120.426 91.5352 119.787 91.1367 119.336C90.7383 118.879 90.1992 118.65 89.5195 118.65ZM107.098 121.349H101.728V127H100.04V114.203H107.968V115.592H101.728V119.969H107.098V121.349ZM115.412 126.06C114.779 126.804 113.851 127.176 112.626 127.176C111.612 127.176 110.839 126.883 110.306 126.297C109.778 125.705 109.512 124.832 109.506 123.678V117.49H111.132V123.634C111.132 125.075 111.718 125.796 112.89 125.796C114.132 125.796 114.958 125.333 115.368 124.407V117.49H116.994V127H115.447L115.412 126.06ZM121.679 115.188V117.49H123.454V118.747H121.679V124.645C121.679 125.025 121.758 125.312 121.916 125.506C122.074 125.693 122.344 125.787 122.725 125.787C122.912 125.787 123.17 125.752 123.498 125.682V127C123.07 127.117 122.654 127.176 122.25 127.176C121.523 127.176 120.976 126.956 120.606 126.517C120.237 126.077 120.053 125.453 120.053 124.645V118.747H118.321V117.49H120.053V115.188H121.679ZM131.232 126.06C130.6 126.804 129.671 127.176 128.446 127.176C127.433 127.176 126.659 126.883 126.126 126.297C125.599 125.705 125.332 124.832 125.326 123.678V117.49H126.952V123.634C126.952 125.075 127.538 125.796 128.71 125.796C129.952 125.796 130.778 125.333 131.188 124.407V117.49H132.814V127H131.268L131.232 126.06ZM139.89 118.949C139.644 118.908 139.377 118.888 139.09 118.888C138.023 118.888 137.3 119.342 136.919 120.25V127H135.293V117.49H136.875L136.901 118.589C137.435 117.739 138.19 117.314 139.169 117.314C139.485 117.314 139.726 117.355 139.89 117.438V118.949ZM145.163 127.176C143.874 127.176 142.825 126.754 142.017 125.91C141.208 125.061 140.804 123.927 140.804 122.509V122.21C140.804 121.267 140.982 120.426 141.34 119.688C141.703 118.943 142.207 118.363 142.852 117.947C143.502 117.525 144.205 117.314 144.961 117.314C146.197 117.314 147.158 117.722 147.844 118.536C148.529 119.351 148.872 120.517 148.872 122.034V122.711H142.43C142.453 123.648 142.726 124.407 143.247 124.987C143.774 125.562 144.442 125.849 145.251 125.849C145.825 125.849 146.312 125.731 146.71 125.497C147.108 125.263 147.457 124.952 147.756 124.565L148.749 125.339C147.952 126.563 146.757 127.176 145.163 127.176ZM144.961 118.65C144.305 118.65 143.754 118.891 143.309 119.371C142.863 119.846 142.588 120.514 142.482 121.375H147.246V121.252C147.199 120.426 146.977 119.787 146.578 119.336C146.18 118.879 145.641 118.65 144.961 118.65Z" fill="black"/>
</svg>
