<svg width="240" height="300" viewBox="0 0 240 300" fill="none" xmlns="http://www.w3.org/2000/svg">
<rect width="240" height="300" fill="#FF00A5"/>
<rect x="156.358" y="44.5827" width="79" height="114" transform="rotate(10.5 156.358 44.5827)" fill="white" stroke="black"/>
<path d="M41.5918 250.761C39.5013 250.16 37.9779 249.424 37.0215 248.552C36.0736 247.672 35.5996 246.588 35.5996 245.302C35.5996 243.846 36.1794 242.644 37.3389 241.696C38.5068 240.74 40.0218 240.262 41.8838 240.262C43.1533 240.262 44.2832 240.507 45.2734 240.998C46.2721 241.489 47.0423 242.166 47.584 243.029C48.1341 243.893 48.4092 244.836 48.4092 245.86H45.959C45.959 244.743 45.6035 243.867 44.8926 243.232C44.1816 242.589 43.1787 242.268 41.8838 242.268C40.682 242.268 39.7425 242.534 39.0654 243.067C38.3968 243.592 38.0625 244.324 38.0625 245.264C38.0625 246.017 38.3799 246.656 39.0146 247.181C39.6579 247.697 40.7454 248.171 42.2773 248.603C43.8177 249.034 45.0195 249.512 45.8828 250.037C46.7546 250.553 47.3978 251.159 47.8125 251.853C48.2357 252.547 48.4473 253.363 48.4473 254.303C48.4473 255.801 47.8633 257.003 46.6953 257.908C45.5273 258.805 43.9658 259.254 42.0107 259.254C40.7412 259.254 39.5563 259.013 38.4561 258.53C37.3558 258.039 36.5052 257.371 35.9043 256.524C35.3118 255.678 35.0156 254.717 35.0156 253.643H37.4658C37.4658 254.76 37.8763 255.644 38.6973 256.296C39.5267 256.939 40.6312 257.261 42.0107 257.261C43.2972 257.261 44.2832 256.998 44.9688 256.474C45.6543 255.949 45.9971 255.234 45.9971 254.328C45.9971 253.423 45.6797 252.724 45.0449 252.233C44.4102 251.734 43.2591 251.243 41.5918 250.761ZM56.915 259.254C55.0531 259.254 53.5381 258.645 52.3701 257.426C51.2021 256.199 50.6182 254.561 50.6182 252.513V252.081C50.6182 250.718 50.8763 249.504 51.3926 248.438C51.9173 247.363 52.6452 246.525 53.5762 245.924C54.5156 245.314 55.5312 245.01 56.623 245.01C58.4089 245.01 59.7969 245.598 60.7871 246.774C61.7773 247.951 62.2725 249.635 62.2725 251.827V252.805H52.9668C53.0007 254.159 53.3942 255.255 54.1475 256.093C54.9092 256.922 55.874 257.337 57.042 257.337C57.8714 257.337 58.5739 257.168 59.1494 256.829C59.7249 256.491 60.2285 256.042 60.6602 255.483L62.0947 256.601C60.9437 258.369 59.2171 259.254 56.915 259.254ZM56.623 246.939C55.6751 246.939 54.8796 247.286 54.2363 247.98C53.5931 248.666 53.1953 249.631 53.043 250.875H59.9238V250.697C59.8561 249.504 59.5345 248.581 58.959 247.93C58.3835 247.27 57.6048 246.939 56.623 246.939ZM70.7021 259.254C68.8402 259.254 67.3252 258.645 66.1572 257.426C64.9893 256.199 64.4053 254.561 64.4053 252.513V252.081C64.4053 250.718 64.6634 249.504 65.1797 248.438C65.7044 247.363 66.4323 246.525 67.3633 245.924C68.3027 245.314 69.3184 245.01 70.4102 245.01C72.196 245.01 73.584 245.598 74.5742 246.774C75.5645 247.951 76.0596 249.635 76.0596 251.827V252.805H66.7539C66.7878 254.159 67.1813 255.255 67.9346 256.093C68.6963 256.922 69.6611 257.337 70.8291 257.337C71.6585 257.337 72.361 257.168 72.9365 256.829C73.512 256.491 74.0156 256.042 74.4473 255.483L75.8818 256.601C74.7308 258.369 73.0042 259.254 70.7021 259.254ZM70.4102 246.939C69.4622 246.939 68.6667 247.286 68.0234 247.98C67.3802 248.666 66.9824 249.631 66.8301 250.875H73.7109V250.697C73.6432 249.504 73.3216 248.581 72.7461 247.93C72.1706 247.27 71.3919 246.939 70.4102 246.939ZM97.8701 242.521H91.9287V259H89.5039V242.521H83.5752V240.516H97.8701V242.521ZM102.593 246.927C103.634 245.649 104.988 245.01 106.655 245.01C109.558 245.01 111.022 246.647 111.048 249.923V259H108.699V249.91C108.691 248.92 108.462 248.188 108.014 247.714C107.574 247.24 106.884 247.003 105.944 247.003C105.183 247.003 104.514 247.206 103.938 247.612C103.363 248.019 102.914 248.552 102.593 249.212V259H100.244V239.5H102.593V246.927ZM120.265 259.254C118.403 259.254 116.888 258.645 115.72 257.426C114.552 256.199 113.968 254.561 113.968 252.513V252.081C113.968 250.718 114.226 249.504 114.742 248.438C115.267 247.363 115.995 246.525 116.926 245.924C117.865 245.314 118.881 245.01 119.973 245.01C121.758 245.01 123.146 245.598 124.137 246.774C125.127 247.951 125.622 249.635 125.622 251.827V252.805H116.316C116.35 254.159 116.744 255.255 117.497 256.093C118.259 256.922 119.224 257.337 120.392 257.337C121.221 257.337 121.924 257.168 122.499 256.829C123.075 256.491 123.578 256.042 124.01 255.483L125.444 256.601C124.293 258.369 122.567 259.254 120.265 259.254ZM119.973 246.939C119.025 246.939 118.229 247.286 117.586 247.98C116.943 248.666 116.545 249.631 116.393 250.875H123.273V250.697C123.206 249.504 122.884 248.581 122.309 247.93C121.733 247.27 120.954 246.939 119.973 246.939ZM145.363 250.837H137.606V259H135.169V240.516H146.62V242.521H137.606V248.844H145.363V250.837ZM157.373 257.642C156.459 258.716 155.118 259.254 153.349 259.254C151.884 259.254 150.767 258.831 149.997 257.984C149.235 257.13 148.85 255.868 148.842 254.201V245.264H151.19V254.138C151.19 256.22 152.037 257.261 153.729 257.261C155.524 257.261 156.717 256.592 157.31 255.255V245.264H159.658V259H157.424L157.373 257.642ZM166.425 241.938V245.264H168.989V247.079H166.425V255.598C166.425 256.148 166.539 256.562 166.768 256.842C166.996 257.113 167.385 257.248 167.936 257.248C168.206 257.248 168.579 257.197 169.053 257.096V259C168.435 259.169 167.834 259.254 167.25 259.254C166.201 259.254 165.409 258.937 164.876 258.302C164.343 257.667 164.076 256.766 164.076 255.598V247.079H161.575V245.264H164.076V241.938H166.425ZM180.225 257.642C179.311 258.716 177.969 259.254 176.2 259.254C174.736 259.254 173.619 258.831 172.849 257.984C172.087 257.13 171.702 255.868 171.693 254.201V245.264H174.042V254.138C174.042 256.22 174.888 257.261 176.581 257.261C178.375 257.261 179.569 256.592 180.161 255.255V245.264H182.51V259H180.275L180.225 257.642ZM192.729 247.371C192.374 247.312 191.989 247.282 191.574 247.282C190.034 247.282 188.989 247.938 188.438 249.25V259H186.09V245.264H188.375L188.413 246.851C189.183 245.623 190.275 245.01 191.688 245.01C192.146 245.01 192.493 245.069 192.729 245.188V247.371ZM200.347 259.254C198.485 259.254 196.97 258.645 195.802 257.426C194.634 256.199 194.05 254.561 194.05 252.513V252.081C194.05 250.718 194.308 249.504 194.824 248.438C195.349 247.363 196.077 246.525 197.008 245.924C197.947 245.314 198.963 245.01 200.055 245.01C201.84 245.01 203.229 245.598 204.219 246.774C205.209 247.951 205.704 249.635 205.704 251.827V252.805H196.398C196.432 254.159 196.826 255.255 197.579 256.093C198.341 256.922 199.306 257.337 200.474 257.337C201.303 257.337 202.006 257.168 202.581 256.829C203.157 256.491 203.66 256.042 204.092 255.483L205.526 256.601C204.375 258.369 202.649 259.254 200.347 259.254ZM200.055 246.939C199.107 246.939 198.311 247.286 197.668 247.98C197.025 248.666 196.627 249.631 196.475 250.875H203.355V250.697C203.288 249.504 202.966 248.581 202.391 247.93C201.815 247.27 201.036 246.939 200.055 246.939Z" fill="white"/>
<rect x="85.5" y="44.5" width="79" height="114" fill="white" stroke="black"/>
<path d="M107.552 72.6602H102.19L100.986 76H99.2461L104.133 63.2031H105.609L110.505 76H108.773L107.552 72.6602ZM102.7 71.2715H107.051L104.871 65.2861L102.7 71.2715ZM114.021 64.1875V66.4902H115.796V67.7471H114.021V73.6445C114.021 74.0254 114.1 74.3125 114.258 74.5059C114.416 74.6934 114.686 74.7871 115.066 74.7871C115.254 74.7871 115.512 74.752 115.84 74.6816V76C115.412 76.1172 114.996 76.1758 114.592 76.1758C113.865 76.1758 113.317 75.9561 112.948 75.5166C112.579 75.0771 112.395 74.4531 112.395 73.6445V67.7471H110.663V66.4902H112.395V64.1875H114.021ZM119.909 64.1875V66.4902H121.685V67.7471H119.909V73.6445C119.909 74.0254 119.988 74.3125 120.146 74.5059C120.305 74.6934 120.574 74.7871 120.955 74.7871C121.143 74.7871 121.4 74.752 121.729 74.6816V76C121.301 76.1172 120.885 76.1758 120.48 76.1758C119.754 76.1758 119.206 75.9561 118.837 75.5166C118.468 75.0771 118.283 74.4531 118.283 73.6445V67.7471H116.552V66.4902H118.283V64.1875H119.909ZM129.463 76C129.369 75.8125 129.293 75.4785 129.234 74.998C128.479 75.7832 127.576 76.1758 126.527 76.1758C125.59 76.1758 124.819 75.9121 124.216 75.3848C123.618 74.8516 123.319 74.1777 123.319 73.3633C123.319 72.373 123.694 71.6055 124.444 71.0605C125.2 70.5098 126.261 70.2344 127.626 70.2344H129.208V69.4873C129.208 68.9189 129.038 68.4678 128.698 68.1338C128.358 67.7939 127.857 67.624 127.195 67.624C126.615 67.624 126.129 67.7705 125.736 68.0635C125.344 68.3564 125.147 68.7109 125.147 69.127H123.513C123.513 68.6523 123.68 68.1953 124.014 67.7559C124.354 67.3105 124.811 66.959 125.385 66.7012C125.965 66.4434 126.601 66.3145 127.292 66.3145C128.388 66.3145 129.246 66.5898 129.867 67.1406C130.488 67.6855 130.811 68.4385 130.834 69.3994V73.7764C130.834 74.6494 130.945 75.3438 131.168 75.8594V76H129.463ZM126.765 74.7607C127.274 74.7607 127.758 74.6289 128.215 74.3652C128.672 74.1016 129.003 73.7588 129.208 73.3369V71.3857H127.934C125.941 71.3857 124.945 71.9688 124.945 73.1348C124.945 73.6445 125.115 74.043 125.455 74.3301C125.795 74.6172 126.231 74.7607 126.765 74.7607ZM137.197 74.8486C137.777 74.8486 138.284 74.6729 138.718 74.3213C139.151 73.9697 139.392 73.5303 139.438 73.0029H140.977C140.947 73.5479 140.76 74.0664 140.414 74.5586C140.068 75.0508 139.605 75.4434 139.025 75.7363C138.451 76.0293 137.842 76.1758 137.197 76.1758C135.902 76.1758 134.871 75.7451 134.104 74.8838C133.342 74.0166 132.961 72.833 132.961 71.333V71.0605C132.961 70.1348 133.131 69.3115 133.471 68.5908C133.811 67.8701 134.297 67.3105 134.93 66.9121C135.568 66.5137 136.321 66.3145 137.188 66.3145C138.255 66.3145 139.14 66.6338 139.843 67.2725C140.552 67.9111 140.93 68.7402 140.977 69.7598H139.438C139.392 69.1445 139.157 68.6406 138.735 68.248C138.319 67.8496 137.804 67.6504 137.188 67.6504C136.362 67.6504 135.721 67.9492 135.264 68.5469C134.812 69.1387 134.587 69.9971 134.587 71.1221V71.4297C134.587 72.5254 134.812 73.3691 135.264 73.9609C135.715 74.5527 136.359 74.8486 137.197 74.8486ZM145.459 71.5967L144.439 72.6602V76H142.813V62.5H144.439V70.665L145.31 69.6191L148.271 66.4902H150.249L146.549 70.4629L150.68 76H148.772L145.459 71.5967Z" fill="black"/>
<rect x="9.58275" y="58.9794" width="79" height="114" transform="rotate(-10.5 9.58275 58.9794)" fill="white" stroke="black"/>
<path d="M34.2264 75.5272C32.7275 75.3819 31.5976 75.0729 30.8366 74.6001C30.0803 74.1205 29.621 73.4429 29.4587 72.5672C29.275 71.5762 29.518 70.685 30.1877 69.8934C30.8621 69.0951 31.8331 68.5784 33.1005 68.3435C33.9647 68.1833 34.7648 68.2079 35.5008 68.4171C36.2426 68.6252 36.8523 68.989 37.3299 69.5083C37.8133 70.0265 38.1196 70.6342 38.2488 71.3313L36.5809 71.6404C36.44 70.88 36.0875 70.3285 35.5235 69.9861C34.9584 69.638 34.2351 69.5456 33.3536 69.7089C32.5355 69.8606 31.9296 70.1606 31.536 70.6089C31.1471 71.0505 31.0119 71.591 31.1304 72.2305C31.2254 72.7433 31.5221 73.1382 32.0204 73.4153C32.5234 73.6856 33.3235 73.871 34.4207 73.9716C35.5237 74.0711 36.4022 74.245 37.056 74.4932C37.7146 74.7347 38.2288 75.0655 38.5986 75.4856C38.9743 75.9046 39.2213 76.4339 39.3399 77.0734C39.5289 78.0931 39.2829 78.9849 38.6021 79.7487C37.9203 80.5067 36.9139 81.0091 35.5831 81.2558C34.7189 81.4159 33.8819 81.4012 33.072 81.2116C32.2611 81.0163 31.5978 80.6685 31.082 80.1682C30.5719 79.6668 30.2491 79.0503 30.1134 78.3186L31.7813 78.0094C31.9223 78.7699 32.3133 79.3202 32.9543 79.6602C33.6001 79.9935 34.3925 80.073 35.3316 79.899C36.2073 79.7367 36.8454 79.4337 37.2459 78.99C37.6463 78.5463 37.7894 78.0162 37.6752 77.3998C37.5609 76.7833 37.2568 76.3481 36.7628 76.094C36.2677 75.8342 35.4222 75.6452 34.2264 75.5272ZM43.6238 75.1084L42.8152 76.3399L43.4238 79.6238L41.825 79.9201L39.3649 66.6462L40.9636 66.3499L42.4516 74.3782L43.1165 73.1912L45.4586 69.5749L47.4031 69.2146L44.4888 73.795L49.5595 78.4866L47.6842 78.8342L43.6238 75.1084ZM52.5237 77.9372L50.925 78.2335L49.1919 68.883L50.7907 68.5867L52.5237 77.9372ZM48.6026 66.4268C48.5546 66.1676 48.5918 65.9342 48.7142 65.7268C48.8424 65.5183 49.0621 65.3852 49.3732 65.3276C49.6843 65.2699 49.9371 65.3154 50.1315 65.4641C50.3259 65.6128 50.4472 65.8168 50.4952 66.076C50.5433 66.3353 50.5026 66.5663 50.3734 66.769C50.2441 66.9718 50.0239 67.102 49.7128 67.1596C49.4017 67.2173 49.1494 67.1747 48.9561 67.0317C48.7685 66.8877 48.6507 66.6861 48.6026 66.4268ZM62.1417 71.426C62.4055 72.8491 62.2925 74.0559 61.8027 75.0465C61.3129 76.0371 60.512 76.6355 59.4001 76.8415C58.2651 77.0519 57.3054 76.8573 56.5209 76.2578L57.3554 80.7602L55.7566 81.0566L53.3573 68.111L54.8178 67.8403L55.0878 68.8629C55.5893 67.9357 56.4191 67.3648 57.5771 67.1501C58.7006 66.9419 59.6663 67.2009 60.4743 67.9272C61.288 68.6524 61.8348 69.7697 62.1145 71.2791L62.1417 71.426ZM60.5094 71.5409C60.314 70.4866 59.935 69.6957 59.3724 69.1683C58.8098 68.6409 58.1368 68.4498 57.3533 68.595C56.3854 68.7744 55.739 69.3382 55.4142 70.2863L56.2422 74.7541C56.8784 75.5182 57.6891 75.8089 58.6743 75.6263C59.4406 75.4843 59.9923 75.0692 60.3296 74.3809C60.6715 73.6859 60.7315 72.7392 60.5094 71.5409Z" fill="black"/>
<path d="M184.86 76.7783L183.192 76.4692L178.654 65.5989L176.857 75.2951L175.189 74.986L177.521 62.4034L179.189 62.7126L183.736 73.6292L185.541 63.8898L187.192 64.1957L184.86 76.7783ZM188.015 72.4379C188.185 71.5218 188.516 70.7311 189.009 70.0656C189.507 69.4012 190.113 68.9295 190.827 68.6505C191.545 68.3725 192.317 68.3099 193.141 68.4626C194.414 68.6986 195.361 69.3299 195.981 70.3566C196.607 71.3844 196.784 72.6299 196.513 74.0933L196.492 74.2056C196.323 75.1159 195.996 75.9014 195.51 76.5622C195.031 77.2183 194.428 77.6877 193.703 77.9703C192.983 78.254 192.202 78.3179 191.361 78.162C190.093 77.9271 189.147 77.2958 188.521 76.268C187.901 75.2413 187.725 74.002 187.994 72.5502L188.015 72.4379ZM189.587 72.9259C189.395 73.9629 189.48 74.8397 189.842 75.5563C190.209 76.274 190.796 76.7076 191.603 76.8571C192.415 77.0076 193.119 76.8104 193.715 76.2652C194.311 75.7144 194.716 74.8657 194.929 73.7192C195.119 72.6937 195.028 71.8187 194.655 71.0942C194.29 70.365 193.704 69.9257 192.897 69.7762C192.108 69.6299 191.413 69.8259 190.813 70.3642C190.213 70.9024 189.804 71.7564 189.587 72.9259ZM206.396 76.0412C206.132 77.4642 205.594 78.5503 204.782 79.2996C203.969 80.0489 203.007 80.3205 201.895 80.1145C200.76 79.9041 199.934 79.3785 199.417 78.5377L198.582 83.0401L196.983 82.7438L199.383 69.7983L200.843 70.0689L200.729 71.1204C201.529 70.4345 202.509 70.1988 203.667 70.4134C204.79 70.6217 205.599 71.2096 206.093 72.1771C206.593 73.1458 206.703 74.3848 206.423 75.8942L206.396 76.0412ZM204.831 75.5634C205.026 74.5091 204.956 73.6349 204.619 72.9409C204.283 72.2469 203.723 71.8273 202.94 71.6821C201.972 71.5027 201.166 71.7974 200.523 72.5661L199.695 77.034C200.015 77.9753 200.668 78.5372 201.653 78.7198C202.42 78.8618 203.083 78.672 203.645 78.1504C204.213 77.624 204.608 76.7617 204.831 75.5634ZM211.436 81.8827C210.169 81.6478 209.214 81.0418 208.573 80.0649C207.933 79.0821 207.742 77.8937 208 76.4994L208.055 76.2056C208.227 75.278 208.555 74.4839 209.041 73.8231C209.534 73.1576 210.135 72.6791 210.845 72.3875C211.561 72.0912 212.291 72.0119 213.034 72.1497C214.25 72.375 215.121 72.9505 215.646 73.8762C216.172 74.802 216.296 76.0109 216.02 77.5031L215.897 78.1685L209.562 76.9945C209.414 77.9206 209.544 78.7163 209.951 79.3817C210.365 80.0424 210.969 80.4464 211.764 80.5938C212.329 80.6984 212.828 80.6718 213.263 80.514C213.697 80.3562 214.097 80.1143 214.461 79.7886L215.297 80.73C214.29 81.7889 213.003 82.1731 211.436 81.8827ZM212.791 73.4632C212.146 73.3436 211.56 73.4795 211.035 73.8708C210.511 74.2563 210.118 74.8629 209.857 75.6905L214.541 76.5587L214.564 76.4377C214.668 75.6168 214.566 74.9482 214.256 74.432C213.948 73.91 213.459 73.5871 212.791 73.4632Z" fill="black"/>
</svg>
