<svg width="240" height="300" viewBox="0 0 240 300" fill="none" xmlns="http://www.w3.org/2000/svg">
<rect width="240" height="300" fill="#68401D"/>
<path d="M86.5918 247.761C84.5013 247.16 82.9779 246.424 82.0215 245.552C81.0736 244.672 80.5996 243.588 80.5996 242.302C80.5996 240.846 81.1794 239.644 82.3389 238.696C83.5068 237.74 85.0218 237.262 86.8838 237.262C88.1533 237.262 89.2832 237.507 90.2734 237.998C91.2721 238.489 92.0423 239.166 92.584 240.029C93.1341 240.893 93.4092 241.836 93.4092 242.86H90.959C90.959 241.743 90.6035 240.867 89.8926 240.232C89.1816 239.589 88.1787 239.268 86.8838 239.268C85.682 239.268 84.7425 239.534 84.0654 240.067C83.3968 240.592 83.0625 241.324 83.0625 242.264C83.0625 243.017 83.3799 243.656 84.0146 244.181C84.6579 244.697 85.7454 245.171 87.2773 245.603C88.8177 246.034 90.0195 246.512 90.8828 247.037C91.7546 247.553 92.3978 248.159 92.8125 248.853C93.2357 249.547 93.4473 250.363 93.4473 251.303C93.4473 252.801 92.8633 254.003 91.6953 254.908C90.5273 255.805 88.9658 256.254 87.0107 256.254C85.7412 256.254 84.5563 256.013 83.4561 255.53C82.3558 255.039 81.5052 254.371 80.9043 253.524C80.3118 252.678 80.0156 251.717 80.0156 250.643H82.4658C82.4658 251.76 82.8763 252.644 83.6973 253.296C84.5267 253.939 85.6312 254.261 87.0107 254.261C88.2972 254.261 89.2832 253.998 89.9688 253.474C90.6543 252.949 90.9971 252.234 90.9971 251.328C90.9971 250.423 90.6797 249.724 90.0449 249.233C89.4102 248.734 88.2591 248.243 86.5918 247.761ZM98.5635 243.927C99.6045 242.649 100.959 242.01 102.626 242.01C105.529 242.01 106.993 243.647 107.019 246.923V256H104.67V246.91C104.661 245.92 104.433 245.188 103.984 244.714C103.544 244.24 102.854 244.003 101.915 244.003C101.153 244.003 100.485 244.206 99.9092 244.612C99.3337 245.019 98.8851 245.552 98.5635 246.212V256H96.2148V236.5H98.5635V243.927ZM119.016 254.642C118.102 255.716 116.76 256.254 114.991 256.254C113.527 256.254 112.41 255.831 111.64 254.984C110.878 254.13 110.493 252.868 110.484 251.201V242.264H112.833V251.138C112.833 253.22 113.679 254.261 115.372 254.261C117.166 254.261 118.36 253.592 118.952 252.255V242.264H121.301V256H119.066L119.016 254.642ZM126.036 256V244.079H123.865V242.264H126.036V240.854C126.036 239.382 126.43 238.243 127.217 237.439C128.004 236.635 129.117 236.233 130.556 236.233C131.097 236.233 131.635 236.305 132.168 236.449L132.041 238.354C131.643 238.277 131.22 238.239 130.771 238.239C130.01 238.239 129.422 238.464 129.007 238.912C128.592 239.352 128.385 239.987 128.385 240.816V242.264H133.463V240.766C133.471 239.301 133.882 238.18 134.694 237.401C135.507 236.623 136.662 236.233 138.16 236.233C139.015 236.233 140.708 236.492 143.238 237.008V256H140.89V238.493C139.84 238.324 138.994 238.239 138.351 238.239C136.658 238.239 135.812 239.128 135.812 240.905V242.264H138.744V244.079H135.812V256H133.463V244.079H128.385V256H126.036ZM152.772 256.254C150.91 256.254 149.396 255.645 148.228 254.426C147.06 253.199 146.476 251.561 146.476 249.513V249.081C146.476 247.718 146.734 246.504 147.25 245.438C147.775 244.363 148.503 243.525 149.434 242.924C150.373 242.314 151.389 242.01 152.48 242.01C154.266 242.01 155.654 242.598 156.645 243.774C157.635 244.951 158.13 246.635 158.13 248.827V249.805H148.824C148.858 251.159 149.252 252.255 150.005 253.093C150.767 253.922 151.731 254.337 152.899 254.337C153.729 254.337 154.431 254.168 155.007 253.829C155.582 253.491 156.086 253.042 156.518 252.483L157.952 253.601C156.801 255.369 155.075 256.254 152.772 256.254ZM152.48 243.939C151.533 243.939 150.737 244.286 150.094 244.98C149.451 245.666 149.053 246.631 148.9 247.875H155.781V247.697C155.714 246.504 155.392 245.581 154.816 244.93C154.241 244.27 153.462 243.939 152.48 243.939Z" fill="white"/>
<path d="M193 66.3888L190.361 59.3527L48.759 170.172L49.6386 175.449L162.217 200.955L193 66.3888Z" fill="white" stroke="#68401D"/>
<path d="M190.361 60.2321L185.084 49.6779L47 164.015L48.759 171.931L158.699 196.557L190.361 60.2321Z" fill="white" stroke="#68401D"/>
<path d="M185.661 49.5971L79.1197 25L47.0697 163.824L153.611 188.421L185.661 49.5971Z" fill="white" stroke="#68401D"/>
<path d="M90.9759 80.461C91.143 67.693 93.1841 61.3941 107.687 54.955C119.416 52.8538 129.351 54.3894 136.711 63.7502C139.731 74.21 136.711 86.6176 136.711 87.4972C136.711 88.3767 123.583 99.46 120 107.726C113.291 119.729 116.001 126.118 117.361 137.63" stroke="#68401D"/>
<circle cx="119.12" cy="153.461" r="8.79518" fill="#68401D"/>
</svg>
