<svg width="180" height="240" viewBox="0 0 180 240" fill="none" xmlns="http://www.w3.org/2000/svg">
<rect width="180" height="240" fill="white"/>
<path d="M67.2559 121.296C65.8086 120.88 64.7539 120.37 64.0918 119.767C63.4355 119.157 63.1074 118.407 63.1074 117.517C63.1074 116.509 63.5088 115.677 64.3115 115.021C65.1201 114.358 66.1689 114.027 67.458 114.027C68.3369 114.027 69.1191 114.197 69.8047 114.537C70.4961 114.877 71.0293 115.346 71.4043 115.943C71.7852 116.541 71.9756 117.194 71.9756 117.903H70.2793C70.2793 117.13 70.0332 116.523 69.541 116.084C69.0488 115.639 68.3545 115.416 67.458 115.416C66.626 115.416 65.9756 115.601 65.5068 115.97C65.0439 116.333 64.8125 116.84 64.8125 117.49C64.8125 118.012 65.0322 118.454 65.4717 118.817C65.917 119.175 66.6699 119.503 67.7305 119.802C68.7969 120.101 69.6289 120.432 70.2266 120.795C70.8301 121.152 71.2754 121.571 71.5625 122.052C71.8555 122.532 72.002 123.098 72.002 123.748C72.002 124.785 71.5977 125.617 70.7891 126.244C69.9805 126.865 68.8994 127.176 67.5459 127.176C66.667 127.176 65.8467 127.009 65.085 126.675C64.3232 126.335 63.7344 125.872 63.3184 125.286C62.9082 124.7 62.7031 124.035 62.7031 123.291H64.3994C64.3994 124.064 64.6836 124.677 65.252 125.128C65.8262 125.573 66.5908 125.796 67.5459 125.796C68.4365 125.796 69.1191 125.614 69.5938 125.251C70.0684 124.888 70.3057 124.393 70.3057 123.766C70.3057 123.139 70.0859 122.655 69.6465 122.315C69.207 121.97 68.4102 121.63 67.2559 121.296ZM75.5439 118.642C76.2646 117.757 77.2021 117.314 78.3564 117.314C80.3662 117.314 81.3799 118.448 81.3975 120.716V127H79.7715V120.707C79.7656 120.021 79.6074 119.515 79.2969 119.187C78.9922 118.858 78.5146 118.694 77.8643 118.694C77.3369 118.694 76.874 118.835 76.4756 119.116C76.0771 119.397 75.7666 119.767 75.5439 120.224V127H73.918V113.5H75.5439V118.642ZM89.7031 126.06C89.0703 126.804 88.1416 127.176 86.917 127.176C85.9033 127.176 85.1299 126.883 84.5967 126.297C84.0693 125.705 83.8027 124.832 83.7969 123.678V117.49H85.4229V123.634C85.4229 125.075 86.0088 125.796 87.1807 125.796C88.4229 125.796 89.249 125.333 89.6592 124.407V117.49H91.2852V127H89.7383L89.7031 126.06ZM94.5635 127V118.747H93.0605V117.49H94.5635V116.515C94.5635 115.495 94.8359 114.707 95.3809 114.15C95.9258 113.594 96.6963 113.315 97.6924 113.315C98.0674 113.315 98.4395 113.365 98.8086 113.465L98.7207 114.783C98.4453 114.73 98.1523 114.704 97.8418 114.704C97.3145 114.704 96.9072 114.859 96.6201 115.17C96.333 115.475 96.1895 115.914 96.1895 116.488V117.49H99.7051V116.453C99.7109 115.439 99.9951 114.663 100.558 114.124C101.12 113.585 101.92 113.315 102.957 113.315C103.549 113.315 104.721 113.494 106.473 113.852V127H104.847V114.88C104.12 114.763 103.534 114.704 103.089 114.704C101.917 114.704 101.331 115.319 101.331 116.55V117.49H103.361V118.747H101.331V127H99.7051V118.747H96.1895V127H94.5635ZM113.073 127.176C111.784 127.176 110.735 126.754 109.927 125.91C109.118 125.061 108.714 123.927 108.714 122.509V122.21C108.714 121.267 108.893 120.426 109.25 119.688C109.613 118.943 110.117 118.363 110.762 117.947C111.412 117.525 112.115 117.314 112.871 117.314C114.107 117.314 115.068 117.722 115.754 118.536C116.439 119.351 116.782 120.517 116.782 122.034V122.711H110.34C110.363 123.648 110.636 124.407 111.157 124.987C111.685 125.562 112.353 125.849 113.161 125.849C113.735 125.849 114.222 125.731 114.62 125.497C115.019 125.263 115.367 124.952 115.666 124.565L116.659 125.339C115.862 126.563 114.667 127.176 113.073 127.176ZM112.871 118.65C112.215 118.65 111.664 118.891 111.219 119.371C110.773 119.846 110.498 120.514 110.393 121.375H115.156V121.252C115.109 120.426 114.887 119.787 114.488 119.336C114.09 118.879 113.551 118.65 112.871 118.65Z" fill="black"/>
</svg>
