<svg width="240" height="300" viewBox="0 0 240 300" fill="none" xmlns="http://www.w3.org/2000/svg">
<rect width="240" height="300" fill="#277AFF"/>
<path d="M99.5918 253.761C97.5013 253.16 95.9779 252.424 95.0215 251.552C94.0736 250.672 93.5996 249.588 93.5996 248.302C93.5996 246.846 94.1794 245.644 95.3389 244.696C96.5068 243.74 98.0218 243.262 99.8838 243.262C101.153 243.262 102.283 243.507 103.273 243.998C104.272 244.489 105.042 245.166 105.584 246.029C106.134 246.893 106.409 247.836 106.409 248.86H103.959C103.959 247.743 103.604 246.867 102.893 246.232C102.182 245.589 101.179 245.268 99.8838 245.268C98.682 245.268 97.7425 245.534 97.0654 246.067C96.3968 246.592 96.0625 247.324 96.0625 248.264C96.0625 249.017 96.3799 249.656 97.0146 250.181C97.6579 250.697 98.7454 251.171 100.277 251.603C101.818 252.034 103.02 252.512 103.883 253.037C104.755 253.553 105.398 254.159 105.812 254.853C106.236 255.547 106.447 256.363 106.447 257.303C106.447 258.801 105.863 260.003 104.695 260.908C103.527 261.805 101.966 262.254 100.011 262.254C98.7412 262.254 97.5563 262.013 96.4561 261.53C95.3558 261.039 94.5052 260.371 93.9043 259.524C93.3118 258.678 93.0156 257.717 93.0156 256.643H95.4658C95.4658 257.76 95.8763 258.644 96.6973 259.296C97.5267 259.939 98.6312 260.261 100.011 260.261C101.297 260.261 102.283 259.998 102.969 259.474C103.654 258.949 103.997 258.234 103.997 257.328C103.997 256.423 103.68 255.724 103.045 255.233C102.41 254.734 101.259 254.243 99.5918 253.761ZM113.049 255.64L111.576 257.176V262H109.228V242.5H111.576V254.294L112.833 252.783L117.111 248.264H119.968L114.623 254.002L120.59 262H117.835L113.049 255.64ZM124.944 262H122.596V248.264H124.944V262ZM122.405 244.62C122.405 244.239 122.52 243.918 122.748 243.655C122.985 243.393 123.332 243.262 123.789 243.262C124.246 243.262 124.593 243.393 124.83 243.655C125.067 243.918 125.186 244.239 125.186 244.62C125.186 245.001 125.067 245.318 124.83 245.572C124.593 245.826 124.246 245.953 123.789 245.953C123.332 245.953 122.985 245.826 122.748 245.572C122.52 245.318 122.405 245.001 122.405 244.62ZM140.318 255.284C140.318 257.375 139.84 259.059 138.884 260.337C137.927 261.615 136.632 262.254 134.999 262.254C133.332 262.254 132.02 261.725 131.063 260.667V267.281H128.715V248.264H130.86L130.975 249.787C131.931 248.602 133.26 248.01 134.961 248.01C136.611 248.01 137.915 248.632 138.871 249.876C139.836 251.12 140.318 252.851 140.318 255.068V255.284ZM137.97 255.018C137.97 253.469 137.64 252.246 136.979 251.349C136.319 250.451 135.414 250.003 134.263 250.003C132.841 250.003 131.774 250.633 131.063 251.895V258.458C131.766 259.711 132.841 260.337 134.288 260.337C135.414 260.337 136.307 259.893 136.967 259.004C137.635 258.107 137.97 256.778 137.97 255.018Z" fill="white"/>
<path d="M16.9574 170.355C16.4551 130.251 11.5314 97.8534 30.1482 77.3555H50.7947C61.8477 96.1219 63.6066 125.737 68 170.355H16.9574Z" fill="white" stroke="black"/>
<path d="M57.7503 63.5777C57.7503 72.8136 50.2706 80.2999 41.0449 80.2999C31.8192 80.2999 24.3395 72.8136 24.3395 63.5777C24.3395 54.3418 31.8192 46.8555 41.0449 46.8555C50.2706 46.8555 57.7503 54.3418 57.7503 63.5777Z" fill="white" stroke="black"/>
<g clip-path="url(#clip0_501_37)">
<path d="M223.043 173.355C223.545 133.251 228.469 100.853 209.852 80.3555H189.205C178.152 99.1219 176.393 128.737 172 173.355H223.043Z" fill="white" stroke="black"/>
<path d="M182.25 66.5777C182.25 75.8136 189.729 83.2999 198.955 83.2999C208.181 83.2999 215.66 75.8136 215.66 66.5777C215.66 57.3418 208.181 49.8555 198.955 49.8555C189.729 49.8555 182.25 57.3418 182.25 66.5777Z" fill="white" stroke="black"/>
</g>
<path d="M176.151 46.7942C176.649 46.5567 176.861 45.96 176.624 45.4614L172.754 37.3358C172.516 36.8372 171.92 36.6254 171.421 36.8629C170.922 37.1004 170.711 37.6971 170.948 38.1957L174.388 45.4185L167.165 48.8582C166.667 49.0956 166.455 49.6924 166.692 50.191C166.93 50.6896 167.526 50.9013 168.025 50.6639L176.151 46.7942ZM57.7739 46.8352C81.4225 38.552 100.248 34.8165 118.422 35.0069C136.598 35.1973 154.193 39.3143 175.386 46.8338L176.055 44.9489C154.752 37.3905 136.924 33.2006 118.443 33.007C99.9618 32.8134 80.8967 36.617 57.1127 44.9476L57.7739 46.8352Z" fill="white"/>
<defs>
<clipPath id="clip0_501_37">
<rect width="52" height="124" fill="white" transform="matrix(-1 0 0 1 224 49.3555)"/>
</clipPath>
</defs>
</svg>
