<svg width="180" height="240" viewBox="0 0 180 240" fill="none" xmlns="http://www.w3.org/2000/svg">
<rect width="180" height="240" fill="white"/>
<path d="M77.2559 121.296C75.8086 120.88 74.7539 120.37 74.0918 119.767C73.4355 119.157 73.1074 118.407 73.1074 117.517C73.1074 116.509 73.5088 115.677 74.3115 115.021C75.1201 114.358 76.1689 114.027 77.458 114.027C78.3369 114.027 79.1191 114.197 79.8047 114.537C80.4961 114.877 81.0293 115.346 81.4043 115.943C81.7852 116.541 81.9756 117.194 81.9756 117.903H80.2793C80.2793 117.13 80.0332 116.523 79.541 116.084C79.0488 115.639 78.3545 115.416 77.458 115.416C76.626 115.416 75.9756 115.601 75.5068 115.97C75.0439 116.333 74.8125 116.84 74.8125 117.49C74.8125 118.012 75.0322 118.454 75.4717 118.817C75.917 119.175 76.6699 119.503 77.7305 119.802C78.7969 120.101 79.6289 120.432 80.2266 120.795C80.8301 121.152 81.2754 121.571 81.5625 122.052C81.8555 122.532 82.002 123.098 82.002 123.748C82.002 124.785 81.5977 125.617 80.7891 126.244C79.9805 126.865 78.8994 127.176 77.5459 127.176C76.667 127.176 75.8467 127.009 75.085 126.675C74.3232 126.335 73.7344 125.872 73.3184 125.286C72.9082 124.7 72.7031 124.035 72.7031 123.291H74.3994C74.3994 124.064 74.6836 124.677 75.252 125.128C75.8262 125.573 76.5908 125.796 77.5459 125.796C78.4365 125.796 79.1191 125.614 79.5938 125.251C80.0684 124.888 80.3057 124.393 80.3057 123.766C80.3057 123.139 80.0859 122.655 79.6465 122.315C79.207 121.97 78.4102 121.63 77.2559 121.296ZM86.5723 122.597L85.5527 123.66V127H83.9268V113.5H85.5527V121.665L86.4229 120.619L89.3848 117.49H91.3623L87.6621 121.463L91.793 127H89.8857L86.5723 122.597ZM94.8076 127H93.1816V117.49H94.8076V127ZM93.0498 114.968C93.0498 114.704 93.1289 114.481 93.2871 114.3C93.4512 114.118 93.6914 114.027 94.0078 114.027C94.3242 114.027 94.5645 114.118 94.7285 114.3C94.8926 114.481 94.9746 114.704 94.9746 114.968C94.9746 115.231 94.8926 115.451 94.7285 115.627C94.5645 115.803 94.3242 115.891 94.0078 115.891C93.6914 115.891 93.4512 115.803 93.2871 115.627C93.1289 115.451 93.0498 115.231 93.0498 114.968ZM105.451 122.351C105.451 123.798 105.12 124.964 104.458 125.849C103.796 126.733 102.899 127.176 101.769 127.176C100.614 127.176 99.7061 126.81 99.0439 126.077V130.656H97.418V117.49H98.9033L98.9824 118.545C99.6445 117.725 100.564 117.314 101.742 117.314C102.885 117.314 103.787 117.745 104.449 118.606C105.117 119.468 105.451 120.666 105.451 122.201V122.351ZM103.825 122.166C103.825 121.094 103.597 120.247 103.14 119.626C102.683 119.005 102.056 118.694 101.259 118.694C100.274 118.694 99.5361 119.131 99.0439 120.004V124.548C99.5303 125.415 100.274 125.849 101.276 125.849C102.056 125.849 102.674 125.541 103.131 124.926C103.594 124.305 103.825 123.385 103.825 122.166Z" fill="black"/>
</svg>
