<svg width="240" height="300" viewBox="0 0 240 300" fill="none" xmlns="http://www.w3.org/2000/svg">
<rect width="240" height="300" fill="white"/>
<path d="M82.917 239.521H76.9756V256H74.5508V239.521H68.6221V237.516H82.917V239.521ZM92.3242 256C92.1888 255.729 92.0788 255.247 91.9941 254.553C90.9023 255.687 89.599 256.254 88.084 256.254C86.7298 256.254 85.6169 255.873 84.7451 255.111C83.8818 254.341 83.4502 253.368 83.4502 252.191C83.4502 250.761 83.9919 249.652 85.0752 248.865C86.167 248.07 87.6989 247.672 89.6709 247.672H91.9561V246.593C91.9561 245.772 91.7106 245.12 91.2197 244.638C90.7288 244.147 90.0052 243.901 89.0488 243.901C88.2109 243.901 87.5085 244.113 86.9414 244.536C86.3743 244.959 86.0908 245.471 86.0908 246.072H83.7295C83.7295 245.387 83.9707 244.727 84.4531 244.092C84.944 243.449 85.6042 242.941 86.4336 242.568C87.2715 242.196 88.1898 242.01 89.1885 242.01C90.7712 242.01 92.0111 242.408 92.9082 243.203C93.8053 243.99 94.2708 245.078 94.3047 246.466V252.788C94.3047 254.049 94.4655 255.052 94.7871 255.797V256H92.3242ZM88.4268 254.21C89.1631 254.21 89.8613 254.02 90.5215 253.639C91.1816 253.258 91.6598 252.763 91.9561 252.153V249.335H90.1152C87.2376 249.335 85.7988 250.177 85.7988 251.861C85.7988 252.598 86.0443 253.173 86.5352 253.588C87.026 254.003 87.6566 254.21 88.4268 254.21ZM103.496 254.337C104.334 254.337 105.066 254.083 105.692 253.575C106.319 253.067 106.666 252.433 106.733 251.671H108.955C108.913 252.458 108.642 253.207 108.143 253.918C107.643 254.629 106.975 255.196 106.137 255.619C105.307 256.042 104.427 256.254 103.496 256.254C101.626 256.254 100.136 255.632 99.0273 254.388C97.9271 253.135 97.377 251.425 97.377 249.259V248.865C97.377 247.528 97.6224 246.339 98.1133 245.298C98.6042 244.257 99.3066 243.449 100.221 242.873C101.143 242.298 102.231 242.01 103.483 242.01C105.024 242.01 106.302 242.471 107.317 243.394C108.341 244.316 108.887 245.514 108.955 246.986H106.733C106.666 246.098 106.327 245.37 105.718 244.803C105.117 244.227 104.372 243.939 103.483 243.939C102.29 243.939 101.363 244.371 100.703 245.234C100.051 246.089 99.7256 247.329 99.7256 248.954V249.398C99.7256 250.981 100.051 252.2 100.703 253.055C101.355 253.91 102.286 254.337 103.496 254.337ZM110.974 249.005C110.974 247.659 111.236 246.449 111.761 245.374C112.294 244.299 113.03 243.47 113.97 242.886C114.918 242.302 115.997 242.01 117.207 242.01C119.077 242.01 120.588 242.657 121.739 243.952C122.899 245.247 123.479 246.969 123.479 249.119V249.284C123.479 250.621 123.22 251.823 122.704 252.89C122.196 253.948 121.464 254.773 120.508 255.365C119.56 255.958 118.468 256.254 117.232 256.254C115.37 256.254 113.86 255.606 112.7 254.312C111.549 253.017 110.974 251.303 110.974 249.17V249.005ZM113.335 249.284C113.335 250.808 113.686 252.031 114.389 252.953C115.1 253.876 116.048 254.337 117.232 254.337C118.426 254.337 119.374 253.871 120.076 252.94C120.779 252.001 121.13 250.689 121.13 249.005C121.13 247.498 120.77 246.28 120.051 245.349C119.34 244.409 118.392 243.939 117.207 243.939C116.048 243.939 115.112 244.401 114.401 245.323C113.69 246.246 113.335 247.566 113.335 249.284ZM146.838 250.135C146.609 252.09 145.886 253.601 144.667 254.667C143.457 255.725 141.844 256.254 139.83 256.254C137.646 256.254 135.895 255.471 134.574 253.905C133.262 252.34 132.606 250.245 132.606 247.621V245.844C132.606 244.126 132.911 242.615 133.521 241.312C134.138 240.008 135.01 239.009 136.136 238.315C137.261 237.613 138.565 237.262 140.046 237.262C142.009 237.262 143.584 237.812 144.769 238.912C145.953 240.004 146.643 241.519 146.838 243.457H144.388C144.176 241.984 143.715 240.918 143.004 240.258C142.301 239.598 141.315 239.268 140.046 239.268C138.489 239.268 137.266 239.843 136.377 240.994C135.497 242.145 135.057 243.783 135.057 245.907V247.697C135.057 249.703 135.476 251.299 136.313 252.483C137.151 253.668 138.324 254.261 139.83 254.261C141.184 254.261 142.221 253.956 142.94 253.347C143.668 252.729 144.151 251.658 144.388 250.135H146.838ZM158.289 256C158.154 255.729 158.044 255.247 157.959 254.553C156.867 255.687 155.564 256.254 154.049 256.254C152.695 256.254 151.582 255.873 150.71 255.111C149.847 254.341 149.415 253.368 149.415 252.191C149.415 250.761 149.957 249.652 151.04 248.865C152.132 248.07 153.664 247.672 155.636 247.672H157.921V246.593C157.921 245.772 157.675 245.12 157.185 244.638C156.694 244.147 155.97 243.901 155.014 243.901C154.176 243.901 153.473 244.113 152.906 244.536C152.339 244.959 152.056 245.471 152.056 246.072H149.694C149.694 245.387 149.936 244.727 150.418 244.092C150.909 243.449 151.569 242.941 152.398 242.568C153.236 242.196 154.155 242.01 155.153 242.01C156.736 242.01 157.976 242.408 158.873 243.203C159.77 243.99 160.236 245.078 160.27 246.466V252.788C160.27 254.049 160.43 255.052 160.752 255.797V256H158.289ZM154.392 254.21C155.128 254.21 155.826 254.02 156.486 253.639C157.146 253.258 157.625 252.763 157.921 252.153V249.335H156.08C153.202 249.335 151.764 250.177 151.764 251.861C151.764 252.598 152.009 253.173 152.5 253.588C152.991 254.003 153.621 254.21 154.392 254.21ZM167.138 238.938V242.264H169.702V244.079H167.138V252.598C167.138 253.148 167.252 253.562 167.48 253.842C167.709 254.113 168.098 254.248 168.648 254.248C168.919 254.248 169.292 254.197 169.766 254.096V256C169.148 256.169 168.547 256.254 167.963 256.254C166.913 256.254 166.122 255.937 165.589 255.302C165.056 254.667 164.789 253.766 164.789 252.598V244.079H162.288V242.264H164.789V238.938H167.138Z" fill="black"/>
<path d="M119.695 44.5C147.715 44.5 168.964 52.0116 185.087 63.2575C201.213 74.5068 212.237 89.5119 219.768 104.536C227.299 119.56 231.331 134.591 233.479 145.869C234.553 151.507 235.156 156.205 235.49 159.491C235.657 161.134 235.757 162.424 235.815 163.302C235.837 163.636 235.853 163.911 235.865 164.123H3.52427C3.53567 163.911 3.55175 163.636 3.57391 163.302C3.63201 162.424 3.73192 161.134 3.899 159.491C4.23316 156.205 4.83589 151.507 5.90986 145.869C8.05824 134.591 12.09 119.56 19.6214 104.536C27.1523 89.5118 38.1757 74.5067 54.3026 63.2574C70.4247 52.0115 91.6744 44.5 119.695 44.5Z" fill="#DCE000" stroke="black"/>
<path d="M72.7935 87.0721L84.6658 61.9307L91.6495 87.0721" stroke="black"/>
<path d="M150.313 86.3737L162.185 61.2323L169.169 86.3737" stroke="black"/>
<circle cx="77.6821" cy="103.135" r="6.98372" fill="black"/>
<path d="M81.7763 100.005C81.7763 101.025 80.9497 101.851 79.93 101.851C78.9103 101.851 78.0837 101.025 78.0837 100.005C78.0837 98.9853 78.9103 98.1587 79.93 98.1587C80.9497 98.1587 81.7763 98.9853 81.7763 100.005Z" fill="white"/>
<circle cx="144.15" cy="103.912" r="6.98372" fill="black"/>
<path d="M148.244 100.782C148.244 101.802 147.417 102.628 146.398 102.628C145.378 102.628 144.551 101.802 144.551 100.782C144.551 99.7623 145.378 98.9356 146.398 98.9356C147.417 98.9356 148.244 99.7623 148.244 100.782Z" fill="white"/>
<path d="M111.902 119.896L107.669 106.277H116.136L111.902 119.896Z" fill="black"/>
<path d="M102.125 131.069C102.125 131.069 121.745 131.069 122.378 131.069C123.011 131.069 124.742 143.553 122.378 152.021C114.559 154.999 110.125 155.084 102.125 152.021C99.7395 145.804 102.125 131.069 102.125 131.069Z" fill="black"/>
<path d="M65.468 185.33C64.8928 177.693 64.9183 173.153 65.4509 165.126H73.1179C73.2746 169.347 73.3305 172.683 73.1035 185.321C71.4335 186.776 70.2441 187.429 69.1642 187.444C68.099 187.458 66.986 186.85 65.468 185.33Z" fill="#DCE000" stroke="black"/>
<path d="M170.093 185.33C169.518 177.693 169.543 173.153 170.076 165.126H177.743C177.899 169.347 177.955 172.683 177.728 185.321C176.058 186.776 174.869 187.429 173.789 187.444C172.724 187.458 171.611 186.85 170.093 185.33Z" fill="#DCE000" stroke="black"/>
<path d="M56.1481 128.931C55.87 135.772 55.666 140.439 56.7635 144.317C60.7671 149.979 64.1488 143.701 64.1488 143.701C64.1488 143.701 63.6529 134.392 62.918 128.931" stroke="black"/>
<path d="M185.786 131.392C186.064 138.234 186.268 142.9 185.17 146.778C181.167 152.44 177.785 146.163 177.785 146.163C177.785 146.163 178.281 136.854 179.016 131.392" stroke="black"/>
</svg>
