<svg width="180" height="240" viewBox="0 0 180 240" fill="none" xmlns="http://www.w3.org/2000/svg">
<rect width="180" height="240" fill="white"/>
<path d="M67.8848 109.395H65.1426V117H64.0234V109.395H61.2871V108.469H67.8848V109.395ZM72.2266 117C72.1641 116.875 72.1133 116.652 72.0742 116.332C71.5703 116.855 70.9688 117.117 70.2695 117.117C69.6445 117.117 69.1309 116.941 68.7285 116.59C68.3301 116.234 68.1309 115.785 68.1309 115.242C68.1309 114.582 68.3809 114.07 68.8809 113.707C69.3848 113.34 70.0918 113.156 71.002 113.156H72.0566V112.658C72.0566 112.279 71.9434 111.979 71.7168 111.756C71.4902 111.529 71.1562 111.416 70.7148 111.416C70.3281 111.416 70.0039 111.514 69.7422 111.709C69.4805 111.904 69.3496 112.141 69.3496 112.418H68.2598C68.2598 112.102 68.3711 111.797 68.5938 111.504C68.8203 111.207 69.125 110.973 69.5078 110.801C69.8945 110.629 70.3184 110.543 70.7793 110.543C71.5098 110.543 72.082 110.727 72.4961 111.094C72.9102 111.457 73.125 111.959 73.1406 112.6V115.518C73.1406 116.1 73.2148 116.562 73.3633 116.906V117H72.2266ZM70.4277 116.174C70.7676 116.174 71.0898 116.086 71.3945 115.91C71.6992 115.734 71.9199 115.506 72.0566 115.225V113.924H71.207C69.8789 113.924 69.2148 114.312 69.2148 115.09C69.2148 115.43 69.3281 115.695 69.5547 115.887C69.7812 116.078 70.0723 116.174 70.4277 116.174ZM77.3828 116.232C77.7695 116.232 78.1074 116.115 78.3965 115.881C78.6855 115.646 78.8457 115.354 78.877 115.002H79.9023C79.8828 115.365 79.7578 115.711 79.5273 116.039C79.2969 116.367 78.9883 116.629 78.6016 116.824C78.2188 117.02 77.8125 117.117 77.3828 117.117C76.5195 117.117 75.832 116.83 75.3203 116.256C74.8125 115.678 74.5586 114.889 74.5586 113.889V113.707C74.5586 113.09 74.6719 112.541 74.8984 112.061C75.125 111.58 75.4492 111.207 75.8711 110.941C76.2969 110.676 76.7988 110.543 77.377 110.543C78.0879 110.543 78.6777 110.756 79.1465 111.182C79.6191 111.607 79.8711 112.16 79.9023 112.84H78.877C78.8457 112.43 78.6895 112.094 78.4082 111.832C78.1309 111.566 77.7871 111.434 77.377 111.434C76.8262 111.434 76.3984 111.633 76.0938 112.031C75.793 112.426 75.6426 112.998 75.6426 113.748V113.953C75.6426 114.684 75.793 115.246 76.0938 115.641C76.3945 116.035 76.8242 116.232 77.3828 116.232ZM80.834 113.771C80.834 113.15 80.9551 112.592 81.1973 112.096C81.4434 111.6 81.7832 111.217 82.2168 110.947C82.6543 110.678 83.1523 110.543 83.7109 110.543C84.5742 110.543 85.2715 110.842 85.8027 111.439C86.3379 112.037 86.6055 112.832 86.6055 113.824V113.9C86.6055 114.518 86.4863 115.072 86.248 115.564C86.0137 116.053 85.6758 116.434 85.2344 116.707C84.7969 116.98 84.293 117.117 83.7227 117.117C82.8633 117.117 82.166 116.818 81.6309 116.221C81.0996 115.623 80.834 114.832 80.834 113.848V113.771ZM81.9238 113.9C81.9238 114.604 82.0859 115.168 82.4102 115.594C82.7383 116.02 83.1758 116.232 83.7227 116.232C84.2734 116.232 84.7109 116.018 85.0352 115.588C85.3594 115.154 85.5215 114.549 85.5215 113.771C85.5215 113.076 85.3555 112.514 85.0234 112.084C84.6953 111.65 84.2578 111.434 83.7109 111.434C83.1758 111.434 82.7441 111.646 82.416 112.072C82.0879 112.498 81.9238 113.107 81.9238 113.9ZM97.3867 114.293C97.2812 115.195 96.9473 115.893 96.3848 116.385C95.8262 116.873 95.082 117.117 94.1523 117.117C93.1445 117.117 92.3359 116.756 91.7266 116.033C91.1211 115.311 90.8184 114.344 90.8184 113.133V112.312C90.8184 111.52 90.959 110.822 91.2402 110.221C91.5254 109.619 91.9277 109.158 92.4473 108.838C92.9668 108.514 93.5684 108.352 94.252 108.352C95.1582 108.352 95.8848 108.605 96.4316 109.113C96.9785 109.617 97.2969 110.316 97.3867 111.211H96.2559C96.1582 110.531 95.9453 110.039 95.6172 109.734C95.293 109.43 94.8379 109.277 94.252 109.277C93.5332 109.277 92.9688 109.543 92.5586 110.074C92.1523 110.605 91.9492 111.361 91.9492 112.342V113.168C91.9492 114.094 92.1426 114.83 92.5293 115.377C92.916 115.924 93.457 116.197 94.1523 116.197C94.7773 116.197 95.2559 116.057 95.5879 115.775C95.9238 115.49 96.1465 114.996 96.2559 114.293H97.3867ZM102.672 117C102.609 116.875 102.559 116.652 102.52 116.332C102.016 116.855 101.414 117.117 100.715 117.117C100.09 117.117 99.5762 116.941 99.1738 116.59C98.7754 116.234 98.5762 115.785 98.5762 115.242C98.5762 114.582 98.8262 114.07 99.3262 113.707C99.8301 113.34 100.537 113.156 101.447 113.156H102.502V112.658C102.502 112.279 102.389 111.979 102.162 111.756C101.936 111.529 101.602 111.416 101.16 111.416C100.773 111.416 100.449 111.514 100.188 111.709C99.9258 111.904 99.7949 112.141 99.7949 112.418H98.7051C98.7051 112.102 98.8164 111.797 99.0391 111.504C99.2656 111.207 99.5703 110.973 99.9531 110.801C100.34 110.629 100.764 110.543 101.225 110.543C101.955 110.543 102.527 110.727 102.941 111.094C103.355 111.457 103.57 111.959 103.586 112.6V115.518C103.586 116.1 103.66 116.562 103.809 116.906V117H102.672ZM100.873 116.174C101.213 116.174 101.535 116.086 101.84 115.91C102.145 115.734 102.365 115.506 102.502 115.225V113.924H101.652C100.324 113.924 99.6602 114.312 99.6602 115.09C99.6602 115.43 99.7734 115.695 100 115.887C100.227 116.078 100.518 116.174 100.873 116.174ZM106.756 109.125V110.66H107.939V111.498H106.756V115.43C106.756 115.684 106.809 115.875 106.914 116.004C107.02 116.129 107.199 116.191 107.453 116.191C107.578 116.191 107.75 116.168 107.969 116.121V117C107.684 117.078 107.406 117.117 107.137 117.117C106.652 117.117 106.287 116.971 106.041 116.678C105.795 116.385 105.672 115.969 105.672 115.43V111.498H104.518V110.66H105.672V109.125H106.756Z" fill="black"/>
</svg>
