<svg width="180" height="240" viewBox="0 0 180 240" fill="none" xmlns="http://www.w3.org/2000/svg">
<rect width="180" height="240" fill="white"/>
<path d="M64.3271 115.592H60.2139V127H58.5352V115.592H54.4307V114.203H64.3271V115.592ZM70.8398 127C70.7461 126.812 70.6699 126.479 70.6113 125.998C69.8555 126.783 68.9531 127.176 67.9043 127.176C66.9668 127.176 66.1963 126.912 65.5928 126.385C64.9951 125.852 64.6963 125.178 64.6963 124.363C64.6963 123.373 65.0713 122.605 65.8213 122.061C66.5771 121.51 67.6377 121.234 69.0029 121.234H70.585V120.487C70.585 119.919 70.415 119.468 70.0752 119.134C69.7354 118.794 69.2344 118.624 68.5723 118.624C67.9922 118.624 67.5059 118.771 67.1133 119.063C66.7207 119.356 66.5244 119.711 66.5244 120.127H64.8896C64.8896 119.652 65.0566 119.195 65.3906 118.756C65.7305 118.311 66.1875 117.959 66.7617 117.701C67.3418 117.443 67.9775 117.314 68.6689 117.314C69.7646 117.314 70.623 117.59 71.2441 118.141C71.8652 118.686 72.1875 119.438 72.2109 120.399V124.776C72.2109 125.649 72.3223 126.344 72.5449 126.859V127H70.8398ZM68.1416 125.761C68.6514 125.761 69.1348 125.629 69.5918 125.365C70.0488 125.102 70.3799 124.759 70.585 124.337V122.386H69.3105C67.3184 122.386 66.3223 122.969 66.3223 124.135C66.3223 124.645 66.4922 125.043 66.832 125.33C67.1719 125.617 67.6084 125.761 68.1416 125.761ZM78.5742 125.849C79.1543 125.849 79.6611 125.673 80.0947 125.321C80.5283 124.97 80.7686 124.53 80.8154 124.003H82.3535C82.3242 124.548 82.1367 125.066 81.791 125.559C81.4453 126.051 80.9824 126.443 80.4023 126.736C79.8281 127.029 79.2188 127.176 78.5742 127.176C77.2793 127.176 76.248 126.745 75.4805 125.884C74.7188 125.017 74.3379 123.833 74.3379 122.333V122.061C74.3379 121.135 74.5078 120.312 74.8477 119.591C75.1875 118.87 75.6738 118.311 76.3066 117.912C76.9453 117.514 77.6982 117.314 78.5654 117.314C79.6318 117.314 80.5166 117.634 81.2197 118.272C81.9287 118.911 82.3066 119.74 82.3535 120.76H80.8154C80.7686 120.145 80.5342 119.641 80.1123 119.248C79.6963 118.85 79.1807 118.65 78.5654 118.65C77.7393 118.65 77.0977 118.949 76.6406 119.547C76.1895 120.139 75.9639 120.997 75.9639 122.122V122.43C75.9639 123.525 76.1895 124.369 76.6406 124.961C77.0918 125.553 77.7363 125.849 78.5742 125.849ZM83.751 122.157C83.751 121.226 83.9326 120.388 84.2959 119.644C84.665 118.899 85.1748 118.325 85.8252 117.921C86.4814 117.517 87.2285 117.314 88.0664 117.314C89.3613 117.314 90.4072 117.763 91.2041 118.659C92.0068 119.556 92.4082 120.748 92.4082 122.236V122.351C92.4082 123.276 92.2295 124.108 91.8721 124.847C91.5205 125.579 91.0137 126.15 90.3516 126.561C89.6953 126.971 88.9395 127.176 88.084 127.176C86.7949 127.176 85.749 126.728 84.9463 125.831C84.1494 124.935 83.751 123.748 83.751 122.271V122.157ZM85.3857 122.351C85.3857 123.405 85.6289 124.252 86.1152 124.891C86.6074 125.529 87.2637 125.849 88.084 125.849C88.9102 125.849 89.5664 125.526 90.0527 124.882C90.5391 124.231 90.7822 123.323 90.7822 122.157C90.7822 121.114 90.5332 120.271 90.0352 119.626C89.543 118.976 88.8867 118.65 88.0664 118.65C87.2637 118.65 86.6162 118.97 86.124 119.608C85.6318 120.247 85.3857 121.161 85.3857 122.351ZM108.58 122.939C108.422 124.293 107.921 125.339 107.077 126.077C106.239 126.81 105.123 127.176 103.729 127.176C102.217 127.176 101.004 126.634 100.09 125.55C99.1816 124.466 98.7275 123.016 98.7275 121.199V119.969C98.7275 118.779 98.9385 117.733 99.3604 116.831C99.7881 115.929 100.392 115.237 101.171 114.757C101.95 114.271 102.853 114.027 103.878 114.027C105.237 114.027 106.327 114.408 107.147 115.17C107.968 115.926 108.445 116.975 108.58 118.316H106.884C106.737 117.297 106.418 116.559 105.926 116.102C105.439 115.645 104.757 115.416 103.878 115.416C102.8 115.416 101.953 115.814 101.338 116.611C100.729 117.408 100.424 118.542 100.424 120.013V121.252C100.424 122.641 100.714 123.745 101.294 124.565C101.874 125.386 102.686 125.796 103.729 125.796C104.666 125.796 105.384 125.585 105.882 125.163C106.386 124.735 106.72 123.994 106.884 122.939H108.58ZM116.508 127C116.414 126.812 116.338 126.479 116.279 125.998C115.523 126.783 114.621 127.176 113.572 127.176C112.635 127.176 111.864 126.912 111.261 126.385C110.663 125.852 110.364 125.178 110.364 124.363C110.364 123.373 110.739 122.605 111.489 122.061C112.245 121.51 113.306 121.234 114.671 121.234H116.253V120.487C116.253 119.919 116.083 119.468 115.743 119.134C115.403 118.794 114.902 118.624 114.24 118.624C113.66 118.624 113.174 118.771 112.781 119.063C112.389 119.356 112.192 119.711 112.192 120.127H110.558C110.558 119.652 110.725 119.195 111.059 118.756C111.398 118.311 111.855 117.959 112.43 117.701C113.01 117.443 113.646 117.314 114.337 117.314C115.433 117.314 116.291 117.59 116.912 118.141C117.533 118.686 117.855 119.438 117.879 120.399V124.776C117.879 125.649 117.99 126.344 118.213 126.859V127H116.508ZM113.81 125.761C114.319 125.761 114.803 125.629 115.26 125.365C115.717 125.102 116.048 124.759 116.253 124.337V122.386H114.979C112.986 122.386 111.99 122.969 111.99 124.135C111.99 124.645 112.16 125.043 112.5 125.33C112.84 125.617 113.276 125.761 113.81 125.761ZM122.634 115.188V117.49H124.409V118.747H122.634V124.645C122.634 125.025 122.713 125.312 122.871 125.506C123.029 125.693 123.299 125.787 123.68 125.787C123.867 125.787 124.125 125.752 124.453 125.682V127C124.025 127.117 123.609 127.176 123.205 127.176C122.479 127.176 121.931 126.956 121.562 126.517C121.192 126.077 121.008 125.453 121.008 124.645V118.747H119.276V117.49H121.008V115.188H122.634Z" fill="black"/>
</svg>
