<svg width="240" height="300" viewBox="0 0 240 300" fill="none" xmlns="http://www.w3.org/2000/svg">
<rect width="240" height="300" fill="#FF6B00"/>
<path d="M16.9574 161.355C16.4551 121.251 11.5314 88.8534 30.1482 68.3555H50.7947C61.8477 87.1219 63.6066 116.737 68 161.355H16.9574Z" fill="white" stroke="black"/>
<path d="M57.7503 54.5777C57.7503 63.8136 50.2706 71.2999 41.0449 71.2999C31.8192 71.2999 24.3395 63.8136 24.3395 54.5777C24.3395 45.3418 31.8192 37.8555 41.0449 37.8555C50.2706 37.8555 57.7503 45.3418 57.7503 54.5777Z" fill="white" stroke="black"/>
<g clip-path="url(#clip0_504_85)">
<path d="M223.043 164.355C223.545 124.251 228.469 91.8534 209.852 71.3555H189.205C178.152 90.1219 176.393 119.737 172 164.355H223.043Z" fill="white" stroke="black"/>
<path d="M182.25 57.5777C182.25 66.8136 189.729 74.2999 198.955 74.2999C208.181 74.2999 215.66 66.8136 215.66 57.5777C215.66 48.3418 208.181 40.8555 198.955 40.8555C189.729 40.8555 182.25 48.3418 182.25 57.5777Z" fill="white" stroke="black"/>
</g>
<path d="M176.151 37.7942C176.649 37.5567 176.861 36.96 176.624 36.4614L172.754 28.3358C172.516 27.8372 171.92 27.6254 171.421 27.8629C170.922 28.1004 170.711 28.6971 170.948 29.1957L174.388 36.4185L167.165 39.8582C166.667 40.0956 166.455 40.6924 166.692 41.191C166.93 41.6896 167.526 41.9013 168.025 41.6639L176.151 37.7942ZM57.7739 37.8352C81.4225 29.552 100.248 25.8165 118.422 26.0069C136.598 26.1973 154.193 30.3143 175.386 37.8338L176.055 35.9489C154.752 28.3905 136.924 24.2006 118.443 24.007C99.9618 23.8134 80.8967 27.617 57.1127 35.9476L57.7739 37.8352Z" fill="white"/>
<path d="M42.917 240.521H36.9756V257H34.5508V240.521H28.6221V238.516H42.917V240.521ZM52.3242 257C52.1888 256.729 52.0788 256.247 51.9941 255.553C50.9023 256.687 49.599 257.254 48.084 257.254C46.7298 257.254 45.6169 256.873 44.7451 256.111C43.8818 255.341 43.4502 254.368 43.4502 253.191C43.4502 251.761 43.9919 250.652 45.0752 249.865C46.167 249.07 47.6989 248.672 49.6709 248.672H51.9561V247.593C51.9561 246.772 51.7106 246.12 51.2197 245.638C50.7288 245.147 50.0052 244.901 49.0488 244.901C48.2109 244.901 47.5085 245.113 46.9414 245.536C46.3743 245.959 46.0908 246.471 46.0908 247.072H43.7295C43.7295 246.387 43.9707 245.727 44.4531 245.092C44.944 244.449 45.6042 243.941 46.4336 243.568C47.2715 243.196 48.1898 243.01 49.1885 243.01C50.7712 243.01 52.0111 243.408 52.9082 244.203C53.8053 244.99 54.2708 246.078 54.3047 247.466V253.788C54.3047 255.049 54.4655 256.052 54.7871 256.797V257H52.3242ZM48.4268 255.21C49.1631 255.21 49.8613 255.02 50.5215 254.639C51.1816 254.258 51.6598 253.763 51.9561 253.153V250.335H50.1152C47.2376 250.335 45.7988 251.177 45.7988 252.861C45.7988 253.598 46.0443 254.173 46.5352 254.588C47.026 255.003 47.6566 255.21 48.4268 255.21ZM64.626 245.371C64.2705 245.312 63.8854 245.282 63.4707 245.282C61.9303 245.282 60.8851 245.938 60.335 247.25V257H57.9863V243.264H60.2715L60.3096 244.851C61.0798 243.623 62.1715 243.01 63.585 243.01C64.042 243.01 64.389 243.069 64.626 243.188V245.371ZM65.9844 250.018C65.9844 247.876 66.4795 246.175 67.4697 244.914C68.46 243.645 69.7718 243.01 71.4053 243.01C73.0811 243.01 74.3887 243.602 75.3281 244.787L75.4424 243.264H77.5879V256.67C77.5879 258.447 77.0589 259.848 76.001 260.872C74.9515 261.896 73.5381 262.408 71.7607 262.408C70.7705 262.408 69.8014 262.197 68.8535 261.773C67.9056 261.35 67.182 260.771 66.6826 260.034L67.9014 258.625C68.9085 259.869 70.14 260.491 71.5957 260.491C72.7383 260.491 73.627 260.17 74.2617 259.526C74.9049 258.883 75.2266 257.978 75.2266 256.81V255.629C74.2871 256.712 73.0049 257.254 71.3799 257.254C69.7718 257.254 68.4684 256.606 67.4697 255.312C66.4795 254.017 65.9844 252.252 65.9844 250.018ZM68.3457 250.284C68.3457 251.833 68.6631 253.052 69.2979 253.94C69.9326 254.821 70.8213 255.261 71.9639 255.261C73.445 255.261 74.5326 254.588 75.2266 253.242V246.971C74.5072 245.659 73.4281 245.003 71.9893 245.003C70.8467 245.003 69.9538 245.447 69.3105 246.336C68.6673 247.225 68.3457 248.541 68.3457 250.284ZM86.8428 257.254C84.9808 257.254 83.4658 256.645 82.2979 255.426C81.1299 254.199 80.5459 252.561 80.5459 250.513V250.081C80.5459 248.718 80.804 247.504 81.3203 246.438C81.8451 245.363 82.5729 244.525 83.5039 243.924C84.4434 243.314 85.459 243.01 86.5508 243.01C88.3366 243.01 89.7246 243.598 90.7148 244.774C91.7051 245.951 92.2002 247.635 92.2002 249.827V250.805H82.8945C82.9284 252.159 83.3219 253.255 84.0752 254.093C84.8369 254.922 85.8018 255.337 86.9697 255.337C87.7992 255.337 88.5016 255.168 89.0771 254.829C89.6527 254.491 90.1562 254.042 90.5879 253.483L92.0225 254.601C90.8714 256.369 89.1449 257.254 86.8428 257.254ZM86.5508 244.939C85.6029 244.939 84.8073 245.286 84.1641 245.98C83.5208 246.666 83.123 247.631 82.9707 248.875H89.8516V248.697C89.7839 247.504 89.4622 246.581 88.8867 245.93C88.3112 245.27 87.5326 244.939 86.5508 244.939ZM98.1162 239.938V243.264H100.681V245.079H98.1162V253.598C98.1162 254.148 98.2305 254.562 98.459 254.842C98.6875 255.113 99.0768 255.248 99.627 255.248C99.8978 255.248 100.27 255.197 100.744 255.096V257C100.126 257.169 99.5254 257.254 98.9414 257.254C97.8919 257.254 97.1006 256.937 96.5674 256.302C96.0342 255.667 95.7676 254.766 95.7676 253.598V245.079H93.2666V243.264H95.7676V239.938H98.1162ZM109.136 257.254C107.274 257.254 105.759 256.645 104.591 255.426C103.423 254.199 102.839 252.561 102.839 250.513V250.081C102.839 248.718 103.097 247.504 103.613 246.438C104.138 245.363 104.866 244.525 105.797 243.924C106.736 243.314 107.752 243.01 108.844 243.01C110.63 243.01 112.018 243.598 113.008 244.774C113.998 245.951 114.493 247.635 114.493 249.827V250.805H105.188C105.221 252.159 105.615 253.255 106.368 254.093C107.13 254.922 108.095 255.337 109.263 255.337C110.092 255.337 110.795 255.168 111.37 254.829C111.946 254.491 112.449 254.042 112.881 253.483L114.315 254.601C113.164 256.369 111.438 257.254 109.136 257.254ZM108.844 244.939C107.896 244.939 107.1 245.286 106.457 245.98C105.814 246.666 105.416 247.631 105.264 248.875H112.145V248.697C112.077 247.504 111.755 246.581 111.18 245.93C110.604 245.27 109.826 244.939 108.844 244.939ZM116.651 250.018C116.651 247.91 117.151 246.217 118.149 244.939C119.148 243.653 120.456 243.01 122.072 243.01C123.68 243.01 124.954 243.56 125.894 244.66V237.5H128.242V257H126.084L125.97 255.527C125.03 256.678 123.723 257.254 122.047 257.254C120.456 257.254 119.157 256.602 118.149 255.299C117.151 253.995 116.651 252.294 116.651 250.195V250.018ZM119 250.284C119 251.841 119.322 253.06 119.965 253.94C120.608 254.821 121.497 255.261 122.631 255.261C124.12 255.261 125.208 254.592 125.894 253.255V246.945C125.191 245.65 124.112 245.003 122.656 245.003C121.505 245.003 120.608 245.447 119.965 246.336C119.322 247.225 119 248.541 119 250.284ZM148.923 252.176H141.179L139.439 257H136.926L143.984 238.516H146.117L153.188 257H150.688L148.923 252.176ZM141.915 250.17H148.199L145.051 241.524L141.915 250.17ZM158.267 239.938V243.264H160.831V245.079H158.267V253.598C158.267 254.148 158.381 254.562 158.609 254.842C158.838 255.113 159.227 255.248 159.777 255.248C160.048 255.248 160.421 255.197 160.895 255.096V257C160.277 257.169 159.676 257.254 159.092 257.254C158.042 257.254 157.251 256.937 156.718 256.302C156.185 255.667 155.918 254.766 155.918 253.598V245.079H153.417V243.264H155.918V239.938H158.267ZM166.772 239.938V243.264H169.337V245.079H166.772V253.598C166.772 254.148 166.887 254.562 167.115 254.842C167.344 255.113 167.733 255.248 168.283 255.248C168.554 255.248 168.926 255.197 169.4 255.096V257C168.783 257.169 168.182 257.254 167.598 257.254C166.548 257.254 165.757 256.937 165.224 256.302C164.69 255.667 164.424 254.766 164.424 253.598V245.079H161.923V243.264H164.424V239.938H166.772ZM180.572 257C180.437 256.729 180.327 256.247 180.242 255.553C179.15 256.687 177.847 257.254 176.332 257.254C174.978 257.254 173.865 256.873 172.993 256.111C172.13 255.341 171.698 254.368 171.698 253.191C171.698 251.761 172.24 250.652 173.323 249.865C174.415 249.07 175.947 248.672 177.919 248.672H180.204V247.593C180.204 246.772 179.959 246.12 179.468 245.638C178.977 245.147 178.253 244.901 177.297 244.901C176.459 244.901 175.757 245.113 175.189 245.536C174.622 245.959 174.339 246.471 174.339 247.072H171.978C171.978 246.387 172.219 245.727 172.701 245.092C173.192 244.449 173.852 243.941 174.682 243.568C175.52 243.196 176.438 243.01 177.437 243.01C179.019 243.01 180.259 243.408 181.156 244.203C182.053 244.99 182.519 246.078 182.553 247.466V253.788C182.553 255.049 182.714 256.052 183.035 256.797V257H180.572ZM176.675 255.21C177.411 255.21 178.109 255.02 178.77 254.639C179.43 254.258 179.908 253.763 180.204 253.153V250.335H178.363C175.486 250.335 174.047 251.177 174.047 252.861C174.047 253.598 174.292 254.173 174.783 254.588C175.274 255.003 175.905 255.21 176.675 255.21ZM191.744 255.337C192.582 255.337 193.314 255.083 193.94 254.575C194.567 254.067 194.914 253.433 194.981 252.671H197.203C197.161 253.458 196.89 254.207 196.391 254.918C195.891 255.629 195.223 256.196 194.385 256.619C193.555 257.042 192.675 257.254 191.744 257.254C189.874 257.254 188.384 256.632 187.275 255.388C186.175 254.135 185.625 252.425 185.625 250.259V249.865C185.625 248.528 185.87 247.339 186.361 246.298C186.852 245.257 187.555 244.449 188.469 243.873C189.391 243.298 190.479 243.01 191.731 243.01C193.272 243.01 194.55 243.471 195.565 244.394C196.59 245.316 197.135 246.514 197.203 247.986H194.981C194.914 247.098 194.575 246.37 193.966 245.803C193.365 245.227 192.62 244.939 191.731 244.939C190.538 244.939 189.611 245.371 188.951 246.234C188.299 247.089 187.974 248.329 187.974 249.954V250.398C187.974 251.981 188.299 253.2 188.951 254.055C189.603 254.91 190.534 255.337 191.744 255.337ZM203.678 250.64L202.205 252.176V257H199.856V237.5H202.205V249.294L203.462 247.783L207.74 243.264H210.597L205.252 249.002L211.219 257H208.464L203.678 250.64Z" fill="white"/>
<path d="M89.8887 48.1357H93.457V49.6738H89.8887V53.7168H88.2539V49.6738H84.6855V48.1357H88.2539V44.4004H89.8887V48.1357ZM103.661 55H95.2764V53.8311L99.7061 48.9092C100.362 48.165 100.813 47.5615 101.06 47.0986C101.312 46.6299 101.438 46.1465 101.438 45.6484C101.438 44.9805 101.235 44.4326 100.831 44.0049C100.427 43.5771 99.8877 43.3633 99.2139 43.3633C98.4053 43.3633 97.7754 43.5947 97.3242 44.0576C96.8789 44.5146 96.6562 45.1533 96.6562 45.9736H95.0303C95.0303 44.7959 95.4082 43.8438 96.1641 43.1172C96.9258 42.3906 97.9424 42.0273 99.2139 42.0273C100.403 42.0273 101.344 42.3408 102.035 42.9678C102.727 43.5889 103.072 44.418 103.072 45.4551C103.072 46.7148 102.27 48.2148 100.664 49.9551L97.2363 53.6729H103.661V55ZM112.222 43.1875V45.4902H113.997V46.7471H112.222V52.6445C112.222 53.0254 112.301 53.3125 112.459 53.5059C112.617 53.6934 112.887 53.7871 113.268 53.7871C113.455 53.7871 113.713 53.752 114.041 53.6816V55C113.613 55.1172 113.197 55.1758 112.793 55.1758C112.066 55.1758 111.519 54.9561 111.149 54.5166C110.78 54.0771 110.596 53.4531 110.596 52.6445V46.7471H108.864V45.4902H110.596V43.1875H112.222ZM121.775 54.0596C121.143 54.8037 120.214 55.1758 118.989 55.1758C117.976 55.1758 117.202 54.8828 116.669 54.2969C116.142 53.7051 115.875 52.832 115.869 51.6777V45.4902H117.495V51.6338C117.495 53.0752 118.081 53.7959 119.253 53.7959C120.495 53.7959 121.321 53.333 121.731 52.4072V45.4902H123.357V55H121.811L121.775 54.0596ZM130.433 46.9492C130.187 46.9082 129.92 46.8877 129.633 46.8877C128.566 46.8877 127.843 47.3418 127.462 48.25V55H125.836V45.4902H127.418L127.444 46.5889C127.978 45.7393 128.733 45.3145 129.712 45.3145C130.028 45.3145 130.269 45.3555 130.433 45.4375V46.9492ZM133.474 45.4902L133.526 46.6855C134.253 45.7715 135.202 45.3145 136.374 45.3145C138.384 45.3145 139.397 46.4482 139.415 48.7158V55H137.789V48.707C137.783 48.0215 137.625 47.5146 137.314 47.1865C137.01 46.8584 136.532 46.6943 135.882 46.6943C135.354 46.6943 134.892 46.835 134.493 47.1162C134.095 47.3975 133.784 47.7666 133.562 48.2236V55H131.936V45.4902H133.474ZM147.404 52.4775C147.404 52.0381 147.237 51.6982 146.903 51.458C146.575 51.2119 145.998 51.001 145.172 50.8252C144.352 50.6494 143.698 50.4385 143.212 50.1924C142.731 49.9463 142.374 49.6533 142.14 49.3135C141.911 48.9736 141.797 48.5693 141.797 48.1006C141.797 47.3213 142.125 46.6621 142.781 46.123C143.443 45.584 144.287 45.3145 145.312 45.3145C146.391 45.3145 147.264 45.5928 147.932 46.1494C148.605 46.7061 148.942 47.418 148.942 48.2852H147.308C147.308 47.8398 147.117 47.4561 146.736 47.1338C146.361 46.8115 145.887 46.6504 145.312 46.6504C144.721 46.6504 144.258 46.7793 143.924 47.0371C143.59 47.2949 143.423 47.6318 143.423 48.0479C143.423 48.4404 143.578 48.7363 143.889 48.9355C144.199 49.1348 144.759 49.3252 145.567 49.5068C146.382 49.6885 147.041 49.9053 147.545 50.1572C148.049 50.4092 148.421 50.7139 148.661 51.0713C148.907 51.4229 149.03 51.8535 149.03 52.3633C149.03 53.2129 148.69 53.8955 148.011 54.4111C147.331 54.9209 146.449 55.1758 145.365 55.1758C144.604 55.1758 143.93 55.041 143.344 54.7715C142.758 54.502 142.298 54.127 141.964 53.6465C141.636 53.1602 141.472 52.6357 141.472 52.0732H143.098C143.127 52.6182 143.344 53.0518 143.748 53.374C144.158 53.6904 144.697 53.8486 145.365 53.8486C145.98 53.8486 146.473 53.7256 146.842 53.4795C147.217 53.2275 147.404 52.8936 147.404 52.4775Z" fill="white"/>
<path d="M97.847 167C97.4026 131.747 93.047 103.268 109.516 85.25H127.78C137.558 101.746 139.114 127.779 143 167H97.847Z" fill="white" stroke="black"/>
<path d="M133.875 73.1389C133.875 81.2212 127.287 87.7778 119.155 87.7778C111.023 87.7778 104.435 81.2212 104.435 73.1389C104.435 65.0566 111.023 58.5 119.155 58.5C127.287 58.5 133.875 65.0566 133.875 73.1389Z" fill="white" stroke="black"/>
<defs>
<clipPath id="clip0_504_85">
<rect width="52" height="124" fill="white" transform="matrix(-1 0 0 1 224 40.3555)"/>
</clipPath>
</defs>
</svg>
