<svg width="240" height="300" viewBox="0 0 240 300" fill="none" xmlns="http://www.w3.org/2000/svg">
<rect width="240" height="300" fill="#AB00FF"/>
<path d="M39.3525 262.176H31.6084L29.8691 267H27.3555L34.4141 248.516H36.5469L43.6182 267H41.1172L39.3525 262.176ZM32.3447 260.17H38.6289L35.4805 251.524L32.3447 260.17ZM48.29 267H45.9414V247.5H48.29V267ZM55.2471 249.938V253.264H57.8115V255.079H55.2471V263.598C55.2471 264.148 55.3613 264.562 55.5898 264.842C55.8184 265.113 56.2077 265.248 56.7578 265.248C57.0286 265.248 57.401 265.197 57.875 265.096V267C57.2572 267.169 56.6562 267.254 56.0723 267.254C55.0228 267.254 54.2314 266.937 53.6982 266.302C53.165 265.667 52.8984 264.766 52.8984 263.598V255.079H50.3975V253.264H52.8984V249.938H55.2471ZM66.2666 267.254C64.4046 267.254 62.8896 266.645 61.7217 265.426C60.5537 264.199 59.9697 262.561 59.9697 260.513V260.081C59.9697 258.718 60.2279 257.504 60.7441 256.438C61.2689 255.363 61.9967 254.525 62.9277 253.924C63.8672 253.314 64.8828 253.01 65.9746 253.01C67.7604 253.01 69.1484 253.598 70.1387 254.774C71.1289 255.951 71.624 257.635 71.624 259.827V260.805H62.3184C62.3522 262.159 62.7458 263.255 63.499 264.093C64.2607 264.922 65.2256 265.337 66.3936 265.337C67.223 265.337 67.9255 265.168 68.501 264.829C69.0765 264.491 69.5801 264.042 70.0117 263.483L71.4463 264.601C70.2952 266.369 68.5687 267.254 66.2666 267.254ZM65.9746 254.939C65.0267 254.939 64.2311 255.286 63.5879 255.98C62.9447 256.666 62.5469 257.631 62.3945 258.875H69.2754V258.697C69.2077 257.504 68.8861 256.581 68.3105 255.93C67.735 255.27 66.9564 254.939 65.9746 254.939ZM80.9932 255.371C80.6377 255.312 80.2526 255.282 79.8379 255.282C78.2975 255.282 77.2523 255.938 76.7021 257.25V267H74.3535V253.264H76.6387L76.6768 254.851C77.4469 253.623 78.5387 253.01 79.9521 253.01C80.4092 253.01 80.7562 253.069 80.9932 253.188V255.371ZM102.245 250.521H96.3037V267H93.8789V250.521H87.9502V248.516H102.245V250.521ZM106.968 254.927C108.009 253.649 109.363 253.01 111.03 253.01C113.933 253.01 115.397 254.647 115.423 257.923V267H113.074V257.91C113.066 256.92 112.837 256.188 112.389 255.714C111.949 255.24 111.259 255.003 110.319 255.003C109.558 255.003 108.889 255.206 108.313 255.612C107.738 256.019 107.289 256.552 106.968 257.212V267H104.619V247.5H106.968V254.927ZM124.64 267.254C122.778 267.254 121.263 266.645 120.095 265.426C118.927 264.199 118.343 262.561 118.343 260.513V260.081C118.343 258.718 118.601 257.504 119.117 256.438C119.642 255.363 120.37 254.525 121.301 253.924C122.24 253.314 123.256 253.01 124.348 253.01C126.133 253.01 127.521 253.598 128.512 254.774C129.502 255.951 129.997 257.635 129.997 259.827V260.805H120.691C120.725 262.159 121.119 263.255 121.872 264.093C122.634 264.922 123.599 265.337 124.767 265.337C125.596 265.337 126.299 265.168 126.874 264.829C127.45 264.491 127.953 264.042 128.385 263.483L129.819 264.601C128.668 266.369 126.942 267.254 124.64 267.254ZM124.348 254.939C123.4 254.939 122.604 255.286 121.961 255.98C121.318 256.666 120.92 257.631 120.768 258.875H127.648V258.697C127.581 257.504 127.259 256.581 126.684 255.93C126.108 255.27 125.329 254.939 124.348 254.939ZM149.738 258.837H141.981V267H139.544V248.516H150.995V250.521H141.981V256.844H149.738V258.837ZM161.748 265.642C160.834 266.716 159.493 267.254 157.724 267.254C156.259 267.254 155.142 266.831 154.372 265.984C153.61 265.13 153.225 263.868 153.217 262.201V253.264H155.565V262.138C155.565 264.22 156.412 265.261 158.104 265.261C159.899 265.261 161.092 264.592 161.685 263.255V253.264H164.033V267H161.799L161.748 265.642ZM170.8 249.938V253.264H173.364V255.079H170.8V263.598C170.8 264.148 170.914 264.562 171.143 264.842C171.371 265.113 171.76 265.248 172.311 265.248C172.581 265.248 172.954 265.197 173.428 265.096V267C172.81 267.169 172.209 267.254 171.625 267.254C170.576 267.254 169.784 266.937 169.251 266.302C168.718 265.667 168.451 264.766 168.451 263.598V255.079H165.95V253.264H168.451V249.938H170.8ZM184.6 265.642C183.686 266.716 182.344 267.254 180.575 267.254C179.111 267.254 177.994 266.831 177.224 265.984C176.462 265.13 176.077 263.868 176.068 262.201V253.264H178.417V262.138C178.417 264.22 179.263 265.261 180.956 265.261C182.75 265.261 183.944 264.592 184.536 263.255V253.264H186.885V267H184.65L184.6 265.642ZM197.104 255.371C196.749 255.312 196.364 255.282 195.949 255.282C194.409 255.282 193.364 255.938 192.813 257.25V267H190.465V253.264H192.75L192.788 254.851C193.558 253.623 194.65 253.01 196.063 253.01C196.521 253.01 196.868 253.069 197.104 253.188V255.371ZM204.722 267.254C202.86 267.254 201.345 266.645 200.177 265.426C199.009 264.199 198.425 262.561 198.425 260.513V260.081C198.425 258.718 198.683 257.504 199.199 256.438C199.724 255.363 200.452 254.525 201.383 253.924C202.322 253.314 203.338 253.01 204.43 253.01C206.215 253.01 207.604 253.598 208.594 254.774C209.584 255.951 210.079 257.635 210.079 259.827V260.805H200.773C200.807 262.159 201.201 263.255 201.954 264.093C202.716 264.922 203.681 265.337 204.849 265.337C205.678 265.337 206.381 265.168 206.956 264.829C207.532 264.491 208.035 264.042 208.467 263.483L209.901 264.601C208.75 266.369 207.024 267.254 204.722 267.254ZM204.43 254.939C203.482 254.939 202.686 255.286 202.043 255.98C201.4 256.666 201.002 257.631 200.85 258.875H207.73V258.697C207.663 257.504 207.341 256.581 206.766 255.93C206.19 255.27 205.411 254.939 204.43 254.939Z" fill="white"/>
<path d="M113.213 28.977C113.753 28.8592 114.095 28.3263 113.977 27.7867L112.058 18.9937C111.94 18.4542 111.407 18.1122 110.867 18.23C110.328 18.3478 109.986 18.8807 110.104 19.4203L111.81 27.2362L103.994 28.9424C103.454 29.0602 103.112 29.5931 103.23 30.1327C103.348 30.6722 103.881 31.0142 104.42 30.8964L113.213 28.977ZM47.5351 28.8448C60.6918 20.5109 71.0658 16.8184 81.0139 17.0069C90.9669 17.1954 100.661 21.2709 112.46 28.8416L113.54 27.1583C101.625 19.5134 91.5534 15.2061 81.0518 15.0072C70.5452 14.8082 59.7761 18.7235 46.4649 27.1552L47.5351 28.8448Z" fill="white"/>
<path d="M55.2394 144.827C54.8675 144.418 54.235 144.389 53.8267 144.761L47.1726 150.821C46.7643 151.192 46.7347 151.825 47.1066 152.233C47.4785 152.642 48.1109 152.671 48.5193 152.299L54.434 146.913L59.8206 152.827C60.1925 153.236 60.825 153.265 61.2333 152.893C61.6416 152.522 61.6712 151.889 61.2993 151.481L55.2394 144.827ZM178.502 140.565C179.603 157.564 172.383 169.577 160.956 177.296C149.476 185.052 133.7 188.497 117.773 188.125C101.851 187.754 85.9101 183.569 74.1393 176.214C62.3754 168.864 54.8964 158.441 55.4989 145.547L53.5011 145.453C52.8536 159.309 60.9371 170.324 73.0795 177.911C85.2149 185.493 101.524 189.746 117.727 190.125C133.925 190.503 150.149 187.011 162.075 178.954C174.055 170.861 181.647 158.186 180.498 140.435L178.502 140.565Z" fill="white"/>
<path d="M208.213 28.977C208.753 28.8592 209.095 28.3263 208.977 27.7867L207.058 18.9937C206.94 18.4542 206.407 18.1122 205.867 18.23C205.328 18.3478 204.986 18.8807 205.104 19.4203L206.81 27.2362L198.994 28.9424C198.454 29.0602 198.112 29.5931 198.23 30.1327C198.348 30.6722 198.881 31.0142 199.42 30.8964L208.213 28.977ZM142.535 28.8448C155.692 20.5109 166.066 16.8184 176.014 17.0069C185.967 17.1954 195.661 21.2709 207.46 28.8416L208.54 27.1583C196.625 19.5134 186.553 15.2061 176.052 15.0072C165.545 14.8082 154.776 18.7235 141.465 27.1552L142.535 28.8448Z" fill="white"/>
<rect x="7.5" y="37.5" width="66" height="96" fill="white" stroke="black"/>
<rect x="84.5" y="37.5" width="66" height="96" fill="white" stroke="black"/>
<path d="M100.552 68.6602H95.1904L93.9863 72H92.2461L97.1328 59.2031H98.6094L103.505 72H101.773L100.552 68.6602ZM95.7002 67.2715H100.051L97.8711 61.2861L95.7002 67.2715ZM107.021 60.1875V62.4902H108.796V63.7471H107.021V69.6445C107.021 70.0254 107.1 70.3125 107.258 70.5059C107.416 70.6934 107.686 70.7871 108.066 70.7871C108.254 70.7871 108.512 70.752 108.84 70.6816V72C108.412 72.1172 107.996 72.1758 107.592 72.1758C106.865 72.1758 106.317 71.9561 105.948 71.5166C105.579 71.0771 105.395 70.4531 105.395 69.6445V63.7471H103.663V62.4902H105.395V60.1875H107.021ZM112.909 60.1875V62.4902H114.685V63.7471H112.909V69.6445C112.909 70.0254 112.988 70.3125 113.146 70.5059C113.305 70.6934 113.574 70.7871 113.955 70.7871C114.143 70.7871 114.4 70.752 114.729 70.6816V72C114.301 72.1172 113.885 72.1758 113.48 72.1758C112.754 72.1758 112.206 71.9561 111.837 71.5166C111.468 71.0771 111.283 70.4531 111.283 69.6445V63.7471H109.552V62.4902H111.283V60.1875H112.909ZM122.463 72C122.369 71.8125 122.293 71.4785 122.234 70.998C121.479 71.7832 120.576 72.1758 119.527 72.1758C118.59 72.1758 117.819 71.9121 117.216 71.3848C116.618 70.8516 116.319 70.1777 116.319 69.3633C116.319 68.373 116.694 67.6055 117.444 67.0605C118.2 66.5098 119.261 66.2344 120.626 66.2344H122.208V65.4873C122.208 64.9189 122.038 64.4678 121.698 64.1338C121.358 63.7939 120.857 63.624 120.195 63.624C119.615 63.624 119.129 63.7705 118.736 64.0635C118.344 64.3564 118.147 64.7109 118.147 65.127H116.513C116.513 64.6523 116.68 64.1953 117.014 63.7559C117.354 63.3105 117.811 62.959 118.385 62.7012C118.965 62.4434 119.601 62.3145 120.292 62.3145C121.388 62.3145 122.246 62.5898 122.867 63.1406C123.488 63.6855 123.811 64.4385 123.834 65.3994V69.7764C123.834 70.6494 123.945 71.3438 124.168 71.8594V72H122.463ZM119.765 70.7607C120.274 70.7607 120.758 70.6289 121.215 70.3652C121.672 70.1016 122.003 69.7588 122.208 69.3369V67.3857H120.934C118.941 67.3857 117.945 67.9688 117.945 69.1348C117.945 69.6445 118.115 70.043 118.455 70.3301C118.795 70.6172 119.231 70.7607 119.765 70.7607ZM130.197 70.8486C130.777 70.8486 131.284 70.6729 131.718 70.3213C132.151 69.9697 132.392 69.5303 132.438 69.0029H133.977C133.947 69.5479 133.76 70.0664 133.414 70.5586C133.068 71.0508 132.605 71.4434 132.025 71.7363C131.451 72.0293 130.842 72.1758 130.197 72.1758C128.902 72.1758 127.871 71.7451 127.104 70.8838C126.342 70.0166 125.961 68.833 125.961 67.333V67.0605C125.961 66.1348 126.131 65.3115 126.471 64.5908C126.811 63.8701 127.297 63.3105 127.93 62.9121C128.568 62.5137 129.321 62.3145 130.188 62.3145C131.255 62.3145 132.14 62.6338 132.843 63.2725C133.552 63.9111 133.93 64.7402 133.977 65.7598H132.438C132.392 65.1445 132.157 64.6406 131.735 64.248C131.319 63.8496 130.804 63.6504 130.188 63.6504C129.362 63.6504 128.721 63.9492 128.264 64.5469C127.812 65.1387 127.587 65.9971 127.587 67.1221V67.4297C127.587 68.5254 127.812 69.3691 128.264 69.9609C128.715 70.5527 129.359 70.8486 130.197 70.8486ZM138.459 67.5967L137.439 68.6602V72H135.813V58.5H137.439V66.665L138.31 65.6191L141.271 62.4902H143.249L139.549 66.4629L143.68 72H141.772L138.459 67.5967Z" fill="black"/>
<path d="M28.2559 66.2959C26.8086 65.8799 25.7539 65.3701 25.0918 64.7666C24.4355 64.1572 24.1074 63.4072 24.1074 62.5166C24.1074 61.5088 24.5088 60.6768 25.3115 60.0205C26.1201 59.3584 27.1689 59.0273 28.458 59.0273C29.3369 59.0273 30.1191 59.1973 30.8047 59.5371C31.4961 59.877 32.0293 60.3457 32.4043 60.9434C32.7852 61.541 32.9756 62.1943 32.9756 62.9033H31.2793C31.2793 62.1299 31.0332 61.5234 30.541 61.084C30.0488 60.6387 29.3545 60.416 28.458 60.416C27.626 60.416 26.9756 60.6006 26.5068 60.9697C26.0439 61.333 25.8125 61.8398 25.8125 62.4902C25.8125 63.0117 26.0322 63.4541 26.4717 63.8174C26.917 64.1748 27.6699 64.5029 28.7305 64.8018C29.7969 65.1006 30.6289 65.4316 31.2266 65.7949C31.8301 66.1523 32.2754 66.5713 32.5625 67.0518C32.8555 67.5322 33.002 68.0977 33.002 68.748C33.002 69.7852 32.5977 70.6172 31.7891 71.2441C30.9805 71.8652 29.8994 72.1758 28.5459 72.1758C27.667 72.1758 26.8467 72.0088 26.085 71.6748C25.3232 71.335 24.7344 70.8721 24.3184 70.2861C23.9082 69.7002 23.7031 69.0352 23.7031 68.291H25.3994C25.3994 69.0645 25.6836 69.6768 26.252 70.1279C26.8262 70.5732 27.5908 70.7959 28.5459 70.7959C29.4365 70.7959 30.1191 70.6143 30.5938 70.251C31.0684 69.8877 31.3057 69.3926 31.3057 68.7656C31.3057 68.1387 31.0859 67.6553 30.6465 67.3154C30.207 66.9697 29.4102 66.6299 28.2559 66.2959ZM37.5723 67.5967L36.5527 68.6602V72H34.9268V58.5H36.5527V66.665L37.4229 65.6191L40.3848 62.4902H42.3623L38.6621 66.4629L42.793 72H40.8857L37.5723 67.5967ZM45.8076 72H44.1816V62.4902H45.8076V72ZM44.0498 59.9678C44.0498 59.7041 44.1289 59.4814 44.2871 59.2998C44.4512 59.1182 44.6914 59.0273 45.0078 59.0273C45.3242 59.0273 45.5645 59.1182 45.7285 59.2998C45.8926 59.4814 45.9746 59.7041 45.9746 59.9678C45.9746 60.2314 45.8926 60.4512 45.7285 60.627C45.5645 60.8027 45.3242 60.8906 45.0078 60.8906C44.6914 60.8906 44.4512 60.8027 44.2871 60.627C44.1289 60.4512 44.0498 60.2314 44.0498 59.9678ZM56.4512 67.3506C56.4512 68.7979 56.1201 69.9639 55.458 70.8486C54.7959 71.7334 53.8994 72.1758 52.7686 72.1758C51.6143 72.1758 50.7061 71.8096 50.0439 71.0771V75.6562H48.418V62.4902H49.9033L49.9824 63.5449C50.6445 62.7246 51.5645 62.3145 52.7422 62.3145C53.8848 62.3145 54.7871 62.7451 55.4492 63.6064C56.1172 64.4678 56.4512 65.666 56.4512 67.2012V67.3506ZM54.8252 67.166C54.8252 66.0938 54.5967 65.2471 54.1396 64.626C53.6826 64.0049 53.0557 63.6943 52.2588 63.6943C51.2744 63.6943 50.5361 64.1309 50.0439 65.0039V69.5479C50.5303 70.415 51.2744 70.8486 52.2764 70.8486C53.0557 70.8486 53.6738 70.541 54.1309 69.9258C54.5938 69.3047 54.8252 68.3848 54.8252 67.166Z" fill="black"/>
<rect x="163.5" y="37.5" width="67" height="96" fill="white" stroke="black"/>
<path d="M186.32 72H184.624L178.182 62.1387V72H176.485V59.2031H178.182L184.642 69.1084V59.2031H186.32V72ZM188.632 67.1572C188.632 66.2256 188.813 65.3877 189.177 64.6436C189.546 63.8994 190.056 63.3252 190.706 62.9209C191.362 62.5166 192.109 62.3145 192.947 62.3145C194.242 62.3145 195.288 62.7627 196.085 63.6592C196.888 64.5557 197.289 65.748 197.289 67.2363V67.3506C197.289 68.2764 197.11 69.1084 196.753 69.8467C196.401 70.5791 195.895 71.1504 195.232 71.5605C194.576 71.9707 193.82 72.1758 192.965 72.1758C191.676 72.1758 190.63 71.7275 189.827 70.8311C189.03 69.9346 188.632 68.748 188.632 67.2715V67.1572ZM190.267 67.3506C190.267 68.4053 190.51 69.252 190.996 69.8906C191.488 70.5293 192.145 70.8486 192.965 70.8486C193.791 70.8486 194.447 70.5264 194.934 69.8818C195.42 69.2314 195.663 68.3232 195.663 67.1572C195.663 66.1143 195.414 65.2705 194.916 64.626C194.424 63.9756 193.768 63.6504 192.947 63.6504C192.145 63.6504 191.497 63.9697 191.005 64.6084C190.513 65.2471 190.267 66.1611 190.267 67.3506ZM207.361 67.3506C207.361 68.7979 207.03 69.9639 206.368 70.8486C205.706 71.7334 204.81 72.1758 203.679 72.1758C202.524 72.1758 201.616 71.8096 200.954 71.0771V75.6562H199.328V62.4902H200.813L200.893 63.5449C201.555 62.7246 202.475 62.3145 203.652 62.3145C204.795 62.3145 205.697 62.7451 206.359 63.6064C207.027 64.4678 207.361 65.666 207.361 67.2012V67.3506ZM205.735 67.166C205.735 66.0938 205.507 65.2471 205.05 64.626C204.593 64.0049 203.966 63.6943 203.169 63.6943C202.185 63.6943 201.446 64.1309 200.954 65.0039V69.5479C201.44 70.415 202.185 70.8486 203.187 70.8486C203.966 70.8486 204.584 70.541 205.041 69.9258C205.504 69.3047 205.735 68.3848 205.735 67.166ZM213.382 72.1758C212.093 72.1758 211.044 71.7539 210.235 70.9102C209.427 70.0605 209.022 68.9268 209.022 67.5088V67.21C209.022 66.2666 209.201 65.4258 209.559 64.6875C209.922 63.9434 210.426 63.3633 211.07 62.9473C211.721 62.5254 212.424 62.3145 213.18 62.3145C214.416 62.3145 215.377 62.7217 216.062 63.5361C216.748 64.3506 217.091 65.5166 217.091 67.0342V67.7109H210.648C210.672 68.6484 210.944 69.4072 211.466 69.9873C211.993 70.5615 212.661 70.8486 213.47 70.8486C214.044 70.8486 214.53 70.7314 214.929 70.4971C215.327 70.2627 215.676 69.9521 215.975 69.5654L216.968 70.3389C216.171 71.5635 214.976 72.1758 213.382 72.1758ZM213.18 63.6504C212.523 63.6504 211.973 63.8906 211.527 64.3711C211.082 64.8457 210.807 65.5137 210.701 66.375H215.465V66.252C215.418 65.4258 215.195 64.7871 214.797 64.3359C214.398 63.8789 213.859 63.6504 213.18 63.6504Z" fill="black"/>
</svg>
