<svg width="240" height="300" viewBox="0 0 240 300" fill="none" xmlns="http://www.w3.org/2000/svg">
<g clip-path="url(#clip0_501_138)">
<rect width="240" height="300" fill="white"/>
<path d="M65.1455 251V232.516H71.1885C73.1943 232.516 74.7008 232.93 75.708 233.76C76.7236 234.589 77.2314 235.816 77.2314 237.441C77.2314 238.305 76.986 239.071 76.4951 239.739C76.0042 240.399 75.3356 240.911 74.4893 241.275C75.488 241.555 76.2751 242.088 76.8506 242.875C77.4346 243.654 77.7266 244.585 77.7266 245.668C77.7266 247.327 77.1891 248.63 76.1143 249.578C75.0394 250.526 73.5202 251 71.5566 251H65.1455ZM67.583 242.354V249.007H71.6074C72.7415 249.007 73.6344 248.715 74.2861 248.131C74.9463 247.538 75.2764 246.726 75.2764 245.693C75.2764 243.467 74.0661 242.354 71.6455 242.354H67.583ZM67.583 240.399H71.2646C72.3311 240.399 73.1816 240.133 73.8164 239.6C74.4596 239.066 74.7812 238.343 74.7812 237.429C74.7812 236.413 74.485 235.677 73.8926 235.22C73.3001 234.754 72.3988 234.521 71.1885 234.521H67.583V240.399ZM86.6768 251.254C84.8148 251.254 83.2998 250.645 82.1318 249.426C80.9639 248.199 80.3799 246.561 80.3799 244.513V244.081C80.3799 242.718 80.638 241.504 81.1543 240.438C81.679 239.363 82.4069 238.525 83.3379 237.924C84.2773 237.314 85.293 237.01 86.3848 237.01C88.1706 237.01 89.5586 237.598 90.5488 238.774C91.5391 239.951 92.0342 241.635 92.0342 243.827V244.805H82.7285C82.7624 246.159 83.1559 247.255 83.9092 248.093C84.6709 248.922 85.6357 249.337 86.8037 249.337C87.6331 249.337 88.3356 249.168 88.9111 248.829C89.4867 248.491 89.9902 248.042 90.4219 247.483L91.8564 248.601C90.7054 250.369 88.9788 251.254 86.6768 251.254ZM86.3848 238.939C85.4368 238.939 84.6413 239.286 83.998 239.98C83.3548 240.666 82.957 241.631 82.8047 242.875H89.6855V242.697C89.6178 241.504 89.2962 240.581 88.7207 239.93C88.1452 239.27 87.3665 238.939 86.3848 238.939ZM103.244 251C103.109 250.729 102.999 250.247 102.914 249.553C101.822 250.687 100.519 251.254 99.0039 251.254C97.6497 251.254 96.5368 250.873 95.665 250.111C94.8018 249.341 94.3701 248.368 94.3701 247.191C94.3701 245.761 94.9118 244.652 95.9951 243.865C97.0869 243.07 98.6188 242.672 100.591 242.672H102.876V241.593C102.876 240.772 102.631 240.12 102.14 239.638C101.649 239.147 100.925 238.901 99.9688 238.901C99.1309 238.901 98.4284 239.113 97.8613 239.536C97.2943 239.959 97.0107 240.471 97.0107 241.072H94.6494C94.6494 240.387 94.8906 239.727 95.373 239.092C95.8639 238.449 96.5241 237.941 97.3535 237.568C98.1914 237.196 99.1097 237.01 100.108 237.01C101.691 237.01 102.931 237.408 103.828 238.203C104.725 238.99 105.191 240.078 105.225 241.466V247.788C105.225 249.049 105.385 250.052 105.707 250.797V251H103.244ZM99.3467 249.21C100.083 249.21 100.781 249.02 101.441 248.639C102.102 248.258 102.58 247.763 102.876 247.153V244.335H101.035C98.1576 244.335 96.7188 245.177 96.7188 246.861C96.7188 247.598 96.9642 248.173 97.4551 248.588C97.946 249.003 98.5765 249.21 99.3467 249.21ZM115.546 239.371C115.19 239.312 114.805 239.282 114.391 239.282C112.85 239.282 111.805 239.938 111.255 241.25V251H108.906V237.264H111.191L111.229 238.851C112 237.623 113.091 237.01 114.505 237.01C114.962 237.01 115.309 237.069 115.546 237.188V239.371ZM116.892 244.018C116.892 241.91 117.391 240.217 118.39 238.939C119.388 237.653 120.696 237.01 122.312 237.01C123.921 237.01 125.194 237.56 126.134 238.66V231.5H128.482V251H126.324L126.21 249.527C125.271 250.678 123.963 251.254 122.287 251.254C120.696 251.254 119.397 250.602 118.39 249.299C117.391 247.995 116.892 246.294 116.892 244.195V244.018ZM119.24 244.284C119.24 245.841 119.562 247.06 120.205 247.94C120.848 248.821 121.737 249.261 122.871 249.261C124.361 249.261 125.448 248.592 126.134 247.255V240.945C125.431 239.65 124.352 239.003 122.896 239.003C121.745 239.003 120.848 239.447 120.205 240.336C119.562 241.225 119.24 242.541 119.24 244.284ZM152.553 245.135C152.324 247.09 151.601 248.601 150.382 249.667C149.172 250.725 147.559 251.254 145.545 251.254C143.361 251.254 141.609 250.471 140.289 248.905C138.977 247.34 138.321 245.245 138.321 242.621V240.844C138.321 239.126 138.626 237.615 139.235 236.312C139.853 235.008 140.725 234.009 141.851 233.315C142.976 232.613 144.28 232.262 145.761 232.262C147.724 232.262 149.299 232.812 150.483 233.912C151.668 235.004 152.358 236.519 152.553 238.457H150.103C149.891 236.984 149.43 235.918 148.719 235.258C148.016 234.598 147.03 234.268 145.761 234.268C144.203 234.268 142.98 234.843 142.092 235.994C141.212 237.145 140.771 238.783 140.771 240.907V242.697C140.771 244.703 141.19 246.299 142.028 247.483C142.866 248.668 144.038 249.261 145.545 249.261C146.899 249.261 147.936 248.956 148.655 248.347C149.383 247.729 149.866 246.658 150.103 245.135H152.553ZM164.004 251C163.868 250.729 163.758 250.247 163.674 249.553C162.582 250.687 161.279 251.254 159.764 251.254C158.41 251.254 157.297 250.873 156.425 250.111C155.562 249.341 155.13 248.368 155.13 247.191C155.13 245.761 155.672 244.652 156.755 243.865C157.847 243.07 159.379 242.672 161.351 242.672H163.636V241.593C163.636 240.772 163.39 240.12 162.899 239.638C162.409 239.147 161.685 238.901 160.729 238.901C159.891 238.901 159.188 239.113 158.621 239.536C158.054 239.959 157.771 240.471 157.771 241.072H155.409C155.409 240.387 155.65 239.727 156.133 239.092C156.624 238.449 157.284 237.941 158.113 237.568C158.951 237.196 159.869 237.01 160.868 237.01C162.451 237.01 163.691 237.408 164.588 238.203C165.485 238.99 165.951 240.078 165.984 241.466V247.788C165.984 249.049 166.145 250.052 166.467 250.797V251H164.004ZM160.106 249.21C160.843 249.21 161.541 249.02 162.201 248.639C162.861 248.258 163.34 247.763 163.636 247.153V244.335H161.795C158.917 244.335 157.479 245.177 157.479 246.861C157.479 247.598 157.724 248.173 158.215 248.588C158.706 249.003 159.336 249.21 160.106 249.21ZM172.853 233.938V237.264H175.417V239.079H172.853V247.598C172.853 248.148 172.967 248.562 173.195 248.842C173.424 249.113 173.813 249.248 174.363 249.248C174.634 249.248 175.007 249.197 175.48 249.096V251C174.863 251.169 174.262 251.254 173.678 251.254C172.628 251.254 171.837 250.937 171.304 250.302C170.771 249.667 170.504 248.766 170.504 247.598V239.079H168.003V237.264H170.504V233.938H172.853Z" fill="black"/>
<path d="M81 60.5458C56.8683 57.5006 38.265 66.956 0 95" stroke="black"/>
<path d="M36 92.3275C24.9769 90.5004 16.4791 96.1736 -1 113" stroke="black"/>
<path d="M118.343 217C86.9522 207.267 80.7657 171.14 80.7657 171.14C80.7657 171.14 78.0477 100.312 82.8534 14H158.703C163.871 88.0099 158.703 171.14 158.703 171.14C158.703 171.14 145.118 216.29 118.343 217Z" fill="#41392E" stroke="black"/>
<path d="M101 87.5C101.104 69.6586 100.617 66.5003 112.5 55.5L121 33L161.5 52V94.5C155.938 108.877 150.944 105.551 125 102.5L124.805 102.484C110.727 101.362 106.736 101.043 101 87.5Z" fill="white" stroke="black"/>
<path d="M136.5 83H141.5C141.5 83 146.5 81.5 141.5 76.5" stroke="black"/>
<path d="M141.5 76.5C138.959 73.9902 138.996 69.4553 139 61.5" stroke="black"/>
<path d="M133 79C131.208 80.0513 130.172 81.1629 130 84" stroke="black"/>
<circle cx="127" cy="62" r="6.5" stroke="black"/>
<circle cx="127" cy="62" r="2" fill="black"/>
<circle cx="151" cy="62" r="6.5" stroke="black"/>
<circle cx="151" cy="62" r="2" fill="black"/>
<path d="M162 60C186.132 56.9548 202.735 66.956 241 95" stroke="black"/>
<path d="M197 90.3587C210.407 88.3575 220.742 94.5711 242 113" stroke="black"/>
<path d="M81 75C104.805 68.2888 114.522 60.2321 121 33C134.309 52.2261 143.138 56.9261 162 51.5L160 14.5H83.5L81 75Z" fill="#41392E"/>
<path d="M153.516 137.98L157.146 128L161.682 135.258" stroke="black"/>
<circle cx="162.589" cy="150.682" r="15.831" fill="#41392E" stroke="black"/>
<path d="M149.887 141.609C148.782 144.051 145.749 145.992 139 149.775" stroke="black"/>
<path d="M149.887 143.424L147.165 145.238L143.536 150.682L151.702 164.291L154.424 162.477L149.887 143.424Z" fill="#41392E"/>
<path d="M153.461 163.808C151.154 170.118 149.469 171.771 144.509 173.448" stroke="black"/>
<path d="M174.998 131.896L176.096 142.444C173.498 140.564 173.257 137.911 168.94 136.166L174.998 131.896Z" fill="#41392E"/>
<path d="M176.198 143.424L174.998 131.896L168.94 136.166C173.313 137.934 173.503 140.633 176.199 142.516" stroke="black"/>
<circle cx="157.146" cy="145.238" r="3.12911" fill="white" stroke="black"/>
<circle cx="167.419" cy="142.647" r="3.12911" fill="white" stroke="black"/>
<path d="M162.456 158.207C159.894 156.385 159.108 154.663 158.281 150.977C161.397 149.766 163.231 149.804 166.587 150.632C165.94 154.299 165.123 156.024 162.456 158.207Z" fill="black"/>
<path d="M156.904 162.431C161.366 160.851 164.116 160.652 169.299 161.053" stroke="black"/>
</g>
<defs>
<clipPath id="clip0_501_138">
<rect width="240" height="300" fill="white"/>
</clipPath>
</defs>
</svg>
