<svg width="240" height="300" viewBox="0 0 240 300" fill="none" xmlns="http://www.w3.org/2000/svg">
<g clip-path="url(#clip0_502_45)">
<rect width="240" height="300" fill="white"/>
<path d="M26.9248 235.522H22.583V243H20.1328V224.516H26.252C28.334 224.516 29.9336 224.99 31.0508 225.938C32.1764 226.885 32.7393 228.265 32.7393 230.076C32.7393 231.227 32.4261 232.23 31.7998 233.085C31.182 233.94 30.3187 234.579 29.21 235.002L33.5518 242.848V243H30.9365L26.9248 235.522ZM22.583 233.529H26.3281C27.5384 233.529 28.499 233.216 29.21 232.59C29.9294 231.964 30.2891 231.126 30.2891 230.076C30.2891 228.934 29.9463 228.058 29.2607 227.448C28.5837 226.839 27.6019 226.53 26.3154 226.521H22.583V233.529ZM44.2793 243C44.1439 242.729 44.0339 242.247 43.9492 241.553C42.8574 242.687 41.554 243.254 40.0391 243.254C38.6849 243.254 37.5719 242.873 36.7002 242.111C35.8369 241.341 35.4053 240.368 35.4053 239.191C35.4053 237.761 35.9469 236.652 37.0303 235.865C38.1221 235.07 39.654 234.672 41.626 234.672H43.9111V233.593C43.9111 232.772 43.6657 232.12 43.1748 231.638C42.6839 231.147 41.9603 230.901 41.0039 230.901C40.166 230.901 39.4635 231.113 38.8965 231.536C38.3294 231.959 38.0459 232.471 38.0459 233.072H35.6846C35.6846 232.387 35.9258 231.727 36.4082 231.092C36.8991 230.449 37.5592 229.941 38.3887 229.568C39.2266 229.196 40.1449 229.01 41.1436 229.01C42.7262 229.01 43.9661 229.408 44.8633 230.203C45.7604 230.99 46.2259 232.078 46.2598 233.466V239.788C46.2598 241.049 46.4206 242.052 46.7422 242.797V243H44.2793ZM40.3818 241.21C41.1182 241.21 41.8164 241.02 42.4766 240.639C43.1367 240.258 43.6149 239.763 43.9111 239.153V236.335H42.0703C39.1927 236.335 37.7539 237.177 37.7539 238.861C37.7539 239.598 37.9993 240.173 38.4902 240.588C38.9811 241.003 39.6117 241.21 40.3818 241.21ZM52.4932 243H50.1445V229.264H52.4932V243ZM49.9541 225.62C49.9541 225.239 50.0684 224.918 50.2969 224.655C50.5339 224.393 50.8809 224.262 51.3379 224.262C51.7949 224.262 52.1419 224.393 52.3789 224.655C52.6159 224.918 52.7344 225.239 52.7344 225.62C52.7344 226.001 52.6159 226.318 52.3789 226.572C52.1419 226.826 51.7949 226.953 51.3379 226.953C50.8809 226.953 50.5339 226.826 50.2969 226.572C50.0684 226.318 49.9541 226.001 49.9541 225.62ZM58.4854 229.264L58.5615 230.99C59.611 229.67 60.9821 229.01 62.6748 229.01C65.5778 229.01 67.042 230.647 67.0674 233.923V243H64.7188V233.91C64.7103 232.92 64.4818 232.188 64.0332 231.714C63.5931 231.24 62.9033 231.003 61.9639 231.003C61.2021 231.003 60.5335 231.206 59.958 231.612C59.3825 232.019 58.9339 232.552 58.6123 233.212V243H56.2637V229.264H58.4854ZM82.2383 236.284C82.2383 238.383 81.7559 240.072 80.791 241.35C79.8262 242.619 78.5312 243.254 76.9062 243.254C75.1712 243.254 73.8298 242.64 72.8818 241.413L72.7676 243H70.6094V223.5H72.958V230.774C73.9059 229.598 75.2135 229.01 76.8809 229.01C78.5482 229.01 79.8558 229.64 80.8037 230.901C81.7601 232.162 82.2383 233.889 82.2383 236.081V236.284ZM79.8896 236.018C79.8896 234.418 79.5807 233.182 78.9629 232.311C78.3451 231.439 77.4564 231.003 76.2969 231.003C74.748 231.003 73.6351 231.722 72.958 233.161V239.103C73.6774 240.541 74.7988 241.261 76.3223 241.261C77.4479 241.261 78.3239 240.825 78.9502 239.953C79.5765 239.081 79.8896 237.77 79.8896 236.018ZM84.5869 236.005C84.5869 234.659 84.8493 233.449 85.374 232.374C85.9072 231.299 86.6436 230.47 87.583 229.886C88.5309 229.302 89.61 229.01 90.8203 229.01C92.6908 229.01 94.2015 229.657 95.3525 230.952C96.512 232.247 97.0918 233.969 97.0918 236.119V236.284C97.0918 237.621 96.8337 238.823 96.3174 239.89C95.8096 240.948 95.0775 241.773 94.1211 242.365C93.1732 242.958 92.0814 243.254 90.8457 243.254C88.9837 243.254 87.473 242.606 86.3135 241.312C85.1624 240.017 84.5869 238.303 84.5869 236.17V236.005ZM86.9482 236.284C86.9482 237.808 87.2995 239.031 88.002 239.953C88.7129 240.876 89.6608 241.337 90.8457 241.337C92.0391 241.337 92.987 240.871 93.6895 239.94C94.3919 239.001 94.7432 237.689 94.7432 236.005C94.7432 234.498 94.3835 233.28 93.6641 232.349C92.9531 231.409 92.0052 230.939 90.8203 230.939C89.6608 230.939 88.7256 231.401 88.0146 232.323C87.3037 233.246 86.9482 234.566 86.9482 236.284ZM112.199 239.763L114.84 229.264H117.188L113.189 243H111.285L107.946 232.59L104.696 243H102.792L98.8057 229.264H101.142L103.846 239.547L107.045 229.264H108.937L112.199 239.763ZM26.9248 265.522H22.583V273H20.1328V254.516H26.252C28.334 254.516 29.9336 254.99 31.0508 255.938C32.1764 256.885 32.7393 258.265 32.7393 260.076C32.7393 261.227 32.4261 262.23 31.7998 263.085C31.182 263.94 30.3187 264.579 29.21 265.002L33.5518 272.848V273H30.9365L26.9248 265.522ZM22.583 263.529H26.3281C27.5384 263.529 28.499 263.216 29.21 262.59C29.9294 261.964 30.2891 261.126 30.2891 260.076C30.2891 258.934 29.9463 258.058 29.2607 257.448C28.5837 256.839 27.6019 256.53 26.3154 256.521H22.583V263.529ZM44.2793 273C44.1439 272.729 44.0339 272.247 43.9492 271.553C42.8574 272.687 41.554 273.254 40.0391 273.254C38.6849 273.254 37.5719 272.873 36.7002 272.111C35.8369 271.341 35.4053 270.368 35.4053 269.191C35.4053 267.761 35.9469 266.652 37.0303 265.865C38.1221 265.07 39.654 264.672 41.626 264.672H43.9111V263.593C43.9111 262.772 43.6657 262.12 43.1748 261.638C42.6839 261.147 41.9603 260.901 41.0039 260.901C40.166 260.901 39.4635 261.113 38.8965 261.536C38.3294 261.959 38.0459 262.471 38.0459 263.072H35.6846C35.6846 262.387 35.9258 261.727 36.4082 261.092C36.8991 260.449 37.5592 259.941 38.3887 259.568C39.2266 259.196 40.1449 259.01 41.1436 259.01C42.7262 259.01 43.9661 259.408 44.8633 260.203C45.7604 260.99 46.2259 262.078 46.2598 263.466V269.788C46.2598 271.049 46.4206 272.052 46.7422 272.797V273H44.2793ZM40.3818 271.21C41.1182 271.21 41.8164 271.02 42.4766 270.639C43.1367 270.258 43.6149 269.763 43.9111 269.153V266.335H42.0703C39.1927 266.335 37.7539 267.177 37.7539 268.861C37.7539 269.598 37.9993 270.173 38.4902 270.588C38.9811 271.003 39.6117 271.21 40.3818 271.21ZM52.4932 273H50.1445V253.5H52.4932V273ZM67.8672 266.284C67.8672 268.375 67.389 270.059 66.4326 271.337C65.4762 272.615 64.1813 273.254 62.5479 273.254C60.8805 273.254 59.5687 272.725 58.6123 271.667V278.281H56.2637V259.264H58.4092L58.5234 260.787C59.4798 259.602 60.8086 259.01 62.5098 259.01C64.1602 259.01 65.4635 259.632 66.4199 260.876C67.3848 262.12 67.8672 263.851 67.8672 266.068V266.284ZM65.5186 266.018C65.5186 264.469 65.1885 263.246 64.5283 262.349C63.8682 261.451 62.9626 261.003 61.8115 261.003C60.3896 261.003 59.3232 261.633 58.6123 262.895V269.458C59.3148 270.711 60.3896 271.337 61.8369 271.337C62.9626 271.337 63.8555 270.893 64.5156 270.004C65.1842 269.107 65.5186 267.778 65.5186 266.018ZM73.2119 260.927C74.2529 259.649 75.6071 259.01 77.2744 259.01C80.1774 259.01 81.6416 260.647 81.667 263.923V273H79.3184V263.91C79.3099 262.92 79.0814 262.188 78.6328 261.714C78.1927 261.24 77.5029 261.003 76.5635 261.003C75.8018 261.003 75.1331 261.206 74.5576 261.612C73.9821 262.019 73.5335 262.552 73.2119 263.212V273H70.8633V253.5H73.2119V260.927ZM87.7354 273H85.3867V259.264H87.7354V273ZM85.1963 255.62C85.1963 255.239 85.3105 254.918 85.5391 254.655C85.776 254.393 86.123 254.262 86.5801 254.262C87.0371 254.262 87.3841 254.393 87.6211 254.655C87.8581 254.918 87.9766 255.239 87.9766 255.62C87.9766 256.001 87.8581 256.318 87.6211 256.572C87.3841 256.826 87.0371 256.953 86.5801 256.953C86.123 256.953 85.776 256.826 85.5391 256.572C85.3105 256.318 85.1963 256.001 85.1963 255.62ZM93.7275 259.264L93.8037 260.99C94.8532 259.67 96.2243 259.01 97.917 259.01C100.82 259.01 102.284 260.647 102.31 263.923V273H99.9609V263.91C99.9525 262.92 99.724 262.188 99.2754 261.714C98.8353 261.24 98.1455 261.003 97.2061 261.003C96.4443 261.003 95.7757 261.206 95.2002 261.612C94.6247 262.019 94.1761 262.552 93.8545 263.212V273H91.5059V259.264H93.7275ZM105.293 266.018C105.293 263.876 105.788 262.175 106.778 260.914C107.769 259.645 109.08 259.01 110.714 259.01C112.39 259.01 113.697 259.602 114.637 260.787L114.751 259.264H116.896V272.67C116.896 274.447 116.368 275.848 115.31 276.872C114.26 277.896 112.847 278.408 111.069 278.408C110.079 278.408 109.11 278.197 108.162 277.773C107.214 277.35 106.491 276.771 105.991 276.034L107.21 274.625C108.217 275.869 109.449 276.491 110.904 276.491C112.047 276.491 112.936 276.17 113.57 275.526C114.214 274.883 114.535 273.978 114.535 272.81V271.629C113.596 272.712 112.313 273.254 110.688 273.254C109.08 273.254 107.777 272.606 106.778 271.312C105.788 270.017 105.293 268.252 105.293 266.018ZM107.654 266.284C107.654 267.833 107.972 269.052 108.606 269.94C109.241 270.821 110.13 271.261 111.272 271.261C112.754 271.261 113.841 270.588 114.535 269.242V262.971C113.816 261.659 112.737 261.003 111.298 261.003C110.155 261.003 109.262 261.447 108.619 262.336C107.976 263.225 107.654 264.541 107.654 266.284ZM140.865 267.135C140.637 269.09 139.913 270.601 138.694 271.667C137.484 272.725 135.872 273.254 133.857 273.254C131.674 273.254 129.922 272.471 128.602 270.905C127.29 269.34 126.634 267.245 126.634 264.621V262.844C126.634 261.126 126.938 259.615 127.548 258.312C128.166 257.008 129.037 256.009 130.163 255.315C131.289 254.613 132.592 254.262 134.073 254.262C136.037 254.262 137.611 254.812 138.796 255.912C139.981 257.004 140.671 258.519 140.865 260.457H138.415C138.203 258.984 137.742 257.918 137.031 257.258C136.329 256.598 135.343 256.268 134.073 256.268C132.516 256.268 131.293 256.843 130.404 257.994C129.524 259.145 129.084 260.783 129.084 262.907V264.697C129.084 266.703 129.503 268.299 130.341 269.483C131.179 270.668 132.351 271.261 133.857 271.261C135.212 271.261 136.248 270.956 136.968 270.347C137.696 269.729 138.178 268.658 138.415 267.135H140.865ZM152.316 273C152.181 272.729 152.071 272.247 151.986 271.553C150.895 272.687 149.591 273.254 148.076 273.254C146.722 273.254 145.609 272.873 144.737 272.111C143.874 271.341 143.442 270.368 143.442 269.191C143.442 267.761 143.984 266.652 145.067 265.865C146.159 265.07 147.691 264.672 149.663 264.672H151.948V263.593C151.948 262.772 151.703 262.12 151.212 261.638C150.721 261.147 149.997 260.901 149.041 260.901C148.203 260.901 147.501 261.113 146.934 261.536C146.367 261.959 146.083 262.471 146.083 263.072H143.722C143.722 262.387 143.963 261.727 144.445 261.092C144.936 260.449 145.596 259.941 146.426 259.568C147.264 259.196 148.182 259.01 149.181 259.01C150.763 259.01 152.003 259.408 152.9 260.203C153.798 260.99 154.263 262.078 154.297 263.466V269.788C154.297 271.049 154.458 272.052 154.779 272.797V273H152.316ZM148.419 271.21C149.155 271.21 149.854 271.02 150.514 270.639C151.174 270.258 151.652 269.763 151.948 269.153V266.335H150.107C147.23 266.335 145.791 267.177 145.791 268.861C145.791 269.598 146.036 270.173 146.527 270.588C147.018 271.003 147.649 271.21 148.419 271.21ZM161.165 255.938V259.264H163.729V261.079H161.165V269.598C161.165 270.148 161.279 270.562 161.508 270.842C161.736 271.113 162.126 271.248 162.676 271.248C162.947 271.248 163.319 271.197 163.793 271.096V273C163.175 273.169 162.574 273.254 161.99 273.254C160.941 273.254 160.149 272.937 159.616 272.302C159.083 271.667 158.816 270.766 158.816 269.598V261.079H156.315V259.264H158.816V255.938H161.165Z" fill="black"/>
<path d="M24 28.5C23.1235 21.3 20.7275 19.2106 14 18C16.2318 15.048 17.4774 13.3866 21.5 12.5C28.9272 14.6272 31.1769 17.1568 34 22.5" stroke="black"/>
<path d="M89 17C88.1235 9.79999 85.7275 7.71061 79 6.5C81.2318 3.548 82.4774 1.8866 86.5 1C96.3298 -0.561657 103.273 12.4378 104 21" stroke="black"/>
<path d="M22.5153 78.2666L43.6294 71.2285" stroke="#FF03CB" stroke-width="3"/>
<path d="M23.9634 84.4249L45.9574 77.3868" stroke="#F6FF00" stroke-width="3"/>
<path d="M18.1164 101.14C17.4225 97.8089 19.8759 95.8617 24.2747 95.8617M55.0662 86.1844C55.0662 86.1844 49.7876 86.1844 47.935 87.9439M47.935 87.9439C47.935 87.2058 48.0281 61.5512 31.3127 64.1904C14.5974 66.8297 26.914 91.4629 24.2747 95.8617M47.935 87.9439C40.6993 88.2238 24.6434 95.0796 24.2747 95.8617" stroke="black"/>
<path d="M105 74L134.5 65.5" stroke="#FF03CB" stroke-width="3"/>
<path d="M106.5 79L137 72" stroke="#F6FF00" stroke-width="3"/>
<path d="M-1 56C14.7476 38.3856 25.3607 18.9117 59 15.5C103.435 12.7616 108.5 25 108.5 25C140.824 54.7287 148.781 108.127 161 210.5" stroke="black"/>
<path d="M130.173 55C130.173 55 100.173 60 105.673 77C111.173 94 140 83.5 140 83.5" stroke="black"/>
<path d="M81.9456 105.666C75.0283 99.7617 70.9303 96.907 61.2726 96.6772C67.557 91.4503 71.3917 88.5161 79.3937 83.2683C79.0784 92.4584 79.738 97.3288 81.9456 105.666Z" fill="black"/>
<path d="M71.5 132.132L111.5 107.5C121.471 114.898 125.049 121.095 129.608 134M131 138.5L129.608 134M129.608 134L85.5 163.5M65 129.5C82.3105 135.193 85.746 148.708 85.5 169.5" stroke="black"/>
<path d="M70 138C73.8587 143.544 74.5 143.5 77 158.5" stroke="black"/>
<path d="M97.5 171C87.0431 175.901 82.2697 176.469 77.5 170C75.0773 172.271 74.7096 176.957 75.9999 181.5M127.5 140C127.5 140 133.5 150.5 134 145C134.5 139.5 134.5 136.5 134.5 136.5M129 146.5C126.505 158.466 120.5 167.5 112.5 171C104.5 174.5 102.526 171.894 100.5 170M75 189.5C81.6485 186.89 86.4572 186.427 96 186.5M105.5 187C107.296 186.135 108.857 185.999 116 188.5C119.415 180.234 122.419 177.687 129 175.5" stroke="black"/>
<path d="M85.5001 157L123.75 131.5M123.75 131.5L127.5 129L129.5 134L126 136L123.75 131.5ZM123.75 131.5L120 134M123.75 131.5L125.75 136.5L122.25 138.5L120 134M120 134L116.25 136.5L118.5 141L122 139L120 134ZM108.25 141.833L112 139.333L114 144.333L110.5 146.333L108.25 141.833ZM108.25 141.833L104.5 144.333L106.75 148.833L110.25 146.833L108.25 141.833ZM100.5 147L104.25 144.5L106.25 149.5L102.75 151.5L100.5 147ZM100.5 147L96.7501 149.5M100.5 147L102.5 152L99.0001 154L96.7501 149.5M96.7501 149.5L93.0001 152L95.2501 156.5L98.7501 154.5L96.7501 149.5ZM112.25 139.167L116 136.667L118 141.667L114.5 143.667L112.25 139.167ZM89.0001 154.667L92.7501 152.167L94.7501 157.167L91.2501 159.167L89.0001 154.667ZM85 157.5L88.75 155L90.75 160L87.25 162L85 157.5Z" stroke="black"/>
<path d="M79 133.797C132.478 111.633 166.612 106.193 241 118.297C166.612 106.193 129.478 112.836 76 135" stroke="#FF00CA" stroke-width="3"/>
<path d="M79 137.797C132.478 115.633 166.612 110.193 241 122.297M79 137.797C132.478 115.633 166.612 110.193 241 122.297" stroke="#FFA600" stroke-width="3"/>
<path d="M81 141.797C134.478 119.633 168.612 114.193 243 126.297M81 141.797C134.478 119.633 168.612 114.193 243 126.297" stroke="#00FF44" stroke-width="3"/>
</g>
<defs>
<clipPath id="clip0_502_45">
<rect width="240" height="300" fill="white"/>
</clipPath>
</defs>
</svg>
