<svg width="240" height="300" viewBox="0 0 240 300" fill="none" xmlns="http://www.w3.org/2000/svg">
<g clip-path="url(#clip0_503_168)">
<rect width="240" height="300" fill="#FF00A5"/>
<path d="M21.5918 249.761C19.5013 249.16 17.9779 248.424 17.0215 247.552C16.0736 246.672 15.5996 245.588 15.5996 244.302C15.5996 242.846 16.1794 241.644 17.3389 240.696C18.5068 239.74 20.0218 239.262 21.8838 239.262C23.1533 239.262 24.2832 239.507 25.2734 239.998C26.2721 240.489 27.0423 241.166 27.584 242.029C28.1341 242.893 28.4092 243.836 28.4092 244.86H25.959C25.959 243.743 25.6035 242.867 24.8926 242.232C24.1816 241.589 23.1787 241.268 21.8838 241.268C20.682 241.268 19.7425 241.534 19.0654 242.067C18.3968 242.592 18.0625 243.324 18.0625 244.264C18.0625 245.017 18.3799 245.656 19.0146 246.181C19.6579 246.697 20.7454 247.171 22.2773 247.603C23.8177 248.034 25.0195 248.512 25.8828 249.037C26.7546 249.553 27.3978 250.159 27.8125 250.853C28.2357 251.547 28.4473 252.363 28.4473 253.303C28.4473 254.801 27.8633 256.003 26.6953 256.908C25.5273 257.805 23.9658 258.254 22.0107 258.254C20.7412 258.254 19.5563 258.013 18.4561 257.53C17.3558 257.039 16.5052 256.371 15.9043 255.524C15.3118 254.678 15.0156 253.717 15.0156 252.643H17.4658C17.4658 253.76 17.8763 254.644 18.6973 255.296C19.5267 255.939 20.6312 256.261 22.0107 256.261C23.2972 256.261 24.2832 255.998 24.9688 255.474C25.6543 254.949 25.9971 254.234 25.9971 253.328C25.9971 252.423 25.6797 251.724 25.0449 251.233C24.4102 250.734 23.2591 250.243 21.5918 249.761ZM36.915 258.254C35.0531 258.254 33.5381 257.645 32.3701 256.426C31.2021 255.199 30.6182 253.561 30.6182 251.513V251.081C30.6182 249.718 30.8763 248.504 31.3926 247.438C31.9173 246.363 32.6452 245.525 33.5762 244.924C34.5156 244.314 35.5312 244.01 36.623 244.01C38.4089 244.01 39.7969 244.598 40.7871 245.774C41.7773 246.951 42.2725 248.635 42.2725 250.827V251.805H32.9668C33.0007 253.159 33.3942 254.255 34.1475 255.093C34.9092 255.922 35.874 256.337 37.042 256.337C37.8714 256.337 38.5739 256.168 39.1494 255.829C39.7249 255.491 40.2285 255.042 40.6602 254.483L42.0947 255.601C40.9437 257.369 39.2171 258.254 36.915 258.254ZM36.623 245.939C35.6751 245.939 34.8796 246.286 34.2363 246.98C33.5931 247.666 33.1953 248.631 33.043 249.875H39.9238V249.697C39.8561 248.504 39.5345 247.581 38.959 246.93C38.3835 246.27 37.6048 245.939 36.623 245.939ZM50.7021 258.254C48.8402 258.254 47.3252 257.645 46.1572 256.426C44.9893 255.199 44.4053 253.561 44.4053 251.513V251.081C44.4053 249.718 44.6634 248.504 45.1797 247.438C45.7044 246.363 46.4323 245.525 47.3633 244.924C48.3027 244.314 49.3184 244.01 50.4102 244.01C52.196 244.01 53.584 244.598 54.5742 245.774C55.5645 246.951 56.0596 248.635 56.0596 250.827V251.805H46.7539C46.7878 253.159 47.1813 254.255 47.9346 255.093C48.6963 255.922 49.6611 256.337 50.8291 256.337C51.6585 256.337 52.361 256.168 52.9365 255.829C53.512 255.491 54.0156 255.042 54.4473 254.483L55.8818 255.601C54.7308 257.369 53.0042 258.254 50.7021 258.254ZM50.4102 245.939C49.4622 245.939 48.6667 246.286 48.0234 246.98C47.3802 247.666 46.9824 248.631 46.8301 249.875H53.7109V249.697C53.6432 248.504 53.3216 247.581 52.7461 246.93C52.1706 246.27 51.3919 245.939 50.4102 245.939ZM77.8701 241.521H71.9287V258H69.5039V241.521H63.5752V239.516H77.8701V241.521ZM82.5928 245.927C83.6338 244.649 84.988 244.01 86.6553 244.01C89.5583 244.01 91.0225 245.647 91.0479 248.923V258H88.6992V248.91C88.6908 247.92 88.4622 247.188 88.0137 246.714C87.5736 246.24 86.8838 246.003 85.9443 246.003C85.1826 246.003 84.514 246.206 83.9385 246.612C83.363 247.019 82.9144 247.552 82.5928 248.212V258H80.2441V238.5H82.5928V245.927ZM100.265 258.254C98.4027 258.254 96.8877 257.645 95.7197 256.426C94.5518 255.199 93.9678 253.561 93.9678 251.513V251.081C93.9678 249.718 94.2259 248.504 94.7422 247.438C95.2669 246.363 95.9948 245.525 96.9258 244.924C97.8652 244.314 98.8809 244.01 99.9727 244.01C101.758 244.01 103.146 244.598 104.137 245.774C105.127 246.951 105.622 248.635 105.622 250.827V251.805H96.3164C96.3503 253.159 96.7438 254.255 97.4971 255.093C98.2588 255.922 99.2236 256.337 100.392 256.337C101.221 256.337 101.924 256.168 102.499 255.829C103.075 255.491 103.578 255.042 104.01 254.483L105.444 255.601C104.293 257.369 102.567 258.254 100.265 258.254ZM99.9727 245.939C99.0247 245.939 98.2292 246.286 97.5859 246.98C96.9427 247.666 96.5449 248.631 96.3926 249.875H103.273V249.697C103.206 248.504 102.884 247.581 102.309 246.93C101.733 246.27 100.954 245.939 99.9727 245.939ZM125.363 249.837H117.606V258H115.169V239.516H126.62V241.521H117.606V247.844H125.363V249.837ZM137.373 256.642C136.459 257.716 135.118 258.254 133.349 258.254C131.884 258.254 130.767 257.831 129.997 256.984C129.235 256.13 128.85 254.868 128.842 253.201V244.264H131.19V253.138C131.19 255.22 132.037 256.261 133.729 256.261C135.524 256.261 136.717 255.592 137.31 254.255V244.264H139.658V258H137.424L137.373 256.642ZM146.425 240.938V244.264H148.989V246.079H146.425V254.598C146.425 255.148 146.539 255.562 146.768 255.842C146.996 256.113 147.385 256.248 147.936 256.248C148.206 256.248 148.579 256.197 149.053 256.096V258C148.435 258.169 147.834 258.254 147.25 258.254C146.201 258.254 145.409 257.937 144.876 257.302C144.343 256.667 144.076 255.766 144.076 254.598V246.079H141.575V244.264H144.076V240.938H146.425ZM160.225 256.642C159.311 257.716 157.969 258.254 156.2 258.254C154.736 258.254 153.619 257.831 152.849 256.984C152.087 256.13 151.702 254.868 151.693 253.201V244.264H154.042V253.138C154.042 255.22 154.888 256.261 156.581 256.261C158.375 256.261 159.569 255.592 160.161 254.255V244.264H162.51V258H160.275L160.225 256.642ZM172.729 246.371C172.374 246.312 171.989 246.282 171.574 246.282C170.034 246.282 168.989 246.938 168.438 248.25V258H166.09V244.264H168.375L168.413 245.851C169.183 244.623 170.275 244.01 171.688 244.01C172.146 244.01 172.493 244.069 172.729 244.188V246.371ZM180.347 258.254C178.485 258.254 176.97 257.645 175.802 256.426C174.634 255.199 174.05 253.561 174.05 251.513V251.081C174.05 249.718 174.308 248.504 174.824 247.438C175.349 246.363 176.077 245.525 177.008 244.924C177.947 244.314 178.963 244.01 180.055 244.01C181.84 244.01 183.229 244.598 184.219 245.774C185.209 246.951 185.704 248.635 185.704 250.827V251.805H176.398C176.432 253.159 176.826 254.255 177.579 255.093C178.341 255.922 179.306 256.337 180.474 256.337C181.303 256.337 182.006 256.168 182.581 255.829C183.157 255.491 183.66 255.042 184.092 254.483L185.526 255.601C184.375 257.369 182.649 258.254 180.347 258.254ZM180.055 245.939C179.107 245.939 178.311 246.286 177.668 246.98C177.025 247.666 176.627 248.631 176.475 249.875H183.355V249.697C183.288 248.504 182.966 247.581 182.391 246.93C181.815 246.27 181.036 245.939 180.055 245.939ZM199.491 249.278L202.538 244.264H205.28L200.786 251.056L205.42 258H202.703L199.529 252.858L196.355 258H193.626L198.26 251.056L193.766 244.264H196.482L199.491 249.278ZM208.619 248.732L209.559 239.516H219.029V241.687H211.552L210.993 246.727C211.899 246.193 212.927 245.927 214.078 245.927C215.762 245.927 217.1 246.485 218.09 247.603C219.08 248.711 219.575 250.214 219.575 252.109C219.575 254.014 219.059 255.516 218.026 256.616C217.002 257.708 215.568 258.254 213.723 258.254C212.089 258.254 210.756 257.801 209.724 256.896C208.691 255.99 208.103 254.737 207.959 253.138H210.181C210.325 254.196 210.701 254.995 211.311 255.537C211.92 256.07 212.724 256.337 213.723 256.337C214.814 256.337 215.669 255.965 216.287 255.22C216.913 254.475 217.227 253.447 217.227 252.135C217.227 250.899 216.888 249.909 216.211 249.164C215.542 248.411 214.649 248.034 213.532 248.034C212.508 248.034 211.704 248.258 211.12 248.707L210.498 249.215L208.619 248.732Z" fill="white"/>
<rect x="184.573" y="45.5827" width="60.7368" height="87.7466" transform="rotate(10.5 184.573 45.5827)" fill="white" stroke="black"/>
<path d="M205.081 68.5758C203.733 67.903 202.789 67.2095 202.248 66.4955C201.714 65.7767 201.528 64.9795 201.69 64.1037C201.874 63.1128 202.42 62.3679 203.329 61.8689C204.245 61.3652 205.336 61.2308 206.604 61.4657C207.468 61.6259 208.206 61.9355 208.818 62.3946C209.436 62.8548 209.875 63.4128 210.135 64.0688C210.401 64.7259 210.469 65.403 210.34 66.1001L208.672 65.791C208.813 65.0305 208.681 64.3893 208.277 63.8675C207.875 63.34 207.232 62.9945 206.351 62.8312C205.533 62.6795 204.86 62.7425 204.332 63.02C203.81 63.2929 203.49 63.749 203.372 64.3885C203.277 64.9013 203.412 65.3763 203.778 65.8136C204.151 66.2462 204.831 66.706 205.82 67.1931C206.814 67.6813 207.571 68.1584 208.093 68.6245C208.621 69.086 208.983 69.579 209.177 70.1038C209.378 70.6296 209.419 71.2122 209.3 71.8517C209.111 72.8715 208.562 73.6159 207.653 74.085C206.745 74.5483 205.625 74.6567 204.294 74.41C203.43 74.2499 202.654 73.9362 201.966 73.469C201.279 72.996 200.784 72.4336 200.482 71.7816C200.185 71.1307 200.105 70.4395 200.241 69.7078L201.908 70.0169C201.767 70.7774 201.935 71.4312 202.412 71.9784C202.895 72.5209 203.607 72.8792 204.546 73.0533C205.421 73.2156 206.126 73.1614 206.659 72.8906C207.191 72.6199 207.515 72.1764 207.629 71.5599C207.744 70.9435 207.616 70.4281 207.245 70.0139C206.876 69.5939 206.155 69.1145 205.081 68.5758ZM214.004 71.5525L212.808 72.4124L212.199 75.6963L210.6 75.4L213.061 62.1261L214.659 62.4224L213.171 70.4507L214.217 69.5809L217.7 67.0441L219.644 67.4045L215.282 70.6363L218.335 76.8335L216.46 76.486L214.004 71.5525ZM221.299 77.3829L219.7 77.0866L221.433 67.7361L223.032 68.0324L221.299 77.3829ZM221.763 65.2318C221.811 64.9726 221.93 64.768 222.118 64.6183C222.313 64.4696 222.566 64.4241 222.877 64.4817C223.188 64.5394 223.407 64.6724 223.536 64.8809C223.664 65.0894 223.704 65.3233 223.656 65.5826C223.608 65.8418 223.487 66.0429 223.294 66.1859C223.1 66.3288 222.848 66.3715 222.537 66.3138C222.226 66.2561 222.006 66.1259 221.877 65.9232C221.753 65.7215 221.715 65.4911 221.763 65.2318ZM232.612 74.751C232.348 76.174 231.81 77.2602 230.998 78.0094C230.185 78.7587 229.223 79.0303 228.111 78.8243C226.976 78.6139 226.15 78.0883 225.633 77.2475L224.798 81.7499L223.199 81.4536L225.599 68.5081L227.059 68.7788L226.945 69.8302C227.745 69.1443 228.724 68.9086 229.882 69.1233C231.006 69.3315 231.815 69.9194 232.309 70.8869C232.809 71.8556 232.919 73.0946 232.639 74.6041L232.612 74.751ZM231.046 74.2732C231.242 73.2189 231.171 72.3447 230.835 71.6507C230.499 70.9568 229.939 70.5372 229.156 70.3919C228.188 70.2126 227.382 70.5072 226.739 71.276L225.911 75.7438C226.231 76.6851 226.884 77.247 227.869 77.4296C228.635 77.5717 229.299 77.3818 229.861 76.8602C230.429 76.3339 230.824 75.4715 231.046 74.2732Z" fill="black"/>
<rect x="141.816" y="34.5792" width="60.7368" height="87.7466" transform="rotate(10 141.816 34.5792)" fill="white" stroke="black"/>
<path d="M149.5 59.9376L144.22 59.0066L142.454 62.0867L140.74 61.7845L147.775 50.0306L149.229 50.287L151.828 63.7395L150.123 63.4389L149.5 59.9376ZM144.963 57.7276L149.247 58.4831L148.14 52.2101L144.963 57.7276ZM157.341 52.717L156.941 54.9847L158.69 55.293L158.472 56.5308L156.723 56.2225L155.699 62.0303C155.633 62.4054 155.661 62.7019 155.783 62.9198C155.907 63.1319 156.156 63.271 156.531 63.3372C156.715 63.3697 156.975 63.3799 157.311 63.3676L157.082 64.6659C156.64 64.7071 156.22 64.6925 155.822 64.6223C155.107 64.4962 154.605 64.1846 154.318 63.6878C154.031 63.1909 153.957 62.5443 154.098 61.748L155.122 55.9401L153.417 55.6395L153.635 54.4017L155.34 54.7024L155.74 52.4346L157.341 52.717ZM163.141 53.7395L162.741 56.0073L164.489 56.3156L164.271 57.5533L162.522 57.245L161.498 63.0529C161.432 63.428 161.46 63.7244 161.582 63.9423C161.706 64.1545 161.955 64.2936 162.33 64.3597C162.515 64.3923 162.775 64.4024 163.11 64.3902L162.881 65.6885C162.439 65.7296 162.02 65.7151 161.621 65.6449C160.906 65.5187 160.405 65.2072 160.117 64.7103C159.83 64.2134 159.757 63.5669 159.897 62.7705L160.921 56.9627L159.216 56.662L159.434 55.4243L161.139 55.7249L161.539 53.4572L163.141 53.7395ZM170.498 67.0316C170.438 66.8306 170.421 66.4885 170.447 66.0051C169.566 66.6471 168.609 66.877 167.576 66.6949C166.653 66.5321 165.94 66.1387 165.437 65.5145C164.941 64.8856 164.764 64.1702 164.906 63.3681C165.077 62.3929 165.58 61.7021 166.413 61.2957C167.253 60.8845 168.346 60.7975 169.69 61.0345L171.248 61.3093L171.378 60.5735C171.477 60.0138 171.388 59.54 171.111 59.1521C170.835 58.7584 170.371 58.504 169.719 58.3891C169.148 58.2883 168.644 58.3482 168.206 58.5685C167.769 58.7888 167.514 59.1039 167.442 59.5136L165.832 59.2297C165.914 58.7623 166.158 58.3412 166.563 57.9664C166.975 57.5869 167.486 57.32 168.096 57.1658C168.712 57.0127 169.361 56.9961 170.042 57.1162C171.121 57.3065 171.918 57.7267 172.434 58.377C172.952 59.0215 173.138 59.8189 172.994 60.7693L172.234 65.0798C172.083 65.9396 172.072 66.6427 172.201 67.1892L172.177 67.3276L170.498 67.0316ZM168.056 65.3426C168.558 65.4311 169.057 65.3852 169.553 65.2049C170.049 65.0246 170.434 64.7445 170.709 64.3647L171.048 62.4431L169.793 62.2218C167.831 61.8759 166.749 62.2771 166.546 63.4254C166.458 63.9274 166.556 64.3493 166.841 64.6911C167.126 65.0328 167.531 65.25 168.056 65.3426ZM178.315 67.2407C178.886 67.3415 179.416 67.2564 179.904 66.9854C180.392 66.7145 180.705 66.3235 180.842 65.8123L182.357 66.0793C182.234 66.6109 181.959 67.089 181.533 67.5137C181.107 67.9384 180.583 68.2446 179.961 68.4324C179.345 68.6212 178.719 68.6597 178.084 68.5477C176.809 68.3229 175.868 67.7197 175.262 66.7381C174.662 65.7519 174.493 64.5201 174.753 63.0429L174.801 62.7746C174.961 61.8629 175.272 61.0816 175.731 60.4309C176.191 59.7801 176.767 59.3135 177.46 59.031C178.158 58.7496 178.934 58.6841 179.788 58.8347C180.838 59.0199 181.654 59.488 182.236 60.2391C182.823 60.9911 183.051 61.8733 182.92 62.8855L181.406 62.6184C181.466 62.0043 181.323 61.4674 180.976 61.0075C180.635 60.5429 180.162 60.2572 179.556 60.1503C178.742 60.0069 178.059 60.1897 177.505 60.699C176.958 61.2034 176.586 62.0096 176.391 63.1175L176.338 63.4205C176.147 64.4995 176.223 65.3696 176.565 66.0308C176.906 66.6919 177.49 67.0952 178.315 67.2407ZM187.016 65.4728L185.827 66.3431L185.247 69.6322L183.646 69.3499L185.99 56.055L187.591 56.3373L186.173 64.3783L187.212 63.4994L190.672 60.9323L192.62 61.2757L188.286 64.5455L191.392 70.7158L189.514 70.3846L187.016 65.4728Z" fill="black"/>
<rect x="86.1374" y="34.2717" width="60.7368" height="87.7466" fill="white" stroke="black"/>
<path d="M105.32 62H103.624L97.1816 52.1387V62H95.4854V49.2031H97.1816L103.642 59.1084V49.2031H105.32V62ZM107.632 57.1572C107.632 56.2256 107.813 55.3877 108.177 54.6436C108.546 53.8994 109.056 53.3252 109.706 52.9209C110.362 52.5166 111.109 52.3145 111.947 52.3145C113.242 52.3145 114.288 52.7627 115.085 53.6592C115.888 54.5557 116.289 55.748 116.289 57.2363V57.3506C116.289 58.2764 116.11 59.1084 115.753 59.8467C115.401 60.5791 114.895 61.1504 114.232 61.5605C113.576 61.9707 112.82 62.1758 111.965 62.1758C110.676 62.1758 109.63 61.7275 108.827 60.8311C108.03 59.9346 107.632 58.748 107.632 57.2715V57.1572ZM109.267 57.3506C109.267 58.4053 109.51 59.252 109.996 59.8906C110.488 60.5293 111.145 60.8486 111.965 60.8486C112.791 60.8486 113.447 60.5264 113.934 59.8818C114.42 59.2314 114.663 58.3232 114.663 57.1572C114.663 56.1143 114.414 55.2705 113.916 54.626C113.424 53.9756 112.768 53.6504 111.947 53.6504C111.145 53.6504 110.497 53.9697 110.005 54.6084C109.513 55.2471 109.267 56.1611 109.267 57.3506ZM126.361 57.3506C126.361 58.7979 126.03 59.9639 125.368 60.8486C124.706 61.7334 123.81 62.1758 122.679 62.1758C121.524 62.1758 120.616 61.8096 119.954 61.0771V65.6562H118.328V52.4902H119.813L119.893 53.5449C120.555 52.7246 121.475 52.3145 122.652 52.3145C123.795 52.3145 124.697 52.7451 125.359 53.6064C126.027 54.4678 126.361 55.666 126.361 57.2012V57.3506ZM124.735 57.166C124.735 56.0938 124.507 55.2471 124.05 54.626C123.593 54.0049 122.966 53.6943 122.169 53.6943C121.185 53.6943 120.446 54.1309 119.954 55.0039V59.5479C120.44 60.415 121.185 60.8486 122.187 60.8486C122.966 60.8486 123.584 60.541 124.041 59.9258C124.504 59.3047 124.735 58.3848 124.735 57.166ZM132.382 62.1758C131.093 62.1758 130.044 61.7539 129.235 60.9102C128.427 60.0605 128.022 58.9268 128.022 57.5088V57.21C128.022 56.2666 128.201 55.4258 128.559 54.6875C128.922 53.9434 129.426 53.3633 130.07 52.9473C130.721 52.5254 131.424 52.3145 132.18 52.3145C133.416 52.3145 134.377 52.7217 135.062 53.5361C135.748 54.3506 136.091 55.5166 136.091 57.0342V57.7109H129.648C129.672 58.6484 129.944 59.4072 130.466 59.9873C130.993 60.5615 131.661 60.8486 132.47 60.8486C133.044 60.8486 133.53 60.7314 133.929 60.4971C134.327 60.2627 134.676 59.9521 134.975 59.5654L135.968 60.3389C135.171 61.5635 133.976 62.1758 132.382 62.1758ZM132.18 53.6504C131.523 53.6504 130.973 53.8906 130.527 54.3711C130.082 54.8457 129.807 55.5137 129.701 56.375H134.465V56.252C134.418 55.4258 134.195 54.7871 133.797 54.3359C133.398 53.8789 132.859 53.6504 132.18 53.6504Z" fill="black"/>
<rect x="36.0555" y="44.8978" width="60.7368" height="87.7466" transform="rotate(-10 36.0555 44.8978)" fill="white" stroke="black"/>
<path d="M52.7939 74.2624L47.514 75.1934L46.9082 78.6915L45.1944 78.9937L47.7847 65.5427L49.2388 65.2863L56.2821 77.0387L54.577 77.3393L52.7939 74.2624ZM47.7749 73.7373L52.0594 72.9818L48.8735 67.4659L47.7749 73.7373ZM57.6931 64.7951L58.093 67.0629L59.8414 66.7546L60.0596 67.9923L58.3112 68.3006L59.3353 74.1085C59.4014 74.4836 59.5292 74.7526 59.7186 74.9155C59.9069 75.0727 60.1887 75.1182 60.5637 75.0521C60.7484 75.0195 60.9962 74.9402 61.3071 74.8139L61.536 76.1123C61.1351 76.3019 60.7356 76.4319 60.3375 76.5021C59.6219 76.6283 59.0443 76.507 58.6044 76.1383C58.1646 75.7697 57.8744 75.1872 57.734 74.3909L56.71 68.583L55.0048 68.8836L54.7866 67.6459L56.4917 67.3452L56.0918 65.0775L57.6931 64.7951ZM63.4923 63.7726L63.8922 66.0403L65.6406 65.732L65.8589 66.9698L64.1104 67.2781L65.1345 73.0859C65.2007 73.461 65.3284 73.73 65.5178 73.893C65.7061 74.0502 65.9879 74.0957 66.3629 74.0295C66.5476 73.997 66.7954 73.9176 67.1063 73.7914L67.3352 75.0897C66.9344 75.2794 66.5348 75.4093 66.1367 75.4795C65.4212 75.6057 64.8435 75.4844 64.4036 75.1158C63.9638 74.7471 63.6737 74.1646 63.5332 73.3683L62.5092 67.5604L60.804 67.8611L60.5858 66.6233L62.2909 66.3227L61.891 64.0549L63.4923 63.7726ZM74.9521 73.7466C74.8272 73.5783 74.6942 73.2626 74.5531 72.7996C73.945 73.7041 73.1246 74.2474 72.0917 74.4295C71.1684 74.5923 70.3638 74.4664 69.6779 74.0519C68.9968 73.6306 68.5855 73.0189 68.444 72.2168C68.2721 71.2416 68.5081 70.4206 69.1521 69.7537C69.8008 69.08 70.7974 68.6247 72.1419 68.3876L73.6999 68.1129L73.5702 67.3772C73.4715 66.8174 73.2258 66.4026 72.8331 66.1327C72.4394 65.8571 71.9166 65.7767 71.2645 65.8917C70.6932 65.9924 70.2397 66.2211 69.904 66.5778C69.5683 66.9345 69.4365 67.3177 69.5088 67.7274L67.8988 68.0113C67.8164 67.5439 67.9015 67.0648 68.1541 66.574C68.4115 66.0764 68.8005 65.6509 69.3212 65.2972C69.8477 64.9426 70.4514 64.7053 71.1323 64.5852C72.2114 64.3949 73.1046 64.5171 73.8119 64.9517C74.5181 65.3805 74.9663 66.066 75.1562 67.0082L75.9162 71.3187C76.0679 72.1785 76.2981 72.8429 76.6069 73.3121L76.6313 73.4506L74.9521 73.7466ZM72.0797 72.9948C72.5817 72.9062 73.0349 72.6925 73.4392 72.3534C73.8435 72.0144 74.11 71.6194 74.2387 71.1683L73.8998 69.2467L72.6448 69.468C70.6829 69.814 69.8031 70.5611 70.0056 71.7094C70.0941 72.2114 70.3307 72.5743 70.7152 72.798C71.0997 73.0218 71.5546 73.0874 72.0797 72.9948ZM82.3691 71.2697C82.9403 71.169 83.4089 70.9079 83.7749 70.4863C84.1408 70.0648 84.3011 69.5903 84.2557 69.0629L85.7704 68.7958C85.8362 69.3375 85.7416 69.8807 85.4866 70.4255C85.2316 70.9702 84.8439 71.4372 84.3236 71.8265C83.8089 72.2147 83.2342 72.4648 82.5995 72.5767C81.3243 72.8016 80.2339 72.5565 79.3284 71.8416C78.4277 71.1198 77.8471 70.0203 77.5866 68.5431L77.5393 68.2748C77.3785 67.3631 77.4029 66.5228 77.6124 65.7541C77.822 64.9853 78.2038 64.3498 78.7578 63.8475C79.3175 63.3442 80.0244 63.0173 80.8785 62.8667C81.9287 62.6815 82.8554 62.8424 83.6588 63.3492C84.4679 63.8551 84.9841 64.606 85.2073 65.6019L83.6925 65.869C83.5395 65.2712 83.2212 64.8157 82.7376 64.5023C82.2587 64.1822 81.7163 64.0755 81.1104 64.1824C80.2968 64.3258 79.7169 64.7315 79.3705 65.3995C79.029 66.0606 78.9559 66.9451 79.1512 68.053L79.2047 68.356C79.3949 69.435 79.7636 70.2268 80.3107 70.7313C80.8578 71.2357 81.5439 71.4152 82.3691 71.2697ZM89.9406 66.6325L89.1212 67.8569L89.7011 71.146L88.0999 71.4283L85.7556 58.1334L87.3569 57.8511L88.7747 65.8921L89.45 64.711L91.8236 61.1153L93.7711 60.7719L90.817 65.3267L95.8466 70.0624L93.9683 70.3936L89.9406 66.6325Z" fill="black"/>
<rect x="-15.4173" y="56.6512" width="60.7368" height="87.7466" transform="rotate(-10.5 -15.4173 56.6512)" fill="white" stroke="black"/>
<path d="M8.22636 87.8747C6.72752 87.7294 5.5976 87.4204 4.83659 86.9476C4.08028 86.468 3.62097 85.7904 3.45867 84.9147C3.27501 83.9238 3.51803 83.0325 4.18773 82.241C4.86213 81.4426 5.83306 80.9259 7.10054 80.691C7.96473 80.5309 8.76482 80.5554 9.50082 80.7646C10.2426 80.9728 10.8523 81.3365 11.3299 81.8558C11.8133 82.3741 12.1196 82.9817 12.2488 83.6788L10.5809 83.988C10.44 83.2275 10.0875 82.676 9.52346 82.3336C8.95836 81.9855 8.23508 81.8931 7.3536 82.0565C6.5355 82.2081 5.92964 82.5081 5.53601 82.9565C5.14707 83.398 5.01187 83.9385 5.13039 84.578C5.22542 85.0908 5.52209 85.4857 6.02039 85.7628C6.52338 86.0331 7.32349 86.2185 8.42074 86.3191C9.52375 86.4186 10.4022 86.5925 11.056 86.8408C11.7146 87.0822 12.2288 87.413 12.5986 87.8331C12.9743 88.2521 13.2213 88.7814 13.3399 89.4209C13.5289 90.4406 13.2829 91.3324 12.6021 92.0962C11.9203 92.8543 10.9139 93.3566 9.58307 93.6033C8.71888 93.7634 7.88187 93.7487 7.07204 93.5592C6.26115 93.3638 5.59779 93.016 5.08196 92.5157C4.57189 92.0143 4.24906 91.3978 4.11345 90.6661L5.78133 90.357C5.92228 91.1175 6.31328 91.6677 6.95435 92.0078C7.6001 92.341 8.39252 92.4206 9.33161 92.2465C10.2073 92.0842 10.8454 91.7812 11.2459 91.3375C11.6463 90.8938 11.7894 90.3638 11.6752 89.7473C11.5609 89.1308 11.2568 88.6956 10.7628 88.4415C10.2677 88.1817 9.4222 87.9928 8.22636 87.8747ZM17.6238 87.4559L16.8152 88.6874L17.4238 91.9713L15.825 92.2676L13.3649 78.9937L14.9636 78.6974L16.4516 86.7257L17.1165 85.5387L19.4586 81.9225L21.4031 81.5621L18.4888 86.1425L23.5595 90.8341L21.6842 91.1817L17.6238 87.4559ZM26.5237 90.2847L24.925 90.5811L23.1919 81.2305L24.7907 80.9342L26.5237 90.2847ZM22.6026 78.7743C22.5546 78.5151 22.5918 78.2817 22.7142 78.0743C22.8424 77.8658 23.0621 77.7327 23.3732 77.6751C23.6843 77.6174 23.9371 77.6629 24.1315 77.8116C24.3259 77.9603 24.4472 78.1643 24.4952 78.4236C24.5433 78.6828 24.5026 78.9138 24.3734 79.1166C24.2441 79.3193 24.0239 79.4495 23.7128 79.5071C23.4017 79.5648 23.1494 79.5222 22.9561 79.3792C22.7685 79.2352 22.6507 79.0336 22.6026 78.7743ZM36.1417 83.7736C36.4055 85.1966 36.2925 86.4034 35.8027 87.394C35.3129 88.3846 34.512 88.983 33.4001 89.1891C32.2651 89.3994 31.3054 89.2048 30.5209 88.6053L31.3554 93.1078L29.7566 93.4041L27.3573 80.4585L28.8178 80.1878L29.0878 81.2104C29.5893 80.2832 30.4191 79.7123 31.5771 79.4977C32.7006 79.2894 33.6663 79.5485 34.4743 80.2747C35.288 80.9999 35.8348 82.1172 36.1145 83.6266L36.1417 83.7736ZM34.5094 83.8884C34.314 82.8341 33.935 82.0432 33.3724 81.5158C32.8098 80.9884 32.1368 80.7973 31.3533 80.9425C30.3854 81.1219 29.739 81.6857 29.4142 82.6338L30.2422 87.1016C30.8784 87.8657 31.6891 88.1564 32.6743 87.9738C33.4406 87.8318 33.9923 87.4167 34.3296 86.7285C34.6715 86.0334 34.7315 85.0867 34.5094 83.8884Z" fill="black"/>
</g>
<defs>
<clipPath id="clip0_503_168">
<rect width="240" height="300" fill="white"/>
</clipPath>
</defs>
</svg>
