<svg width="240" height="300" viewBox="0 0 240 300" fill="none" xmlns="http://www.w3.org/2000/svg">
<rect width="240" height="300" fill="#277AFF"/>
<path d="M62.5918 252.761C60.5013 252.16 58.9779 251.424 58.0215 250.552C57.0736 249.672 56.5996 248.588 56.5996 247.302C56.5996 245.846 57.1794 244.644 58.3389 243.696C59.5068 242.74 61.0218 242.262 62.8838 242.262C64.1533 242.262 65.2832 242.507 66.2734 242.998C67.2721 243.489 68.0423 244.166 68.584 245.029C69.1341 245.893 69.4092 246.836 69.4092 247.86H66.959C66.959 246.743 66.6035 245.867 65.8926 245.232C65.1816 244.589 64.1787 244.268 62.8838 244.268C61.682 244.268 60.7425 244.534 60.0654 245.067C59.3968 245.592 59.0625 246.324 59.0625 247.264C59.0625 248.017 59.3799 248.656 60.0146 249.181C60.6579 249.697 61.7454 250.171 63.2773 250.603C64.8177 251.034 66.0195 251.512 66.8828 252.037C67.7546 252.553 68.3978 253.159 68.8125 253.853C69.2357 254.547 69.4473 255.363 69.4473 256.303C69.4473 257.801 68.8633 259.003 67.6953 259.908C66.5273 260.805 64.9658 261.254 63.0107 261.254C61.7412 261.254 60.5563 261.013 59.4561 260.53C58.3558 260.039 57.5052 259.371 56.9043 258.524C56.3118 257.678 56.0156 256.717 56.0156 255.643H58.4658C58.4658 256.76 58.8763 257.644 59.6973 258.296C60.5267 258.939 61.6312 259.261 63.0107 259.261C64.2972 259.261 65.2832 258.998 65.9688 258.474C66.6543 257.949 66.9971 257.234 66.9971 256.328C66.9971 255.423 66.6797 254.724 66.0449 254.233C65.4102 253.734 64.2591 253.243 62.5918 252.761ZM80.6953 259.642C79.7812 260.716 78.4398 261.254 76.6709 261.254C75.2067 261.254 74.0895 260.831 73.3193 259.984C72.5576 259.13 72.1725 257.868 72.1641 256.201V247.264H74.5127V256.138C74.5127 258.22 75.359 259.261 77.0518 259.261C78.846 259.261 80.0394 258.592 80.6318 257.255V247.264H82.9805V261H80.7461L80.6953 259.642ZM98.1641 254.284C98.1641 256.375 97.6859 258.059 96.7295 259.337C95.7731 260.615 94.4782 261.254 92.8447 261.254C91.1774 261.254 89.8656 260.725 88.9092 259.667V266.281H86.5605V247.264H88.7061L88.8203 248.787C89.7767 247.602 91.1055 247.01 92.8066 247.01C94.457 247.01 95.7604 247.632 96.7168 248.876C97.6816 250.12 98.1641 251.851 98.1641 254.068V254.284ZM95.8154 254.018C95.8154 252.469 95.4854 251.246 94.8252 250.349C94.165 249.451 93.2594 249.003 92.1084 249.003C90.6865 249.003 89.6201 249.633 88.9092 250.895V257.458C89.6117 258.711 90.6865 259.337 92.1338 259.337C93.2594 259.337 94.1523 258.893 94.8125 258.004C95.4811 257.107 95.8154 255.778 95.8154 254.018ZM106.86 261.254C104.998 261.254 103.483 260.645 102.315 259.426C101.147 258.199 100.563 256.561 100.563 254.513V254.081C100.563 252.718 100.822 251.504 101.338 250.438C101.863 249.363 102.59 248.525 103.521 247.924C104.461 247.314 105.477 247.01 106.568 247.01C108.354 247.01 109.742 247.598 110.732 248.774C111.723 249.951 112.218 251.635 112.218 253.827V254.805H102.912C102.946 256.159 103.34 257.255 104.093 258.093C104.854 258.922 105.819 259.337 106.987 259.337C107.817 259.337 108.519 259.168 109.095 258.829C109.67 258.491 110.174 258.042 110.605 257.483L112.04 258.601C110.889 260.369 109.162 261.254 106.86 261.254ZM106.568 248.939C105.62 248.939 104.825 249.286 104.182 249.98C103.538 250.666 103.141 251.631 102.988 252.875H109.869V252.697C109.801 251.504 109.48 250.581 108.904 249.93C108.329 249.27 107.55 248.939 106.568 248.939ZM121.587 249.371C121.231 249.312 120.846 249.282 120.432 249.282C118.891 249.282 117.846 249.938 117.296 251.25V261H114.947V247.264H117.232L117.271 248.851C118.041 247.623 119.132 247.01 120.546 247.01C121.003 247.01 121.35 247.069 121.587 247.188V249.371ZM136.021 252.761C133.931 252.16 132.408 251.424 131.451 250.552C130.503 249.672 130.029 248.588 130.029 247.302C130.029 245.846 130.609 244.644 131.769 243.696C132.937 242.74 134.451 242.262 136.313 242.262C137.583 242.262 138.713 242.507 139.703 242.998C140.702 243.489 141.472 244.166 142.014 245.029C142.564 245.893 142.839 246.836 142.839 247.86H140.389C140.389 246.743 140.033 245.867 139.322 245.232C138.611 244.589 137.608 244.268 136.313 244.268C135.112 244.268 134.172 244.534 133.495 245.067C132.826 245.592 132.492 246.324 132.492 247.264C132.492 248.017 132.81 248.656 133.444 249.181C134.088 249.697 135.175 250.171 136.707 250.603C138.247 251.034 139.449 251.512 140.312 252.037C141.184 252.553 141.827 253.159 142.242 253.853C142.665 254.547 142.877 255.363 142.877 256.303C142.877 257.801 142.293 259.003 141.125 259.908C139.957 260.805 138.396 261.254 136.44 261.254C135.171 261.254 133.986 261.013 132.886 260.53C131.785 260.039 130.935 259.371 130.334 258.524C129.742 257.678 129.445 256.717 129.445 255.643H131.896C131.896 256.76 132.306 257.644 133.127 258.296C133.956 258.939 135.061 259.261 136.44 259.261C137.727 259.261 138.713 258.998 139.398 258.474C140.084 257.949 140.427 257.234 140.427 256.328C140.427 255.423 140.109 254.724 139.475 254.233C138.84 253.734 137.689 253.243 136.021 252.761ZM149.479 254.64L148.006 256.176V261H145.657V241.5H148.006V253.294L149.263 251.783L153.541 247.264H156.397L151.053 253.002L157.02 261H154.265L149.479 254.64ZM161.374 261H159.025V247.264H161.374V261ZM158.835 243.62C158.835 243.239 158.949 242.918 159.178 242.655C159.415 242.393 159.762 242.262 160.219 242.262C160.676 242.262 161.023 242.393 161.26 242.655C161.497 242.918 161.615 243.239 161.615 243.62C161.615 244.001 161.497 244.318 161.26 244.572C161.023 244.826 160.676 244.953 160.219 244.953C159.762 244.953 159.415 244.826 159.178 244.572C158.949 244.318 158.835 244.001 158.835 243.62ZM176.748 254.284C176.748 256.375 176.27 258.059 175.313 259.337C174.357 260.615 173.062 261.254 171.429 261.254C169.761 261.254 168.45 260.725 167.493 259.667V266.281H165.145V247.264H167.29L167.404 248.787C168.361 247.602 169.689 247.01 171.391 247.01C173.041 247.01 174.344 247.632 175.301 248.876C176.266 250.12 176.748 251.851 176.748 254.068V254.284ZM174.399 254.018C174.399 252.469 174.069 251.246 173.409 250.349C172.749 249.451 171.843 249.003 170.692 249.003C169.271 249.003 168.204 249.633 167.493 250.895V257.458C168.196 258.711 169.271 259.337 170.718 259.337C171.843 259.337 172.736 258.893 173.396 258.004C174.065 257.107 174.399 255.778 174.399 254.018Z" fill="white"/>
<path d="M16.9574 170.355C16.4551 130.251 11.5314 97.8534 30.1482 77.3555H50.7947C61.8477 96.1219 63.6066 125.737 68 170.355H16.9574Z" fill="white" stroke="black"/>
<path d="M57.7503 63.5777C57.7503 72.8136 50.2706 80.2999 41.0449 80.2999C31.8192 80.2999 24.3395 72.8136 24.3395 63.5777C24.3395 54.3418 31.8192 46.8555 41.0449 46.8555C50.2706 46.8555 57.7503 54.3418 57.7503 63.5777Z" fill="white" stroke="black"/>
<g clip-path="url(#clip0_504_62)">
<path d="M223.043 173.355C223.545 133.251 228.469 100.853 209.852 80.3555H189.205C178.152 99.1219 176.393 128.737 172 173.355H223.043Z" fill="white" stroke="black"/>
<path d="M182.25 66.5777C182.25 75.8136 189.729 83.2999 198.955 83.2999C208.181 83.2999 215.66 75.8136 215.66 66.5777C215.66 57.3418 208.181 49.8555 198.955 49.8555C189.729 49.8555 182.25 57.3418 182.25 66.5777Z" fill="white" stroke="black"/>
</g>
<path d="M176.151 46.7942C176.649 46.5567 176.861 45.96 176.624 45.4614L172.754 37.3358C172.516 36.8372 171.92 36.6254 171.421 36.8629C170.922 37.1004 170.711 37.6971 170.948 38.1957L174.388 45.4185L167.165 48.8582C166.667 49.0956 166.455 49.6924 166.692 50.191C166.93 50.6896 167.526 50.9013 168.025 50.6639L176.151 46.7942ZM57.7739 46.8352C81.4225 38.552 100.248 34.8165 118.422 35.0069C136.598 35.1973 154.193 39.3143 175.386 46.8338L176.055 44.9489C154.752 37.3905 136.924 33.2006 118.443 33.007C99.9618 32.8134 80.8967 36.617 57.1127 44.9476L57.7739 46.8352Z" fill="white"/>
<path d="M23.4482 30H15.0635V28.8311L19.4932 23.9092C20.1494 23.165 20.6006 22.5615 20.8467 22.0986C21.0986 21.6299 21.2246 21.1465 21.2246 20.6484C21.2246 19.9805 21.0225 19.4326 20.6182 19.0049C20.2139 18.5771 19.6748 18.3633 19.001 18.3633C18.1924 18.3633 17.5625 18.5947 17.1113 19.0576C16.666 19.5146 16.4434 20.1533 16.4434 20.9736H14.8174C14.8174 19.7959 15.1953 18.8438 15.9512 18.1172C16.7129 17.3906 17.7295 17.0273 19.001 17.0273C20.1904 17.0273 21.1309 17.3408 21.8223 17.9678C22.5137 18.5889 22.8594 19.418 22.8594 20.4551C22.8594 21.7148 22.0566 23.2148 20.4512 24.9551L17.0234 28.6729H23.4482V30ZM32.0088 18.1875V20.4902H33.7842V21.7471H32.0088V27.6445C32.0088 28.0254 32.0879 28.3125 32.2461 28.5059C32.4043 28.6934 32.6738 28.7871 33.0547 28.7871C33.2422 28.7871 33.5 28.752 33.8281 28.6816V30C33.4004 30.1172 32.9844 30.1758 32.5801 30.1758C31.8535 30.1758 31.3057 29.9561 30.9365 29.5166C30.5674 29.0771 30.3828 28.4531 30.3828 27.6445V21.7471H28.6514V20.4902H30.3828V18.1875H32.0088ZM41.5625 29.0596C40.9297 29.8037 40.001 30.1758 38.7764 30.1758C37.7627 30.1758 36.9893 29.8828 36.4561 29.2969C35.9287 28.7051 35.6621 27.832 35.6562 26.6777V20.4902H37.2822V26.6338C37.2822 28.0752 37.8682 28.7959 39.04 28.7959C40.2822 28.7959 41.1084 28.333 41.5186 27.4072V20.4902H43.1445V30H41.5977L41.5625 29.0596ZM50.2197 21.9492C49.9736 21.9082 49.707 21.8877 49.4199 21.8877C48.3535 21.8877 47.6299 22.3418 47.249 23.25V30H45.623V20.4902H47.2051L47.2314 21.5889C47.7646 20.7393 48.5205 20.3145 49.499 20.3145C49.8154 20.3145 50.0557 20.3555 50.2197 20.4375V21.9492ZM53.2607 20.4902L53.3135 21.6855C54.04 20.7715 54.9893 20.3145 56.1611 20.3145C58.1709 20.3145 59.1846 21.4482 59.2021 23.7158V30H57.5762V23.707C57.5703 23.0215 57.4121 22.5146 57.1016 22.1865C56.7969 21.8584 56.3193 21.6943 55.6689 21.6943C55.1416 21.6943 54.6787 21.835 54.2803 22.1162C53.8818 22.3975 53.5713 22.7666 53.3486 23.2236V30H51.7227V20.4902H53.2607ZM67.1914 27.4775C67.1914 27.0381 67.0244 26.6982 66.6904 26.458C66.3623 26.2119 65.7852 26.001 64.959 25.8252C64.1387 25.6494 63.4854 25.4385 62.999 25.1924C62.5186 24.9463 62.1611 24.6533 61.9268 24.3135C61.6982 23.9736 61.584 23.5693 61.584 23.1006C61.584 22.3213 61.9121 21.6621 62.5684 21.123C63.2305 20.584 64.0742 20.3145 65.0996 20.3145C66.1777 20.3145 67.0508 20.5928 67.7188 21.1494C68.3926 21.7061 68.7295 22.418 68.7295 23.2852H67.0947C67.0947 22.8398 66.9043 22.4561 66.5234 22.1338C66.1484 21.8115 65.6738 21.6504 65.0996 21.6504C64.5078 21.6504 64.0449 21.7793 63.7109 22.0371C63.377 22.2949 63.21 22.6318 63.21 23.0479C63.21 23.4404 63.3652 23.7363 63.6758 23.9355C63.9863 24.1348 64.5459 24.3252 65.3545 24.5068C66.1689 24.6885 66.8281 24.9053 67.332 25.1572C67.8359 25.4092 68.208 25.7139 68.4482 26.0713C68.6943 26.4229 68.8174 26.8535 68.8174 27.3633C68.8174 28.2129 68.4775 28.8955 67.7979 29.4111C67.1182 29.9209 66.2363 30.1758 65.1523 30.1758C64.3906 30.1758 63.7168 30.041 63.1309 29.7715C62.5449 29.502 62.085 29.127 61.751 28.6465C61.4229 28.1602 61.2588 27.6357 61.2588 27.0732H62.8848C62.9141 27.6182 63.1309 28.0518 63.5352 28.374C63.9453 28.6904 64.4844 28.8486 65.1523 28.8486C65.7676 28.8486 66.2598 28.7256 66.6289 28.4795C67.0039 28.2275 67.1914 27.8936 67.1914 27.4775Z" fill="white"/>
<defs>
<clipPath id="clip0_504_62">
<rect width="52" height="124" fill="white" transform="matrix(-1 0 0 1 224 49.3555)"/>
</clipPath>
</defs>
</svg>
