<svg width="240" height="300" viewBox="0 0 240 300" fill="none" xmlns="http://www.w3.org/2000/svg">
<rect width="240" height="300" fill="#FFAAAA"/>
<path d="M47.5918 223.761C45.5013 223.16 43.9779 222.424 43.0215 221.552C42.0736 220.672 41.5996 219.588 41.5996 218.302C41.5996 216.846 42.1794 215.644 43.3389 214.696C44.5068 213.74 46.0218 213.262 47.8838 213.262C49.1533 213.262 50.2832 213.507 51.2734 213.998C52.2721 214.489 53.0423 215.166 53.584 216.029C54.1341 216.893 54.4092 217.836 54.4092 218.86H51.959C51.959 217.743 51.6035 216.867 50.8926 216.232C50.1816 215.589 49.1787 215.268 47.8838 215.268C46.682 215.268 45.7425 215.534 45.0654 216.067C44.3968 216.592 44.0625 217.324 44.0625 218.264C44.0625 219.017 44.3799 219.656 45.0146 220.181C45.6579 220.697 46.7454 221.171 48.2773 221.603C49.8177 222.034 51.0195 222.512 51.8828 223.037C52.7546 223.553 53.3978 224.159 53.8125 224.853C54.2357 225.547 54.4473 226.363 54.4473 227.303C54.4473 228.801 53.8633 230.003 52.6953 230.908C51.5273 231.805 49.9658 232.254 48.0107 232.254C46.7412 232.254 45.5563 232.013 44.4561 231.53C43.3558 231.039 42.5052 230.371 41.9043 229.524C41.3118 228.678 41.0156 227.717 41.0156 226.643H43.4658C43.4658 227.76 43.8763 228.644 44.6973 229.296C45.5267 229.939 46.6312 230.261 48.0107 230.261C49.2972 230.261 50.2832 229.998 50.9688 229.474C51.6543 228.949 51.9971 228.234 51.9971 227.328C51.9971 226.423 51.6797 225.724 51.0449 225.233C50.4102 224.734 49.2591 224.243 47.5918 223.761ZM69.377 228.763L72.0176 218.264H74.3662L70.3672 232H68.4629L65.124 221.59L61.874 232H59.9697L55.9834 218.264H58.3193L61.0234 228.547L64.2227 218.264H66.1143L69.377 228.763ZM85.2461 232C85.1107 231.729 85.0007 231.247 84.916 230.553C83.8242 231.687 82.5208 232.254 81.0059 232.254C79.6517 232.254 78.5387 231.873 77.667 231.111C76.8037 230.341 76.3721 229.368 76.3721 228.191C76.3721 226.761 76.9137 225.652 77.9971 224.865C79.0889 224.07 80.6208 223.672 82.5928 223.672H84.8779V222.593C84.8779 221.772 84.6325 221.12 84.1416 220.638C83.6507 220.147 82.9271 219.901 81.9707 219.901C81.1328 219.901 80.4303 220.113 79.8633 220.536C79.2962 220.959 79.0127 221.471 79.0127 222.072H76.6514C76.6514 221.387 76.8926 220.727 77.375 220.092C77.8659 219.449 78.526 218.941 79.3555 218.568C80.1934 218.196 81.1117 218.01 82.1104 218.01C83.693 218.01 84.9329 218.408 85.8301 219.203C86.7272 219.99 87.1927 221.078 87.2266 222.466V228.788C87.2266 230.049 87.3874 231.052 87.709 231.797V232H85.2461ZM81.3486 230.21C82.085 230.21 82.7832 230.02 83.4434 229.639C84.1035 229.258 84.5817 228.763 84.8779 228.153V225.335H83.0371C80.1595 225.335 78.7207 226.177 78.7207 227.861C78.7207 228.598 78.9661 229.173 79.457 229.588C79.9479 230.003 80.5785 230.21 81.3486 230.21ZM102.512 225.284C102.512 227.375 102.034 229.059 101.077 230.337C100.121 231.615 98.8258 232.254 97.1924 232.254C95.5251 232.254 94.2132 231.725 93.2568 230.667V237.281H90.9082V218.264H93.0537L93.168 219.787C94.1243 218.602 95.4531 218.01 97.1543 218.01C98.8047 218.01 100.108 218.632 101.064 219.876C102.029 221.12 102.512 222.851 102.512 225.068V225.284ZM100.163 225.018C100.163 223.469 99.833 222.246 99.1729 221.349C98.5127 220.451 97.6071 220.003 96.4561 220.003C95.0342 220.003 93.9678 220.633 93.2568 221.895V228.458C93.9593 229.711 95.0342 230.337 96.4814 230.337C97.6071 230.337 98.5 229.893 99.1602 229.004C99.8288 228.107 100.163 226.778 100.163 225.018ZM124.589 215.521H118.647V232H116.223V215.521H110.294V213.516H124.589V215.521ZM125.071 225.005C125.071 223.659 125.334 222.449 125.858 221.374C126.392 220.299 127.128 219.47 128.067 218.886C129.015 218.302 130.094 218.01 131.305 218.01C133.175 218.01 134.686 218.657 135.837 219.952C136.996 221.247 137.576 222.969 137.576 225.119V225.284C137.576 226.621 137.318 227.823 136.802 228.89C136.294 229.948 135.562 230.773 134.605 231.365C133.658 231.958 132.566 232.254 131.33 232.254C129.468 232.254 127.957 231.606 126.798 230.312C125.647 229.017 125.071 227.303 125.071 225.17V225.005ZM127.433 225.284C127.433 226.808 127.784 228.031 128.486 228.953C129.197 229.876 130.145 230.337 131.33 230.337C132.523 230.337 133.471 229.871 134.174 228.94C134.876 228.001 135.228 226.689 135.228 225.005C135.228 223.498 134.868 222.28 134.148 221.349C133.438 220.409 132.49 219.939 131.305 219.939C130.145 219.939 129.21 220.401 128.499 221.323C127.788 222.246 127.433 223.566 127.433 225.284ZM152.125 225.284C152.125 227.375 151.647 229.059 150.69 230.337C149.734 231.615 148.439 232.254 146.806 232.254C145.138 232.254 143.826 231.725 142.87 230.667V237.281H140.521V218.264H142.667L142.781 219.787C143.738 218.602 145.066 218.01 146.768 218.01C148.418 218.01 149.721 218.632 150.678 219.876C151.643 221.12 152.125 222.851 152.125 225.068V225.284ZM149.776 225.018C149.776 223.469 149.446 222.246 148.786 221.349C148.126 220.451 147.22 220.003 146.069 220.003C144.647 220.003 143.581 220.633 142.87 221.895V228.458C143.573 229.711 144.647 230.337 146.095 230.337C147.22 230.337 148.113 229.893 148.773 229.004C149.442 228.107 149.776 226.778 149.776 225.018ZM52.3525 257.176H44.6084L42.8691 262H40.3555L47.4141 243.516H49.5469L56.6182 262H54.1172L52.3525 257.176ZM45.3447 255.17H51.6289L48.4805 246.524L45.3447 255.17ZM60.96 248.264L61.0361 249.99C62.0856 248.67 63.4567 248.01 65.1494 248.01C68.0524 248.01 69.5166 249.647 69.542 252.923V262H67.1934V252.91C67.1849 251.92 66.9564 251.188 66.5078 250.714C66.0677 250.24 65.3779 250.003 64.4385 250.003C63.6768 250.003 63.0081 250.206 62.4326 250.612C61.8571 251.019 61.4085 251.552 61.0869 252.212V262H58.7383V248.264H60.96ZM72.5127 255.018C72.5127 252.91 73.012 251.217 74.0107 249.939C75.0094 248.653 76.3171 248.01 77.9336 248.01C79.5417 248.01 80.8154 248.56 81.7549 249.66V242.5H84.1035V262H81.9453L81.8311 260.527C80.8916 261.678 79.584 262.254 77.9082 262.254C76.3171 262.254 75.0179 261.602 74.0107 260.299C73.012 258.995 72.5127 257.294 72.5127 255.195V255.018ZM74.8613 255.284C74.8613 256.841 75.1829 258.06 75.8262 258.94C76.4694 259.821 77.3581 260.261 78.4922 260.261C79.9818 260.261 81.0693 259.592 81.7549 258.255V251.945C81.0524 250.65 79.9733 250.003 78.5176 250.003C77.3665 250.003 76.4694 250.447 75.8262 251.336C75.1829 252.225 74.8613 253.541 74.8613 255.284ZM94.5771 262V243.516H100.62C102.626 243.516 104.132 243.93 105.14 244.76C106.155 245.589 106.663 246.816 106.663 248.441C106.663 249.305 106.418 250.071 105.927 250.739C105.436 251.399 104.767 251.911 103.921 252.275C104.92 252.555 105.707 253.088 106.282 253.875C106.866 254.654 107.158 255.585 107.158 256.668C107.158 258.327 106.621 259.63 105.546 260.578C104.471 261.526 102.952 262 100.988 262H94.5771ZM97.0146 253.354V260.007H101.039C102.173 260.007 103.066 259.715 103.718 259.131C104.378 258.538 104.708 257.726 104.708 256.693C104.708 254.467 103.498 253.354 101.077 253.354H97.0146ZM97.0146 251.399H100.696C101.763 251.399 102.613 251.133 103.248 250.6C103.891 250.066 104.213 249.343 104.213 248.429C104.213 247.413 103.917 246.677 103.324 246.22C102.732 245.754 101.83 245.521 100.62 245.521H97.0146V251.399ZM109.786 255.005C109.786 253.659 110.049 252.449 110.573 251.374C111.106 250.299 111.843 249.47 112.782 248.886C113.73 248.302 114.809 248.01 116.02 248.01C117.89 248.01 119.401 248.657 120.552 249.952C121.711 251.247 122.291 252.969 122.291 255.119V255.284C122.291 256.621 122.033 257.823 121.517 258.89C121.009 259.948 120.277 260.773 119.32 261.365C118.372 261.958 117.281 262.254 116.045 262.254C114.183 262.254 112.672 261.606 111.513 260.312C110.362 259.017 109.786 257.303 109.786 255.17V255.005ZM112.147 255.284C112.147 256.808 112.499 258.031 113.201 258.953C113.912 259.876 114.86 260.337 116.045 260.337C117.238 260.337 118.186 259.871 118.889 258.94C119.591 258.001 119.942 256.689 119.942 255.005C119.942 253.498 119.583 252.28 118.863 251.349C118.152 250.409 117.204 249.939 116.02 249.939C114.86 249.939 113.925 250.401 113.214 251.323C112.503 252.246 112.147 253.566 112.147 255.284ZM128.423 244.938V248.264H130.987V250.079H128.423V258.598C128.423 259.148 128.537 259.562 128.766 259.842C128.994 260.113 129.383 260.248 129.934 260.248C130.204 260.248 130.577 260.197 131.051 260.096V262C130.433 262.169 129.832 262.254 129.248 262.254C128.199 262.254 127.407 261.937 126.874 261.302C126.341 260.667 126.074 259.766 126.074 258.598V250.079H123.573V248.264H126.074V244.938H128.423ZM136.929 244.938V248.264H139.493V250.079H136.929V258.598C136.929 259.148 137.043 259.562 137.271 259.842C137.5 260.113 137.889 260.248 138.439 260.248C138.71 260.248 139.083 260.197 139.557 260.096V262C138.939 262.169 138.338 262.254 137.754 262.254C136.704 262.254 135.913 261.937 135.38 261.302C134.847 260.667 134.58 259.766 134.58 258.598V250.079H132.079V248.264H134.58V244.938H136.929ZM141.372 255.005C141.372 253.659 141.634 252.449 142.159 251.374C142.692 250.299 143.429 249.47 144.368 248.886C145.316 248.302 146.395 248.01 147.605 248.01C149.476 248.01 150.987 248.657 152.138 249.952C153.297 251.247 153.877 252.969 153.877 255.119V255.284C153.877 256.621 153.619 257.823 153.103 258.89C152.595 259.948 151.863 260.773 150.906 261.365C149.958 261.958 148.867 262.254 147.631 262.254C145.769 262.254 144.258 261.606 143.099 260.312C141.948 259.017 141.372 257.303 141.372 255.17V255.005ZM143.733 255.284C143.733 256.808 144.085 258.031 144.787 258.953C145.498 259.876 146.446 260.337 147.631 260.337C148.824 260.337 149.772 259.871 150.475 258.94C151.177 258.001 151.528 256.689 151.528 255.005C151.528 253.498 151.169 252.28 150.449 251.349C149.738 250.409 148.79 249.939 147.605 249.939C146.446 249.939 145.511 250.401 144.8 251.323C144.089 252.246 143.733 253.566 143.733 255.284ZM159.031 248.264L159.095 249.787C160.102 248.602 161.46 248.01 163.17 248.01C165.091 248.01 166.399 248.746 167.093 250.219C167.55 249.559 168.142 249.025 168.87 248.619C169.606 248.213 170.474 248.01 171.473 248.01C174.486 248.01 176.018 249.605 176.068 252.796V262H173.72V252.936C173.72 251.954 173.495 251.222 173.047 250.739C172.598 250.248 171.845 250.003 170.787 250.003C169.915 250.003 169.192 250.265 168.616 250.79C168.041 251.306 167.706 252.005 167.613 252.885V262H165.252V252.999C165.252 251.002 164.274 250.003 162.319 250.003C160.779 250.003 159.725 250.659 159.158 251.971V262H156.81V248.264H159.031Z" fill="black"/>
<path d="M46.5 67.5L164 27.5L211 79V93V103.5V115.5L86 159.5L46.5 109.5V101.5V85V67.5Z" fill="#FF0000"/>
<path d="M46.5 67.5L164 27.5L211 79M46.5 67.5L86 126.5M46.5 67.5V85M211 79L86 126.5M211 79V93M86 126.5V137.5M86 137.5L211 93M86 137.5L46.5 85M86 137.5V149.5M211 93V103.5M46.5 85V101.5M86 149.5L211 103.5M86 149.5L46.5 101.5M86 149.5V159.5M211 103.5V115.5L86 159.5M46.5 101.5V109.5L86 159.5" stroke="black"/>
<path d="M41.4573 78.2138C41.5812 77.6756 41.2453 77.1389 40.7071 77.0151L31.9363 74.9968C31.3981 74.8729 30.8614 75.2088 30.7375 75.747C30.6136 76.2853 30.9496 76.822 31.4878 76.9458L39.284 78.7399L37.49 86.5361C37.3661 87.0743 37.702 87.611 38.2403 87.7349C38.7785 87.8587 39.3152 87.5228 39.439 86.9846L41.4573 78.2138ZM50.5756 121.503C45.796 121.141 40.6859 119.568 36.2444 117.081C31.7973 114.59 28.0913 111.222 26.0297 107.32C23.9865 103.453 23.5331 99.024 25.6242 94.2511C27.7339 89.4355 32.4748 84.1812 41.0133 78.8372L39.9523 77.1419C31.2285 82.6018 26.124 88.1263 23.7923 93.4485C21.4419 98.8134 21.9509 103.881 24.2613 108.254C26.5532 112.592 30.5916 116.207 35.267 118.825C39.948 121.447 45.3385 123.112 50.4244 123.497L50.5756 121.503Z" fill="white"/>
<path d="M217.036 109.692C216.894 110.226 217.211 110.774 217.744 110.917L226.439 113.24C226.973 113.382 227.521 113.065 227.664 112.532C227.806 111.998 227.489 111.45 226.956 111.307L219.227 109.242L221.292 101.514C221.434 100.98 221.117 100.432 220.584 100.289C220.05 100.147 219.502 100.464 219.36 100.997L217.036 109.692ZM209.434 66.1114C214.199 66.6402 219.251 68.3899 223.603 71.0312C227.96 73.6758 231.546 77.1709 233.47 81.1425C235.377 85.0784 235.676 89.5203 233.42 94.2173C231.143 98.9563 226.222 104.042 217.502 109.085L218.503 110.816C227.412 105.664 232.706 100.321 235.222 95.0834C237.759 89.8038 237.427 84.7211 235.27 80.2704C233.131 75.8554 229.221 72.1018 224.64 69.3214C220.054 66.5377 214.725 64.6863 209.655 64.1236L209.434 66.1114Z" fill="white"/>
</svg>
